M48
; DRILL file {KiCad 7.0.1} date Sun Mar 19 17:11:50 2023
; FORMAT={-:-/ absolute / metric / decimal}
; #@! TF.CreationDate,2023-03-19T17:11:50+00:00
; #@! TF.GenerationSoftware,Kicad,Pcbnew,7.0.1
; #@! TF.FileFunction,Plated,1,4,PTH
FMAT,2
METRIC
; #@! TA.AperFunction,Plated,PTH,ComponentDrill
T1C0.200
; #@! TA.AperFunction,Plated,PTH,ViaDrill
T2C0.400
; #@! TA.AperFunction,Plated,PTH,ComponentDrill
T3C0.600
%
G90
G05
T1
X180.475Y-94.29
X180.495Y-95.8
X181.225Y-93.56
X181.225Y-96.66
X181.265Y-95.08
X182.025Y-94.28
X182.035Y-95.86
X182.757Y-96.605
X182.775Y-95.1
X182.785Y-93.58
X183.595Y-94.28
X183.595Y-95.82
T2
X113.675Y-92.075
X114.25Y-102.75
X117.075Y-92.2
X117.1Y-83.5
X117.6Y-115.9
X117.9Y-118.7
X120.5Y-82.9
X120.7Y-108.8
X121.0Y-100.0
X121.9Y-107.6
X122.25Y-81.95
X122.9Y-112.4
X123.1Y-107.6
X125.44Y-103.655
X128.4Y-94.0
X128.45Y-100.95
X128.899Y-96.977
X130.8Y-103.7
X131.0Y-82.8
X131.375Y-73.379
X131.491Y-108.578
X131.5Y-89.403
X132.3Y-72.9
X132.491Y-107.9
X132.6Y-91.5
X133.4Y-106.5
X133.9Y-98.4
X133.953Y-114.71
X135.1Y-86.6
X135.5Y-78.2
X135.73Y-104.149
X135.9Y-116.8
X136.6Y-68.8
X136.9Y-81.9
X137.169Y-105.65
X137.587Y-70.599
X137.637Y-73.4
X138.966Y-107.149
X139.093Y-81.88
X140.499Y-81.9
X142.1Y-73.6
X142.234Y-71.966
X143.3Y-81.0
X143.9Y-105.3
X145.814Y-108.586
X146.2Y-96.9
X146.2Y-104.8
X146.65Y-111.75
X147.499Y-72.35
X147.5Y-106.1
X147.6Y-82.0
X147.8Y-118.7
X148.6Y-98.6
X149.597Y-81.85
X152.559Y-106.15
X152.9Y-86.5
X153.1Y-103.7
X153.8Y-91.2
X155.1Y-92.3
X155.7Y-87.2
X156.203Y-81.823
X156.8Y-89.8
X157.222Y-81.782
X157.5Y-87.9
X157.704Y-92.704
X159.2Y-87.2
X159.9Y-106.7
X160.2Y-109.6
X160.649Y-88.4
X161.4Y-73.9
X161.7Y-79.2
X161.9Y-69.2
X161.9Y-71.1
X162.181Y-72.872
X163.3Y-82.0
X163.45Y-112.8
X163.6Y-93.8
X163.9Y-95.2
X164.3Y-78.2
X165.4Y-79.05
X165.506Y-72.994
X166.5Y-73.1
X166.9Y-104.5
X167.1Y-98.9
X167.9Y-86.9
X168.1Y-74.7
X168.2Y-88.9
X168.2Y-113.5
X168.35Y-107.8
X168.7Y-109.524
X168.922Y-81.664
X169.3Y-79.8
X169.321Y-85.101
X169.4Y-111.975
X169.7Y-73.071
X169.757Y-86.597
X169.8Y-87.7
X170.2Y-113.5
X170.202Y-89.002
X170.3Y-90.0
X170.733Y-73.039
X171.076Y-104.284
X171.234Y-113.5
X171.73Y-73.101
X172.729Y-73.048
X172.953Y-88.764
X173.2Y-113.5
X173.359Y-110.459
X173.719Y-89.407
X173.724Y-73.134
X174.288Y-111.975
X174.3Y-105.45
X174.395Y-90.143
X174.736Y-73.114
X175.144Y-90.874
X175.362Y-110.962
X175.4Y-104.7
X176.136Y-91.0
X176.3Y-74.7
X177.101Y-84.211
X177.135Y-90.963
X177.6Y-81.8
X178.493Y-73.1
X178.55Y-104.889
X179.175Y-84.1
X179.2Y-89.5
X179.3Y-77.8
X179.3Y-113.0
X179.493Y-73.095
X180.237Y-89.46
X180.299Y-105.349
X180.322Y-84.078
X180.5Y-73.0
X180.65Y-88.55
X181.58Y-72.965
X181.7Y-109.9
X181.962Y-80.1
X182.0Y-81.9
X182.03Y-78.93
X182.492Y-104.692
X182.7Y-74.5
X182.999Y-84.307
X184.1Y-84.1
X184.255Y-104.477
X185.2Y-112.2
X185.4Y-84.2
X185.5Y-104.5
X185.55Y-91.6
X185.55Y-101.1
X186.2Y-112.1
X186.292Y-72.848
X186.4Y-83.4
X187.2Y-112.2
X187.295Y-72.86
X187.46Y-83.34
X188.065Y-101.5
X188.2Y-112.1
X188.33Y-73.1
X189.007Y-87.108
T3
G00X112.99Y-79.1
M15
G01X114.49Y-79.1
M16
G05
G00X112.99Y-87.74
M15
G01X114.49Y-87.74
M16
G05
G00X118.6Y-79.1
M15
G01X119.6Y-79.1
M16
G05
G00X118.6Y-87.74
M15
G01X119.6Y-87.74
M16
G05
T0
M30
