%TF.GenerationSoftware,KiCad,Pcbnew,7.0.1*%
%TF.CreationDate,2023-03-19T17:11:43+00:00*%
%TF.ProjectId,ImogenWren,496d6f67-656e-4577-9265-6e2e6b696361,rev?*%
%TF.SameCoordinates,Original*%
%TF.FileFunction,Copper,L3,Inr*%
%TF.FilePolarity,Positive*%
%FSLAX46Y46*%
G04 Gerber Fmt 4.6, Leading zero omitted, Abs format (unit mm)*
G04 Created by KiCad (PCBNEW 7.0.1) date 2023-03-19 17:11:43*
%MOMM*%
%LPD*%
G01*
G04 APERTURE LIST*
%TA.AperFunction,HeatsinkPad*%
%ADD10C,0.600000*%
%TD*%
%TA.AperFunction,ComponentPad*%
%ADD11O,2.600000X1.100000*%
%TD*%
%TA.AperFunction,ComponentPad*%
%ADD12O,2.100000X1.100000*%
%TD*%
%TA.AperFunction,ViaPad*%
%ADD13C,0.800000*%
%TD*%
%TA.AperFunction,Conductor*%
%ADD14C,0.800000*%
%TD*%
%TA.AperFunction,Conductor*%
%ADD15C,0.300000*%
%TD*%
%TA.AperFunction,Conductor*%
%ADD16C,0.250000*%
%TD*%
G04 APERTURE END LIST*
D10*
%TO.N,GND*%
%TO.C,U3*%
X181225000Y-96660000D03*
X182757500Y-96605000D03*
X182035000Y-95860000D03*
X183595000Y-95820000D03*
X180495000Y-95800000D03*
X182775000Y-95100000D03*
X181265000Y-95080000D03*
X180475000Y-94290000D03*
X183595000Y-94280000D03*
X182025000Y-94280000D03*
X182785000Y-93580000D03*
X181225000Y-93560000D03*
%TD*%
D11*
%TO.N,GND*%
%TO.C,J8*%
X113740000Y-87740000D03*
D12*
X119100000Y-87740000D03*
D11*
X113740000Y-79100000D03*
D12*
X119100000Y-79100000D03*
%TD*%
D13*
%TO.N,GND*%
X182700000Y-74500000D03*
%TO.N,/ESP32/3V3_BUS*%
X176300000Y-74700000D03*
X182000000Y-81900000D03*
X180500000Y-73000000D03*
X168100000Y-74700000D03*
%TO.N,Net-(Q1-B)*%
X167900000Y-86900000D03*
%TO.N,/ESP32/3V3_BUS*%
X188065000Y-101500000D03*
%TO.N,Net-(Q2-E)*%
X142234340Y-71965660D03*
X169300000Y-79800000D03*
%TO.N,Net-(Q1-E)*%
X142100000Y-73600000D03*
%TO.N,Net-(U3-GPIO27(T7))*%
X175400000Y-104700000D03*
X170200000Y-113500000D03*
%TO.N,Net-(U3-GPIO14(T6))*%
X174300000Y-105449500D03*
X171233992Y-113500000D03*
%TO.N,/BATTERY_POWER*%
X121900000Y-107600000D03*
%TO.N,/BATTERY_POWER_BUS*%
X147800000Y-118700000D03*
X123100000Y-107600000D03*
%TO.N,/USB_POWER*%
X117075000Y-92200000D03*
%TO.N,/ESP32/USB ESP32 CH340 Interface /ESP_EN*%
X185550500Y-91600000D03*
%TO.N,/ESP32/SSERIAL_RX*%
X180650000Y-88550000D03*
%TO.N,/ESP32/SSERIAL_TX*%
X180236931Y-89460154D03*
%TO.N,Net-(U3-GPIO4(T0))*%
X179200000Y-89500000D03*
%TO.N,/ESP32/USB ESP32 CH340 Interface /TxD_B*%
X132300000Y-72900000D03*
X184100000Y-84100000D03*
%TO.N,/ESP32/USB ESP32 CH340 Interface /RxD_B*%
X131375210Y-73379169D03*
X185400000Y-84200000D03*
%TO.N,/BATTERY_POWER*%
X135900000Y-116800000D03*
X117600000Y-115900000D03*
%TO.N,/BATTERY_POWER_BUS*%
X135730025Y-104149500D03*
X161900000Y-69200000D03*
X136600000Y-68800000D03*
X140499000Y-81900000D03*
X131491396Y-108577889D03*
X181580139Y-72964585D03*
%TO.N,GND*%
X146200000Y-96900000D03*
X145814000Y-108586000D03*
X133900000Y-98400000D03*
X189007500Y-87107500D03*
X152558502Y-106150500D03*
X149596972Y-81850500D03*
X138966000Y-107149500D03*
X155700001Y-87200000D03*
X137587000Y-70599500D03*
X136900000Y-81900000D03*
X167100000Y-98900000D03*
X148600000Y-98600000D03*
X137637000Y-73400000D03*
X131500000Y-89402515D03*
X157704250Y-92704250D03*
X147498776Y-72350500D03*
X128899500Y-96977140D03*
X113675000Y-92075000D03*
X160200000Y-109600000D03*
X114250001Y-102750002D03*
X143300000Y-81000000D03*
X162180669Y-72871597D03*
%TO.N,/ESP32/3V3_BUS*%
X163450000Y-112800000D03*
X181699999Y-109899999D03*
%TO.N,/ESP32/USB ESP32 CH340 Interface /ESP_EN*%
X185550500Y-101100000D03*
X166900000Y-104500000D03*
X177600000Y-81800000D03*
%TO.N,/USB_POWER*%
X125439990Y-103655304D03*
X122900000Y-112400000D03*
%TO.N,/USB/D-*%
X122250000Y-81950000D03*
X117100000Y-83500000D03*
X120500000Y-82900000D03*
%TO.N,/WS2812b LEDs/5V_IN*%
X163900000Y-95200000D03*
X147600000Y-82000000D03*
X137168998Y-105650500D03*
X155100000Y-92300000D03*
X135100000Y-86600000D03*
X135500000Y-78200000D03*
X131000000Y-82800000D03*
X132600000Y-91500000D03*
X130800000Y-103700000D03*
X160649500Y-88400000D03*
X156800000Y-89800000D03*
X153099999Y-103699999D03*
X132490896Y-107900000D03*
X152900000Y-86500000D03*
X128450250Y-100949750D03*
X128400000Y-94000000D03*
X143900000Y-105300000D03*
X139093000Y-81880236D03*
X147500000Y-106100000D03*
X159900000Y-106700000D03*
X157221934Y-81781888D03*
%TO.N,23*%
X187460000Y-83340000D03*
X188330000Y-73100000D03*
%TO.N,Net-(U3-SDI{slash}SD1)*%
X169700001Y-73070567D03*
X172953399Y-88764439D03*
%TO.N,Net-(U3-SDO{slash}SD0)*%
X170732902Y-73038639D03*
X173718720Y-89407314D03*
%TO.N,Net-(U3-SCK{slash}CLK)*%
X174394954Y-90143326D03*
X171730448Y-73101148D03*
%TO.N,Net-(U3-SCS{slash}CMD)*%
X175144454Y-90873806D03*
X172728527Y-73047835D03*
%TO.N,Net-(U3-SWP{slash}SD3)*%
X176135958Y-91000000D03*
X173724339Y-73133651D03*
%TO.N,Net-(U3-SHD{slash}SD2)*%
X174736243Y-73114048D03*
X177134763Y-90962672D03*
%TO.N,Net-(U3-GPIO4(T0))*%
X179300000Y-113000000D03*
%TO.N,Net-(U3-GPIO2(T2))*%
X170202500Y-89002500D03*
X168350500Y-107800000D03*
X175362299Y-110962300D03*
%TO.N,Net-(U3-GPIO15(T3))*%
X174287701Y-111975500D03*
X170300000Y-90000000D03*
X168700000Y-109523501D03*
%TO.N,Net-(U3-GPIO13(T4))*%
X173200000Y-113500000D03*
X171076331Y-104283624D03*
%TO.N,Net-(U3-GPIO33(T8))*%
X173358758Y-110458758D03*
X178550500Y-104888509D03*
X169400000Y-111975500D03*
%TO.N,Net-(U3-GPIO32(T9))*%
X180299154Y-105349500D03*
X168200000Y-113500000D03*
%TO.N,Net-(Q1-B)*%
X168921611Y-81663607D03*
X169320759Y-85100850D03*
%TO.N,Net-(Q1-E)*%
X168200000Y-88900000D03*
X163300000Y-82000000D03*
%TO.N,/ESP32/LED_DATA_OUT*%
X177101318Y-84210772D03*
X153800000Y-91200000D03*
%TO.N,SCL*%
X186400000Y-83400000D03*
X178493112Y-73099967D03*
X179300000Y-77800000D03*
X181961500Y-80100000D03*
%TO.N,SDA*%
X182999500Y-84306754D03*
X182029624Y-78929624D03*
X179492600Y-73094598D03*
%TO.N,/CHARGE_STATUS*%
X117900000Y-118700000D03*
X182492500Y-104692500D03*
%TO.N,18*%
X186292386Y-72847660D03*
X179175000Y-84100000D03*
%TO.N,Net-(U3-SENSOR_VP)*%
X188200000Y-112100000D03*
X185500000Y-104500000D03*
%TO.N,Net-(U3-SENSOR_VN)*%
X187200000Y-112200000D03*
X184255000Y-104476866D03*
%TO.N,Net-(J7-PadA3)*%
X165506401Y-72993599D03*
X161400000Y-73900000D03*
%TO.N,Net-(D2-K)*%
X169800000Y-87700000D03*
X161700000Y-79200000D03*
%TO.N,/ESP32/SSERIAL_TX*%
X185200000Y-112200000D03*
%TO.N,/ESP32/SSERIAL_RX*%
X186200000Y-112100000D03*
%TO.N,Net-(J7-PadA4)*%
X166500222Y-73100024D03*
X164300000Y-78200000D03*
%TO.N,19*%
X180322500Y-84077500D03*
X187294698Y-72859515D03*
%TO.N,Net-(WLED1-DOUT)*%
X163600000Y-93800000D03*
X159200000Y-87200000D03*
%TO.N,Net-(WLED2-DOUT)*%
X156202800Y-81822708D03*
X157500000Y-87900000D03*
%TO.N,Net-(WLED10-DIN)*%
X133400000Y-106500000D03*
X146650000Y-111750000D03*
%TO.N,Net-(JP3-C)*%
X146200000Y-104800000D03*
X121000000Y-100000000D03*
%TO.N,Net-(SW1-B)*%
X133953246Y-114710500D03*
X120700000Y-108800000D03*
%TO.N,Net-(D3-K)*%
X169756578Y-86596623D03*
X161900000Y-71100000D03*
X165400000Y-79050500D03*
%TD*%
D14*
%TO.N,/ESP32/3V3_BUS*%
X180961500Y-80861500D02*
X182000000Y-81900000D01*
X176300000Y-77000000D02*
X180161500Y-80861500D01*
X180161500Y-80861500D02*
X180961500Y-80861500D01*
X176300000Y-74700000D02*
X176300000Y-77000000D01*
D15*
%TO.N,SCL*%
X178493112Y-76993112D02*
X178493112Y-73099967D01*
X179300000Y-77800000D02*
X178493112Y-76993112D01*
%TO.N,SDA*%
X179497867Y-73094598D02*
X179492600Y-73094598D01*
X182029624Y-78929624D02*
X182029624Y-75626355D01*
X182029624Y-75626355D02*
X179497867Y-73094598D01*
%TO.N,Net-(Q1-B)*%
X169320759Y-85100850D02*
X169320759Y-85479241D01*
X169320759Y-85479241D02*
X167900000Y-86900000D01*
%TO.N,/ESP32/LED_DATA_OUT*%
X167189228Y-84210772D02*
X177101318Y-84210772D01*
X160200000Y-91200000D02*
X167189228Y-84210772D01*
X153800000Y-91200000D02*
X160200000Y-91200000D01*
%TO.N,Net-(U3-GPIO4(T0))*%
X179300000Y-89600000D02*
X179300000Y-113000000D01*
X179200000Y-89500000D02*
X179300000Y-89600000D01*
D16*
%TO.N,Net-(U3-GPIO13(T4))*%
X171076331Y-111376331D02*
X173200000Y-113500000D01*
X171076331Y-104283624D02*
X171076331Y-111376331D01*
D15*
%TO.N,Net-(U3-GPIO27(T7))*%
X170200000Y-104100000D02*
X170200000Y-113500000D01*
X170800000Y-103500000D02*
X170200000Y-104100000D01*
X175400000Y-104700000D02*
X174200000Y-103500000D01*
X174200000Y-103500000D02*
X170800000Y-103500000D01*
%TO.N,Net-(J7-PadA3)*%
X161700000Y-74200000D02*
X161400000Y-73900000D01*
X164300000Y-74200000D02*
X161700000Y-74200000D01*
X165506401Y-72993599D02*
X164300000Y-74200000D01*
%TO.N,Net-(Q2-E)*%
X143638680Y-73370000D02*
X142234340Y-71965660D01*
X160600000Y-81100000D02*
X152870000Y-73370000D01*
X164300000Y-79800000D02*
X163000000Y-81100000D01*
X169300000Y-79800000D02*
X164300000Y-79800000D01*
%TO.N,Net-(Q1-E)*%
X160300000Y-82000000D02*
X163300000Y-82000000D01*
X142369501Y-73869501D02*
X152169501Y-73869501D01*
X142100000Y-73600000D02*
X142369501Y-73869501D01*
%TO.N,Net-(Q2-E)*%
X163000000Y-81100000D02*
X160600000Y-81100000D01*
%TO.N,Net-(Q1-E)*%
X152169501Y-73869501D02*
X160300000Y-82000000D01*
%TO.N,Net-(Q2-E)*%
X152870000Y-73370000D02*
X143638680Y-73370000D01*
D14*
%TO.N,/BATTERY_POWER*%
X119000000Y-117300000D02*
X117600000Y-115900000D01*
X135400000Y-117300000D02*
X119000000Y-117300000D01*
X135900000Y-116800000D02*
X135400000Y-117300000D01*
D15*
%TO.N,/ESP32/USB ESP32 CH340 Interface /RxD_B*%
X132610454Y-72150500D02*
X131989546Y-72150500D01*
X135009454Y-74549500D02*
X132610454Y-72150500D01*
X152049500Y-74549500D02*
X135009454Y-74549500D01*
X131989546Y-72150500D02*
X131375210Y-72764836D01*
X185400000Y-84200000D02*
X184000499Y-82800499D01*
X160300499Y-82800499D02*
X152049500Y-74549500D01*
X131375210Y-72764836D02*
X131375210Y-73379169D01*
X184000499Y-82800499D02*
X160300499Y-82800499D01*
%TO.N,/ESP32/USB ESP32 CH340 Interface /ESP_EN*%
X186200000Y-92249500D02*
X185550500Y-91600000D01*
X186200000Y-100450500D02*
X186200000Y-92249500D01*
X185550500Y-101100000D02*
X186200000Y-100450500D01*
%TO.N,Net-(U3-GPIO33(T8))*%
X178550500Y-105267017D02*
X173358758Y-110458758D01*
X178550500Y-104888509D02*
X178550500Y-105267017D01*
D14*
%TO.N,/BATTERY_POWER_BUS*%
X147800000Y-118552788D02*
X147800000Y-118700000D01*
X143847212Y-114600000D02*
X147800000Y-118552788D01*
X136800000Y-114600000D02*
X143847212Y-114600000D01*
X131491396Y-108577889D02*
X131491396Y-109291396D01*
X131491396Y-109291396D02*
X136800000Y-114600000D01*
X130513507Y-107600000D02*
X131491396Y-108577889D01*
X123100000Y-107600000D02*
X130513507Y-107600000D01*
D15*
%TO.N,/ESP32/USB ESP32 CH340 Interface /TxD_B*%
X151600000Y-75100000D02*
X134500000Y-75100000D01*
X159800000Y-83300000D02*
X151600000Y-75100000D01*
X183300000Y-83300000D02*
X159800000Y-83300000D01*
X134500000Y-75100000D02*
X132300000Y-72900000D01*
X184100000Y-84100000D02*
X183300000Y-83300000D01*
%TO.N,Net-(U3-SENSOR_VN)*%
X187200000Y-112000000D02*
X187200000Y-112200000D01*
X184255000Y-109055000D02*
X187200000Y-112000000D01*
X184255000Y-104476866D02*
X184255000Y-109055000D01*
%TO.N,Net-(U3-SENSOR_VP)*%
X188200000Y-111900000D02*
X188200000Y-112100000D01*
X185500000Y-104500000D02*
X185500000Y-109200000D01*
X185500000Y-109200000D02*
X188200000Y-111900000D01*
%TO.N,Net-(WLED2-DOUT)*%
X156100000Y-81925508D02*
X156202800Y-81822708D01*
X156100000Y-86500000D02*
X156100000Y-81925508D01*
X157500000Y-87900000D02*
X156100000Y-86500000D01*
%TO.N,23*%
X186910000Y-74520000D02*
X186910000Y-82790000D01*
X188330000Y-73100000D02*
X186910000Y-74520000D01*
X186910000Y-82790000D02*
X187460000Y-83340000D01*
D14*
%TO.N,Net-(SW1-B)*%
X133190500Y-114710500D02*
X133953246Y-114710500D01*
X127280000Y-108800000D02*
X133190500Y-114710500D01*
X120700000Y-108800000D02*
X127280000Y-108800000D01*
%TO.N,/BATTERY_POWER_BUS*%
X137000000Y-69200000D02*
X161900000Y-69200000D01*
X136600000Y-68800000D02*
X137000000Y-69200000D01*
D15*
%TO.N,/WS2812b LEDs/5V_IN*%
X156800000Y-89800000D02*
X159249500Y-89800000D01*
X159249500Y-89800000D02*
X160649500Y-88400000D01*
X156500000Y-93700000D02*
X155100000Y-92300000D01*
X163900000Y-95200000D02*
X162400000Y-93700000D01*
X162400000Y-93700000D02*
X156500000Y-93700000D01*
%TO.N,Net-(U3-GPIO2(T2))*%
X168600998Y-96992601D02*
X168600998Y-99100002D01*
X168900000Y-90305000D02*
X168900000Y-96693598D01*
X168600998Y-99100002D02*
X168350500Y-99350500D01*
X168900000Y-96693598D02*
X168600998Y-96992601D01*
X168350500Y-99350500D02*
X168350500Y-107800000D01*
X170202500Y-89002500D02*
X168900000Y-90305000D01*
%TO.N,Net-(U3-GPIO15(T3))*%
X169100499Y-97199501D02*
X169100499Y-109123002D01*
X170300000Y-96000000D02*
X169100499Y-97199501D01*
X170300000Y-90000000D02*
X170300000Y-96000000D01*
X169100499Y-109123002D02*
X168700000Y-109523501D01*
%TO.N,Net-(J7-PadA4)*%
X164300000Y-75300000D02*
X166499976Y-73100024D01*
X166499976Y-73100024D02*
X166500222Y-73100024D01*
X164300000Y-78200000D02*
X164300000Y-75300000D01*
%TO.N,Net-(WLED10-DIN)*%
X133400000Y-106500000D02*
X133500000Y-106400000D01*
X141300000Y-106400000D02*
X146650000Y-111750000D01*
X133500000Y-106400000D02*
X141300000Y-106400000D01*
%TO.N,Net-(JP3-C)*%
X123905804Y-102905804D02*
X144305804Y-102905804D01*
X121000000Y-100000000D02*
X123905804Y-102905804D01*
X144305804Y-102905804D02*
X146200000Y-104800000D01*
%TD*%
M02*
