%TF.GenerationSoftware,KiCad,Pcbnew,7.0.1*%
%TF.CreationDate,2023-03-19T17:11:43+00:00*%
%TF.ProjectId,ImogenWren,496d6f67-656e-4577-9265-6e2e6b696361,rev?*%
%TF.SameCoordinates,Original*%
%TF.FileFunction,Soldermask,Bot*%
%TF.FilePolarity,Negative*%
%FSLAX46Y46*%
G04 Gerber Fmt 4.6, Leading zero omitted, Abs format (unit mm)*
G04 Created by KiCad (PCBNEW 7.0.1) date 2023-03-19 17:11:43*
%MOMM*%
%LPD*%
G01*
G04 APERTURE LIST*
G04 Aperture macros list*
%AMRoundRect*
0 Rectangle with rounded corners*
0 $1 Rounding radius*
0 $2 $3 $4 $5 $6 $7 $8 $9 X,Y pos of 4 corners*
0 Add a 4 corners polygon primitive as box body*
4,1,4,$2,$3,$4,$5,$6,$7,$8,$9,$2,$3,0*
0 Add four circle primitives for the rounded corners*
1,1,$1+$1,$2,$3*
1,1,$1+$1,$4,$5*
1,1,$1+$1,$6,$7*
1,1,$1+$1,$8,$9*
0 Add four rect primitives between the rounded corners*
20,1,$1+$1,$2,$3,$4,$5,0*
20,1,$1+$1,$4,$5,$6,$7,0*
20,1,$1+$1,$6,$7,$8,$9,0*
20,1,$1+$1,$8,$9,$2,$3,0*%
%AMRotRect*
0 Rectangle, with rotation*
0 The origin of the aperture is its center*
0 $1 length*
0 $2 width*
0 $3 Rotation angle, in degrees counterclockwise*
0 Add horizontal line*
21,1,$1,$2,0,0,$3*%
%AMFreePoly0*
4,1,19,0.550000,-0.750000,0.000000,-0.750000,0.000000,-0.744911,-0.071157,-0.744911,-0.207708,-0.704816,-0.327430,-0.627875,-0.420627,-0.520320,-0.479746,-0.390866,-0.500000,-0.250000,-0.500000,0.250000,-0.479746,0.390866,-0.420627,0.520320,-0.327430,0.627875,-0.207708,0.704816,-0.071157,0.744911,0.000000,0.744911,0.000000,0.750000,0.550000,0.750000,0.550000,-0.750000,0.550000,-0.750000,
$1*%
%AMFreePoly1*
4,1,19,0.000000,0.744911,0.071157,0.744911,0.207708,0.704816,0.327430,0.627875,0.420627,0.520320,0.479746,0.390866,0.500000,0.250000,0.500000,-0.250000,0.479746,-0.390866,0.420627,-0.520320,0.327430,-0.627875,0.207708,-0.704816,0.071157,-0.744911,0.000000,-0.744911,0.000000,-0.750000,-0.550000,-0.750000,-0.550000,0.750000,0.000000,0.750000,0.000000,0.744911,0.000000,0.744911,
$1*%
%AMFreePoly2*
4,1,19,0.500000,-0.750000,0.000000,-0.750000,0.000000,-0.744911,-0.071157,-0.744911,-0.207708,-0.704816,-0.327430,-0.627875,-0.420627,-0.520320,-0.479746,-0.390866,-0.500000,-0.250000,-0.500000,0.250000,-0.479746,0.390866,-0.420627,0.520320,-0.327430,0.627875,-0.207708,0.704816,-0.071157,0.744911,0.000000,0.744911,0.000000,0.750000,0.500000,0.750000,0.500000,-0.750000,0.500000,-0.750000,
$1*%
%AMFreePoly3*
4,1,19,0.000000,0.744911,0.071157,0.744911,0.207708,0.704816,0.327430,0.627875,0.420627,0.520320,0.479746,0.390866,0.500000,0.250000,0.500000,-0.250000,0.479746,-0.390866,0.420627,-0.520320,0.327430,-0.627875,0.207708,-0.704816,0.071157,-0.744911,0.000000,-0.744911,0.000000,-0.750000,-0.500000,-0.750000,-0.500000,0.750000,0.000000,0.750000,0.000000,0.744911,0.000000,0.744911,
$1*%
G04 Aperture macros list end*
%ADD10C,0.300000*%
%ADD11R,0.900000X1.500000*%
%ADD12R,1.500000X0.900000*%
%ADD13C,0.600000*%
%ADD14R,4.200000X4.200000*%
%ADD15C,1.200000*%
%ADD16C,2.200000*%
%ADD17C,3.200000*%
%ADD18RoundRect,0.250000X-0.475000X0.337500X-0.475000X-0.337500X0.475000X-0.337500X0.475000X0.337500X0*%
%ADD19R,0.700000X4.300000*%
%ADD20RoundRect,0.250000X0.400000X0.275000X-0.400000X0.275000X-0.400000X-0.275000X0.400000X-0.275000X0*%
%ADD21RoundRect,0.250000X-0.275000X-0.350000X0.275000X-0.350000X0.275000X0.350000X-0.275000X0.350000X0*%
%ADD22RoundRect,0.250000X-0.450000X0.325000X-0.450000X-0.325000X0.450000X-0.325000X0.450000X0.325000X0*%
%ADD23RoundRect,0.250000X-0.337500X-0.475000X0.337500X-0.475000X0.337500X0.475000X-0.337500X0.475000X0*%
%ADD24RoundRect,0.150000X0.150000X-0.825000X0.150000X0.825000X-0.150000X0.825000X-0.150000X-0.825000X0*%
%ADD25FreePoly0,0.000000*%
%ADD26R,1.000000X1.500000*%
%ADD27FreePoly1,0.000000*%
%ADD28FreePoly0,270.000000*%
%ADD29R,1.500000X1.000000*%
%ADD30FreePoly1,270.000000*%
%ADD31RotRect,1.500000X0.900000X150.000000*%
%ADD32RoundRect,0.250000X0.054784X0.580112X-0.529784X0.242612X-0.054784X-0.580112X0.529784X-0.242612X0*%
%ADD33RoundRect,0.250000X-0.350000X-0.450000X0.350000X-0.450000X0.350000X0.450000X-0.350000X0.450000X0*%
%ADD34RoundRect,0.250000X0.350000X0.450000X-0.350000X0.450000X-0.350000X-0.450000X0.350000X-0.450000X0*%
%ADD35RoundRect,0.250000X0.580112X-0.054784X0.242612X0.529784X-0.580112X0.054784X-0.242612X-0.529784X0*%
%ADD36RoundRect,0.284615X0.455385X0.565385X-0.455385X0.565385X-0.455385X-0.565385X0.455385X-0.565385X0*%
%ADD37RoundRect,0.286538X0.458462X0.563462X-0.458462X0.563462X-0.458462X-0.563462X0.458462X-0.563462X0*%
%ADD38RoundRect,0.250000X-0.450000X0.350000X-0.450000X-0.350000X0.450000X-0.350000X0.450000X0.350000X0*%
%ADD39RoundRect,0.250000X-0.580112X0.054784X-0.242612X-0.529784X0.580112X-0.054784X0.242612X0.529784X0*%
%ADD40RoundRect,0.250000X0.337500X0.475000X-0.337500X0.475000X-0.337500X-0.475000X0.337500X-0.475000X0*%
%ADD41FreePoly2,180.000000*%
%ADD42FreePoly3,180.000000*%
%ADD43RotRect,1.500000X0.900000X120.000000*%
%ADD44RotRect,1.500000X0.900000X60.000000*%
%ADD45R,4.300000X0.700000*%
%ADD46R,0.700000X0.300000*%
%ADD47R,0.700000X1.000000*%
%ADD48O,2.600000X1.100000*%
%ADD49O,2.100000X1.100000*%
%ADD50RotRect,1.500000X0.900000X300.000000*%
%ADD51R,2.000000X1.500000*%
%ADD52R,2.000000X3.800000*%
%ADD53RoundRect,0.250000X0.529784X0.242612X-0.054784X0.580112X-0.529784X-0.242612X0.054784X-0.580112X0*%
%ADD54RoundRect,0.250000X0.450000X-0.350000X0.450000X0.350000X-0.450000X0.350000X-0.450000X-0.350000X0*%
%ADD55RoundRect,0.250000X-0.529784X-0.242612X0.054784X-0.580112X0.529784X0.242612X-0.054784X0.580112X0*%
%ADD56RoundRect,0.250000X-1.750000X-1.000000X1.750000X-1.000000X1.750000X1.000000X-1.750000X1.000000X0*%
%ADD57RoundRect,0.150000X-0.587500X-0.150000X0.587500X-0.150000X0.587500X0.150000X-0.587500X0.150000X0*%
%ADD58R,1.000000X0.800000*%
%ADD59C,0.900000*%
%ADD60R,0.700000X1.500000*%
%ADD61RotRect,1.500000X0.900000X210.000000*%
%ADD62RotRect,1.500000X0.900000X30.000000*%
%ADD63RotRect,1.500000X0.900000X330.000000*%
%ADD64RoundRect,0.250000X0.242612X-0.529784X0.580112X0.054784X-0.242612X0.529784X-0.580112X-0.054784X0*%
%ADD65R,1.600000X2.000000*%
%ADD66RoundRect,0.250000X-0.054784X-0.580112X0.529784X-0.242612X0.054784X0.580112X-0.529784X0.242612X0*%
%ADD67RotRect,1.500000X0.900000X240.000000*%
%ADD68RoundRect,0.150000X0.587500X0.150000X-0.587500X0.150000X-0.587500X-0.150000X0.587500X-0.150000X0*%
%ADD69RoundRect,0.250000X-0.242612X0.529784X-0.580112X-0.054784X0.242612X-0.529784X0.580112X0.054784X0*%
%ADD70RoundRect,0.250000X0.475000X-0.337500X0.475000X0.337500X-0.475000X0.337500X-0.475000X-0.337500X0*%
%ADD71R,1.874000X4.300000*%
%ADD72RoundRect,0.150000X-0.512500X-0.150000X0.512500X-0.150000X0.512500X0.150000X-0.512500X0.150000X0*%
G04 APERTURE END LIST*
D10*
G36*
X151749156Y-98403385D02*
G01*
X151743131Y-98389923D01*
X151736293Y-98373058D01*
X151730225Y-98356150D01*
X151724926Y-98339198D01*
X151720396Y-98322204D01*
X151716636Y-98305166D01*
X151714749Y-98294923D01*
X151712263Y-98277888D01*
X151710729Y-98261159D01*
X151710147Y-98244736D01*
X151710517Y-98228619D01*
X151711839Y-98212808D01*
X151714113Y-98197303D01*
X151715289Y-98191187D01*
X151718946Y-98176049D01*
X151723753Y-98161304D01*
X151729710Y-98146950D01*
X151736816Y-98132987D01*
X151745073Y-98119416D01*
X151754479Y-98106237D01*
X151758563Y-98101074D01*
X151769491Y-98088526D01*
X151781697Y-98076644D01*
X151795181Y-98065429D01*
X151809944Y-98054882D01*
X151822674Y-98046924D01*
X151836223Y-98039394D01*
X151850590Y-98032290D01*
X151864476Y-98026000D01*
X151878118Y-98020193D01*
X151895929Y-98013201D01*
X151913306Y-98007069D01*
X151930251Y-98001795D01*
X151946762Y-97997380D01*
X151962839Y-97993824D01*
X151978484Y-97991127D01*
X151986144Y-97990101D01*
X152001086Y-97988553D01*
X152019240Y-97987323D01*
X152036813Y-97986878D01*
X152053804Y-97987217D01*
X152070213Y-97988341D01*
X152086041Y-97990249D01*
X152095258Y-97991771D01*
X152110068Y-97994720D01*
X152124424Y-97998138D01*
X152141054Y-98002856D01*
X152157031Y-98008248D01*
X152172356Y-98014314D01*
X152182211Y-98018732D01*
X152196346Y-98025476D01*
X152209987Y-98032137D01*
X152223136Y-98038716D01*
X152237852Y-98046287D01*
X152251897Y-98053745D01*
X152265305Y-98060627D01*
X152280059Y-98067573D01*
X152294204Y-98073540D01*
X152309390Y-98079082D01*
X152323920Y-98082468D01*
X152339863Y-98082423D01*
X152355596Y-98078371D01*
X152360275Y-98076374D01*
X152374083Y-98068273D01*
X152385253Y-98058076D01*
X152393782Y-98045785D01*
X152397381Y-98038051D01*
X152402736Y-98022930D01*
X152407159Y-98008305D01*
X152411264Y-97992565D01*
X152414596Y-97977877D01*
X152417701Y-97962421D01*
X152421025Y-97946438D01*
X152424568Y-97929928D01*
X152427778Y-97915357D01*
X152430576Y-97902918D01*
X152434421Y-97887666D01*
X152439225Y-97872337D01*
X152444987Y-97856931D01*
X152451708Y-97841447D01*
X152459388Y-97825886D01*
X152462161Y-97820681D01*
X152469674Y-97807581D01*
X152478178Y-97794532D01*
X152487672Y-97781535D01*
X152498158Y-97768588D01*
X152509635Y-97755692D01*
X152522103Y-97742848D01*
X152527367Y-97737724D01*
X152538476Y-97727617D01*
X152550595Y-97717697D01*
X152563722Y-97707963D01*
X152577858Y-97698415D01*
X152593004Y-97689053D01*
X152609158Y-97679878D01*
X152626322Y-97670889D01*
X152639857Y-97664270D01*
X152644494Y-97662087D01*
X152658297Y-97656036D01*
X152675382Y-97649634D01*
X152692279Y-97644524D01*
X152708989Y-97640705D01*
X152725512Y-97638178D01*
X152741847Y-97636942D01*
X152751559Y-97636820D01*
X152767337Y-97637476D01*
X152782719Y-97639186D01*
X152797704Y-97641949D01*
X152812292Y-97645766D01*
X152826483Y-97650636D01*
X152840277Y-97656560D01*
X152845683Y-97659224D01*
X152858788Y-97666480D01*
X152871532Y-97674615D01*
X152883916Y-97683628D01*
X152895941Y-97693519D01*
X152907605Y-97704289D01*
X152918908Y-97715938D01*
X152923329Y-97720843D01*
X152933897Y-97733516D01*
X152943944Y-97746767D01*
X152953472Y-97760595D01*
X152962480Y-97775002D01*
X152970967Y-97789987D01*
X152978935Y-97805550D01*
X152981977Y-97811937D01*
X152988083Y-97825324D01*
X152996700Y-97845332D01*
X153004665Y-97865252D01*
X153011979Y-97885086D01*
X153018640Y-97904833D01*
X153024651Y-97924493D01*
X153030009Y-97944066D01*
X153034716Y-97963551D01*
X153038771Y-97982950D01*
X153042175Y-98002263D01*
X153044927Y-98021488D01*
X153047098Y-98040696D01*
X153048883Y-98059899D01*
X153050282Y-98079098D01*
X153051295Y-98098292D01*
X153051923Y-98117481D01*
X153052164Y-98136665D01*
X153052019Y-98155845D01*
X153051489Y-98175020D01*
X153050572Y-98194190D01*
X153049269Y-98213355D01*
X153048187Y-98226129D01*
X153046262Y-98245226D01*
X153044053Y-98264320D01*
X153041558Y-98283412D01*
X153038778Y-98302502D01*
X153035713Y-98321591D01*
X153032363Y-98340677D01*
X153028727Y-98359761D01*
X153024807Y-98378843D01*
X153020601Y-98397923D01*
X153016110Y-98417001D01*
X153012958Y-98429719D01*
X153008042Y-98448866D01*
X153003066Y-98468098D01*
X152998030Y-98487415D01*
X152992934Y-98506817D01*
X152987779Y-98526303D01*
X152982563Y-98545874D01*
X152977288Y-98565530D01*
X152971952Y-98585271D01*
X152966557Y-98605096D01*
X152961101Y-98625007D01*
X152957431Y-98638327D01*
X152953132Y-98655145D01*
X152948777Y-98671904D01*
X152944366Y-98688603D01*
X152939899Y-98705244D01*
X152935376Y-98721825D01*
X152933855Y-98727339D01*
X152929416Y-98743938D01*
X152925239Y-98760670D01*
X152921322Y-98777537D01*
X152917668Y-98794538D01*
X152914274Y-98811672D01*
X152913201Y-98817413D01*
X152910690Y-98833118D01*
X152908350Y-98848256D01*
X152905867Y-98864566D01*
X152903843Y-98877966D01*
X152901158Y-98894974D01*
X152898325Y-98912335D01*
X152895851Y-98927073D01*
X152893275Y-98942055D01*
X152890595Y-98957283D01*
X152887813Y-98972757D01*
X152884826Y-98988041D01*
X152881838Y-99002813D01*
X152878249Y-99019864D01*
X152874657Y-99036176D01*
X152871062Y-99051751D01*
X152868664Y-99061725D01*
X152864560Y-99077185D01*
X152859558Y-99092044D01*
X152851432Y-99104525D01*
X152836375Y-99107460D01*
X152821025Y-99105466D01*
X152813762Y-99103496D01*
X152798314Y-99098288D01*
X152784061Y-99092414D01*
X152769474Y-99085416D01*
X152762885Y-99081945D01*
X152749856Y-99074757D01*
X152735715Y-99066610D01*
X152722120Y-99058400D01*
X152713360Y-99052893D01*
X152700811Y-99045151D01*
X152687328Y-99037430D01*
X152674944Y-99031191D01*
X152658340Y-99022038D01*
X152641623Y-99013101D01*
X152624792Y-99004382D01*
X152607848Y-98995880D01*
X152590790Y-98987596D01*
X152573618Y-98979528D01*
X152556333Y-98971677D01*
X152538935Y-98964044D01*
X152521396Y-98956502D01*
X152503766Y-98949090D01*
X152486046Y-98941809D01*
X152468235Y-98934658D01*
X152450333Y-98927639D01*
X152432341Y-98920750D01*
X152414258Y-98913991D01*
X152396084Y-98907364D01*
X152376897Y-98899712D01*
X152357827Y-98892005D01*
X152338874Y-98884244D01*
X152320038Y-98876429D01*
X152301318Y-98868559D01*
X152282715Y-98860635D01*
X152264229Y-98852656D01*
X152245859Y-98844623D01*
X152227606Y-98836535D01*
X152209470Y-98828393D01*
X152197444Y-98822935D01*
X152179501Y-98814632D01*
X152161795Y-98806076D01*
X152144326Y-98797268D01*
X152127095Y-98788206D01*
X152110101Y-98778892D01*
X152093344Y-98769325D01*
X152076825Y-98759505D01*
X152060544Y-98749433D01*
X152044499Y-98739107D01*
X152028693Y-98728529D01*
X152018287Y-98721336D01*
X152002886Y-98710300D01*
X151987746Y-98698936D01*
X151972865Y-98687245D01*
X151958244Y-98675227D01*
X151943882Y-98662881D01*
X151929780Y-98650209D01*
X151915937Y-98637209D01*
X151902354Y-98623883D01*
X151889031Y-98610229D01*
X151875967Y-98596248D01*
X151867402Y-98586746D01*
X151854742Y-98572145D01*
X151842407Y-98557008D01*
X151830399Y-98541335D01*
X151818716Y-98525127D01*
X151807359Y-98508383D01*
X151796328Y-98491104D01*
X151785622Y-98473289D01*
X151775242Y-98454938D01*
X151765188Y-98436052D01*
X151755460Y-98416630D01*
X151749156Y-98403385D01*
G37*
G36*
X181454999Y-117264329D02*
G01*
X181473614Y-117265660D01*
X181492499Y-117268051D01*
X181511616Y-117271593D01*
X181526082Y-117275065D01*
X181540658Y-117279236D01*
X181555344Y-117284106D01*
X181570141Y-117289674D01*
X181585047Y-117295942D01*
X181600063Y-117302909D01*
X181615189Y-117310575D01*
X181630425Y-117318940D01*
X181645771Y-117328004D01*
X181650911Y-117331181D01*
X181666624Y-117341412D01*
X181681609Y-117352010D01*
X181695864Y-117362977D01*
X181709390Y-117374311D01*
X181722186Y-117386013D01*
X181734253Y-117398083D01*
X181745591Y-117410520D01*
X181756200Y-117423325D01*
X181766271Y-117436159D01*
X181775898Y-117448838D01*
X181785083Y-117461361D01*
X181793825Y-117473729D01*
X181802124Y-117485942D01*
X181811875Y-117500989D01*
X181820934Y-117515794D01*
X181824364Y-117521648D01*
X181832467Y-117535943D01*
X181840100Y-117549774D01*
X181847263Y-117563144D01*
X181855238Y-117578576D01*
X181862535Y-117593342D01*
X181868099Y-117605138D01*
X181875545Y-117619891D01*
X181884146Y-117633771D01*
X181893938Y-117645584D01*
X181902744Y-117652707D01*
X181916916Y-117658500D01*
X181933072Y-117661533D01*
X181948475Y-117662830D01*
X181960997Y-117663187D01*
X181977347Y-117663400D01*
X181994681Y-117663985D01*
X182009876Y-117664756D01*
X182025755Y-117665784D01*
X182042316Y-117667071D01*
X182059559Y-117668615D01*
X182077435Y-117670565D01*
X182092155Y-117672523D01*
X182107248Y-117674836D01*
X182122713Y-117677503D01*
X182138551Y-117680525D01*
X182154761Y-117683901D01*
X182171344Y-117687631D01*
X182184026Y-117690661D01*
X182201016Y-117695101D01*
X182217946Y-117700328D01*
X182234818Y-117706341D01*
X182251629Y-117713140D01*
X182268382Y-117720726D01*
X182285075Y-117729098D01*
X182301708Y-117738256D01*
X182318282Y-117748201D01*
X182331099Y-117756559D01*
X182343334Y-117765253D01*
X182354988Y-117774281D01*
X182369621Y-117786841D01*
X182383220Y-117799996D01*
X182395786Y-117813747D01*
X182407317Y-117828095D01*
X182417815Y-117843038D01*
X182425010Y-117854637D01*
X182433745Y-117870321D01*
X182441597Y-117886251D01*
X182448568Y-117902426D01*
X182454656Y-117918847D01*
X182459862Y-117935512D01*
X182464186Y-117952423D01*
X182467627Y-117969579D01*
X182470187Y-117986980D01*
X182471937Y-118004477D01*
X182472855Y-118022075D01*
X182472940Y-118039773D01*
X182472193Y-118057572D01*
X182470614Y-118075472D01*
X182468202Y-118093472D01*
X182464957Y-118111574D01*
X182460880Y-118129776D01*
X182456012Y-118147774D01*
X182450454Y-118165517D01*
X182444205Y-118183003D01*
X182437265Y-118200234D01*
X182429635Y-118217208D01*
X182421315Y-118233927D01*
X182412304Y-118250389D01*
X182402602Y-118266595D01*
X182393249Y-118281163D01*
X182383535Y-118295506D01*
X182373460Y-118309623D01*
X182363025Y-118323515D01*
X182352230Y-118337182D01*
X182341074Y-118350623D01*
X182329558Y-118363839D01*
X182317681Y-118376830D01*
X182305444Y-118389596D01*
X182292847Y-118402137D01*
X182284248Y-118410372D01*
X182271123Y-118422523D01*
X182257786Y-118434418D01*
X182244235Y-118446060D01*
X182230471Y-118457446D01*
X182216495Y-118468578D01*
X182202305Y-118479456D01*
X182187902Y-118490079D01*
X182173287Y-118500447D01*
X182158458Y-118510561D01*
X182143416Y-118520420D01*
X182133270Y-118526851D01*
X182117889Y-118536211D01*
X182102369Y-118545354D01*
X182086710Y-118554282D01*
X182070913Y-118562995D01*
X182054977Y-118571492D01*
X182038903Y-118579773D01*
X182022690Y-118587838D01*
X182006339Y-118595687D01*
X181989849Y-118603321D01*
X181973220Y-118610740D01*
X181962057Y-118615565D01*
X181945273Y-118622507D01*
X181928546Y-118629187D01*
X181911875Y-118635607D01*
X181895261Y-118641767D01*
X181878704Y-118647665D01*
X181862203Y-118653303D01*
X181845759Y-118658679D01*
X181829371Y-118663796D01*
X181813040Y-118668651D01*
X181796766Y-118673245D01*
X181785948Y-118676164D01*
X181768910Y-118681011D01*
X181751947Y-118685841D01*
X181735057Y-118690655D01*
X181718241Y-118695451D01*
X181701499Y-118700230D01*
X181684832Y-118704992D01*
X181678185Y-118706892D01*
X181661665Y-118711660D01*
X181645187Y-118716665D01*
X181628751Y-118721907D01*
X181612356Y-118727386D01*
X181596004Y-118733102D01*
X181579693Y-118739056D01*
X181573180Y-118741503D01*
X181558462Y-118747905D01*
X181543676Y-118754603D01*
X181529823Y-118761038D01*
X181514579Y-118768248D01*
X181497942Y-118776234D01*
X181483631Y-118783181D01*
X181468821Y-118790343D01*
X181453905Y-118797439D01*
X181438881Y-118804467D01*
X181423751Y-118811429D01*
X181408514Y-118818324D01*
X181393170Y-118825153D01*
X181377720Y-118831914D01*
X181362162Y-118838609D01*
X181346565Y-118845023D01*
X181331149Y-118851037D01*
X181315916Y-118856652D01*
X181300864Y-118861867D01*
X181285994Y-118866684D01*
X181271307Y-118871101D01*
X181256801Y-118875118D01*
X181242478Y-118878737D01*
X181225316Y-118882325D01*
X181209532Y-118884349D01*
X181192411Y-118884712D01*
X181177275Y-118882823D01*
X181162125Y-118877771D01*
X181156459Y-118874667D01*
X181145116Y-118865221D01*
X181135204Y-118851954D01*
X181127594Y-118836952D01*
X181122629Y-118823719D01*
X181118092Y-118809372D01*
X181114009Y-118794640D01*
X181110379Y-118779523D01*
X181107202Y-118764020D01*
X181104478Y-118748133D01*
X181103670Y-118742751D01*
X181101393Y-118726393D01*
X181099339Y-118710114D01*
X181097508Y-118693915D01*
X181095902Y-118677794D01*
X181094520Y-118661753D01*
X181094109Y-118656423D01*
X181092999Y-118640992D01*
X181091734Y-118624659D01*
X181090330Y-118608196D01*
X181088803Y-118592483D01*
X181088472Y-118589395D01*
X181086790Y-118568903D01*
X181084939Y-118548464D01*
X181082917Y-118528078D01*
X181080726Y-118507745D01*
X181078364Y-118487466D01*
X181075833Y-118467240D01*
X181073131Y-118447067D01*
X181070260Y-118426947D01*
X181067219Y-118406881D01*
X181064007Y-118386868D01*
X181061772Y-118373555D01*
X181058364Y-118353536D01*
X181054885Y-118333495D01*
X181051336Y-118313433D01*
X181047717Y-118293349D01*
X181044027Y-118273245D01*
X181040267Y-118253119D01*
X181036437Y-118232973D01*
X181032536Y-118212805D01*
X181028566Y-118192616D01*
X181024524Y-118172406D01*
X181021791Y-118158921D01*
X181017572Y-118137554D01*
X181013772Y-118116143D01*
X181010392Y-118094686D01*
X181007431Y-118073185D01*
X181004890Y-118051639D01*
X181002769Y-118030048D01*
X181001067Y-118008411D01*
X180999785Y-117986730D01*
X180998922Y-117965004D01*
X180998784Y-117958214D01*
X181170738Y-117958214D01*
X181170952Y-117973103D01*
X181171388Y-117988024D01*
X181172048Y-118002979D01*
X181172611Y-118012966D01*
X181173645Y-118027878D01*
X181174837Y-118042743D01*
X181176186Y-118057563D01*
X181177693Y-118072337D01*
X181179358Y-118087065D01*
X181181181Y-118101748D01*
X181183161Y-118116385D01*
X181185299Y-118130976D01*
X181187595Y-118145521D01*
X181190048Y-118160021D01*
X181191771Y-118169662D01*
X181194916Y-118185802D01*
X181197628Y-118201991D01*
X181200120Y-118218156D01*
X181202266Y-118232839D01*
X181204546Y-118249077D01*
X181206961Y-118266871D01*
X181207586Y-118271562D01*
X181210148Y-118290504D01*
X181212859Y-118309661D01*
X181214990Y-118324169D01*
X181217206Y-118338798D01*
X181219505Y-118353549D01*
X181221888Y-118368420D01*
X181224355Y-118383411D01*
X181226907Y-118398524D01*
X181229542Y-118413757D01*
X181232261Y-118429111D01*
X181235019Y-118444391D01*
X181237771Y-118459401D01*
X181240517Y-118474142D01*
X181243256Y-118488613D01*
X181246899Y-118507488D01*
X181250531Y-118525884D01*
X181254153Y-118543800D01*
X181257763Y-118561237D01*
X181261362Y-118578195D01*
X181264853Y-118593943D01*
X181269144Y-118611041D01*
X181273355Y-118625261D01*
X181279117Y-118640338D01*
X181287854Y-118652638D01*
X181302984Y-118655386D01*
X181318696Y-118653718D01*
X181325562Y-118652440D01*
X181340518Y-118648987D01*
X181354855Y-118645241D01*
X181370359Y-118640819D01*
X181384576Y-118636489D01*
X181394531Y-118633327D01*
X181410015Y-118628210D01*
X181425888Y-118622910D01*
X181442147Y-118617427D01*
X181458795Y-118611761D01*
X181472964Y-118606899D01*
X181481595Y-118603921D01*
X181495930Y-118598777D01*
X181510078Y-118593664D01*
X181524037Y-118588581D01*
X181537809Y-118583528D01*
X181554088Y-118577504D01*
X181570096Y-118571525D01*
X181585648Y-118565716D01*
X181600559Y-118560205D01*
X181614828Y-118554991D01*
X181630664Y-118549285D01*
X181645627Y-118543984D01*
X181661213Y-118538441D01*
X181676091Y-118533256D01*
X181690453Y-118528430D01*
X181694634Y-118527086D01*
X181709284Y-118523031D01*
X181723964Y-118518820D01*
X181738672Y-118514452D01*
X181753410Y-118509928D01*
X181768178Y-118505247D01*
X181782975Y-118500410D01*
X181797801Y-118495417D01*
X181812656Y-118490267D01*
X181827541Y-118484962D01*
X181842455Y-118479499D01*
X181852414Y-118475771D01*
X181867350Y-118469977D01*
X181882187Y-118464000D01*
X181896926Y-118457840D01*
X181911566Y-118451496D01*
X181926109Y-118444970D01*
X181940553Y-118438261D01*
X181954898Y-118431370D01*
X181969146Y-118424295D01*
X181983295Y-118417037D01*
X181997346Y-118409596D01*
X182006658Y-118404534D01*
X182020479Y-118396674D01*
X182034112Y-118388590D01*
X182047559Y-118380283D01*
X182060818Y-118371753D01*
X182073891Y-118363000D01*
X182086776Y-118354024D01*
X182099474Y-118344824D01*
X182111985Y-118335401D01*
X182124310Y-118325755D01*
X182136447Y-118315886D01*
X182144434Y-118309182D01*
X182156188Y-118298897D01*
X182167614Y-118288299D01*
X182178710Y-118277390D01*
X182189477Y-118266168D01*
X182199915Y-118254635D01*
X182210024Y-118242790D01*
X182219804Y-118230632D01*
X182229255Y-118218163D01*
X182238377Y-118205382D01*
X182247169Y-118192289D01*
X182252848Y-118183387D01*
X182262251Y-118167538D01*
X182270656Y-118151680D01*
X182278064Y-118135814D01*
X182284475Y-118119941D01*
X182289888Y-118104059D01*
X182294304Y-118088169D01*
X182297723Y-118072271D01*
X182300144Y-118056365D01*
X182301568Y-118040450D01*
X182301995Y-118024528D01*
X182301725Y-118013909D01*
X182300164Y-117998187D01*
X182297072Y-117982960D01*
X182292449Y-117968226D01*
X182286295Y-117953985D01*
X182278610Y-117940239D01*
X182269394Y-117926986D01*
X182258647Y-117914227D01*
X182246368Y-117901961D01*
X182232558Y-117890189D01*
X182217218Y-117878911D01*
X182206140Y-117871667D01*
X182190737Y-117862353D01*
X182175755Y-117853922D01*
X182161193Y-117846375D01*
X182147050Y-117839711D01*
X182133328Y-117833931D01*
X182116765Y-117827948D01*
X182100859Y-117823346D01*
X182094680Y-117821891D01*
X182079445Y-117819014D01*
X182064564Y-117817223D01*
X182047175Y-117816508D01*
X182030297Y-117817357D01*
X182013930Y-117819771D01*
X182003302Y-117822249D01*
X181987872Y-117826722D01*
X181972976Y-117831893D01*
X181958616Y-117837763D01*
X181944791Y-117844332D01*
X181931501Y-117851601D01*
X181927190Y-117854179D01*
X181914454Y-117861930D01*
X181899868Y-117870720D01*
X181885575Y-117879240D01*
X181871577Y-117887488D01*
X181861757Y-117893213D01*
X181848386Y-117900533D01*
X181833559Y-117907766D01*
X181819217Y-117913790D01*
X181805361Y-117918605D01*
X181803663Y-117919122D01*
X181788243Y-117921389D01*
X181772607Y-117919627D01*
X181758528Y-117914677D01*
X181747857Y-117908874D01*
X181736233Y-117899732D01*
X181726798Y-117887339D01*
X181721026Y-117872594D01*
X181720009Y-117867712D01*
X181717882Y-117852061D01*
X181716713Y-117836993D01*
X181716223Y-117820838D01*
X181716353Y-117805811D01*
X181716829Y-117789963D01*
X181717308Y-117773580D01*
X181717792Y-117756662D01*
X181718209Y-117741735D01*
X181718559Y-117728996D01*
X181718561Y-117713348D01*
X181717811Y-117697687D01*
X181716311Y-117682013D01*
X181714060Y-117666324D01*
X181711058Y-117650623D01*
X181709891Y-117645386D01*
X181705552Y-117629507D01*
X181699878Y-117613674D01*
X181692868Y-117597888D01*
X181686007Y-117584768D01*
X181678219Y-117571681D01*
X181671320Y-117561235D01*
X181661633Y-117548337D01*
X181650560Y-117535733D01*
X181638101Y-117523423D01*
X181624256Y-117511407D01*
X181612182Y-117502006D01*
X181599221Y-117492793D01*
X181585372Y-117483768D01*
X181572743Y-117476123D01*
X181554207Y-117465834D01*
X181536161Y-117456960D01*
X181518606Y-117449501D01*
X181501541Y-117443457D01*
X181484967Y-117438829D01*
X181468882Y-117435615D01*
X181453288Y-117433817D01*
X181438184Y-117433433D01*
X181418808Y-117435123D01*
X181409447Y-117436911D01*
X181391135Y-117442398D01*
X181377589Y-117448296D01*
X181364204Y-117455722D01*
X181350980Y-117464677D01*
X181337918Y-117475160D01*
X181325017Y-117487172D01*
X181312277Y-117500712D01*
X181299698Y-117515781D01*
X181287280Y-117532377D01*
X181275024Y-117550503D01*
X181270975Y-117556884D01*
X181263112Y-117569819D01*
X181255614Y-117582876D01*
X181248481Y-117596054D01*
X181241712Y-117609354D01*
X181235307Y-117622775D01*
X181229267Y-117636317D01*
X181223592Y-117649981D01*
X181218281Y-117663767D01*
X181213335Y-117677674D01*
X181208753Y-117691702D01*
X181205902Y-117701122D01*
X181201815Y-117715282D01*
X181197983Y-117729496D01*
X181194407Y-117743762D01*
X181191085Y-117758082D01*
X181188020Y-117772456D01*
X181185209Y-117786882D01*
X181182654Y-117801362D01*
X181180354Y-117815895D01*
X181178310Y-117830481D01*
X181176521Y-117845120D01*
X181175470Y-117854909D01*
X181174126Y-117869569D01*
X181173005Y-117884261D01*
X181172106Y-117898986D01*
X181171430Y-117913744D01*
X181170977Y-117928535D01*
X181170746Y-117943358D01*
X181170738Y-117958214D01*
X180998784Y-117958214D01*
X180998479Y-117943233D01*
X180998456Y-117921417D01*
X180998852Y-117899557D01*
X180999668Y-117877651D01*
X181000903Y-117855700D01*
X181002558Y-117833704D01*
X181004633Y-117811664D01*
X181007235Y-117789668D01*
X181010423Y-117767883D01*
X181014199Y-117746309D01*
X181018561Y-117724947D01*
X181023510Y-117703797D01*
X181029046Y-117682858D01*
X181035169Y-117662130D01*
X181041878Y-117641614D01*
X181049175Y-117621309D01*
X181057058Y-117601215D01*
X181065527Y-117581333D01*
X181074584Y-117561662D01*
X181084227Y-117542203D01*
X181094458Y-117522955D01*
X181105275Y-117503919D01*
X181116678Y-117485094D01*
X181125728Y-117470963D01*
X181134969Y-117457232D01*
X181144400Y-117443901D01*
X181154022Y-117430971D01*
X181163834Y-117418440D01*
X181173836Y-117406309D01*
X181184030Y-117394578D01*
X181194413Y-117383248D01*
X181204987Y-117372317D01*
X181215752Y-117361786D01*
X181223034Y-117354988D01*
X181234078Y-117345110D01*
X181249048Y-117332814D01*
X181264299Y-117321516D01*
X181279830Y-117311217D01*
X181295642Y-117301917D01*
X181311734Y-117293615D01*
X181328107Y-117286313D01*
X181344760Y-117280009D01*
X181348967Y-117278589D01*
X181365965Y-117273563D01*
X181383233Y-117269598D01*
X181400770Y-117266691D01*
X181418577Y-117264844D01*
X181436653Y-117264057D01*
X181454999Y-117264329D01*
G37*
G36*
X116454999Y-104664329D02*
G01*
X116473614Y-104665660D01*
X116492499Y-104668051D01*
X116511616Y-104671593D01*
X116526082Y-104675065D01*
X116540658Y-104679236D01*
X116555344Y-104684106D01*
X116570141Y-104689674D01*
X116585047Y-104695942D01*
X116600063Y-104702909D01*
X116615189Y-104710575D01*
X116630425Y-104718940D01*
X116645771Y-104728004D01*
X116650911Y-104731181D01*
X116666624Y-104741412D01*
X116681609Y-104752010D01*
X116695864Y-104762977D01*
X116709390Y-104774311D01*
X116722186Y-104786013D01*
X116734253Y-104798083D01*
X116745591Y-104810520D01*
X116756200Y-104823325D01*
X116766271Y-104836159D01*
X116775898Y-104848838D01*
X116785083Y-104861361D01*
X116793825Y-104873729D01*
X116802124Y-104885942D01*
X116811875Y-104900989D01*
X116820934Y-104915794D01*
X116824364Y-104921648D01*
X116832467Y-104935943D01*
X116840100Y-104949774D01*
X116847263Y-104963144D01*
X116855238Y-104978576D01*
X116862535Y-104993342D01*
X116868099Y-105005138D01*
X116875545Y-105019891D01*
X116884146Y-105033771D01*
X116893938Y-105045584D01*
X116902744Y-105052707D01*
X116916916Y-105058500D01*
X116933072Y-105061533D01*
X116948475Y-105062830D01*
X116960997Y-105063187D01*
X116977347Y-105063400D01*
X116994681Y-105063985D01*
X117009876Y-105064756D01*
X117025755Y-105065784D01*
X117042316Y-105067071D01*
X117059559Y-105068615D01*
X117077435Y-105070565D01*
X117092155Y-105072523D01*
X117107248Y-105074836D01*
X117122713Y-105077503D01*
X117138551Y-105080525D01*
X117154761Y-105083901D01*
X117171344Y-105087631D01*
X117184026Y-105090661D01*
X117201016Y-105095101D01*
X117217946Y-105100328D01*
X117234818Y-105106341D01*
X117251629Y-105113140D01*
X117268382Y-105120726D01*
X117285075Y-105129098D01*
X117301708Y-105138256D01*
X117318282Y-105148201D01*
X117331099Y-105156559D01*
X117343334Y-105165253D01*
X117354988Y-105174281D01*
X117369621Y-105186841D01*
X117383220Y-105199996D01*
X117395786Y-105213747D01*
X117407317Y-105228095D01*
X117417815Y-105243038D01*
X117425010Y-105254637D01*
X117433745Y-105270321D01*
X117441597Y-105286251D01*
X117448568Y-105302426D01*
X117454656Y-105318847D01*
X117459862Y-105335512D01*
X117464186Y-105352423D01*
X117467627Y-105369579D01*
X117470187Y-105386980D01*
X117471937Y-105404477D01*
X117472855Y-105422075D01*
X117472940Y-105439773D01*
X117472193Y-105457572D01*
X117470614Y-105475472D01*
X117468202Y-105493472D01*
X117464957Y-105511574D01*
X117460880Y-105529776D01*
X117456012Y-105547774D01*
X117450454Y-105565517D01*
X117444205Y-105583003D01*
X117437265Y-105600234D01*
X117429635Y-105617208D01*
X117421315Y-105633927D01*
X117412304Y-105650389D01*
X117402602Y-105666595D01*
X117393249Y-105681163D01*
X117383535Y-105695506D01*
X117373460Y-105709623D01*
X117363025Y-105723515D01*
X117352230Y-105737182D01*
X117341074Y-105750623D01*
X117329558Y-105763839D01*
X117317681Y-105776830D01*
X117305444Y-105789596D01*
X117292847Y-105802137D01*
X117284248Y-105810372D01*
X117271123Y-105822523D01*
X117257786Y-105834418D01*
X117244235Y-105846060D01*
X117230471Y-105857446D01*
X117216495Y-105868578D01*
X117202305Y-105879456D01*
X117187902Y-105890079D01*
X117173287Y-105900447D01*
X117158458Y-105910561D01*
X117143416Y-105920420D01*
X117133270Y-105926851D01*
X117117889Y-105936211D01*
X117102369Y-105945354D01*
X117086710Y-105954282D01*
X117070913Y-105962995D01*
X117054977Y-105971492D01*
X117038903Y-105979773D01*
X117022690Y-105987838D01*
X117006339Y-105995687D01*
X116989849Y-106003321D01*
X116973220Y-106010740D01*
X116962057Y-106015565D01*
X116945273Y-106022507D01*
X116928546Y-106029187D01*
X116911875Y-106035607D01*
X116895261Y-106041767D01*
X116878704Y-106047665D01*
X116862203Y-106053303D01*
X116845759Y-106058679D01*
X116829371Y-106063796D01*
X116813040Y-106068651D01*
X116796766Y-106073245D01*
X116785948Y-106076164D01*
X116768910Y-106081011D01*
X116751947Y-106085841D01*
X116735057Y-106090655D01*
X116718241Y-106095451D01*
X116701499Y-106100230D01*
X116684832Y-106104992D01*
X116678185Y-106106892D01*
X116661665Y-106111660D01*
X116645187Y-106116665D01*
X116628751Y-106121907D01*
X116612356Y-106127386D01*
X116596004Y-106133102D01*
X116579693Y-106139056D01*
X116573180Y-106141503D01*
X116558462Y-106147905D01*
X116543676Y-106154603D01*
X116529823Y-106161038D01*
X116514579Y-106168248D01*
X116497942Y-106176234D01*
X116483631Y-106183181D01*
X116468821Y-106190343D01*
X116453905Y-106197439D01*
X116438881Y-106204467D01*
X116423751Y-106211429D01*
X116408514Y-106218324D01*
X116393170Y-106225153D01*
X116377720Y-106231914D01*
X116362162Y-106238609D01*
X116346565Y-106245023D01*
X116331149Y-106251037D01*
X116315916Y-106256652D01*
X116300864Y-106261867D01*
X116285994Y-106266684D01*
X116271307Y-106271101D01*
X116256801Y-106275118D01*
X116242478Y-106278737D01*
X116225316Y-106282325D01*
X116209532Y-106284349D01*
X116192411Y-106284712D01*
X116177275Y-106282823D01*
X116162125Y-106277771D01*
X116156459Y-106274667D01*
X116145116Y-106265221D01*
X116135204Y-106251954D01*
X116127594Y-106236952D01*
X116122629Y-106223719D01*
X116118092Y-106209372D01*
X116114009Y-106194640D01*
X116110379Y-106179523D01*
X116107202Y-106164020D01*
X116104478Y-106148133D01*
X116103670Y-106142751D01*
X116101393Y-106126393D01*
X116099339Y-106110114D01*
X116097508Y-106093915D01*
X116095902Y-106077794D01*
X116094520Y-106061753D01*
X116094109Y-106056423D01*
X116092999Y-106040992D01*
X116091734Y-106024659D01*
X116090330Y-106008196D01*
X116088803Y-105992483D01*
X116088472Y-105989395D01*
X116086790Y-105968903D01*
X116084939Y-105948464D01*
X116082917Y-105928078D01*
X116080726Y-105907745D01*
X116078364Y-105887466D01*
X116075833Y-105867240D01*
X116073131Y-105847067D01*
X116070260Y-105826947D01*
X116067219Y-105806881D01*
X116064007Y-105786868D01*
X116061772Y-105773555D01*
X116058364Y-105753536D01*
X116054885Y-105733495D01*
X116051336Y-105713433D01*
X116047717Y-105693349D01*
X116044027Y-105673245D01*
X116040267Y-105653119D01*
X116036437Y-105632973D01*
X116032536Y-105612805D01*
X116028566Y-105592616D01*
X116024524Y-105572406D01*
X116021791Y-105558921D01*
X116017572Y-105537554D01*
X116013772Y-105516143D01*
X116010392Y-105494686D01*
X116007431Y-105473185D01*
X116004890Y-105451639D01*
X116002769Y-105430048D01*
X116001067Y-105408411D01*
X115999785Y-105386730D01*
X115998922Y-105365004D01*
X115998784Y-105358214D01*
X116170738Y-105358214D01*
X116170952Y-105373103D01*
X116171388Y-105388024D01*
X116172048Y-105402979D01*
X116172611Y-105412966D01*
X116173645Y-105427878D01*
X116174837Y-105442743D01*
X116176186Y-105457563D01*
X116177693Y-105472337D01*
X116179358Y-105487065D01*
X116181181Y-105501748D01*
X116183161Y-105516385D01*
X116185299Y-105530976D01*
X116187595Y-105545521D01*
X116190048Y-105560021D01*
X116191771Y-105569662D01*
X116194916Y-105585802D01*
X116197628Y-105601991D01*
X116200120Y-105618156D01*
X116202266Y-105632839D01*
X116204546Y-105649077D01*
X116206961Y-105666871D01*
X116207586Y-105671562D01*
X116210148Y-105690504D01*
X116212859Y-105709661D01*
X116214990Y-105724169D01*
X116217206Y-105738798D01*
X116219505Y-105753549D01*
X116221888Y-105768420D01*
X116224355Y-105783411D01*
X116226907Y-105798524D01*
X116229542Y-105813757D01*
X116232261Y-105829111D01*
X116235019Y-105844391D01*
X116237771Y-105859401D01*
X116240517Y-105874142D01*
X116243256Y-105888613D01*
X116246899Y-105907488D01*
X116250531Y-105925884D01*
X116254153Y-105943800D01*
X116257763Y-105961237D01*
X116261362Y-105978195D01*
X116264853Y-105993943D01*
X116269144Y-106011041D01*
X116273355Y-106025261D01*
X116279117Y-106040338D01*
X116287854Y-106052638D01*
X116302984Y-106055386D01*
X116318696Y-106053718D01*
X116325562Y-106052440D01*
X116340518Y-106048987D01*
X116354855Y-106045241D01*
X116370359Y-106040819D01*
X116384576Y-106036489D01*
X116394531Y-106033327D01*
X116410015Y-106028210D01*
X116425888Y-106022910D01*
X116442147Y-106017427D01*
X116458795Y-106011761D01*
X116472964Y-106006899D01*
X116481595Y-106003921D01*
X116495930Y-105998777D01*
X116510078Y-105993664D01*
X116524037Y-105988581D01*
X116537809Y-105983528D01*
X116554088Y-105977504D01*
X116570096Y-105971525D01*
X116585648Y-105965716D01*
X116600559Y-105960205D01*
X116614828Y-105954991D01*
X116630664Y-105949285D01*
X116645627Y-105943984D01*
X116661213Y-105938441D01*
X116676091Y-105933256D01*
X116690453Y-105928430D01*
X116694634Y-105927086D01*
X116709284Y-105923031D01*
X116723964Y-105918820D01*
X116738672Y-105914452D01*
X116753410Y-105909928D01*
X116768178Y-105905247D01*
X116782975Y-105900410D01*
X116797801Y-105895417D01*
X116812656Y-105890267D01*
X116827541Y-105884962D01*
X116842455Y-105879499D01*
X116852414Y-105875771D01*
X116867350Y-105869977D01*
X116882187Y-105864000D01*
X116896926Y-105857840D01*
X116911566Y-105851496D01*
X116926109Y-105844970D01*
X116940553Y-105838261D01*
X116954898Y-105831370D01*
X116969146Y-105824295D01*
X116983295Y-105817037D01*
X116997346Y-105809596D01*
X117006658Y-105804534D01*
X117020479Y-105796674D01*
X117034112Y-105788590D01*
X117047559Y-105780283D01*
X117060818Y-105771753D01*
X117073891Y-105763000D01*
X117086776Y-105754024D01*
X117099474Y-105744824D01*
X117111985Y-105735401D01*
X117124310Y-105725755D01*
X117136447Y-105715886D01*
X117144434Y-105709182D01*
X117156188Y-105698897D01*
X117167614Y-105688299D01*
X117178710Y-105677390D01*
X117189477Y-105666168D01*
X117199915Y-105654635D01*
X117210024Y-105642790D01*
X117219804Y-105630632D01*
X117229255Y-105618163D01*
X117238377Y-105605382D01*
X117247169Y-105592289D01*
X117252848Y-105583387D01*
X117262251Y-105567538D01*
X117270656Y-105551680D01*
X117278064Y-105535814D01*
X117284475Y-105519941D01*
X117289888Y-105504059D01*
X117294304Y-105488169D01*
X117297723Y-105472271D01*
X117300144Y-105456365D01*
X117301568Y-105440450D01*
X117301995Y-105424528D01*
X117301725Y-105413909D01*
X117300164Y-105398187D01*
X117297072Y-105382960D01*
X117292449Y-105368226D01*
X117286295Y-105353985D01*
X117278610Y-105340239D01*
X117269394Y-105326986D01*
X117258647Y-105314227D01*
X117246368Y-105301961D01*
X117232558Y-105290189D01*
X117217218Y-105278911D01*
X117206140Y-105271667D01*
X117190737Y-105262353D01*
X117175755Y-105253922D01*
X117161193Y-105246375D01*
X117147050Y-105239711D01*
X117133328Y-105233931D01*
X117116765Y-105227948D01*
X117100859Y-105223346D01*
X117094680Y-105221891D01*
X117079445Y-105219014D01*
X117064564Y-105217223D01*
X117047175Y-105216508D01*
X117030297Y-105217357D01*
X117013930Y-105219771D01*
X117003302Y-105222249D01*
X116987872Y-105226722D01*
X116972976Y-105231893D01*
X116958616Y-105237763D01*
X116944791Y-105244332D01*
X116931501Y-105251601D01*
X116927190Y-105254179D01*
X116914454Y-105261930D01*
X116899868Y-105270720D01*
X116885575Y-105279240D01*
X116871577Y-105287488D01*
X116861757Y-105293213D01*
X116848386Y-105300533D01*
X116833559Y-105307766D01*
X116819217Y-105313790D01*
X116805361Y-105318605D01*
X116803663Y-105319122D01*
X116788243Y-105321389D01*
X116772607Y-105319627D01*
X116758528Y-105314677D01*
X116747857Y-105308874D01*
X116736233Y-105299732D01*
X116726798Y-105287339D01*
X116721026Y-105272594D01*
X116720009Y-105267712D01*
X116717882Y-105252061D01*
X116716713Y-105236993D01*
X116716223Y-105220838D01*
X116716353Y-105205811D01*
X116716829Y-105189963D01*
X116717308Y-105173580D01*
X116717792Y-105156662D01*
X116718209Y-105141735D01*
X116718559Y-105128996D01*
X116718561Y-105113348D01*
X116717811Y-105097687D01*
X116716311Y-105082013D01*
X116714060Y-105066324D01*
X116711058Y-105050623D01*
X116709891Y-105045386D01*
X116705552Y-105029507D01*
X116699878Y-105013674D01*
X116692868Y-104997888D01*
X116686007Y-104984768D01*
X116678219Y-104971681D01*
X116671320Y-104961235D01*
X116661633Y-104948337D01*
X116650560Y-104935733D01*
X116638101Y-104923423D01*
X116624256Y-104911407D01*
X116612182Y-104902006D01*
X116599221Y-104892793D01*
X116585372Y-104883768D01*
X116572743Y-104876123D01*
X116554207Y-104865834D01*
X116536161Y-104856960D01*
X116518606Y-104849501D01*
X116501541Y-104843457D01*
X116484967Y-104838829D01*
X116468882Y-104835615D01*
X116453288Y-104833817D01*
X116438184Y-104833433D01*
X116418808Y-104835123D01*
X116409447Y-104836911D01*
X116391135Y-104842398D01*
X116377589Y-104848296D01*
X116364204Y-104855722D01*
X116350980Y-104864677D01*
X116337918Y-104875160D01*
X116325017Y-104887172D01*
X116312277Y-104900712D01*
X116299698Y-104915781D01*
X116287280Y-104932377D01*
X116275024Y-104950503D01*
X116270975Y-104956884D01*
X116263112Y-104969819D01*
X116255614Y-104982876D01*
X116248481Y-104996054D01*
X116241712Y-105009354D01*
X116235307Y-105022775D01*
X116229267Y-105036317D01*
X116223592Y-105049981D01*
X116218281Y-105063767D01*
X116213335Y-105077674D01*
X116208753Y-105091702D01*
X116205902Y-105101122D01*
X116201815Y-105115282D01*
X116197983Y-105129496D01*
X116194407Y-105143762D01*
X116191085Y-105158082D01*
X116188020Y-105172456D01*
X116185209Y-105186882D01*
X116182654Y-105201362D01*
X116180354Y-105215895D01*
X116178310Y-105230481D01*
X116176521Y-105245120D01*
X116175470Y-105254909D01*
X116174126Y-105269569D01*
X116173005Y-105284261D01*
X116172106Y-105298986D01*
X116171430Y-105313744D01*
X116170977Y-105328535D01*
X116170746Y-105343358D01*
X116170738Y-105358214D01*
X115998784Y-105358214D01*
X115998479Y-105343233D01*
X115998456Y-105321417D01*
X115998852Y-105299557D01*
X115999668Y-105277651D01*
X116000903Y-105255700D01*
X116002558Y-105233704D01*
X116004633Y-105211664D01*
X116007235Y-105189668D01*
X116010423Y-105167883D01*
X116014199Y-105146309D01*
X116018561Y-105124947D01*
X116023510Y-105103797D01*
X116029046Y-105082858D01*
X116035169Y-105062130D01*
X116041878Y-105041614D01*
X116049175Y-105021309D01*
X116057058Y-105001215D01*
X116065527Y-104981333D01*
X116074584Y-104961662D01*
X116084227Y-104942203D01*
X116094458Y-104922955D01*
X116105275Y-104903919D01*
X116116678Y-104885094D01*
X116125728Y-104870963D01*
X116134969Y-104857232D01*
X116144400Y-104843901D01*
X116154022Y-104830971D01*
X116163834Y-104818440D01*
X116173836Y-104806309D01*
X116184030Y-104794578D01*
X116194413Y-104783248D01*
X116204987Y-104772317D01*
X116215752Y-104761786D01*
X116223034Y-104754988D01*
X116234078Y-104745110D01*
X116249048Y-104732814D01*
X116264299Y-104721516D01*
X116279830Y-104711217D01*
X116295642Y-104701917D01*
X116311734Y-104693615D01*
X116328107Y-104686313D01*
X116344760Y-104680009D01*
X116348967Y-104678589D01*
X116365965Y-104673563D01*
X116383233Y-104669598D01*
X116400770Y-104666691D01*
X116418577Y-104664844D01*
X116436653Y-104664057D01*
X116454999Y-104664329D01*
G37*
G36*
X118358488Y-69073147D02*
G01*
X118375916Y-69074873D01*
X118393177Y-69077500D01*
X118410271Y-69081027D01*
X118427200Y-69085455D01*
X118443962Y-69090783D01*
X118460455Y-69096879D01*
X118476674Y-69103768D01*
X118492618Y-69111450D01*
X118508289Y-69119924D01*
X118523684Y-69129191D01*
X118538806Y-69139250D01*
X118553653Y-69150101D01*
X118568226Y-69161745D01*
X118582269Y-69174010D01*
X118595779Y-69186784D01*
X118608756Y-69200066D01*
X118621201Y-69213856D01*
X118633113Y-69228155D01*
X118644492Y-69242962D01*
X118655338Y-69258278D01*
X118665651Y-69274102D01*
X118674644Y-69288895D01*
X118683277Y-69303913D01*
X118691549Y-69319157D01*
X118699461Y-69334626D01*
X118707012Y-69350319D01*
X118714203Y-69366239D01*
X118721033Y-69382383D01*
X118727503Y-69398752D01*
X118733612Y-69415347D01*
X118739361Y-69432167D01*
X118742994Y-69443506D01*
X118748161Y-69460629D01*
X118753006Y-69477831D01*
X118757529Y-69495114D01*
X118761730Y-69512476D01*
X118765608Y-69529918D01*
X118769164Y-69547440D01*
X118772398Y-69565042D01*
X118775310Y-69582723D01*
X118777900Y-69600485D01*
X118780167Y-69618326D01*
X118781500Y-69630265D01*
X118783169Y-69648192D01*
X118784584Y-69666150D01*
X118785745Y-69684138D01*
X118786650Y-69702155D01*
X118787301Y-69720203D01*
X118787698Y-69738281D01*
X118787839Y-69756388D01*
X118787727Y-69774526D01*
X118787359Y-69792694D01*
X118786737Y-69810891D01*
X118786181Y-69823040D01*
X118785062Y-69841168D01*
X118783734Y-69859131D01*
X118782196Y-69876929D01*
X118780449Y-69894562D01*
X118778492Y-69912029D01*
X118776326Y-69929331D01*
X118773950Y-69946468D01*
X118771364Y-69963440D01*
X118768569Y-69980246D01*
X118765565Y-69996888D01*
X118763445Y-70007890D01*
X118760333Y-70025328D01*
X118757238Y-70042693D01*
X118754160Y-70059983D01*
X118751100Y-70077199D01*
X118748056Y-70094342D01*
X118745029Y-70111410D01*
X118743823Y-70118217D01*
X118740867Y-70135155D01*
X118738142Y-70152160D01*
X118735649Y-70169231D01*
X118733386Y-70186368D01*
X118731355Y-70203571D01*
X118729556Y-70220841D01*
X118728901Y-70227768D01*
X118728203Y-70243803D01*
X118727741Y-70260028D01*
X118727452Y-70275300D01*
X118727249Y-70292162D01*
X118727134Y-70310616D01*
X118727105Y-70326524D01*
X118727050Y-70342975D01*
X118726888Y-70359492D01*
X118726620Y-70376076D01*
X118726244Y-70392727D01*
X118725762Y-70409445D01*
X118725173Y-70426229D01*
X118724478Y-70443080D01*
X118723675Y-70459998D01*
X118722602Y-70476828D01*
X118721250Y-70493320D01*
X118719618Y-70509473D01*
X118717708Y-70525288D01*
X118715518Y-70540764D01*
X118713050Y-70555901D01*
X118710302Y-70570700D01*
X118707275Y-70585160D01*
X118702977Y-70602158D01*
X118697877Y-70617232D01*
X118690698Y-70632779D01*
X118682364Y-70645555D01*
X118671183Y-70656958D01*
X118665909Y-70660689D01*
X118652447Y-70666744D01*
X118636177Y-70669837D01*
X118619358Y-70670100D01*
X118605288Y-70668761D01*
X118590404Y-70666550D01*
X118575372Y-70663762D01*
X118560193Y-70660398D01*
X118544867Y-70656457D01*
X118529394Y-70651941D01*
X118524203Y-70650307D01*
X118508502Y-70645184D01*
X118492970Y-70639894D01*
X118477608Y-70634437D01*
X118462414Y-70628814D01*
X118447390Y-70623024D01*
X118442420Y-70621057D01*
X118428064Y-70615291D01*
X118412830Y-70609267D01*
X118397417Y-70603312D01*
X118382625Y-70597796D01*
X118379705Y-70596741D01*
X118360549Y-70589269D01*
X118341367Y-70581973D01*
X118322158Y-70574854D01*
X118302922Y-70567910D01*
X118283660Y-70561143D01*
X118264371Y-70554551D01*
X118245056Y-70548136D01*
X118225714Y-70541897D01*
X118206345Y-70535834D01*
X118186950Y-70529947D01*
X118174005Y-70526120D01*
X118154517Y-70520408D01*
X118134979Y-70514749D01*
X118115392Y-70509144D01*
X118095755Y-70503593D01*
X118076068Y-70498096D01*
X118056331Y-70492653D01*
X118036544Y-70487264D01*
X118016707Y-70481929D01*
X117996821Y-70476648D01*
X117976884Y-70471420D01*
X117963566Y-70467965D01*
X117942512Y-70462391D01*
X117921602Y-70456420D01*
X117900835Y-70450052D01*
X117880212Y-70443288D01*
X117859733Y-70436126D01*
X117839397Y-70428568D01*
X117819204Y-70420613D01*
X117799155Y-70412261D01*
X117779250Y-70403512D01*
X117759488Y-70394367D01*
X117739870Y-70384824D01*
X117720395Y-70374885D01*
X117701064Y-70364549D01*
X117681876Y-70353816D01*
X117662832Y-70342687D01*
X117643932Y-70331160D01*
X117625302Y-70319179D01*
X117607120Y-70306763D01*
X117589385Y-70293912D01*
X117572097Y-70280627D01*
X117555257Y-70266907D01*
X117538864Y-70252752D01*
X117522918Y-70238163D01*
X117507419Y-70223139D01*
X117492368Y-70207680D01*
X117477763Y-70191786D01*
X117463606Y-70175458D01*
X117449897Y-70158695D01*
X117436634Y-70141497D01*
X117423819Y-70123864D01*
X117411451Y-70105797D01*
X117399530Y-70087295D01*
X117390797Y-70072966D01*
X117382506Y-70058642D01*
X117374659Y-70044321D01*
X117367255Y-70030005D01*
X117360294Y-70015693D01*
X117353775Y-70001385D01*
X117347700Y-69987081D01*
X117342068Y-69972781D01*
X117336879Y-69958486D01*
X117332133Y-69944194D01*
X117329215Y-69934669D01*
X117325178Y-69920412D01*
X117320689Y-69901567D01*
X117317220Y-69882907D01*
X117314772Y-69864432D01*
X117313344Y-69846144D01*
X117313131Y-69836659D01*
X117480832Y-69836659D01*
X117481639Y-69851945D01*
X117483891Y-69867756D01*
X117487587Y-69884092D01*
X117492728Y-69900953D01*
X117499312Y-69918339D01*
X117507342Y-69936250D01*
X117516815Y-69954687D01*
X117527734Y-69973648D01*
X117531694Y-69980085D01*
X117539873Y-69992823D01*
X117548322Y-70005285D01*
X117557039Y-70017474D01*
X117566025Y-70029388D01*
X117575280Y-70041027D01*
X117584805Y-70052393D01*
X117594598Y-70063483D01*
X117604660Y-70074300D01*
X117614991Y-70084842D01*
X117625591Y-70095110D01*
X117632808Y-70101802D01*
X117643743Y-70111683D01*
X117654839Y-70121358D01*
X117666094Y-70130826D01*
X117677509Y-70140089D01*
X117689083Y-70149145D01*
X117700818Y-70157995D01*
X117712712Y-70166639D01*
X117724766Y-70175077D01*
X117736980Y-70183309D01*
X117749353Y-70191334D01*
X117757691Y-70196570D01*
X117770278Y-70204204D01*
X117782991Y-70211653D01*
X117795832Y-70218915D01*
X117808800Y-70225992D01*
X117821895Y-70232884D01*
X117835117Y-70239589D01*
X117848466Y-70246109D01*
X117861942Y-70252444D01*
X117875544Y-70258592D01*
X117889274Y-70264555D01*
X117898498Y-70268427D01*
X117912353Y-70274035D01*
X117926237Y-70279480D01*
X117940149Y-70284764D01*
X117954088Y-70289886D01*
X117968056Y-70294846D01*
X117982051Y-70299644D01*
X117996075Y-70304281D01*
X118010126Y-70308755D01*
X118024206Y-70313068D01*
X118038314Y-70317220D01*
X118047734Y-70319897D01*
X118063620Y-70324146D01*
X118079359Y-70328805D01*
X118094981Y-70333651D01*
X118109118Y-70338159D01*
X118124712Y-70343228D01*
X118141764Y-70348858D01*
X118146255Y-70350353D01*
X118164402Y-70356354D01*
X118182809Y-70362315D01*
X118196783Y-70366759D01*
X118210903Y-70371181D01*
X118225168Y-70375581D01*
X118239579Y-70379958D01*
X118254135Y-70384312D01*
X118268837Y-70388644D01*
X118283683Y-70392953D01*
X118298676Y-70397240D01*
X118313618Y-70401460D01*
X118328316Y-70405566D01*
X118342768Y-70409560D01*
X118356975Y-70413442D01*
X118375537Y-70418441D01*
X118393663Y-70423241D01*
X118411354Y-70427840D01*
X118428609Y-70432239D01*
X118445428Y-70436438D01*
X118461113Y-70440205D01*
X118478361Y-70443843D01*
X118492989Y-70446292D01*
X118509065Y-70447722D01*
X118523950Y-70445261D01*
X118533053Y-70432867D01*
X118538441Y-70418014D01*
X118540303Y-70411282D01*
X118543756Y-70396326D01*
X118546674Y-70381799D01*
X118549495Y-70365925D01*
X118551836Y-70351249D01*
X118553358Y-70340915D01*
X118555547Y-70324755D01*
X118557741Y-70308165D01*
X118559940Y-70291148D01*
X118562146Y-70273701D01*
X118563988Y-70258834D01*
X118565094Y-70249772D01*
X118566755Y-70234633D01*
X118568361Y-70219675D01*
X118569912Y-70204900D01*
X118571408Y-70190307D01*
X118573130Y-70173035D01*
X118574773Y-70156026D01*
X118576370Y-70139501D01*
X118577953Y-70123684D01*
X118579522Y-70108574D01*
X118581335Y-70091839D01*
X118583130Y-70076067D01*
X118584981Y-70059628D01*
X118586843Y-70043983D01*
X118588801Y-70028958D01*
X118589426Y-70024611D01*
X118592203Y-70009666D01*
X118594853Y-69994626D01*
X118597375Y-69979491D01*
X118599770Y-69964262D01*
X118602036Y-69948937D01*
X118604176Y-69933517D01*
X118606187Y-69918003D01*
X118608071Y-69902394D01*
X118609827Y-69886689D01*
X118611456Y-69870890D01*
X118612470Y-69860305D01*
X118613810Y-69844341D01*
X118614942Y-69828385D01*
X118615866Y-69812437D01*
X118616583Y-69796497D01*
X118617093Y-69780566D01*
X118617394Y-69764643D01*
X118617489Y-69748728D01*
X118617376Y-69732821D01*
X118617055Y-69716922D01*
X118616527Y-69701032D01*
X118616059Y-69690443D01*
X118615053Y-69674575D01*
X118613764Y-69658778D01*
X118612192Y-69643051D01*
X118610338Y-69627394D01*
X118608201Y-69611807D01*
X118605782Y-69596291D01*
X118603080Y-69580845D01*
X118600095Y-69565469D01*
X118596828Y-69550164D01*
X118593278Y-69534929D01*
X118590755Y-69524811D01*
X118586663Y-69509737D01*
X118582146Y-69494823D01*
X118577205Y-69480067D01*
X118571839Y-69465471D01*
X118566049Y-69451033D01*
X118559834Y-69436755D01*
X118553194Y-69422635D01*
X118546130Y-69408675D01*
X118538641Y-69394873D01*
X118530728Y-69381231D01*
X118525216Y-69372224D01*
X118515093Y-69356825D01*
X118504525Y-69342319D01*
X118493512Y-69328706D01*
X118482055Y-69315985D01*
X118470154Y-69304158D01*
X118457808Y-69293223D01*
X118445017Y-69283181D01*
X118431782Y-69274032D01*
X118418103Y-69265776D01*
X118403979Y-69258412D01*
X118394316Y-69253999D01*
X118379502Y-69248510D01*
X118364460Y-69244614D01*
X118349190Y-69242310D01*
X118333694Y-69241599D01*
X118317969Y-69242480D01*
X118302017Y-69244954D01*
X118285838Y-69249020D01*
X118269431Y-69254679D01*
X118252797Y-69261931D01*
X118235936Y-69270775D01*
X118224568Y-69277556D01*
X118209445Y-69287317D01*
X118195300Y-69297087D01*
X118182133Y-69306867D01*
X118169944Y-69316657D01*
X118158733Y-69326457D01*
X118146095Y-69338721D01*
X118134985Y-69350999D01*
X118130970Y-69355915D01*
X118121704Y-69368347D01*
X118113571Y-69380937D01*
X118105306Y-69396252D01*
X118098670Y-69411794D01*
X118093665Y-69427563D01*
X118091234Y-69438202D01*
X118088489Y-69454032D01*
X118086607Y-69469687D01*
X118085588Y-69485167D01*
X118085432Y-69500473D01*
X118086139Y-69515604D01*
X118086566Y-69520608D01*
X118087950Y-69535453D01*
X118089457Y-69552417D01*
X118090849Y-69568997D01*
X118092125Y-69585195D01*
X118092967Y-69596531D01*
X118093684Y-69611758D01*
X118093685Y-69628254D01*
X118092812Y-69643785D01*
X118091066Y-69658350D01*
X118090786Y-69660102D01*
X118086065Y-69674956D01*
X118077626Y-69688237D01*
X118067005Y-69698721D01*
X118057112Y-69705769D01*
X118043799Y-69712208D01*
X118028524Y-69715256D01*
X118012742Y-69713980D01*
X118007908Y-69712754D01*
X117992908Y-69707805D01*
X117978853Y-69702250D01*
X117964119Y-69695608D01*
X117950668Y-69688905D01*
X117936633Y-69681529D01*
X117922119Y-69673917D01*
X117907125Y-69666066D01*
X117893892Y-69659147D01*
X117882595Y-69653248D01*
X117868532Y-69646387D01*
X117854127Y-69640195D01*
X117839381Y-69634672D01*
X117824294Y-69629818D01*
X117808866Y-69625633D01*
X117803647Y-69624387D01*
X117787473Y-69621325D01*
X117770755Y-69619485D01*
X117753494Y-69618865D01*
X117738694Y-69619280D01*
X117723518Y-69620543D01*
X117711104Y-69622164D01*
X117695265Y-69625217D01*
X117679083Y-69629644D01*
X117662557Y-69635446D01*
X117645687Y-69642622D01*
X117631945Y-69649353D01*
X117617983Y-69656964D01*
X117603800Y-69665455D01*
X117591392Y-69673455D01*
X117574019Y-69685604D01*
X117558133Y-69697933D01*
X117543733Y-69710442D01*
X117530820Y-69723130D01*
X117519394Y-69735998D01*
X117509455Y-69749046D01*
X117501003Y-69762274D01*
X117494037Y-69775681D01*
X117487062Y-69793837D01*
X117484566Y-69803034D01*
X117481469Y-69821898D01*
X117480832Y-69836659D01*
X117313131Y-69836659D01*
X117312937Y-69828041D01*
X117313551Y-69810124D01*
X117315185Y-69792393D01*
X117315753Y-69787989D01*
X117318688Y-69770509D01*
X117322693Y-69753250D01*
X117327769Y-69736214D01*
X117333915Y-69719400D01*
X117341131Y-69702808D01*
X117349418Y-69686438D01*
X117358775Y-69670290D01*
X117369202Y-69654365D01*
X117380766Y-69638735D01*
X117390228Y-69627255D01*
X117400367Y-69615982D01*
X117411182Y-69604917D01*
X117422673Y-69594060D01*
X117434841Y-69583410D01*
X117447686Y-69572968D01*
X117461207Y-69562733D01*
X117475404Y-69552706D01*
X117490278Y-69542886D01*
X117495386Y-69539659D01*
X117511470Y-69530021D01*
X117527565Y-69521199D01*
X117543670Y-69513194D01*
X117559787Y-69506006D01*
X117575914Y-69499634D01*
X117592052Y-69494079D01*
X117608201Y-69489341D01*
X117624361Y-69485420D01*
X117640311Y-69481994D01*
X117655927Y-69478898D01*
X117671209Y-69476133D01*
X117686157Y-69473697D01*
X117700772Y-69471592D01*
X117718571Y-69469424D01*
X117735849Y-69467773D01*
X117742614Y-69467256D01*
X117759014Y-69466239D01*
X117774792Y-69465442D01*
X117789948Y-69464865D01*
X117807314Y-69464462D01*
X117823785Y-69464376D01*
X117836827Y-69464547D01*
X117853351Y-69464321D01*
X117869596Y-69462675D01*
X117884506Y-69459054D01*
X117894769Y-69454261D01*
X117906188Y-69444062D01*
X117915996Y-69430871D01*
X117923914Y-69417596D01*
X117929724Y-69406498D01*
X117937084Y-69391895D01*
X117945207Y-69376572D01*
X117952561Y-69363253D01*
X117960446Y-69349432D01*
X117968862Y-69335111D01*
X117977809Y-69320290D01*
X117987398Y-69305078D01*
X117995612Y-69292706D01*
X118004306Y-69280155D01*
X118013483Y-69267424D01*
X118023142Y-69254514D01*
X118033282Y-69241424D01*
X118043904Y-69228154D01*
X118052187Y-69218084D01*
X118063626Y-69204760D01*
X118075745Y-69191834D01*
X118088545Y-69179306D01*
X118102026Y-69167177D01*
X118116188Y-69155445D01*
X118131031Y-69144112D01*
X118146554Y-69133176D01*
X118162758Y-69122639D01*
X118175889Y-69114784D01*
X118189066Y-69107598D01*
X118202289Y-69101081D01*
X118219992Y-69093435D01*
X118237778Y-69086979D01*
X118255646Y-69081713D01*
X118273596Y-69077638D01*
X118291629Y-69074754D01*
X118305208Y-69073372D01*
X118323134Y-69072396D01*
X118340894Y-69072322D01*
X118358488Y-69073147D01*
G37*
G36*
X142565744Y-87186826D02*
G01*
X142583602Y-87188667D01*
X142601155Y-87191371D01*
X142618403Y-87194939D01*
X142635346Y-87199370D01*
X142651984Y-87204665D01*
X142668316Y-87210823D01*
X142684344Y-87217844D01*
X142700066Y-87225728D01*
X142715402Y-87234330D01*
X142730344Y-87243672D01*
X142744890Y-87253753D01*
X142759042Y-87264574D01*
X142772798Y-87276135D01*
X142786160Y-87288436D01*
X142799127Y-87301476D01*
X142811699Y-87315256D01*
X142823650Y-87329567D01*
X142834996Y-87344297D01*
X142845736Y-87359446D01*
X142855870Y-87375013D01*
X142865398Y-87390999D01*
X142874321Y-87407404D01*
X142882637Y-87424228D01*
X142890348Y-87441471D01*
X142896916Y-87457489D01*
X142903093Y-87473672D01*
X142908879Y-87490022D01*
X142914273Y-87506538D01*
X142919277Y-87523220D01*
X142923889Y-87540068D01*
X142928109Y-87557082D01*
X142931939Y-87574262D01*
X142935377Y-87591608D01*
X142938424Y-87609121D01*
X142940238Y-87620888D01*
X142942663Y-87638608D01*
X142944757Y-87656357D01*
X142946521Y-87674134D01*
X142947954Y-87691940D01*
X142949056Y-87709774D01*
X142949828Y-87727636D01*
X142950268Y-87745527D01*
X142950378Y-87763447D01*
X142950157Y-87781395D01*
X142949606Y-87799371D01*
X142949055Y-87811371D01*
X142947899Y-87829339D01*
X142946487Y-87847297D01*
X142944819Y-87865245D01*
X142942895Y-87883182D01*
X142940715Y-87901110D01*
X142938279Y-87919027D01*
X142935586Y-87936934D01*
X142932637Y-87954830D01*
X142929432Y-87972717D01*
X142925971Y-87990593D01*
X142923521Y-88002505D01*
X142919580Y-88020235D01*
X142915459Y-88037769D01*
X142911156Y-88055108D01*
X142906671Y-88072250D01*
X142902006Y-88089196D01*
X142897160Y-88105946D01*
X142892132Y-88122500D01*
X142886924Y-88138859D01*
X142881534Y-88155021D01*
X142875963Y-88170988D01*
X142872148Y-88181523D01*
X142866347Y-88198260D01*
X142860574Y-88214926D01*
X142854829Y-88231522D01*
X142849113Y-88248048D01*
X142843425Y-88264503D01*
X142837765Y-88280888D01*
X142835509Y-88287422D01*
X142829940Y-88303689D01*
X142824588Y-88320058D01*
X142819455Y-88336529D01*
X142814540Y-88353101D01*
X142809842Y-88369775D01*
X142805363Y-88386551D01*
X142803633Y-88393290D01*
X142800435Y-88409018D01*
X142797441Y-88424972D01*
X142794766Y-88440010D01*
X142791928Y-88456633D01*
X142788928Y-88474841D01*
X142786410Y-88490549D01*
X142783783Y-88506789D01*
X142781039Y-88523077D01*
X142778179Y-88539415D01*
X142775204Y-88555803D01*
X142772112Y-88572239D01*
X142768905Y-88588724D01*
X142765582Y-88605259D01*
X142762143Y-88621843D01*
X142758450Y-88638299D01*
X142754534Y-88654376D01*
X142750396Y-88670075D01*
X142746035Y-88685396D01*
X142741452Y-88700339D01*
X142736645Y-88714904D01*
X142731617Y-88729090D01*
X142726365Y-88742899D01*
X142719461Y-88759016D01*
X142712065Y-88773106D01*
X142702543Y-88787339D01*
X142692313Y-88798654D01*
X142679485Y-88808166D01*
X142673693Y-88811027D01*
X142659449Y-88814901D01*
X142642896Y-88815411D01*
X142626243Y-88813039D01*
X142612555Y-88809517D01*
X142598200Y-88805004D01*
X142583790Y-88799899D01*
X142569324Y-88794201D01*
X142554803Y-88787912D01*
X142540227Y-88781031D01*
X142535356Y-88778605D01*
X142520649Y-88771089D01*
X142506136Y-88763434D01*
X142491816Y-88755641D01*
X142477690Y-88747711D01*
X142463757Y-88739642D01*
X142459155Y-88736922D01*
X142445878Y-88728980D01*
X142431774Y-88720648D01*
X142417483Y-88712355D01*
X142403736Y-88704593D01*
X142401016Y-88703094D01*
X142383265Y-88692717D01*
X142365460Y-88682511D01*
X142347602Y-88672474D01*
X142329689Y-88662606D01*
X142311723Y-88652909D01*
X142293702Y-88643381D01*
X142275628Y-88634024D01*
X142257500Y-88624836D01*
X142239319Y-88615817D01*
X142221083Y-88606969D01*
X142208896Y-88601164D01*
X142190542Y-88592473D01*
X142172130Y-88583828D01*
X142153660Y-88575228D01*
X142135133Y-88566673D01*
X142116548Y-88558164D01*
X142097906Y-88549701D01*
X142079206Y-88541283D01*
X142060448Y-88532910D01*
X142041633Y-88524583D01*
X142022760Y-88516301D01*
X142010145Y-88510805D01*
X141990223Y-88502006D01*
X141970504Y-88492838D01*
X141950989Y-88483300D01*
X141931678Y-88473392D01*
X141912571Y-88463115D01*
X141893668Y-88452469D01*
X141874969Y-88441453D01*
X141856473Y-88430067D01*
X141838181Y-88418313D01*
X141820094Y-88406188D01*
X141802210Y-88393694D01*
X141784529Y-88380831D01*
X141767053Y-88367598D01*
X141749781Y-88353996D01*
X141732712Y-88340024D01*
X141715847Y-88325682D01*
X141699322Y-88310935D01*
X141683306Y-88295827D01*
X141667799Y-88280360D01*
X141652803Y-88264534D01*
X141638316Y-88248349D01*
X141624339Y-88231804D01*
X141610871Y-88214900D01*
X141597914Y-88197636D01*
X141585466Y-88180013D01*
X141573528Y-88162030D01*
X141562099Y-88143688D01*
X141551181Y-88124987D01*
X141540772Y-88105926D01*
X141530873Y-88086506D01*
X141521483Y-88066726D01*
X141512604Y-88046587D01*
X141506219Y-88031069D01*
X141500272Y-88015623D01*
X141494762Y-88000252D01*
X141489688Y-87984953D01*
X141485051Y-87969728D01*
X141480852Y-87954577D01*
X141477089Y-87939499D01*
X141473763Y-87924494D01*
X141470874Y-87909563D01*
X141468422Y-87894705D01*
X141467030Y-87884840D01*
X141465273Y-87870128D01*
X141463787Y-87850812D01*
X141463577Y-87842948D01*
X141630269Y-87842948D01*
X141631365Y-87859661D01*
X141633804Y-87877118D01*
X141637588Y-87895321D01*
X141642717Y-87914267D01*
X141649190Y-87933959D01*
X141657007Y-87954395D01*
X141659912Y-87961372D01*
X141665998Y-87975232D01*
X141672393Y-87988863D01*
X141679096Y-88002265D01*
X141686108Y-88015438D01*
X141693428Y-88028382D01*
X141701057Y-88041098D01*
X141708995Y-88053584D01*
X141717241Y-88065841D01*
X141725796Y-88077870D01*
X141734660Y-88089669D01*
X141740740Y-88097408D01*
X141749995Y-88108878D01*
X141759441Y-88120169D01*
X141769076Y-88131282D01*
X141778901Y-88142216D01*
X141788917Y-88152972D01*
X141799122Y-88163549D01*
X141809518Y-88173947D01*
X141820103Y-88184166D01*
X141830879Y-88194207D01*
X141841844Y-88204070D01*
X141849260Y-88210546D01*
X141860498Y-88220055D01*
X141871890Y-88229400D01*
X141883437Y-88238582D01*
X141895138Y-88247601D01*
X141906994Y-88256456D01*
X141919004Y-88265147D01*
X141931168Y-88273675D01*
X141943487Y-88282039D01*
X141955961Y-88290240D01*
X141968589Y-88298278D01*
X141977093Y-88303545D01*
X141989901Y-88311251D01*
X142002762Y-88318801D01*
X142015675Y-88326196D01*
X142028642Y-88333435D01*
X142041662Y-88340519D01*
X142054734Y-88347448D01*
X142067860Y-88354221D01*
X142081039Y-88360839D01*
X142094270Y-88367302D01*
X142107555Y-88373609D01*
X142116440Y-88377727D01*
X142131466Y-88384409D01*
X142146283Y-88391472D01*
X142160954Y-88398703D01*
X142174211Y-88405367D01*
X142188821Y-88412813D01*
X142204782Y-88421040D01*
X142208984Y-88423219D01*
X142225969Y-88431986D01*
X142243217Y-88440753D01*
X142256324Y-88447328D01*
X142269578Y-88453905D01*
X142282979Y-88460482D01*
X142296528Y-88467059D01*
X142310224Y-88473637D01*
X142324066Y-88480215D01*
X142338056Y-88486794D01*
X142352193Y-88493374D01*
X142366292Y-88499879D01*
X142380166Y-88506234D01*
X142393815Y-88512439D01*
X142407241Y-88518496D01*
X142424792Y-88526338D01*
X142441944Y-88533914D01*
X142458697Y-88541224D01*
X142475051Y-88548268D01*
X142491007Y-88555046D01*
X142505910Y-88561220D01*
X142522376Y-88567511D01*
X142536440Y-88572218D01*
X142552095Y-88576146D01*
X142567182Y-88576044D01*
X142578112Y-88565227D01*
X142585757Y-88551400D01*
X142588649Y-88545042D01*
X142594399Y-88530810D01*
X142599553Y-88516917D01*
X142604823Y-88501681D01*
X142609432Y-88487551D01*
X142612551Y-88477583D01*
X142617241Y-88461964D01*
X142622003Y-88445922D01*
X142626838Y-88429458D01*
X142631745Y-88412571D01*
X142635890Y-88398176D01*
X142638401Y-88389398D01*
X142642410Y-88374705D01*
X142646336Y-88360183D01*
X142650179Y-88345832D01*
X142653939Y-88331653D01*
X142658342Y-88314863D01*
X142662626Y-88298320D01*
X142666788Y-88282249D01*
X142670826Y-88266874D01*
X142674739Y-88252195D01*
X142679148Y-88235950D01*
X142683388Y-88220653D01*
X142687788Y-88204706D01*
X142692074Y-88189545D01*
X142696358Y-88175011D01*
X142697656Y-88170816D01*
X142702737Y-88156489D01*
X142707707Y-88142049D01*
X142712566Y-88127495D01*
X142717313Y-88112827D01*
X142721949Y-88098046D01*
X142726474Y-88083151D01*
X142730888Y-88068142D01*
X142735190Y-88053019D01*
X142739382Y-88037783D01*
X142743462Y-88022433D01*
X142746120Y-88012137D01*
X142749940Y-87996579D01*
X142753554Y-87980997D01*
X142756962Y-87965390D01*
X142760164Y-87949759D01*
X142763159Y-87934103D01*
X142765948Y-87918423D01*
X142768531Y-87902719D01*
X142770907Y-87886990D01*
X142773078Y-87871237D01*
X142775042Y-87855460D01*
X142776237Y-87844928D01*
X142777725Y-87829098D01*
X142778923Y-87813293D01*
X142779831Y-87797514D01*
X142780449Y-87781760D01*
X142780777Y-87766031D01*
X142780815Y-87750327D01*
X142780562Y-87734649D01*
X142780020Y-87718996D01*
X142779187Y-87703367D01*
X142778064Y-87687765D01*
X142777154Y-87677377D01*
X142775471Y-87661849D01*
X142773343Y-87646411D01*
X142770771Y-87631064D01*
X142767755Y-87615808D01*
X142764294Y-87600642D01*
X142760389Y-87585567D01*
X142756040Y-87570583D01*
X142751247Y-87555689D01*
X142746009Y-87540886D01*
X142740327Y-87526174D01*
X142736293Y-87516416D01*
X142728703Y-87499623D01*
X142720534Y-87483642D01*
X142711787Y-87468474D01*
X142702461Y-87454117D01*
X142692556Y-87440574D01*
X142682072Y-87427842D01*
X142671010Y-87415923D01*
X142659370Y-87404816D01*
X142647150Y-87394522D01*
X142634352Y-87385040D01*
X142625498Y-87379169D01*
X142611725Y-87371431D01*
X142597478Y-87365229D01*
X142582757Y-87360565D01*
X142567562Y-87357438D01*
X142551894Y-87355849D01*
X142535751Y-87355797D01*
X142519135Y-87357282D01*
X142502045Y-87360305D01*
X142484481Y-87364865D01*
X142466444Y-87370962D01*
X142454155Y-87375882D01*
X142437691Y-87383156D01*
X142422192Y-87390594D01*
X142407657Y-87398194D01*
X142394087Y-87405956D01*
X142381481Y-87413882D01*
X142367080Y-87424017D01*
X142354186Y-87434407D01*
X142349451Y-87438634D01*
X142338355Y-87449464D01*
X142328353Y-87460626D01*
X142317793Y-87474460D01*
X142308808Y-87488773D01*
X142301398Y-87503564D01*
X142297332Y-87513692D01*
X142292145Y-87528897D01*
X142287837Y-87544065D01*
X142284409Y-87559195D01*
X142281861Y-87574288D01*
X142280192Y-87589343D01*
X142279831Y-87594353D01*
X142278875Y-87609232D01*
X142277710Y-87626222D01*
X142276491Y-87642816D01*
X142275218Y-87659014D01*
X142274276Y-87670342D01*
X142272602Y-87685494D01*
X142270022Y-87701788D01*
X142266731Y-87716991D01*
X142262727Y-87731103D01*
X142262177Y-87732790D01*
X142255190Y-87746722D01*
X142244778Y-87758519D01*
X142232648Y-87767213D01*
X142221774Y-87772626D01*
X142207617Y-87776904D01*
X142192054Y-87777525D01*
X142176665Y-87773796D01*
X142172083Y-87771829D01*
X142158042Y-87764594D01*
X142145029Y-87756909D01*
X142131515Y-87748044D01*
X142119279Y-87739318D01*
X142106570Y-87729839D01*
X142093425Y-87720049D01*
X142079844Y-87709949D01*
X142067856Y-87701045D01*
X142057621Y-87693452D01*
X142044804Y-87684475D01*
X142031546Y-87676106D01*
X142017846Y-87668344D01*
X142003703Y-87661190D01*
X141989120Y-87654643D01*
X141984160Y-87652595D01*
X141968664Y-87647042D01*
X141952440Y-87642609D01*
X141935488Y-87639296D01*
X141920806Y-87637391D01*
X141905618Y-87636265D01*
X141893105Y-87635924D01*
X141876983Y-87636461D01*
X141860307Y-87638302D01*
X141843077Y-87641447D01*
X141825293Y-87645896D01*
X141810666Y-87650395D01*
X141795685Y-87655728D01*
X141780350Y-87661895D01*
X141766843Y-87667855D01*
X141747783Y-87677138D01*
X141730164Y-87686830D01*
X141713984Y-87696932D01*
X141699246Y-87707444D01*
X141685947Y-87718366D01*
X141674089Y-87729699D01*
X141663671Y-87741441D01*
X141654694Y-87753593D01*
X141644965Y-87770435D01*
X141641060Y-87779128D01*
X141635051Y-87797276D01*
X141632113Y-87811755D01*
X141630519Y-87826979D01*
X141630269Y-87842948D01*
X141463577Y-87842948D01*
X141463280Y-87831839D01*
X141463752Y-87813209D01*
X141465203Y-87794922D01*
X141467633Y-87776979D01*
X141471042Y-87759379D01*
X141475430Y-87742121D01*
X141476680Y-87737861D01*
X141482313Y-87721054D01*
X141488969Y-87704635D01*
X141496647Y-87688602D01*
X141505348Y-87672957D01*
X141515071Y-87657698D01*
X141525816Y-87642826D01*
X141537584Y-87628341D01*
X141550374Y-87614243D01*
X141564241Y-87600614D01*
X141575382Y-87590755D01*
X141587160Y-87581208D01*
X141599572Y-87571971D01*
X141612621Y-87563045D01*
X141626305Y-87554429D01*
X141640625Y-87546125D01*
X141655581Y-87538132D01*
X141671172Y-87530449D01*
X141687399Y-87523077D01*
X141692949Y-87520689D01*
X141710343Y-87513685D01*
X141727619Y-87507490D01*
X141744779Y-87502103D01*
X141761821Y-87497524D01*
X141778747Y-87493754D01*
X141795555Y-87490792D01*
X141812246Y-87488638D01*
X141828821Y-87487293D01*
X141845110Y-87486405D01*
X141861018Y-87485790D01*
X141876545Y-87485449D01*
X141891690Y-87485382D01*
X141906454Y-87485589D01*
X141924373Y-87486232D01*
X141941696Y-87487304D01*
X141948459Y-87487852D01*
X141964816Y-87489413D01*
X141980525Y-87491094D01*
X141995585Y-87492895D01*
X142012800Y-87495214D01*
X142029082Y-87497706D01*
X142041936Y-87499914D01*
X142058291Y-87502276D01*
X142074594Y-87503192D01*
X142089888Y-87501947D01*
X142100773Y-87498819D01*
X142113648Y-87490532D01*
X142125399Y-87479038D01*
X142135296Y-87467165D01*
X142142770Y-87457112D01*
X142152323Y-87443841D01*
X142162744Y-87429977D01*
X142172092Y-87417972D01*
X142182042Y-87405555D01*
X142192594Y-87392727D01*
X142203750Y-87379488D01*
X142215600Y-87365963D01*
X142225648Y-87355028D01*
X142236199Y-87343992D01*
X142247254Y-87332853D01*
X142258814Y-87321613D01*
X142270877Y-87310270D01*
X142283444Y-87298826D01*
X142293200Y-87290176D01*
X142306582Y-87278805D01*
X142320575Y-87267934D01*
X142335177Y-87257563D01*
X142350389Y-87247692D01*
X142366212Y-87238320D01*
X142382645Y-87229448D01*
X142399688Y-87221075D01*
X142417341Y-87213203D01*
X142431538Y-87207498D01*
X142445677Y-87202462D01*
X142459757Y-87198095D01*
X142478439Y-87193311D01*
X142497015Y-87189717D01*
X142515487Y-87187312D01*
X142533854Y-87186095D01*
X142552116Y-87186067D01*
X142565744Y-87186826D01*
G37*
G36*
X178556420Y-108809965D02*
G01*
X178574549Y-108812163D01*
X178587983Y-108814577D01*
X178605484Y-108818581D01*
X178622577Y-108823404D01*
X178639261Y-108829047D01*
X178655538Y-108835510D01*
X178671406Y-108842793D01*
X178686867Y-108850895D01*
X178701919Y-108859817D01*
X178716563Y-108869559D01*
X178730737Y-108879966D01*
X178744428Y-108891059D01*
X178757638Y-108902838D01*
X178770365Y-108915303D01*
X178782610Y-108928454D01*
X178794374Y-108942291D01*
X178805654Y-108956815D01*
X178816453Y-108972024D01*
X178826571Y-108987685D01*
X178836037Y-109003688D01*
X178844851Y-109020032D01*
X178853012Y-109036719D01*
X178860521Y-109053747D01*
X178867378Y-109071117D01*
X178873582Y-109088829D01*
X178879134Y-109106883D01*
X178883702Y-109123582D01*
X178887860Y-109140398D01*
X178891610Y-109157331D01*
X178894952Y-109174381D01*
X178897885Y-109191549D01*
X178900409Y-109208833D01*
X178902525Y-109226235D01*
X178904232Y-109243753D01*
X178905531Y-109261389D01*
X178906421Y-109279143D01*
X178906787Y-109291043D01*
X178907034Y-109308927D01*
X178906950Y-109326798D01*
X178906534Y-109344658D01*
X178905786Y-109362506D01*
X178904707Y-109380341D01*
X178903296Y-109398165D01*
X178901553Y-109415976D01*
X178899478Y-109433775D01*
X178897072Y-109451562D01*
X178894334Y-109469338D01*
X178892324Y-109481181D01*
X178888987Y-109498874D01*
X178885397Y-109516526D01*
X178881555Y-109534137D01*
X178877459Y-109551706D01*
X178873110Y-109569234D01*
X178868508Y-109586721D01*
X178863653Y-109604166D01*
X178858546Y-109621570D01*
X178853185Y-109638933D01*
X178847571Y-109656254D01*
X178843687Y-109667778D01*
X178837615Y-109684896D01*
X178831387Y-109701797D01*
X178825003Y-109718482D01*
X178818464Y-109734950D01*
X178811768Y-109751201D01*
X178804916Y-109767236D01*
X178797909Y-109783054D01*
X178790745Y-109798656D01*
X178783426Y-109814041D01*
X178775951Y-109829209D01*
X178770881Y-109839201D01*
X178763083Y-109855106D01*
X178755321Y-109870945D01*
X178747597Y-109886717D01*
X178739909Y-109902423D01*
X178732258Y-109918062D01*
X178724644Y-109933635D01*
X178721609Y-109939846D01*
X178714098Y-109955313D01*
X178706792Y-109970908D01*
X178699690Y-109986630D01*
X178692791Y-110002480D01*
X178686097Y-110018457D01*
X178679607Y-110034562D01*
X178677068Y-110041040D01*
X178671978Y-110056261D01*
X178667061Y-110071731D01*
X178662574Y-110086331D01*
X178657731Y-110102484D01*
X178652534Y-110120191D01*
X178648121Y-110135475D01*
X178643534Y-110151273D01*
X178638825Y-110167106D01*
X178633996Y-110182974D01*
X178629046Y-110198876D01*
X178623974Y-110214813D01*
X178618782Y-110230785D01*
X178613468Y-110246792D01*
X178608033Y-110262833D01*
X178602363Y-110278716D01*
X178596517Y-110294196D01*
X178590497Y-110309274D01*
X178584301Y-110323949D01*
X178577931Y-110338222D01*
X178571385Y-110352092D01*
X178564665Y-110365561D01*
X178557769Y-110378626D01*
X178548952Y-110393781D01*
X178539895Y-110406865D01*
X178528709Y-110419832D01*
X178517177Y-110429816D01*
X178503285Y-110437694D01*
X178497187Y-110439828D01*
X178482578Y-110441937D01*
X178466085Y-110440425D01*
X178449845Y-110436042D01*
X178436689Y-110430877D01*
X178422992Y-110424649D01*
X178409311Y-110417825D01*
X178395647Y-110410408D01*
X178382001Y-110402396D01*
X178368372Y-110393789D01*
X178363832Y-110390788D01*
X178350152Y-110381535D01*
X178336680Y-110372169D01*
X178323416Y-110362689D01*
X178310362Y-110353096D01*
X178297516Y-110343390D01*
X178293280Y-110340129D01*
X178281069Y-110330629D01*
X178268086Y-110320640D01*
X178254912Y-110310667D01*
X178242213Y-110301287D01*
X178239697Y-110299468D01*
X178223343Y-110287005D01*
X178206914Y-110274705D01*
X178190412Y-110262566D01*
X178173836Y-110250590D01*
X178157185Y-110238775D01*
X178140460Y-110227122D01*
X178123661Y-110215631D01*
X178106788Y-110204303D01*
X178089841Y-110193136D01*
X178072820Y-110182131D01*
X178061431Y-110174884D01*
X178044273Y-110164021D01*
X178027052Y-110153197D01*
X178009768Y-110142410D01*
X177992421Y-110131661D01*
X177975012Y-110120951D01*
X177957540Y-110110278D01*
X177940005Y-110099644D01*
X177922407Y-110089048D01*
X177904747Y-110078490D01*
X177887024Y-110067969D01*
X177875174Y-110060977D01*
X177856472Y-110049816D01*
X177838018Y-110038313D01*
X177819811Y-110026467D01*
X177801851Y-110014280D01*
X177784139Y-110001751D01*
X177766674Y-109988881D01*
X177749456Y-109975668D01*
X177732486Y-109962113D01*
X177715763Y-109948217D01*
X177699288Y-109933978D01*
X177683060Y-109919398D01*
X177667079Y-109904476D01*
X177651346Y-109889212D01*
X177635860Y-109873606D01*
X177620621Y-109857658D01*
X177605630Y-109841368D01*
X177591025Y-109824717D01*
X177576969Y-109807770D01*
X177563463Y-109790529D01*
X177550507Y-109772993D01*
X177538101Y-109755163D01*
X177526244Y-109737038D01*
X177514938Y-109718618D01*
X177504180Y-109699904D01*
X177493973Y-109680895D01*
X177484316Y-109661591D01*
X177475208Y-109641993D01*
X177466650Y-109622101D01*
X177458641Y-109601914D01*
X177451183Y-109581432D01*
X177444274Y-109560655D01*
X177437914Y-109539584D01*
X177433469Y-109523403D01*
X177429448Y-109507349D01*
X177425852Y-109491420D01*
X177422681Y-109475617D01*
X177419934Y-109459941D01*
X177417612Y-109444390D01*
X177415715Y-109428966D01*
X177414243Y-109413668D01*
X177413195Y-109398496D01*
X177412572Y-109383450D01*
X177412393Y-109373489D01*
X177412409Y-109368525D01*
X177578571Y-109368525D01*
X177578864Y-109386149D01*
X177580402Y-109404677D01*
X177583183Y-109424108D01*
X177587208Y-109444441D01*
X177592477Y-109465677D01*
X177594510Y-109472957D01*
X177598861Y-109487455D01*
X177603547Y-109501764D01*
X177608567Y-109515883D01*
X177613921Y-109529812D01*
X177619610Y-109543552D01*
X177625632Y-109557102D01*
X177631989Y-109570463D01*
X177638680Y-109583634D01*
X177645705Y-109596615D01*
X177653065Y-109609407D01*
X177658157Y-109617829D01*
X177665945Y-109630342D01*
X177673944Y-109642700D01*
X177682153Y-109654904D01*
X177690573Y-109666954D01*
X177699203Y-109678850D01*
X177708043Y-109690592D01*
X177717094Y-109702179D01*
X177726355Y-109713613D01*
X177735827Y-109724892D01*
X177745509Y-109736017D01*
X177752080Y-109743349D01*
X177762075Y-109754156D01*
X177772244Y-109764821D01*
X177782585Y-109775341D01*
X177793100Y-109785719D01*
X177803788Y-109795952D01*
X177814650Y-109806043D01*
X177825684Y-109815990D01*
X177836892Y-109825793D01*
X177848273Y-109835453D01*
X177859827Y-109844969D01*
X177867626Y-109851234D01*
X177879400Y-109860443D01*
X177891244Y-109869504D01*
X177903161Y-109878418D01*
X177915148Y-109887184D01*
X177927208Y-109895802D01*
X177939339Y-109904272D01*
X177951541Y-109912594D01*
X177963815Y-109920769D01*
X177976160Y-109928795D01*
X177988577Y-109936674D01*
X177996895Y-109941845D01*
X178010993Y-109950308D01*
X178024839Y-109959125D01*
X178038520Y-109968089D01*
X178050866Y-109976319D01*
X178064460Y-109985490D01*
X178079299Y-109995602D01*
X178083204Y-109998277D01*
X178098994Y-110009047D01*
X178115045Y-110019851D01*
X178127253Y-110027975D01*
X178139607Y-110036118D01*
X178152107Y-110044279D01*
X178164753Y-110052458D01*
X178177545Y-110060656D01*
X178190483Y-110068873D01*
X178203566Y-110077108D01*
X178216796Y-110085361D01*
X178229997Y-110093535D01*
X178242993Y-110101534D01*
X178255785Y-110109357D01*
X178268372Y-110117004D01*
X178284836Y-110126927D01*
X178300937Y-110136536D01*
X178316675Y-110145834D01*
X178332049Y-110154818D01*
X178347059Y-110163491D01*
X178361098Y-110171435D01*
X178376675Y-110179686D01*
X178390061Y-110186072D01*
X178405121Y-110191878D01*
X178420108Y-110193615D01*
X178432274Y-110184211D01*
X178441548Y-110171419D01*
X178445193Y-110165460D01*
X178452634Y-110152036D01*
X178459443Y-110138875D01*
X178466531Y-110124394D01*
X178472827Y-110110931D01*
X178477138Y-110101418D01*
X178483696Y-110086486D01*
X178490378Y-110071145D01*
X178497183Y-110055392D01*
X178504112Y-110039229D01*
X178509980Y-110025446D01*
X178513542Y-110017040D01*
X178519312Y-110002945D01*
X178524978Y-109989010D01*
X178530541Y-109975234D01*
X178536002Y-109961619D01*
X178542418Y-109945491D01*
X178548686Y-109929594D01*
X178554775Y-109914149D01*
X178560657Y-109899381D01*
X178566330Y-109885288D01*
X178572686Y-109869702D01*
X178578759Y-109855035D01*
X178585069Y-109839743D01*
X178591171Y-109825217D01*
X178597195Y-109811314D01*
X178598994Y-109807309D01*
X178605783Y-109793708D01*
X178612476Y-109779981D01*
X178619072Y-109766128D01*
X178625571Y-109752148D01*
X178631974Y-109738042D01*
X178638281Y-109723809D01*
X178644491Y-109709450D01*
X178650604Y-109694964D01*
X178656621Y-109680353D01*
X178662541Y-109665614D01*
X178666435Y-109655719D01*
X178672123Y-109640742D01*
X178677609Y-109625716D01*
X178682893Y-109610641D01*
X178687976Y-109595517D01*
X178692857Y-109580343D01*
X178697536Y-109565120D01*
X178702013Y-109549847D01*
X178706289Y-109534526D01*
X178710363Y-109519154D01*
X178714235Y-109503734D01*
X178716705Y-109493426D01*
X178720111Y-109477896D01*
X178723226Y-109462355D01*
X178726051Y-109446804D01*
X178728584Y-109431243D01*
X178730826Y-109415671D01*
X178732777Y-109400089D01*
X178734438Y-109384496D01*
X178735807Y-109368894D01*
X178736885Y-109353281D01*
X178737672Y-109337657D01*
X178738035Y-109327236D01*
X178738256Y-109311618D01*
X178738026Y-109296037D01*
X178737343Y-109280491D01*
X178736208Y-109264980D01*
X178734622Y-109249506D01*
X178732583Y-109234068D01*
X178730093Y-109218665D01*
X178727150Y-109203298D01*
X178723756Y-109187967D01*
X178719909Y-109172672D01*
X178717094Y-109162495D01*
X178711607Y-109144902D01*
X178705447Y-109128045D01*
X178698613Y-109111923D01*
X178691106Y-109096538D01*
X178682926Y-109081888D01*
X178674072Y-109067974D01*
X178664545Y-109054795D01*
X178654345Y-109042353D01*
X178643471Y-109030646D01*
X178631924Y-109019675D01*
X178623852Y-109012769D01*
X178611124Y-109003409D01*
X178597739Y-108995518D01*
X178583696Y-108989094D01*
X178568996Y-108984139D01*
X178553637Y-108980652D01*
X178537622Y-108978633D01*
X178520948Y-108978082D01*
X178503617Y-108979000D01*
X178485629Y-108981386D01*
X178466983Y-108985239D01*
X178454186Y-108988624D01*
X178436958Y-108993838D01*
X178420668Y-108999331D01*
X178405315Y-109005103D01*
X178390900Y-109011154D01*
X178377423Y-109017484D01*
X178361894Y-109025789D01*
X178347830Y-109034530D01*
X178342615Y-109038149D01*
X178330282Y-109047546D01*
X178318994Y-109057406D01*
X178306827Y-109069849D01*
X178296165Y-109082961D01*
X178287007Y-109096739D01*
X178281737Y-109106295D01*
X178274736Y-109120755D01*
X178268612Y-109135285D01*
X178263365Y-109149885D01*
X178258996Y-109164554D01*
X178255505Y-109179294D01*
X178254536Y-109184223D01*
X178251774Y-109198874D01*
X178248547Y-109215596D01*
X178245315Y-109231918D01*
X178242077Y-109247840D01*
X178239762Y-109258968D01*
X178236254Y-109273803D01*
X178231708Y-109289661D01*
X178226588Y-109304350D01*
X178220895Y-109317869D01*
X178220143Y-109319476D01*
X178211510Y-109332453D01*
X178199738Y-109342893D01*
X178186638Y-109350044D01*
X178175186Y-109354092D01*
X178160614Y-109356612D01*
X178145091Y-109355331D01*
X178130271Y-109349755D01*
X178125963Y-109347244D01*
X178112908Y-109338352D01*
X178100928Y-109329139D01*
X178088595Y-109318692D01*
X178077514Y-109308541D01*
X178066055Y-109297583D01*
X178054202Y-109286264D01*
X178041953Y-109274585D01*
X178031139Y-109264286D01*
X178021906Y-109255502D01*
X178010279Y-109245031D01*
X177998139Y-109235108D01*
X177985487Y-109225735D01*
X177972322Y-109216910D01*
X177958644Y-109208634D01*
X177953971Y-109205998D01*
X177939268Y-109198597D01*
X177923705Y-109192220D01*
X177907283Y-109186866D01*
X177892943Y-109183186D01*
X177878006Y-109180217D01*
X177865626Y-109178353D01*
X177849559Y-109176922D01*
X177832783Y-109176717D01*
X177815299Y-109177739D01*
X177797105Y-109179987D01*
X177782039Y-109182670D01*
X177766520Y-109186137D01*
X177750547Y-109190390D01*
X177736414Y-109194660D01*
X177716365Y-109201550D01*
X177697696Y-109209022D01*
X177680406Y-109217077D01*
X177664496Y-109225715D01*
X177649966Y-109234935D01*
X177636815Y-109244738D01*
X177625044Y-109255123D01*
X177614653Y-109266091D01*
X177602944Y-109281621D01*
X177598009Y-109289774D01*
X177589833Y-109307054D01*
X177585152Y-109321067D01*
X177581714Y-109335984D01*
X177579521Y-109351803D01*
X177578571Y-109368525D01*
X177412409Y-109368525D01*
X177412442Y-109358672D01*
X177413321Y-109339319D01*
X177415130Y-109320426D01*
X177417869Y-109301992D01*
X177421538Y-109284019D01*
X177426136Y-109266505D01*
X177431665Y-109249452D01*
X177438123Y-109232858D01*
X177439883Y-109228781D01*
X177447522Y-109212787D01*
X177456130Y-109197301D01*
X177465704Y-109182323D01*
X177476247Y-109167854D01*
X177487757Y-109153894D01*
X177500235Y-109140443D01*
X177513680Y-109127500D01*
X177528093Y-109115065D01*
X177543517Y-109103228D01*
X177555777Y-109094801D01*
X177568630Y-109086760D01*
X177582076Y-109079104D01*
X177596115Y-109071835D01*
X177610747Y-109064952D01*
X177625973Y-109058455D01*
X177641791Y-109052343D01*
X177658202Y-109046618D01*
X177675206Y-109041279D01*
X177681006Y-109039585D01*
X177699124Y-109034753D01*
X177717027Y-109030709D01*
X177734715Y-109027453D01*
X177752188Y-109024986D01*
X177769447Y-109023306D01*
X177786491Y-109022415D01*
X177803320Y-109022311D01*
X177819935Y-109022996D01*
X177836211Y-109024100D01*
X177852076Y-109025428D01*
X177867528Y-109026982D01*
X177882569Y-109028762D01*
X177897198Y-109030766D01*
X177914905Y-109033589D01*
X177931968Y-109036763D01*
X177938614Y-109038131D01*
X177954659Y-109041674D01*
X177970045Y-109045257D01*
X177984774Y-109048879D01*
X178001578Y-109053279D01*
X178017434Y-109057737D01*
X178029924Y-109061495D01*
X178045870Y-109065833D01*
X178061939Y-109068729D01*
X178077270Y-109069357D01*
X178088456Y-109067579D01*
X178102245Y-109060923D01*
X178115309Y-109050947D01*
X178126579Y-109040368D01*
X178135223Y-109031301D01*
X178146322Y-109019293D01*
X178158355Y-109006803D01*
X178169096Y-108996026D01*
X178180485Y-108984914D01*
X178192522Y-108973468D01*
X178205208Y-108961687D01*
X178218618Y-108949707D01*
X178229923Y-108940078D01*
X178241741Y-108930410D01*
X178254071Y-108920702D01*
X178266914Y-108910954D01*
X178280270Y-108901166D01*
X178294138Y-108891339D01*
X178304876Y-108883942D01*
X178319544Y-108874287D01*
X178334757Y-108865202D01*
X178350514Y-108856688D01*
X178366816Y-108848744D01*
X178383663Y-108841370D01*
X178401055Y-108834567D01*
X178418991Y-108828334D01*
X178437472Y-108822672D01*
X178452259Y-108818740D01*
X178466906Y-108815464D01*
X178481413Y-108812845D01*
X178500538Y-108810374D01*
X178519415Y-108809071D01*
X178538042Y-108808934D01*
X178556420Y-108809965D01*
G37*
G36*
X125056420Y-82109965D02*
G01*
X125074549Y-82112163D01*
X125087983Y-82114577D01*
X125105484Y-82118581D01*
X125122577Y-82123404D01*
X125139261Y-82129047D01*
X125155538Y-82135510D01*
X125171406Y-82142793D01*
X125186867Y-82150895D01*
X125201919Y-82159817D01*
X125216563Y-82169559D01*
X125230737Y-82179966D01*
X125244428Y-82191059D01*
X125257638Y-82202838D01*
X125270365Y-82215303D01*
X125282610Y-82228454D01*
X125294374Y-82242291D01*
X125305654Y-82256815D01*
X125316453Y-82272024D01*
X125326571Y-82287685D01*
X125336037Y-82303688D01*
X125344851Y-82320032D01*
X125353012Y-82336719D01*
X125360521Y-82353747D01*
X125367378Y-82371117D01*
X125373582Y-82388829D01*
X125379134Y-82406883D01*
X125383702Y-82423582D01*
X125387860Y-82440398D01*
X125391610Y-82457331D01*
X125394952Y-82474381D01*
X125397885Y-82491549D01*
X125400409Y-82508833D01*
X125402525Y-82526235D01*
X125404232Y-82543753D01*
X125405531Y-82561389D01*
X125406421Y-82579143D01*
X125406787Y-82591043D01*
X125407034Y-82608927D01*
X125406950Y-82626798D01*
X125406534Y-82644658D01*
X125405786Y-82662506D01*
X125404707Y-82680341D01*
X125403296Y-82698165D01*
X125401553Y-82715976D01*
X125399478Y-82733775D01*
X125397072Y-82751562D01*
X125394334Y-82769338D01*
X125392324Y-82781181D01*
X125388987Y-82798874D01*
X125385397Y-82816526D01*
X125381555Y-82834137D01*
X125377459Y-82851706D01*
X125373110Y-82869234D01*
X125368508Y-82886721D01*
X125363653Y-82904166D01*
X125358546Y-82921570D01*
X125353185Y-82938933D01*
X125347571Y-82956254D01*
X125343687Y-82967778D01*
X125337615Y-82984896D01*
X125331387Y-83001797D01*
X125325003Y-83018482D01*
X125318464Y-83034950D01*
X125311768Y-83051201D01*
X125304916Y-83067236D01*
X125297909Y-83083054D01*
X125290745Y-83098656D01*
X125283426Y-83114041D01*
X125275951Y-83129209D01*
X125270881Y-83139201D01*
X125263083Y-83155106D01*
X125255321Y-83170945D01*
X125247597Y-83186717D01*
X125239909Y-83202423D01*
X125232258Y-83218062D01*
X125224644Y-83233635D01*
X125221609Y-83239846D01*
X125214098Y-83255313D01*
X125206792Y-83270908D01*
X125199690Y-83286630D01*
X125192791Y-83302480D01*
X125186097Y-83318457D01*
X125179607Y-83334562D01*
X125177068Y-83341040D01*
X125171978Y-83356261D01*
X125167061Y-83371731D01*
X125162574Y-83386331D01*
X125157731Y-83402484D01*
X125152534Y-83420191D01*
X125148121Y-83435475D01*
X125143534Y-83451273D01*
X125138825Y-83467106D01*
X125133996Y-83482974D01*
X125129046Y-83498876D01*
X125123974Y-83514813D01*
X125118782Y-83530785D01*
X125113468Y-83546792D01*
X125108033Y-83562833D01*
X125102363Y-83578716D01*
X125096517Y-83594196D01*
X125090497Y-83609274D01*
X125084301Y-83623949D01*
X125077931Y-83638222D01*
X125071385Y-83652092D01*
X125064665Y-83665561D01*
X125057769Y-83678626D01*
X125048952Y-83693781D01*
X125039895Y-83706865D01*
X125028709Y-83719832D01*
X125017177Y-83729816D01*
X125003285Y-83737694D01*
X124997187Y-83739828D01*
X124982578Y-83741937D01*
X124966085Y-83740425D01*
X124949845Y-83736042D01*
X124936689Y-83730877D01*
X124922992Y-83724649D01*
X124909311Y-83717825D01*
X124895647Y-83710408D01*
X124882001Y-83702396D01*
X124868372Y-83693789D01*
X124863832Y-83690788D01*
X124850152Y-83681535D01*
X124836680Y-83672169D01*
X124823416Y-83662689D01*
X124810362Y-83653096D01*
X124797516Y-83643390D01*
X124793280Y-83640129D01*
X124781069Y-83630629D01*
X124768086Y-83620640D01*
X124754912Y-83610667D01*
X124742213Y-83601287D01*
X124739697Y-83599468D01*
X124723343Y-83587005D01*
X124706914Y-83574705D01*
X124690412Y-83562566D01*
X124673836Y-83550590D01*
X124657185Y-83538775D01*
X124640460Y-83527122D01*
X124623661Y-83515631D01*
X124606788Y-83504303D01*
X124589841Y-83493136D01*
X124572820Y-83482131D01*
X124561431Y-83474884D01*
X124544273Y-83464021D01*
X124527052Y-83453197D01*
X124509768Y-83442410D01*
X124492421Y-83431661D01*
X124475012Y-83420951D01*
X124457540Y-83410278D01*
X124440005Y-83399644D01*
X124422407Y-83389048D01*
X124404747Y-83378490D01*
X124387024Y-83367969D01*
X124375174Y-83360977D01*
X124356472Y-83349816D01*
X124338018Y-83338313D01*
X124319811Y-83326467D01*
X124301851Y-83314280D01*
X124284139Y-83301751D01*
X124266674Y-83288881D01*
X124249456Y-83275668D01*
X124232486Y-83262113D01*
X124215763Y-83248217D01*
X124199288Y-83233978D01*
X124183060Y-83219398D01*
X124167079Y-83204476D01*
X124151346Y-83189212D01*
X124135860Y-83173606D01*
X124120621Y-83157658D01*
X124105630Y-83141368D01*
X124091025Y-83124717D01*
X124076969Y-83107770D01*
X124063463Y-83090529D01*
X124050507Y-83072993D01*
X124038101Y-83055163D01*
X124026244Y-83037038D01*
X124014938Y-83018618D01*
X124004180Y-82999904D01*
X123993973Y-82980895D01*
X123984316Y-82961591D01*
X123975208Y-82941993D01*
X123966650Y-82922101D01*
X123958641Y-82901914D01*
X123951183Y-82881432D01*
X123944274Y-82860655D01*
X123937914Y-82839584D01*
X123933469Y-82823403D01*
X123929448Y-82807349D01*
X123925852Y-82791420D01*
X123922681Y-82775617D01*
X123919934Y-82759941D01*
X123917612Y-82744390D01*
X123915715Y-82728966D01*
X123914243Y-82713668D01*
X123913195Y-82698496D01*
X123912572Y-82683450D01*
X123912393Y-82673489D01*
X123912409Y-82668525D01*
X124078571Y-82668525D01*
X124078864Y-82686149D01*
X124080402Y-82704677D01*
X124083183Y-82724108D01*
X124087208Y-82744441D01*
X124092477Y-82765677D01*
X124094510Y-82772957D01*
X124098861Y-82787455D01*
X124103547Y-82801764D01*
X124108567Y-82815883D01*
X124113921Y-82829812D01*
X124119610Y-82843552D01*
X124125632Y-82857102D01*
X124131989Y-82870463D01*
X124138680Y-82883634D01*
X124145705Y-82896615D01*
X124153065Y-82909407D01*
X124158157Y-82917829D01*
X124165945Y-82930342D01*
X124173944Y-82942700D01*
X124182153Y-82954904D01*
X124190573Y-82966954D01*
X124199203Y-82978850D01*
X124208043Y-82990592D01*
X124217094Y-83002179D01*
X124226355Y-83013613D01*
X124235827Y-83024892D01*
X124245509Y-83036017D01*
X124252080Y-83043349D01*
X124262075Y-83054156D01*
X124272244Y-83064821D01*
X124282585Y-83075341D01*
X124293100Y-83085719D01*
X124303788Y-83095952D01*
X124314650Y-83106043D01*
X124325684Y-83115990D01*
X124336892Y-83125793D01*
X124348273Y-83135453D01*
X124359827Y-83144969D01*
X124367626Y-83151234D01*
X124379400Y-83160443D01*
X124391244Y-83169504D01*
X124403161Y-83178418D01*
X124415148Y-83187184D01*
X124427208Y-83195802D01*
X124439339Y-83204272D01*
X124451541Y-83212594D01*
X124463815Y-83220769D01*
X124476160Y-83228795D01*
X124488577Y-83236674D01*
X124496895Y-83241845D01*
X124510993Y-83250308D01*
X124524839Y-83259125D01*
X124538520Y-83268089D01*
X124550866Y-83276319D01*
X124564460Y-83285490D01*
X124579299Y-83295602D01*
X124583204Y-83298277D01*
X124598994Y-83309047D01*
X124615045Y-83319851D01*
X124627253Y-83327975D01*
X124639607Y-83336118D01*
X124652107Y-83344279D01*
X124664753Y-83352458D01*
X124677545Y-83360656D01*
X124690483Y-83368873D01*
X124703566Y-83377108D01*
X124716796Y-83385361D01*
X124729997Y-83393535D01*
X124742993Y-83401534D01*
X124755785Y-83409357D01*
X124768372Y-83417004D01*
X124784836Y-83426927D01*
X124800937Y-83436536D01*
X124816675Y-83445834D01*
X124832049Y-83454818D01*
X124847059Y-83463491D01*
X124861098Y-83471435D01*
X124876675Y-83479686D01*
X124890061Y-83486072D01*
X124905121Y-83491878D01*
X124920108Y-83493615D01*
X124932274Y-83484211D01*
X124941548Y-83471419D01*
X124945193Y-83465460D01*
X124952634Y-83452036D01*
X124959443Y-83438875D01*
X124966531Y-83424394D01*
X124972827Y-83410931D01*
X124977138Y-83401418D01*
X124983696Y-83386486D01*
X124990378Y-83371145D01*
X124997183Y-83355392D01*
X125004112Y-83339229D01*
X125009980Y-83325446D01*
X125013542Y-83317040D01*
X125019312Y-83302945D01*
X125024978Y-83289010D01*
X125030541Y-83275234D01*
X125036002Y-83261619D01*
X125042418Y-83245491D01*
X125048686Y-83229594D01*
X125054775Y-83214149D01*
X125060657Y-83199381D01*
X125066330Y-83185288D01*
X125072686Y-83169702D01*
X125078759Y-83155035D01*
X125085069Y-83139743D01*
X125091171Y-83125217D01*
X125097195Y-83111314D01*
X125098994Y-83107309D01*
X125105783Y-83093708D01*
X125112476Y-83079981D01*
X125119072Y-83066128D01*
X125125571Y-83052148D01*
X125131974Y-83038042D01*
X125138281Y-83023809D01*
X125144491Y-83009450D01*
X125150604Y-82994964D01*
X125156621Y-82980353D01*
X125162541Y-82965614D01*
X125166435Y-82955719D01*
X125172123Y-82940742D01*
X125177609Y-82925716D01*
X125182893Y-82910641D01*
X125187976Y-82895517D01*
X125192857Y-82880343D01*
X125197536Y-82865120D01*
X125202013Y-82849847D01*
X125206289Y-82834526D01*
X125210363Y-82819154D01*
X125214235Y-82803734D01*
X125216705Y-82793426D01*
X125220111Y-82777896D01*
X125223226Y-82762355D01*
X125226051Y-82746804D01*
X125228584Y-82731243D01*
X125230826Y-82715671D01*
X125232777Y-82700089D01*
X125234438Y-82684496D01*
X125235807Y-82668894D01*
X125236885Y-82653281D01*
X125237672Y-82637657D01*
X125238035Y-82627236D01*
X125238256Y-82611618D01*
X125238026Y-82596037D01*
X125237343Y-82580491D01*
X125236208Y-82564980D01*
X125234622Y-82549506D01*
X125232583Y-82534068D01*
X125230093Y-82518665D01*
X125227150Y-82503298D01*
X125223756Y-82487967D01*
X125219909Y-82472672D01*
X125217094Y-82462495D01*
X125211607Y-82444902D01*
X125205447Y-82428045D01*
X125198613Y-82411923D01*
X125191106Y-82396538D01*
X125182926Y-82381888D01*
X125174072Y-82367974D01*
X125164545Y-82354795D01*
X125154345Y-82342353D01*
X125143471Y-82330646D01*
X125131924Y-82319675D01*
X125123852Y-82312769D01*
X125111124Y-82303409D01*
X125097739Y-82295518D01*
X125083696Y-82289094D01*
X125068996Y-82284139D01*
X125053637Y-82280652D01*
X125037622Y-82278633D01*
X125020948Y-82278082D01*
X125003617Y-82279000D01*
X124985629Y-82281386D01*
X124966983Y-82285239D01*
X124954186Y-82288624D01*
X124936958Y-82293838D01*
X124920668Y-82299331D01*
X124905315Y-82305103D01*
X124890900Y-82311154D01*
X124877423Y-82317484D01*
X124861894Y-82325789D01*
X124847830Y-82334530D01*
X124842615Y-82338149D01*
X124830282Y-82347546D01*
X124818994Y-82357406D01*
X124806827Y-82369849D01*
X124796165Y-82382961D01*
X124787007Y-82396739D01*
X124781737Y-82406295D01*
X124774736Y-82420755D01*
X124768612Y-82435285D01*
X124763365Y-82449885D01*
X124758996Y-82464554D01*
X124755505Y-82479294D01*
X124754536Y-82484223D01*
X124751774Y-82498874D01*
X124748547Y-82515596D01*
X124745315Y-82531918D01*
X124742077Y-82547840D01*
X124739762Y-82558968D01*
X124736254Y-82573803D01*
X124731708Y-82589661D01*
X124726588Y-82604350D01*
X124720895Y-82617869D01*
X124720143Y-82619476D01*
X124711510Y-82632453D01*
X124699738Y-82642893D01*
X124686638Y-82650044D01*
X124675186Y-82654092D01*
X124660614Y-82656612D01*
X124645091Y-82655331D01*
X124630271Y-82649755D01*
X124625963Y-82647244D01*
X124612908Y-82638352D01*
X124600928Y-82629139D01*
X124588595Y-82618692D01*
X124577514Y-82608541D01*
X124566055Y-82597583D01*
X124554202Y-82586264D01*
X124541953Y-82574585D01*
X124531139Y-82564286D01*
X124521906Y-82555502D01*
X124510279Y-82545031D01*
X124498139Y-82535108D01*
X124485487Y-82525735D01*
X124472322Y-82516910D01*
X124458644Y-82508634D01*
X124453971Y-82505998D01*
X124439268Y-82498597D01*
X124423705Y-82492220D01*
X124407283Y-82486866D01*
X124392943Y-82483186D01*
X124378006Y-82480217D01*
X124365626Y-82478353D01*
X124349559Y-82476922D01*
X124332783Y-82476717D01*
X124315299Y-82477739D01*
X124297105Y-82479987D01*
X124282039Y-82482670D01*
X124266520Y-82486137D01*
X124250547Y-82490390D01*
X124236414Y-82494660D01*
X124216365Y-82501550D01*
X124197696Y-82509022D01*
X124180406Y-82517077D01*
X124164496Y-82525715D01*
X124149966Y-82534935D01*
X124136815Y-82544738D01*
X124125044Y-82555123D01*
X124114653Y-82566091D01*
X124102944Y-82581621D01*
X124098009Y-82589774D01*
X124089833Y-82607054D01*
X124085152Y-82621067D01*
X124081714Y-82635984D01*
X124079521Y-82651803D01*
X124078571Y-82668525D01*
X123912409Y-82668525D01*
X123912442Y-82658672D01*
X123913321Y-82639319D01*
X123915130Y-82620426D01*
X123917869Y-82601992D01*
X123921538Y-82584019D01*
X123926136Y-82566505D01*
X123931665Y-82549452D01*
X123938123Y-82532858D01*
X123939883Y-82528781D01*
X123947522Y-82512787D01*
X123956130Y-82497301D01*
X123965704Y-82482323D01*
X123976247Y-82467854D01*
X123987757Y-82453894D01*
X124000235Y-82440443D01*
X124013680Y-82427500D01*
X124028093Y-82415065D01*
X124043517Y-82403228D01*
X124055777Y-82394801D01*
X124068630Y-82386760D01*
X124082076Y-82379104D01*
X124096115Y-82371835D01*
X124110747Y-82364952D01*
X124125973Y-82358455D01*
X124141791Y-82352343D01*
X124158202Y-82346618D01*
X124175206Y-82341279D01*
X124181006Y-82339585D01*
X124199124Y-82334753D01*
X124217027Y-82330709D01*
X124234715Y-82327453D01*
X124252188Y-82324986D01*
X124269447Y-82323306D01*
X124286491Y-82322415D01*
X124303320Y-82322311D01*
X124319935Y-82322996D01*
X124336211Y-82324100D01*
X124352076Y-82325428D01*
X124367528Y-82326982D01*
X124382569Y-82328762D01*
X124397198Y-82330766D01*
X124414905Y-82333589D01*
X124431968Y-82336763D01*
X124438614Y-82338131D01*
X124454659Y-82341674D01*
X124470045Y-82345257D01*
X124484774Y-82348879D01*
X124501578Y-82353279D01*
X124517434Y-82357737D01*
X124529924Y-82361495D01*
X124545870Y-82365833D01*
X124561939Y-82368729D01*
X124577270Y-82369357D01*
X124588456Y-82367579D01*
X124602245Y-82360923D01*
X124615309Y-82350947D01*
X124626579Y-82340368D01*
X124635223Y-82331301D01*
X124646322Y-82319293D01*
X124658355Y-82306803D01*
X124669096Y-82296026D01*
X124680485Y-82284914D01*
X124692522Y-82273468D01*
X124705208Y-82261687D01*
X124718618Y-82249707D01*
X124729923Y-82240078D01*
X124741741Y-82230410D01*
X124754071Y-82220702D01*
X124766914Y-82210954D01*
X124780270Y-82201166D01*
X124794138Y-82191339D01*
X124804876Y-82183942D01*
X124819544Y-82174287D01*
X124834757Y-82165202D01*
X124850514Y-82156688D01*
X124866816Y-82148744D01*
X124883663Y-82141370D01*
X124901055Y-82134567D01*
X124918991Y-82128334D01*
X124937472Y-82122672D01*
X124952259Y-82118740D01*
X124966906Y-82115464D01*
X124981413Y-82112845D01*
X125000538Y-82110374D01*
X125019415Y-82109071D01*
X125038042Y-82108934D01*
X125056420Y-82109965D01*
G37*
G36*
X163454999Y-83564329D02*
G01*
X163473614Y-83565660D01*
X163492499Y-83568051D01*
X163511616Y-83571593D01*
X163526082Y-83575065D01*
X163540658Y-83579236D01*
X163555344Y-83584106D01*
X163570141Y-83589674D01*
X163585047Y-83595942D01*
X163600063Y-83602909D01*
X163615189Y-83610575D01*
X163630425Y-83618940D01*
X163645771Y-83628004D01*
X163650911Y-83631181D01*
X163666624Y-83641412D01*
X163681609Y-83652010D01*
X163695864Y-83662977D01*
X163709390Y-83674311D01*
X163722186Y-83686013D01*
X163734253Y-83698083D01*
X163745591Y-83710520D01*
X163756200Y-83723325D01*
X163766271Y-83736159D01*
X163775898Y-83748838D01*
X163785083Y-83761361D01*
X163793825Y-83773729D01*
X163802124Y-83785942D01*
X163811875Y-83800989D01*
X163820934Y-83815794D01*
X163824364Y-83821648D01*
X163832467Y-83835943D01*
X163840100Y-83849774D01*
X163847263Y-83863144D01*
X163855238Y-83878576D01*
X163862535Y-83893342D01*
X163868099Y-83905138D01*
X163875545Y-83919891D01*
X163884146Y-83933771D01*
X163893938Y-83945584D01*
X163902744Y-83952707D01*
X163916916Y-83958500D01*
X163933072Y-83961533D01*
X163948475Y-83962830D01*
X163960997Y-83963187D01*
X163977347Y-83963400D01*
X163994681Y-83963985D01*
X164009876Y-83964756D01*
X164025755Y-83965784D01*
X164042316Y-83967071D01*
X164059559Y-83968615D01*
X164077435Y-83970565D01*
X164092155Y-83972523D01*
X164107248Y-83974836D01*
X164122713Y-83977503D01*
X164138551Y-83980525D01*
X164154761Y-83983901D01*
X164171344Y-83987631D01*
X164184026Y-83990661D01*
X164201016Y-83995101D01*
X164217946Y-84000328D01*
X164234818Y-84006341D01*
X164251629Y-84013140D01*
X164268382Y-84020726D01*
X164285075Y-84029098D01*
X164301708Y-84038256D01*
X164318282Y-84048201D01*
X164331099Y-84056559D01*
X164343334Y-84065253D01*
X164354988Y-84074281D01*
X164369621Y-84086841D01*
X164383220Y-84099996D01*
X164395786Y-84113747D01*
X164407317Y-84128095D01*
X164417815Y-84143038D01*
X164425010Y-84154637D01*
X164433745Y-84170321D01*
X164441597Y-84186251D01*
X164448568Y-84202426D01*
X164454656Y-84218847D01*
X164459862Y-84235512D01*
X164464186Y-84252423D01*
X164467627Y-84269579D01*
X164470187Y-84286980D01*
X164471937Y-84304477D01*
X164472855Y-84322075D01*
X164472940Y-84339773D01*
X164472193Y-84357572D01*
X164470614Y-84375472D01*
X164468202Y-84393472D01*
X164464957Y-84411574D01*
X164460880Y-84429776D01*
X164456012Y-84447774D01*
X164450454Y-84465517D01*
X164444205Y-84483003D01*
X164437265Y-84500234D01*
X164429635Y-84517208D01*
X164421315Y-84533927D01*
X164412304Y-84550389D01*
X164402602Y-84566595D01*
X164393249Y-84581163D01*
X164383535Y-84595506D01*
X164373460Y-84609623D01*
X164363025Y-84623515D01*
X164352230Y-84637182D01*
X164341074Y-84650623D01*
X164329558Y-84663839D01*
X164317681Y-84676830D01*
X164305444Y-84689596D01*
X164292847Y-84702137D01*
X164284248Y-84710372D01*
X164271123Y-84722523D01*
X164257786Y-84734418D01*
X164244235Y-84746060D01*
X164230471Y-84757446D01*
X164216495Y-84768578D01*
X164202305Y-84779456D01*
X164187902Y-84790079D01*
X164173287Y-84800447D01*
X164158458Y-84810561D01*
X164143416Y-84820420D01*
X164133270Y-84826851D01*
X164117889Y-84836211D01*
X164102369Y-84845354D01*
X164086710Y-84854282D01*
X164070913Y-84862995D01*
X164054977Y-84871492D01*
X164038903Y-84879773D01*
X164022690Y-84887838D01*
X164006339Y-84895687D01*
X163989849Y-84903321D01*
X163973220Y-84910740D01*
X163962057Y-84915565D01*
X163945273Y-84922507D01*
X163928546Y-84929187D01*
X163911875Y-84935607D01*
X163895261Y-84941767D01*
X163878704Y-84947665D01*
X163862203Y-84953303D01*
X163845759Y-84958679D01*
X163829371Y-84963796D01*
X163813040Y-84968651D01*
X163796766Y-84973245D01*
X163785948Y-84976164D01*
X163768910Y-84981011D01*
X163751947Y-84985841D01*
X163735057Y-84990655D01*
X163718241Y-84995451D01*
X163701499Y-85000230D01*
X163684832Y-85004992D01*
X163678185Y-85006892D01*
X163661665Y-85011660D01*
X163645187Y-85016665D01*
X163628751Y-85021907D01*
X163612356Y-85027386D01*
X163596004Y-85033102D01*
X163579693Y-85039056D01*
X163573180Y-85041503D01*
X163558462Y-85047905D01*
X163543676Y-85054603D01*
X163529823Y-85061038D01*
X163514579Y-85068248D01*
X163497942Y-85076234D01*
X163483631Y-85083181D01*
X163468821Y-85090343D01*
X163453905Y-85097439D01*
X163438881Y-85104467D01*
X163423751Y-85111429D01*
X163408514Y-85118324D01*
X163393170Y-85125153D01*
X163377720Y-85131914D01*
X163362162Y-85138609D01*
X163346565Y-85145023D01*
X163331149Y-85151037D01*
X163315916Y-85156652D01*
X163300864Y-85161867D01*
X163285994Y-85166684D01*
X163271307Y-85171101D01*
X163256801Y-85175118D01*
X163242478Y-85178737D01*
X163225316Y-85182325D01*
X163209532Y-85184349D01*
X163192411Y-85184712D01*
X163177275Y-85182823D01*
X163162125Y-85177771D01*
X163156459Y-85174667D01*
X163145116Y-85165221D01*
X163135204Y-85151954D01*
X163127594Y-85136952D01*
X163122629Y-85123719D01*
X163118092Y-85109372D01*
X163114009Y-85094640D01*
X163110379Y-85079523D01*
X163107202Y-85064020D01*
X163104478Y-85048133D01*
X163103670Y-85042751D01*
X163101393Y-85026393D01*
X163099339Y-85010114D01*
X163097508Y-84993915D01*
X163095902Y-84977794D01*
X163094520Y-84961753D01*
X163094109Y-84956423D01*
X163092999Y-84940992D01*
X163091734Y-84924659D01*
X163090330Y-84908196D01*
X163088803Y-84892483D01*
X163088472Y-84889395D01*
X163086790Y-84868903D01*
X163084939Y-84848464D01*
X163082917Y-84828078D01*
X163080726Y-84807745D01*
X163078364Y-84787466D01*
X163075833Y-84767240D01*
X163073131Y-84747067D01*
X163070260Y-84726947D01*
X163067219Y-84706881D01*
X163064007Y-84686868D01*
X163061772Y-84673555D01*
X163058364Y-84653536D01*
X163054885Y-84633495D01*
X163051336Y-84613433D01*
X163047717Y-84593349D01*
X163044027Y-84573245D01*
X163040267Y-84553119D01*
X163036437Y-84532973D01*
X163032536Y-84512805D01*
X163028566Y-84492616D01*
X163024524Y-84472406D01*
X163021791Y-84458921D01*
X163017572Y-84437554D01*
X163013772Y-84416143D01*
X163010392Y-84394686D01*
X163007431Y-84373185D01*
X163004890Y-84351639D01*
X163002769Y-84330048D01*
X163001067Y-84308411D01*
X162999785Y-84286730D01*
X162998922Y-84265004D01*
X162998784Y-84258214D01*
X163170738Y-84258214D01*
X163170952Y-84273103D01*
X163171388Y-84288024D01*
X163172048Y-84302979D01*
X163172611Y-84312966D01*
X163173645Y-84327878D01*
X163174837Y-84342743D01*
X163176186Y-84357563D01*
X163177693Y-84372337D01*
X163179358Y-84387065D01*
X163181181Y-84401748D01*
X163183161Y-84416385D01*
X163185299Y-84430976D01*
X163187595Y-84445521D01*
X163190048Y-84460021D01*
X163191771Y-84469662D01*
X163194916Y-84485802D01*
X163197628Y-84501991D01*
X163200120Y-84518156D01*
X163202266Y-84532839D01*
X163204546Y-84549077D01*
X163206961Y-84566871D01*
X163207586Y-84571562D01*
X163210148Y-84590504D01*
X163212859Y-84609661D01*
X163214990Y-84624169D01*
X163217206Y-84638798D01*
X163219505Y-84653549D01*
X163221888Y-84668420D01*
X163224355Y-84683411D01*
X163226907Y-84698524D01*
X163229542Y-84713757D01*
X163232261Y-84729111D01*
X163235019Y-84744391D01*
X163237771Y-84759401D01*
X163240517Y-84774142D01*
X163243256Y-84788613D01*
X163246899Y-84807488D01*
X163250531Y-84825884D01*
X163254153Y-84843800D01*
X163257763Y-84861237D01*
X163261362Y-84878195D01*
X163264853Y-84893943D01*
X163269144Y-84911041D01*
X163273355Y-84925261D01*
X163279117Y-84940338D01*
X163287854Y-84952638D01*
X163302984Y-84955386D01*
X163318696Y-84953718D01*
X163325562Y-84952440D01*
X163340518Y-84948987D01*
X163354855Y-84945241D01*
X163370359Y-84940819D01*
X163384576Y-84936489D01*
X163394531Y-84933327D01*
X163410015Y-84928210D01*
X163425888Y-84922910D01*
X163442147Y-84917427D01*
X163458795Y-84911761D01*
X163472964Y-84906899D01*
X163481595Y-84903921D01*
X163495930Y-84898777D01*
X163510078Y-84893664D01*
X163524037Y-84888581D01*
X163537809Y-84883528D01*
X163554088Y-84877504D01*
X163570096Y-84871525D01*
X163585648Y-84865716D01*
X163600559Y-84860205D01*
X163614828Y-84854991D01*
X163630664Y-84849285D01*
X163645627Y-84843984D01*
X163661213Y-84838441D01*
X163676091Y-84833256D01*
X163690453Y-84828430D01*
X163694634Y-84827086D01*
X163709284Y-84823031D01*
X163723964Y-84818820D01*
X163738672Y-84814452D01*
X163753410Y-84809928D01*
X163768178Y-84805247D01*
X163782975Y-84800410D01*
X163797801Y-84795417D01*
X163812656Y-84790267D01*
X163827541Y-84784962D01*
X163842455Y-84779499D01*
X163852414Y-84775771D01*
X163867350Y-84769977D01*
X163882187Y-84764000D01*
X163896926Y-84757840D01*
X163911566Y-84751496D01*
X163926109Y-84744970D01*
X163940553Y-84738261D01*
X163954898Y-84731370D01*
X163969146Y-84724295D01*
X163983295Y-84717037D01*
X163997346Y-84709596D01*
X164006658Y-84704534D01*
X164020479Y-84696674D01*
X164034112Y-84688590D01*
X164047559Y-84680283D01*
X164060818Y-84671753D01*
X164073891Y-84663000D01*
X164086776Y-84654024D01*
X164099474Y-84644824D01*
X164111985Y-84635401D01*
X164124310Y-84625755D01*
X164136447Y-84615886D01*
X164144434Y-84609182D01*
X164156188Y-84598897D01*
X164167614Y-84588299D01*
X164178710Y-84577390D01*
X164189477Y-84566168D01*
X164199915Y-84554635D01*
X164210024Y-84542790D01*
X164219804Y-84530632D01*
X164229255Y-84518163D01*
X164238377Y-84505382D01*
X164247169Y-84492289D01*
X164252848Y-84483387D01*
X164262251Y-84467538D01*
X164270656Y-84451680D01*
X164278064Y-84435814D01*
X164284475Y-84419941D01*
X164289888Y-84404059D01*
X164294304Y-84388169D01*
X164297723Y-84372271D01*
X164300144Y-84356365D01*
X164301568Y-84340450D01*
X164301995Y-84324528D01*
X164301725Y-84313909D01*
X164300164Y-84298187D01*
X164297072Y-84282960D01*
X164292449Y-84268226D01*
X164286295Y-84253985D01*
X164278610Y-84240239D01*
X164269394Y-84226986D01*
X164258647Y-84214227D01*
X164246368Y-84201961D01*
X164232558Y-84190189D01*
X164217218Y-84178911D01*
X164206140Y-84171667D01*
X164190737Y-84162353D01*
X164175755Y-84153922D01*
X164161193Y-84146375D01*
X164147050Y-84139711D01*
X164133328Y-84133931D01*
X164116765Y-84127948D01*
X164100859Y-84123346D01*
X164094680Y-84121891D01*
X164079445Y-84119014D01*
X164064564Y-84117223D01*
X164047175Y-84116508D01*
X164030297Y-84117357D01*
X164013930Y-84119771D01*
X164003302Y-84122249D01*
X163987872Y-84126722D01*
X163972976Y-84131893D01*
X163958616Y-84137763D01*
X163944791Y-84144332D01*
X163931501Y-84151601D01*
X163927190Y-84154179D01*
X163914454Y-84161930D01*
X163899868Y-84170720D01*
X163885575Y-84179240D01*
X163871577Y-84187488D01*
X163861757Y-84193213D01*
X163848386Y-84200533D01*
X163833559Y-84207766D01*
X163819217Y-84213790D01*
X163805361Y-84218605D01*
X163803663Y-84219122D01*
X163788243Y-84221389D01*
X163772607Y-84219627D01*
X163758528Y-84214677D01*
X163747857Y-84208874D01*
X163736233Y-84199732D01*
X163726798Y-84187339D01*
X163721026Y-84172594D01*
X163720009Y-84167712D01*
X163717882Y-84152061D01*
X163716713Y-84136993D01*
X163716223Y-84120838D01*
X163716353Y-84105811D01*
X163716829Y-84089963D01*
X163717308Y-84073580D01*
X163717792Y-84056662D01*
X163718209Y-84041735D01*
X163718559Y-84028996D01*
X163718561Y-84013348D01*
X163717811Y-83997687D01*
X163716311Y-83982013D01*
X163714060Y-83966324D01*
X163711058Y-83950623D01*
X163709891Y-83945386D01*
X163705552Y-83929507D01*
X163699878Y-83913674D01*
X163692868Y-83897888D01*
X163686007Y-83884768D01*
X163678219Y-83871681D01*
X163671320Y-83861235D01*
X163661633Y-83848337D01*
X163650560Y-83835733D01*
X163638101Y-83823423D01*
X163624256Y-83811407D01*
X163612182Y-83802006D01*
X163599221Y-83792793D01*
X163585372Y-83783768D01*
X163572743Y-83776123D01*
X163554207Y-83765834D01*
X163536161Y-83756960D01*
X163518606Y-83749501D01*
X163501541Y-83743457D01*
X163484967Y-83738829D01*
X163468882Y-83735615D01*
X163453288Y-83733817D01*
X163438184Y-83733433D01*
X163418808Y-83735123D01*
X163409447Y-83736911D01*
X163391135Y-83742398D01*
X163377589Y-83748296D01*
X163364204Y-83755722D01*
X163350980Y-83764677D01*
X163337918Y-83775160D01*
X163325017Y-83787172D01*
X163312277Y-83800712D01*
X163299698Y-83815781D01*
X163287280Y-83832377D01*
X163275024Y-83850503D01*
X163270975Y-83856884D01*
X163263112Y-83869819D01*
X163255614Y-83882876D01*
X163248481Y-83896054D01*
X163241712Y-83909354D01*
X163235307Y-83922775D01*
X163229267Y-83936317D01*
X163223592Y-83949981D01*
X163218281Y-83963767D01*
X163213335Y-83977674D01*
X163208753Y-83991702D01*
X163205902Y-84001122D01*
X163201815Y-84015282D01*
X163197983Y-84029496D01*
X163194407Y-84043762D01*
X163191085Y-84058082D01*
X163188020Y-84072456D01*
X163185209Y-84086882D01*
X163182654Y-84101362D01*
X163180354Y-84115895D01*
X163178310Y-84130481D01*
X163176521Y-84145120D01*
X163175470Y-84154909D01*
X163174126Y-84169569D01*
X163173005Y-84184261D01*
X163172106Y-84198986D01*
X163171430Y-84213744D01*
X163170977Y-84228535D01*
X163170746Y-84243358D01*
X163170738Y-84258214D01*
X162998784Y-84258214D01*
X162998479Y-84243233D01*
X162998456Y-84221417D01*
X162998852Y-84199557D01*
X162999668Y-84177651D01*
X163000903Y-84155700D01*
X163002558Y-84133704D01*
X163004633Y-84111664D01*
X163007235Y-84089668D01*
X163010423Y-84067883D01*
X163014199Y-84046309D01*
X163018561Y-84024947D01*
X163023510Y-84003797D01*
X163029046Y-83982858D01*
X163035169Y-83962130D01*
X163041878Y-83941614D01*
X163049175Y-83921309D01*
X163057058Y-83901215D01*
X163065527Y-83881333D01*
X163074584Y-83861662D01*
X163084227Y-83842203D01*
X163094458Y-83822955D01*
X163105275Y-83803919D01*
X163116678Y-83785094D01*
X163125728Y-83770963D01*
X163134969Y-83757232D01*
X163144400Y-83743901D01*
X163154022Y-83730971D01*
X163163834Y-83718440D01*
X163173836Y-83706309D01*
X163184030Y-83694578D01*
X163194413Y-83683248D01*
X163204987Y-83672317D01*
X163215752Y-83661786D01*
X163223034Y-83654988D01*
X163234078Y-83645110D01*
X163249048Y-83632814D01*
X163264299Y-83621516D01*
X163279830Y-83611217D01*
X163295642Y-83601917D01*
X163311734Y-83593615D01*
X163328107Y-83586313D01*
X163344760Y-83580009D01*
X163348967Y-83578589D01*
X163365965Y-83573563D01*
X163383233Y-83569598D01*
X163400770Y-83566691D01*
X163418577Y-83564844D01*
X163436653Y-83564057D01*
X163454999Y-83564329D01*
G37*
G36*
X117762609Y-120540664D02*
G01*
X117757350Y-120554443D01*
X117750260Y-120571204D01*
X117742595Y-120587451D01*
X117734356Y-120603184D01*
X117725542Y-120618404D01*
X117716153Y-120633110D01*
X117710245Y-120641687D01*
X117699957Y-120655491D01*
X117689212Y-120668405D01*
X117678011Y-120680430D01*
X117666353Y-120691565D01*
X117654238Y-120701810D01*
X117641667Y-120711166D01*
X117636510Y-120714659D01*
X117623220Y-120722776D01*
X117609395Y-120729804D01*
X117595033Y-120735742D01*
X117580134Y-120740590D01*
X117564700Y-120744348D01*
X117548730Y-120747016D01*
X117542192Y-120747778D01*
X117525591Y-120748925D01*
X117508558Y-120748695D01*
X117491094Y-120747090D01*
X117473197Y-120744109D01*
X117458568Y-120740734D01*
X117443663Y-120736479D01*
X117428481Y-120731343D01*
X117414214Y-120725972D01*
X117400461Y-120720432D01*
X117382924Y-120712782D01*
X117366299Y-120704830D01*
X117350589Y-120696578D01*
X117335792Y-120688025D01*
X117321909Y-120679170D01*
X117308940Y-120670015D01*
X117302798Y-120665324D01*
X117291137Y-120655854D01*
X117277431Y-120643886D01*
X117264690Y-120631775D01*
X117252916Y-120619520D01*
X117242107Y-120607123D01*
X117232265Y-120594581D01*
X117226823Y-120586988D01*
X117218437Y-120574430D01*
X117210702Y-120561863D01*
X117202279Y-120546767D01*
X117194794Y-120531657D01*
X117188247Y-120516531D01*
X117184403Y-120506439D01*
X117179177Y-120491675D01*
X117174241Y-120477319D01*
X117169595Y-120463370D01*
X117164542Y-120447611D01*
X117159885Y-120432406D01*
X117155270Y-120418058D01*
X117149749Y-120402714D01*
X117143966Y-120388493D01*
X117137147Y-120373836D01*
X117129267Y-120361168D01*
X117117962Y-120349925D01*
X117103972Y-120341666D01*
X117099252Y-120339769D01*
X117083759Y-120335734D01*
X117068651Y-120335046D01*
X117053928Y-120337706D01*
X117045915Y-120340630D01*
X117031436Y-120347535D01*
X117017967Y-120354749D01*
X117003934Y-120362977D01*
X116991193Y-120371007D01*
X116978068Y-120379740D01*
X116964416Y-120388691D01*
X116950236Y-120397860D01*
X116937663Y-120405894D01*
X116926889Y-120412712D01*
X116913386Y-120420777D01*
X116899150Y-120428219D01*
X116884181Y-120435038D01*
X116868480Y-120441235D01*
X116852045Y-120446808D01*
X116846405Y-120448527D01*
X116831829Y-120452478D01*
X116816589Y-120455692D01*
X116800685Y-120458169D01*
X116784115Y-120459909D01*
X116766882Y-120460912D01*
X116748983Y-120461179D01*
X116741638Y-120461079D01*
X116726636Y-120460370D01*
X116711052Y-120458816D01*
X116694886Y-120456417D01*
X116678139Y-120453173D01*
X116660810Y-120449083D01*
X116642899Y-120444148D01*
X116624407Y-120438367D01*
X116610155Y-120433477D01*
X116605332Y-120431741D01*
X116591294Y-120426260D01*
X116574686Y-120418706D01*
X116559125Y-120410371D01*
X116544609Y-120401256D01*
X116531138Y-120391359D01*
X116518713Y-120380682D01*
X116511760Y-120373902D01*
X116501067Y-120362281D01*
X116491399Y-120350195D01*
X116482757Y-120337645D01*
X116475141Y-120324631D01*
X116468550Y-120311153D01*
X116462985Y-120297211D01*
X116461046Y-120291503D01*
X116456911Y-120277106D01*
X116453651Y-120262343D01*
X116451267Y-120247213D01*
X116449759Y-120231716D01*
X116449127Y-120215853D01*
X116449371Y-120199623D01*
X116449713Y-120193028D01*
X116451202Y-120176595D01*
X116453467Y-120160120D01*
X116456508Y-120143605D01*
X116460326Y-120127048D01*
X116464920Y-120110451D01*
X116470291Y-120093812D01*
X116472657Y-120087145D01*
X116477805Y-120073361D01*
X116485859Y-120053121D01*
X116494313Y-120033403D01*
X116503166Y-120014207D01*
X116512419Y-119995533D01*
X116522070Y-119977381D01*
X116532121Y-119959752D01*
X116542572Y-119942645D01*
X116553421Y-119926060D01*
X116564670Y-119909998D01*
X116576318Y-119894458D01*
X116588366Y-119879340D01*
X116600682Y-119864499D01*
X116613269Y-119849935D01*
X116626124Y-119835646D01*
X116639250Y-119821634D01*
X116652644Y-119807898D01*
X116666309Y-119794438D01*
X116680242Y-119781255D01*
X116694446Y-119768347D01*
X116708919Y-119755717D01*
X116718717Y-119747450D01*
X116733581Y-119735307D01*
X116748645Y-119723368D01*
X116763909Y-119711632D01*
X116779374Y-119700098D01*
X116795039Y-119688768D01*
X116810904Y-119677641D01*
X116826969Y-119666717D01*
X116843234Y-119655997D01*
X116859700Y-119645479D01*
X116876366Y-119635164D01*
X116887588Y-119628401D01*
X116904603Y-119618337D01*
X116921720Y-119608257D01*
X116938940Y-119598159D01*
X116956262Y-119588043D01*
X116973687Y-119577910D01*
X116991214Y-119567759D01*
X117008843Y-119557590D01*
X117026574Y-119547404D01*
X117044408Y-119537201D01*
X117062345Y-119526979D01*
X117074359Y-119520155D01*
X117089291Y-119511303D01*
X117104221Y-119502533D01*
X117119148Y-119493843D01*
X117134073Y-119485236D01*
X117148996Y-119476709D01*
X117153970Y-119473885D01*
X117168846Y-119465287D01*
X117183632Y-119456409D01*
X117198328Y-119447252D01*
X117212933Y-119437815D01*
X117227449Y-119428099D01*
X117232267Y-119424798D01*
X117245148Y-119415469D01*
X117257506Y-119406419D01*
X117270795Y-119396642D01*
X117281702Y-119388598D01*
X117295627Y-119378470D01*
X117309906Y-119368197D01*
X117322076Y-119359525D01*
X117334493Y-119350753D01*
X117347155Y-119341880D01*
X117360064Y-119332906D01*
X117372983Y-119324210D01*
X117385542Y-119315877D01*
X117400136Y-119306359D01*
X117414211Y-119297364D01*
X117427766Y-119288892D01*
X117436514Y-119283536D01*
X117450348Y-119275506D01*
X117464392Y-119268535D01*
X117478963Y-119265456D01*
X117491686Y-119274028D01*
X117501130Y-119286292D01*
X117504872Y-119292821D01*
X117512113Y-119307427D01*
X117518038Y-119321659D01*
X117523404Y-119336921D01*
X117525609Y-119344035D01*
X117529739Y-119358331D01*
X117533978Y-119374091D01*
X117537786Y-119389509D01*
X117540085Y-119399598D01*
X117543484Y-119413945D01*
X117547559Y-119428939D01*
X117551904Y-119442107D01*
X117557172Y-119460320D01*
X117562675Y-119478460D01*
X117568410Y-119496527D01*
X117574380Y-119514520D01*
X117580584Y-119532440D01*
X117587021Y-119550287D01*
X117593692Y-119568060D01*
X117600597Y-119585760D01*
X117607666Y-119603496D01*
X117614891Y-119621203D01*
X117622273Y-119638881D01*
X117629811Y-119656532D01*
X117637506Y-119674154D01*
X117645357Y-119691747D01*
X117653365Y-119709313D01*
X117661529Y-119726850D01*
X117669685Y-119745828D01*
X117677720Y-119764762D01*
X117685634Y-119783652D01*
X117693427Y-119802497D01*
X117701099Y-119821299D01*
X117708650Y-119840057D01*
X117716080Y-119858770D01*
X117723389Y-119877440D01*
X117730577Y-119896065D01*
X117737644Y-119914647D01*
X117742288Y-119927010D01*
X117749105Y-119945569D01*
X117755575Y-119964139D01*
X117761699Y-119982720D01*
X117767476Y-120001311D01*
X117772906Y-120019914D01*
X117777990Y-120038527D01*
X117782727Y-120057152D01*
X117787118Y-120075787D01*
X117791161Y-120094433D01*
X117794859Y-120113090D01*
X117797131Y-120125535D01*
X117800216Y-120144228D01*
X117802887Y-120162970D01*
X117805142Y-120181759D01*
X117806983Y-120200596D01*
X117808409Y-120219481D01*
X117809420Y-120238413D01*
X117810016Y-120257393D01*
X117810197Y-120276421D01*
X117809964Y-120295497D01*
X117809315Y-120314620D01*
X117808652Y-120327396D01*
X117807280Y-120346672D01*
X117805298Y-120366098D01*
X117802708Y-120385671D01*
X117799508Y-120405393D01*
X117795699Y-120425263D01*
X117791281Y-120445282D01*
X117786254Y-120465449D01*
X117780617Y-120485765D01*
X117774372Y-120506228D01*
X117767517Y-120526841D01*
X117762609Y-120540664D01*
G37*
D11*
%TO.C,U3*%
X189335000Y-103150000D03*
X188065000Y-103150000D03*
X186795000Y-103150000D03*
X185525000Y-103150000D03*
X184255000Y-103150000D03*
X182985000Y-103150000D03*
X181715000Y-103150000D03*
X180445000Y-103150000D03*
X179175000Y-103150000D03*
X177905000Y-103150000D03*
X176635000Y-103150000D03*
X175365000Y-103150000D03*
X174095000Y-103150000D03*
X172825000Y-103150000D03*
D12*
X171575000Y-100110000D03*
X171575000Y-98840000D03*
X171575000Y-97570000D03*
X171575000Y-96300000D03*
X171575000Y-95030000D03*
X171575000Y-93760000D03*
X171575000Y-92490000D03*
X171575000Y-91220000D03*
X171575000Y-89950000D03*
X171575000Y-88680000D03*
D11*
X172825000Y-85650000D03*
X174095000Y-85650000D03*
X175365000Y-85650000D03*
X176635000Y-85650000D03*
X177905000Y-85650000D03*
X179175000Y-85650000D03*
X180445000Y-85650000D03*
X181715000Y-85650000D03*
X182985000Y-85650000D03*
X184255000Y-85650000D03*
X185525000Y-85650000D03*
X186795000Y-85650000D03*
X188065000Y-85650000D03*
X189335000Y-85650000D03*
D13*
X181225000Y-96660000D03*
X182757500Y-96605000D03*
X182035000Y-95860000D03*
X183595000Y-95820000D03*
X180495000Y-95800000D03*
X182775000Y-95100000D03*
D14*
X181995000Y-95080000D03*
D13*
X181265000Y-95080000D03*
X180475000Y-94290000D03*
X183595000Y-94280000D03*
X182025000Y-94280000D03*
X182785000Y-93580000D03*
X181225000Y-93560000D03*
%TD*%
D15*
%TO.C,REF\u002A\u002A*%
X113000000Y-108500000D03*
%TD*%
%TO.C,REF\u002A\u002A*%
X181100000Y-120200000D03*
%TD*%
%TO.C,REF\u002A\u002A*%
X176800000Y-120200000D03*
%TD*%
%TO.C,REF\u002A\u002A*%
X113000000Y-103500000D03*
%TD*%
D16*
%TO.C,REF\u002A\u002A*%
X167122301Y-94654633D03*
%TD*%
D15*
%TO.C,REF\u002A\u002A*%
X189700000Y-120200000D03*
%TD*%
%TO.C,REF\u002A\u002A*%
X113000000Y-112600000D03*
%TD*%
D16*
%TO.C,REF\u002A\u002A*%
X144307482Y-117535144D03*
%TD*%
%TO.C,REF\u002A\u002A*%
X121460000Y-94670000D03*
%TD*%
%TO.C,REF\u002A\u002A*%
X144260000Y-71870000D03*
%TD*%
D15*
%TO.C,REF\u002A\u002A*%
X113000000Y-98500000D03*
%TD*%
D17*
%TO.C,REF\u002A\u002A*%
X193226027Y-117666028D03*
X193190000Y-71790000D03*
X115575000Y-71790000D03*
X115570000Y-117700000D03*
%TD*%
D16*
%TO.C,REF\u002A\u002A*%
X150708000Y-101124000D03*
%TD*%
%TO.C,REF\u002A\u002A*%
X150698000Y-88284000D03*
%TD*%
%TO.C,REF\u002A\u002A*%
X137868000Y-88284000D03*
%TD*%
%TO.C,REF\u002A\u002A*%
X137878000Y-101114000D03*
%TD*%
D15*
%TO.C,REF\u002A\u002A*%
X166700000Y-120200000D03*
%TD*%
%TO.C,REF\u002A\u002A*%
X183700000Y-120200000D03*
%TD*%
D18*
%TO.C,C5*%
X188100000Y-106450000D03*
X188100000Y-108525000D03*
%TD*%
D19*
%TO.C,J7*%
X163500000Y-70820000D03*
X164500000Y-70820000D03*
X165500000Y-70820000D03*
X166500000Y-70820000D03*
%TD*%
D12*
%TO.C,WLED4*%
X146749000Y-76541000D03*
X146749000Y-79841000D03*
X141849000Y-79841000D03*
X141849000Y-76541000D03*
%TD*%
D20*
%TO.C,C25*%
X121850000Y-114400000D03*
X119900000Y-114400000D03*
%TD*%
D21*
%TO.C,FB1*%
X114891432Y-90933900D03*
X117191432Y-90933900D03*
%TD*%
D22*
%TO.C,D1*%
X186700000Y-79730000D03*
X186700000Y-81780000D03*
%TD*%
D23*
%TO.C,C9*%
X121000000Y-73100000D03*
X123075000Y-73100000D03*
%TD*%
D24*
%TO.C,U4*%
X134210000Y-74700000D03*
X132940000Y-74700000D03*
X131670000Y-74700000D03*
X130400000Y-74700000D03*
X129130000Y-74700000D03*
X127860000Y-74700000D03*
X126590000Y-74700000D03*
X125320000Y-74700000D03*
X125320000Y-69750000D03*
X126590000Y-69750000D03*
X127860000Y-69750000D03*
X129130000Y-69750000D03*
X130400000Y-69750000D03*
X131670000Y-69750000D03*
X132940000Y-69750000D03*
X134210000Y-69750000D03*
%TD*%
D25*
%TO.C,JP2*%
X121600000Y-105200000D03*
D26*
X122900000Y-105200000D03*
D27*
X124200000Y-105200000D03*
%TD*%
D28*
%TO.C,JP1*%
X129125000Y-115300000D03*
D29*
X129125000Y-116600000D03*
D30*
X129125000Y-117900000D03*
%TD*%
D31*
%TO.C,WLED3*%
X155490496Y-80139840D03*
X153840496Y-82997724D03*
X149596972Y-80547724D03*
X151246972Y-77689840D03*
%TD*%
D19*
%TO.C,J6*%
X175200000Y-117150000D03*
X174200000Y-117150000D03*
X173200000Y-117150000D03*
X172200000Y-117150000D03*
X171200000Y-117150000D03*
X170200000Y-117150000D03*
X169200000Y-117150000D03*
X168200000Y-117150000D03*
%TD*%
D32*
%TO.C,C17*%
X139093000Y-83270000D03*
X137295998Y-84307500D03*
%TD*%
D33*
%TO.C,R2*%
X124500000Y-113500000D03*
X126500000Y-113500000D03*
%TD*%
D23*
%TO.C,C22*%
X143284000Y-107273000D03*
X145359000Y-107273000D03*
%TD*%
D34*
%TO.C,R5*%
X123100000Y-70100000D03*
X121100000Y-70100000D03*
%TD*%
D35*
%TO.C,C14*%
X155603000Y-89239000D03*
X154565500Y-87441998D03*
%TD*%
D20*
%TO.C,C26*%
X117275000Y-114400000D03*
X115325000Y-114400000D03*
%TD*%
D36*
%TO.C,D2*%
X158985000Y-72700000D03*
D37*
X155300000Y-72700000D03*
%TD*%
D38*
%TO.C,R10*%
X170800000Y-79800000D03*
X170800000Y-81800000D03*
%TD*%
D39*
%TO.C,C20*%
X132997000Y-100161000D03*
X134034500Y-101958002D03*
%TD*%
D40*
%TO.C,C10*%
X116937500Y-93500000D03*
X114862500Y-93500000D03*
%TD*%
D41*
%TO.C,JPw1*%
X136340000Y-94690000D03*
D42*
X135040000Y-94690000D03*
%TD*%
D43*
%TO.C,WLED2*%
X161291884Y-87768524D03*
X158434000Y-89418524D03*
X155984000Y-85175000D03*
X158841884Y-83525000D03*
%TD*%
D44*
%TO.C,WLED12*%
X158841884Y-105875000D03*
X155984000Y-104225000D03*
X158434000Y-99981476D03*
X161291884Y-101631476D03*
%TD*%
D40*
%TO.C,C3*%
X163875000Y-109800000D03*
X161800000Y-109800000D03*
%TD*%
D38*
%TO.C,R17*%
X181700000Y-106500000D03*
X181700000Y-108500000D03*
%TD*%
D19*
%TO.C,J9*%
X177530000Y-70820000D03*
X178530000Y-70820000D03*
X179530000Y-70820000D03*
X180530000Y-70820000D03*
X181530000Y-70820000D03*
%TD*%
D18*
%TO.C,C2*%
X153500000Y-116645000D03*
X153500000Y-118720000D03*
%TD*%
D45*
%TO.C,J1*%
X116762067Y-111030000D03*
X116762067Y-110030000D03*
%TD*%
D25*
%TO.C,JP3*%
X143150000Y-102992500D03*
D26*
X144450000Y-102992500D03*
D27*
X145750000Y-102992500D03*
%TD*%
D36*
%TO.C,D3*%
X158985000Y-69800000D03*
D37*
X155300000Y-69800000D03*
%TD*%
D46*
%TO.C,J8*%
X119510000Y-86420000D03*
X119510000Y-85920000D03*
X119510000Y-85420000D03*
X119510000Y-84920000D03*
X119510000Y-84420000D03*
X119510000Y-83920000D03*
X119510000Y-82920000D03*
X119510000Y-82420000D03*
X119510000Y-81920000D03*
X119510000Y-81420000D03*
X119510000Y-80920000D03*
X119510000Y-80420000D03*
D47*
X118210000Y-80320000D03*
D46*
X118210000Y-81170000D03*
X118210000Y-81670000D03*
X118210000Y-82170000D03*
X118210000Y-82670000D03*
X118210000Y-83170000D03*
X118210000Y-83670000D03*
X118210000Y-84170000D03*
X118210000Y-84670000D03*
X118210000Y-85170000D03*
X118210000Y-85670000D03*
D47*
X118210000Y-86520000D03*
D48*
X113740000Y-87740000D03*
D49*
X119100000Y-87740000D03*
D48*
X113740000Y-79100000D03*
D49*
X119100000Y-79100000D03*
%TD*%
D18*
%TO.C,C1*%
X150590000Y-116645000D03*
X150590000Y-118720000D03*
%TD*%
D45*
%TO.C,J3*%
X116300000Y-102000000D03*
X116300000Y-101000000D03*
X116300000Y-100000000D03*
%TD*%
D23*
%TO.C,C8*%
X121025000Y-76200000D03*
X123100000Y-76200000D03*
%TD*%
D50*
%TO.C,WLED8*%
X127343745Y-101658238D03*
X130201629Y-100008238D03*
X132651629Y-104251762D03*
X129793745Y-105901762D03*
%TD*%
D38*
%TO.C,R12*%
X122100000Y-84300000D03*
X122100000Y-86300000D03*
%TD*%
D51*
%TO.C,U2*%
X157150000Y-118400000D03*
X157150000Y-116100000D03*
D52*
X163450000Y-116100000D03*
D51*
X157150000Y-113800000D03*
%TD*%
D18*
%TO.C,C19*%
X131854000Y-93641000D03*
X131854000Y-95716000D03*
%TD*%
D53*
%TO.C,C15*%
X151304002Y-84307500D03*
X149507000Y-83270000D03*
%TD*%
D18*
%TO.C,C4*%
X184700000Y-106400000D03*
X184700000Y-108475000D03*
%TD*%
D19*
%TO.C,J10*%
X188200000Y-116950000D03*
X187200000Y-116950000D03*
X186200000Y-116950000D03*
X185200000Y-116950000D03*
%TD*%
D54*
%TO.C,R8*%
X180500000Y-81800000D03*
X180500000Y-79800000D03*
%TD*%
D55*
%TO.C,C21*%
X137168998Y-104965500D03*
X138966000Y-106003000D03*
%TD*%
D56*
%TO.C,EC1*%
X140310000Y-94720000D03*
X148310000Y-94720000D03*
%TD*%
D33*
%TO.C,R15*%
X150400000Y-69800000D03*
X152400000Y-69800000D03*
%TD*%
D57*
%TO.C,Q2*%
X175662500Y-81783000D03*
X175662500Y-79883000D03*
X177537500Y-80833000D03*
%TD*%
D58*
%TO.C,SW1*%
X138950000Y-119730000D03*
X138950000Y-117520000D03*
D59*
X136800000Y-118630000D03*
X133800000Y-118630000D03*
D58*
X131650000Y-119730000D03*
X131650000Y-117520000D03*
D60*
X137550000Y-116870000D03*
X134550000Y-116870000D03*
X133050000Y-116870000D03*
%TD*%
D38*
%TO.C,R13*%
X162800000Y-78300000D03*
X162800000Y-80300000D03*
%TD*%
D33*
%TO.C,R3*%
X124500000Y-119300000D03*
X126500000Y-119300000D03*
%TD*%
D61*
%TO.C,WLED5*%
X137347044Y-77734102D03*
X138997044Y-80591986D03*
X134753520Y-83041986D03*
X133103520Y-80184102D03*
%TD*%
D62*
%TO.C,WLED11*%
X151232476Y-111654884D03*
X149582476Y-108797000D03*
X153826000Y-106347000D03*
X155476000Y-109204884D03*
%TD*%
D11*
%TO.C,WLED7*%
X126139000Y-92250000D03*
X129439000Y-92250000D03*
X129439000Y-97150000D03*
X126139000Y-97150000D03*
%TD*%
D63*
%TO.C,WLED9*%
X133159830Y-109209865D03*
X134809830Y-106351981D03*
X139053354Y-108801981D03*
X137403354Y-111659865D03*
%TD*%
D33*
%TO.C,R16*%
X150400000Y-72700000D03*
X152400000Y-72700000D03*
%TD*%
D64*
%TO.C,C24*%
X154587000Y-101812000D03*
X155624500Y-100014998D03*
%TD*%
D65*
%TO.C,SW3*%
X167050000Y-106300000D03*
X167050000Y-100900000D03*
%TD*%
D66*
%TO.C,C23*%
X149507000Y-106130000D03*
X151304002Y-105092500D03*
%TD*%
D67*
%TO.C,WLED6*%
X129795116Y-83508991D03*
X132653000Y-85158991D03*
X130203000Y-89402515D03*
X127345116Y-87752515D03*
%TD*%
D33*
%TO.C,R1*%
X124500000Y-116300000D03*
X126500000Y-116300000D03*
%TD*%
D65*
%TO.C,SW2*%
X166800000Y-84650000D03*
X166800000Y-79250000D03*
%TD*%
D68*
%TO.C,Q1*%
X168245000Y-87950000D03*
X168245000Y-89850000D03*
X166370000Y-88900000D03*
%TD*%
D19*
%TO.C,J4*%
X184330000Y-70811753D03*
X185330000Y-70811753D03*
X186330000Y-70811753D03*
X187330000Y-70811753D03*
X188330000Y-70811753D03*
%TD*%
D69*
%TO.C,C18*%
X134023750Y-87578499D03*
X132986250Y-89375501D03*
%TD*%
D54*
%TO.C,R6*%
X152710000Y-95820000D03*
X152710000Y-93820000D03*
%TD*%
D23*
%TO.C,C6*%
X136400000Y-70100000D03*
X138475000Y-70100000D03*
%TD*%
D70*
%TO.C,C13*%
X156746000Y-95737500D03*
X156746000Y-93662500D03*
%TD*%
D11*
%TO.C,WLED1*%
X162459000Y-97113000D03*
X159159000Y-97113000D03*
X159159000Y-92213000D03*
X162459000Y-92213000D03*
%TD*%
D23*
%TO.C,C7*%
X136450000Y-73050000D03*
X138525000Y-73050000D03*
%TD*%
D71*
%TO.C,J5*%
X178913000Y-117150000D03*
%TD*%
D70*
%TO.C,C11*%
X124800000Y-80437500D03*
X124800000Y-78362500D03*
%TD*%
D38*
%TO.C,R7*%
X189400000Y-79756000D03*
X189400000Y-81756000D03*
%TD*%
D40*
%TO.C,C16*%
X145359000Y-82254000D03*
X143284000Y-82254000D03*
%TD*%
D70*
%TO.C,C12*%
X122100000Y-90937500D03*
X122100000Y-88862500D03*
%TD*%
D12*
%TO.C,WLED10*%
X141887000Y-112859000D03*
X141887000Y-109559000D03*
X146787000Y-109559000D03*
X146787000Y-112859000D03*
%TD*%
D38*
%TO.C,R11*%
X173350000Y-79800000D03*
X173350000Y-81800000D03*
%TD*%
%TO.C,R14*%
X159700000Y-75400000D03*
X159700000Y-77400000D03*
%TD*%
D19*
%TO.C,J2*%
X169730000Y-70820000D03*
X170730000Y-70820000D03*
X171730000Y-70820000D03*
X172730000Y-70820000D03*
X173730000Y-70820000D03*
X174730000Y-70820000D03*
%TD*%
D72*
%TO.C,U1*%
X119525000Y-118700000D03*
X119525000Y-117750000D03*
X119525000Y-116800000D03*
X121800000Y-116800000D03*
X121800000Y-118700000D03*
%TD*%
D38*
%TO.C,R4*%
X128300000Y-77300000D03*
X128300000Y-79300000D03*
%TD*%
D54*
%TO.C,R9*%
X183261000Y-81788000D03*
X183261000Y-79788000D03*
%TD*%
M02*
