%TF.GenerationSoftware,KiCad,Pcbnew,7.0.1*%
%TF.CreationDate,2023-03-19T17:11:42+00:00*%
%TF.ProjectId,ImogenWren,496d6f67-656e-4577-9265-6e2e6b696361,rev?*%
%TF.SameCoordinates,Original*%
%TF.FileFunction,Copper,L2,Inr*%
%TF.FilePolarity,Positive*%
%FSLAX46Y46*%
G04 Gerber Fmt 4.6, Leading zero omitted, Abs format (unit mm)*
G04 Created by KiCad (PCBNEW 7.0.1) date 2023-03-19 17:11:42*
%MOMM*%
%LPD*%
G01*
G04 APERTURE LIST*
%TA.AperFunction,HeatsinkPad*%
%ADD10C,0.600000*%
%TD*%
%TA.AperFunction,ComponentPad*%
%ADD11O,2.600000X1.100000*%
%TD*%
%TA.AperFunction,ComponentPad*%
%ADD12O,2.100000X1.100000*%
%TD*%
%TA.AperFunction,ViaPad*%
%ADD13C,0.800000*%
%TD*%
%TA.AperFunction,Conductor*%
%ADD14C,0.300000*%
%TD*%
%TA.AperFunction,Conductor*%
%ADD15C,0.800000*%
%TD*%
%TA.AperFunction,Conductor*%
%ADD16C,0.250000*%
%TD*%
G04 APERTURE END LIST*
D10*
%TO.N,GND*%
%TO.C,U3*%
X181225000Y-96660000D03*
X182757500Y-96605000D03*
X182035000Y-95860000D03*
X183595000Y-95820000D03*
X180495000Y-95800000D03*
X182775000Y-95100000D03*
X181265000Y-95080000D03*
X180475000Y-94290000D03*
X183595000Y-94280000D03*
X182025000Y-94280000D03*
X182785000Y-93580000D03*
X181225000Y-93560000D03*
%TD*%
D11*
%TO.N,GND*%
%TO.C,J8*%
X113740000Y-87740000D03*
D12*
X119100000Y-87740000D03*
D11*
X113740000Y-79100000D03*
D12*
X119100000Y-79100000D03*
%TD*%
D13*
%TO.N,GND*%
X182700000Y-74500000D03*
%TO.N,/ESP32/3V3_BUS*%
X176300000Y-74700000D03*
X182000000Y-81900000D03*
X180500000Y-73000000D03*
X168100000Y-74700000D03*
%TO.N,Net-(Q1-B)*%
X167900000Y-86900000D03*
%TO.N,/ESP32/3V3_BUS*%
X188065000Y-101500000D03*
%TO.N,Net-(Q2-E)*%
X142234340Y-71965660D03*
X169300000Y-79800000D03*
%TO.N,Net-(Q1-E)*%
X142100000Y-73600000D03*
%TO.N,Net-(U3-GPIO27(T7))*%
X175400000Y-104700000D03*
X170200000Y-113500000D03*
%TO.N,Net-(U3-GPIO14(T6))*%
X174300000Y-105449500D03*
X171233992Y-113500000D03*
%TO.N,/BATTERY_POWER*%
X121900000Y-107600000D03*
%TO.N,/BATTERY_POWER_BUS*%
X147800000Y-118700000D03*
X123100000Y-107600000D03*
%TO.N,/USB_POWER*%
X117075000Y-92200000D03*
%TO.N,/ESP32/USB ESP32 CH340 Interface /ESP_EN*%
X185550500Y-91600000D03*
%TO.N,/ESP32/SSERIAL_RX*%
X180650000Y-88550000D03*
%TO.N,/ESP32/SSERIAL_TX*%
X180236931Y-89460154D03*
%TO.N,Net-(U3-GPIO4(T0))*%
X179200000Y-89500000D03*
%TO.N,/ESP32/USB ESP32 CH340 Interface /TxD_B*%
X132300000Y-72900000D03*
X184100000Y-84100000D03*
%TO.N,/ESP32/USB ESP32 CH340 Interface /RxD_B*%
X131375210Y-73379169D03*
X185400000Y-84200000D03*
%TO.N,/BATTERY_POWER*%
X135900000Y-116800000D03*
X117600000Y-115900000D03*
%TO.N,/BATTERY_POWER_BUS*%
X135730025Y-104149500D03*
X161900000Y-69200000D03*
X136600000Y-68800000D03*
X140499000Y-81900000D03*
X131491396Y-108577889D03*
X181580139Y-72964585D03*
%TO.N,GND*%
X146200000Y-96900000D03*
X145814000Y-108586000D03*
X133900000Y-98400000D03*
X189007500Y-87107500D03*
X152558502Y-106150500D03*
X149596972Y-81850500D03*
X138966000Y-107149500D03*
X155700001Y-87200000D03*
X137587000Y-70599500D03*
X136900000Y-81900000D03*
X167100000Y-98900000D03*
X148600000Y-98600000D03*
X137637000Y-73400000D03*
X131500000Y-89402515D03*
X157704250Y-92704250D03*
X147498776Y-72350500D03*
X128899500Y-96977140D03*
X113675000Y-92075000D03*
X160200000Y-109600000D03*
X114250001Y-102750002D03*
X143300000Y-81000000D03*
X162180669Y-72871597D03*
%TO.N,/ESP32/3V3_BUS*%
X163450000Y-112800000D03*
X181699999Y-109899999D03*
%TO.N,/ESP32/USB ESP32 CH340 Interface /ESP_EN*%
X185550500Y-101100000D03*
X166900000Y-104500000D03*
X177600000Y-81800000D03*
%TO.N,/USB_POWER*%
X125439990Y-103655304D03*
X122900000Y-112400000D03*
%TO.N,/USB/D-*%
X122250000Y-81950000D03*
X117100000Y-83500000D03*
X120500000Y-82900000D03*
%TO.N,/WS2812b LEDs/5V_IN*%
X163900000Y-95200000D03*
X147600000Y-82000000D03*
X137168998Y-105650500D03*
X155100000Y-92300000D03*
X135100000Y-86600000D03*
X135500000Y-78200000D03*
X131000000Y-82800000D03*
X132600000Y-91500000D03*
X130800000Y-103700000D03*
X160649500Y-88400000D03*
X156800000Y-89800000D03*
X153099999Y-103699999D03*
X132490896Y-107900000D03*
X152900000Y-86500000D03*
X128450250Y-100949750D03*
X128400000Y-94000000D03*
X143900000Y-105300000D03*
X139093000Y-81880236D03*
X147500000Y-106100000D03*
X159900000Y-106700000D03*
X157221934Y-81781888D03*
%TO.N,23*%
X187460000Y-83340000D03*
X188330000Y-73100000D03*
%TO.N,Net-(U3-SDI{slash}SD1)*%
X169700001Y-73070567D03*
X172953399Y-88764439D03*
%TO.N,Net-(U3-SDO{slash}SD0)*%
X170732902Y-73038639D03*
X173718720Y-89407314D03*
%TO.N,Net-(U3-SCK{slash}CLK)*%
X174394954Y-90143326D03*
X171730448Y-73101148D03*
%TO.N,Net-(U3-SCS{slash}CMD)*%
X175144454Y-90873806D03*
X172728527Y-73047835D03*
%TO.N,Net-(U3-SWP{slash}SD3)*%
X176135958Y-91000000D03*
X173724339Y-73133651D03*
%TO.N,Net-(U3-SHD{slash}SD2)*%
X174736243Y-73114048D03*
X177134763Y-90962672D03*
%TO.N,Net-(U3-GPIO4(T0))*%
X179300000Y-113000000D03*
%TO.N,Net-(U3-GPIO2(T2))*%
X170202500Y-89002500D03*
X168350500Y-107800000D03*
X175362299Y-110962300D03*
%TO.N,Net-(U3-GPIO15(T3))*%
X174287701Y-111975500D03*
X170300000Y-90000000D03*
X168700000Y-109523501D03*
%TO.N,Net-(U3-GPIO13(T4))*%
X173200000Y-113500000D03*
X171076331Y-104283624D03*
%TO.N,Net-(U3-GPIO33(T8))*%
X173358758Y-110458758D03*
X178550500Y-104888509D03*
X169400000Y-111975500D03*
%TO.N,Net-(U3-GPIO32(T9))*%
X180299154Y-105349500D03*
X168200000Y-113500000D03*
%TO.N,Net-(Q1-B)*%
X168921611Y-81663607D03*
X169320759Y-85100850D03*
%TO.N,Net-(Q1-E)*%
X168200000Y-88900000D03*
X163300000Y-82000000D03*
%TO.N,/ESP32/LED_DATA_OUT*%
X177101318Y-84210772D03*
X153800000Y-91200000D03*
%TO.N,SCL*%
X186400000Y-83400000D03*
X178493112Y-73099967D03*
X179300000Y-77800000D03*
X181961500Y-80100000D03*
%TO.N,SDA*%
X182999500Y-84306754D03*
X182029624Y-78929624D03*
X179492600Y-73094598D03*
%TO.N,/CHARGE_STATUS*%
X117900000Y-118700000D03*
X182492500Y-104692500D03*
%TO.N,18*%
X186292386Y-72847660D03*
X179175000Y-84100000D03*
%TO.N,Net-(U3-SENSOR_VP)*%
X188200000Y-112100000D03*
X185500000Y-104500000D03*
%TO.N,Net-(U3-SENSOR_VN)*%
X187200000Y-112200000D03*
X184255000Y-104476866D03*
%TO.N,Net-(J7-PadA3)*%
X165506401Y-72993599D03*
X161400000Y-73900000D03*
%TO.N,Net-(D2-K)*%
X169800000Y-87700000D03*
X161700000Y-79200000D03*
%TO.N,/ESP32/SSERIAL_TX*%
X185200000Y-112200000D03*
%TO.N,/ESP32/SSERIAL_RX*%
X186200000Y-112100000D03*
%TO.N,Net-(J7-PadA4)*%
X166500222Y-73100024D03*
X164300000Y-78200000D03*
%TO.N,19*%
X180322500Y-84077500D03*
X187294698Y-72859515D03*
%TO.N,Net-(WLED1-DOUT)*%
X163600000Y-93800000D03*
X159200000Y-87200000D03*
%TO.N,Net-(WLED2-DOUT)*%
X156202800Y-81822708D03*
X157500000Y-87900000D03*
%TO.N,Net-(WLED10-DIN)*%
X133400000Y-106500000D03*
X146650000Y-111750000D03*
%TO.N,Net-(JP3-C)*%
X146200000Y-104800000D03*
X121000000Y-100000000D03*
%TO.N,Net-(SW1-B)*%
X133953246Y-114710500D03*
X120700000Y-108800000D03*
%TO.N,Net-(D3-K)*%
X169756578Y-86596623D03*
X161900000Y-71100000D03*
X165400000Y-79050500D03*
%TD*%
D14*
%TO.N,/USB/D-*%
X117300000Y-83700000D02*
X117100000Y-83500000D01*
X119700000Y-83700000D02*
X117300000Y-83700000D01*
X120500000Y-82900000D02*
X119700000Y-83700000D01*
D15*
%TO.N,/ESP32/3V3_BUS*%
X179300706Y-74700000D02*
X176300000Y-74700000D01*
X176300000Y-74700000D02*
X168100000Y-74700000D01*
D14*
%TO.N,SDA*%
X181211500Y-82518754D02*
X181211500Y-79747748D01*
D15*
%TO.N,/ESP32/3V3_BUS*%
X180500000Y-73500706D02*
X179300706Y-74700000D01*
D14*
%TO.N,/BATTERY_POWER_BUS*%
X181580139Y-72080139D02*
X181580139Y-72964585D01*
X178700000Y-69200000D02*
X181580139Y-72080139D01*
D15*
%TO.N,/ESP32/3V3_BUS*%
X180500000Y-73000000D02*
X180500000Y-73500706D01*
D14*
%TO.N,/BATTERY_POWER_BUS*%
X161900000Y-69200000D02*
X178700000Y-69200000D01*
%TO.N,Net-(WLED1-DOUT)*%
X160600000Y-90800000D02*
X160600000Y-89700000D01*
X159200000Y-88300000D02*
X160600000Y-89700000D01*
%TO.N,/WS2812b LEDs/5V_IN*%
X131600000Y-102900000D02*
X135779901Y-102900000D01*
X130800000Y-103700000D02*
X131600000Y-102900000D01*
X135779901Y-102900000D02*
X137168998Y-104289097D01*
X137168998Y-104289097D02*
X137168998Y-105650500D01*
X137519498Y-105300000D02*
X137168998Y-105650500D01*
X143900000Y-105300000D02*
X137519498Y-105300000D01*
%TO.N,Net-(Q1-E)*%
X167994708Y-88900000D02*
X168200000Y-88900000D01*
X163300000Y-84205292D02*
X167994708Y-88900000D01*
X163300000Y-82000000D02*
X163300000Y-84205292D01*
%TO.N,/ESP32/USB ESP32 CH340 Interface /ESP_EN*%
X177600000Y-83649500D02*
X177600000Y-81800000D01*
X185550500Y-91600000D02*
X177600000Y-83649500D01*
D16*
%TO.N,Net-(U3-GPIO32(T9))*%
X169000000Y-112700000D02*
X168200000Y-113500000D01*
X174800000Y-112700000D02*
X169000000Y-112700000D01*
X180299154Y-107200846D02*
X174800000Y-112700000D01*
X180299154Y-105349500D02*
X180299154Y-107200846D01*
D14*
%TO.N,Net-(U3-GPIO33(T8))*%
X170916742Y-110458758D02*
X169400000Y-111975500D01*
X173358758Y-110458758D02*
X170916742Y-110458758D01*
%TO.N,Net-(U3-GPIO15(T3))*%
X168700000Y-109523501D02*
X173483455Y-109523501D01*
X173483455Y-109523501D02*
X174287701Y-110327747D01*
X174287701Y-110327747D02*
X174287701Y-111975500D01*
%TO.N,Net-(D2-K)*%
X169800000Y-87700000D02*
X165320023Y-83220023D01*
X165320023Y-82820023D02*
X161700000Y-79200000D01*
X165320023Y-83220023D02*
X165320023Y-82820023D01*
%TO.N,/ESP32/SSERIAL_RX*%
X187200000Y-111100000D02*
X186200000Y-112100000D01*
X180650000Y-88550000D02*
X187200000Y-95100000D01*
X187200000Y-95100000D02*
X187200000Y-111100000D01*
%TO.N,/ESP32/SSERIAL_TX*%
X186600000Y-95823223D02*
X180236931Y-89460154D01*
X186600000Y-108800000D02*
X186600000Y-95823223D01*
X185200000Y-110200000D02*
X186600000Y-108800000D01*
X185200000Y-112200000D02*
X185200000Y-110200000D01*
%TO.N,Net-(D3-K)*%
X165400000Y-74600000D02*
X165400000Y-79050500D01*
X161900000Y-71100000D02*
X165400000Y-74600000D01*
X166300000Y-81493598D02*
X165400000Y-80593598D01*
X166300000Y-83140045D02*
X166300000Y-81493598D01*
X169756578Y-86596623D02*
X166300000Y-83140045D01*
X165400000Y-80593598D02*
X165400000Y-79050500D01*
D15*
%TO.N,/BATTERY_POWER*%
X121900000Y-112000000D02*
X118000000Y-115900000D01*
X121900000Y-107600000D02*
X121900000Y-112000000D01*
X118000000Y-115900000D02*
X117600000Y-115900000D01*
D14*
%TO.N,/WS2812b LEDs/5V_IN*%
X149900000Y-103700000D02*
X153099999Y-103699999D01*
X147500000Y-106100000D02*
X149900000Y-103700000D01*
X153454201Y-103345797D02*
X153099999Y-103699999D01*
X156545797Y-103345797D02*
X153454201Y-103345797D01*
X159900000Y-106700000D02*
X156545797Y-103345797D01*
%TO.N,/CHARGE_STATUS*%
X118800000Y-119600000D02*
X117900000Y-118700000D01*
X153600000Y-119600000D02*
X118800000Y-119600000D01*
X166700000Y-106500000D02*
X153600000Y-119600000D01*
X178500000Y-106500000D02*
X166700000Y-106500000D01*
X179549654Y-105450346D02*
X178500000Y-106500000D01*
X179549654Y-104939736D02*
X179549654Y-105450346D01*
X179889390Y-104600000D02*
X179549654Y-104939736D01*
X182492500Y-104692500D02*
X182400000Y-104600000D01*
X182400000Y-104600000D02*
X179889390Y-104600000D01*
%TO.N,/WS2812b LEDs/5V_IN*%
X153000000Y-86500000D02*
X152900000Y-86500000D01*
X156300000Y-89800000D02*
X153000000Y-86500000D01*
X156800000Y-89800000D02*
X156300000Y-89800000D01*
%TO.N,18*%
X179175000Y-79965046D02*
X186292386Y-72847660D01*
X179175000Y-84100000D02*
X179175000Y-79965046D01*
%TO.N,19*%
X187294698Y-72905302D02*
X187294698Y-72859515D01*
X186500000Y-73700000D02*
X187294698Y-72905302D01*
X186199293Y-73700000D02*
X186500000Y-73700000D01*
X180322500Y-79576793D02*
X186199293Y-73700000D01*
%TO.N,SDA*%
X181211500Y-79747748D02*
X182029624Y-78929624D01*
%TO.N,19*%
X180322500Y-84077500D02*
X180322500Y-79576793D01*
%TO.N,SDA*%
X182999500Y-84306754D02*
X181211500Y-82518754D01*
%TO.N,Net-(U3-GPIO2(T2))*%
X172466355Y-107800000D02*
X168350500Y-107800000D01*
X175362299Y-110695944D02*
X172466355Y-107800000D01*
X175362299Y-110962300D02*
X175362299Y-110695944D01*
D15*
%TO.N,/USB_POWER*%
X117075000Y-94375000D02*
X117075000Y-92200000D01*
X125439990Y-102739990D02*
X117075000Y-94375000D01*
X125439990Y-103655304D02*
X125439990Y-102739990D01*
D14*
%TO.N,/ESP32/USB ESP32 CH340 Interface /ESP_EN*%
X185150500Y-100700000D02*
X185550500Y-101100000D01*
X170700000Y-100700000D02*
X185150500Y-100700000D01*
X166900000Y-104500000D02*
X170700000Y-100700000D01*
%TO.N,/WS2812b LEDs/5V_IN*%
X152900000Y-86500000D02*
X153100000Y-86500000D01*
X157221934Y-82378066D02*
X157221934Y-81781888D01*
X153100000Y-86500000D02*
X157221934Y-82378066D01*
%TO.N,SCL*%
X185261500Y-83400000D02*
X186400000Y-83400000D01*
X181961500Y-80100000D02*
X185261500Y-83400000D01*
D15*
%TO.N,/USB_POWER*%
X125439990Y-109860010D02*
X122900000Y-112400000D01*
X125439990Y-103655304D02*
X125439990Y-109860010D01*
D14*
%TO.N,/USB/D-*%
X121300000Y-82900000D02*
X122250000Y-81950000D01*
X120500000Y-82900000D02*
X121300000Y-82900000D01*
D15*
%TO.N,/BATTERY_POWER_BUS*%
X140499000Y-72097286D02*
X140499000Y-81900000D01*
X137201714Y-68800000D02*
X140499000Y-72097286D01*
X136600000Y-68800000D02*
X137201714Y-68800000D01*
X131491396Y-106908604D02*
X131491396Y-108577889D01*
X135730025Y-104149500D02*
X134250500Y-104149500D01*
X134250500Y-104149500D02*
X131491396Y-106908604D01*
%TO.N,/ESP32/3V3_BUS*%
X173500000Y-116600000D02*
X180200001Y-109899999D01*
X180200001Y-109899999D02*
X181699999Y-109899999D01*
X167250000Y-116600000D02*
X173500000Y-116600000D01*
X163450000Y-112800000D02*
X167250000Y-116600000D01*
D14*
%TO.N,/WS2812b LEDs/5V_IN*%
X139862264Y-82649500D02*
X146950500Y-82649500D01*
X155100000Y-91500000D02*
X155100000Y-92300000D01*
X135100000Y-89000000D02*
X132600000Y-91500000D01*
X131300000Y-82800000D02*
X131000000Y-82800000D01*
X135100000Y-86600000D02*
X135100000Y-89000000D01*
X146950500Y-82649500D02*
X147600000Y-82000000D01*
X137168998Y-105650500D02*
X134919498Y-107900000D01*
X135100000Y-86600000D02*
X131300000Y-82800000D01*
X130800000Y-103700000D02*
X130800000Y-103299501D01*
X139093000Y-81880236D02*
X135500000Y-78287236D01*
X148400000Y-82000000D02*
X147600000Y-82000000D01*
X139093000Y-82607000D02*
X135100000Y-86600000D01*
X152900000Y-86500000D02*
X148400000Y-82000000D01*
X143900000Y-105300000D02*
X144700000Y-106100000D01*
X130800000Y-103299501D02*
X128450250Y-100949750D01*
X131500000Y-94000000D02*
X132600000Y-92900000D01*
X156800000Y-89800000D02*
X155100000Y-91500000D01*
X139093000Y-81880236D02*
X139093000Y-82607000D01*
X135500000Y-78287236D02*
X135500000Y-78200000D01*
X139093000Y-81880236D02*
X139862264Y-82649500D01*
X132600000Y-92900000D02*
X132600000Y-91500000D01*
X128400000Y-94000000D02*
X131500000Y-94000000D01*
X144700000Y-106100000D02*
X147500000Y-106100000D01*
X134919498Y-107900000D02*
X132490896Y-107900000D01*
%TO.N,Net-(Q1-B)*%
X168921611Y-84701702D02*
X169320759Y-85100850D01*
X168921611Y-81663607D02*
X168921611Y-84701702D01*
%TO.N,Net-(WLED1-DOUT)*%
X159200000Y-88300000D02*
X159200000Y-87200000D01*
X160600000Y-90800000D02*
X163600000Y-93800000D01*
%TD*%
M02*
