%TF.GenerationSoftware,KiCad,Pcbnew,7.0.1*%
%TF.CreationDate,2023-03-18T00:09:11+00:00*%
%TF.ProjectId,ImogenWren,496d6f67-656e-4577-9265-6e2e6b696361,rev?*%
%TF.SameCoordinates,Original*%
%TF.FileFunction,Soldermask,Bot*%
%TF.FilePolarity,Negative*%
%FSLAX46Y46*%
G04 Gerber Fmt 4.6, Leading zero omitted, Abs format (unit mm)*
G04 Created by KiCad (PCBNEW 7.0.1) date 2023-03-18 00:09:11*
%MOMM*%
%LPD*%
G01*
G04 APERTURE LIST*
G04 Aperture macros list*
%AMRoundRect*
0 Rectangle with rounded corners*
0 $1 Rounding radius*
0 $2 $3 $4 $5 $6 $7 $8 $9 X,Y pos of 4 corners*
0 Add a 4 corners polygon primitive as box body*
4,1,4,$2,$3,$4,$5,$6,$7,$8,$9,$2,$3,0*
0 Add four circle primitives for the rounded corners*
1,1,$1+$1,$2,$3*
1,1,$1+$1,$4,$5*
1,1,$1+$1,$6,$7*
1,1,$1+$1,$8,$9*
0 Add four rect primitives between the rounded corners*
20,1,$1+$1,$2,$3,$4,$5,0*
20,1,$1+$1,$4,$5,$6,$7,0*
20,1,$1+$1,$6,$7,$8,$9,0*
20,1,$1+$1,$8,$9,$2,$3,0*%
%AMRotRect*
0 Rectangle, with rotation*
0 The origin of the aperture is its center*
0 $1 length*
0 $2 width*
0 $3 Rotation angle, in degrees counterclockwise*
0 Add horizontal line*
21,1,$1,$2,0,0,$3*%
%AMFreePoly0*
4,1,19,0.550000,-0.750000,0.000000,-0.750000,0.000000,-0.744911,-0.071157,-0.744911,-0.207708,-0.704816,-0.327430,-0.627875,-0.420627,-0.520320,-0.479746,-0.390866,-0.500000,-0.250000,-0.500000,0.250000,-0.479746,0.390866,-0.420627,0.520320,-0.327430,0.627875,-0.207708,0.704816,-0.071157,0.744911,0.000000,0.744911,0.000000,0.750000,0.550000,0.750000,0.550000,-0.750000,0.550000,-0.750000,
$1*%
%AMFreePoly1*
4,1,19,0.000000,0.744911,0.071157,0.744911,0.207708,0.704816,0.327430,0.627875,0.420627,0.520320,0.479746,0.390866,0.500000,0.250000,0.500000,-0.250000,0.479746,-0.390866,0.420627,-0.520320,0.327430,-0.627875,0.207708,-0.704816,0.071157,-0.744911,0.000000,-0.744911,0.000000,-0.750000,-0.550000,-0.750000,-0.550000,0.750000,0.000000,0.750000,0.000000,0.744911,0.000000,0.744911,
$1*%
%AMFreePoly2*
4,1,19,0.500000,-0.750000,0.000000,-0.750000,0.000000,-0.744911,-0.071157,-0.744911,-0.207708,-0.704816,-0.327430,-0.627875,-0.420627,-0.520320,-0.479746,-0.390866,-0.500000,-0.250000,-0.500000,0.250000,-0.479746,0.390866,-0.420627,0.520320,-0.327430,0.627875,-0.207708,0.704816,-0.071157,0.744911,0.000000,0.744911,0.000000,0.750000,0.500000,0.750000,0.500000,-0.750000,0.500000,-0.750000,
$1*%
%AMFreePoly3*
4,1,19,0.000000,0.744911,0.071157,0.744911,0.207708,0.704816,0.327430,0.627875,0.420627,0.520320,0.479746,0.390866,0.500000,0.250000,0.500000,-0.250000,0.479746,-0.390866,0.420627,-0.520320,0.327430,-0.627875,0.207708,-0.704816,0.071157,-0.744911,0.000000,-0.744911,0.000000,-0.750000,-0.500000,-0.750000,-0.500000,0.750000,0.000000,0.750000,0.000000,0.744911,0.000000,0.744911,
$1*%
G04 Aperture macros list end*
%ADD10C,1.200000*%
%ADD11R,0.700000X0.300000*%
%ADD12R,0.700000X1.000000*%
%ADD13O,2.100000X1.100000*%
%ADD14O,2.600000X1.100000*%
%ADD15C,2.200000*%
%ADD16C,3.200000*%
%ADD17RoundRect,0.250000X-0.475000X0.337500X-0.475000X-0.337500X0.475000X-0.337500X0.475000X0.337500X0*%
%ADD18R,0.700000X4.300000*%
%ADD19R,1.500000X0.900000*%
%ADD20RoundRect,0.250000X0.400000X0.275000X-0.400000X0.275000X-0.400000X-0.275000X0.400000X-0.275000X0*%
%ADD21RoundRect,0.250000X-0.275000X-0.350000X0.275000X-0.350000X0.275000X0.350000X-0.275000X0.350000X0*%
%ADD22RoundRect,0.250000X-0.450000X0.325000X-0.450000X-0.325000X0.450000X-0.325000X0.450000X0.325000X0*%
%ADD23RoundRect,0.250000X-0.337500X-0.475000X0.337500X-0.475000X0.337500X0.475000X-0.337500X0.475000X0*%
%ADD24RoundRect,0.150000X0.150000X-0.825000X0.150000X0.825000X-0.150000X0.825000X-0.150000X-0.825000X0*%
%ADD25FreePoly0,0.000000*%
%ADD26R,1.000000X1.500000*%
%ADD27FreePoly1,0.000000*%
%ADD28FreePoly0,180.000000*%
%ADD29FreePoly1,180.000000*%
%ADD30RotRect,1.500000X0.900000X150.000000*%
%ADD31RoundRect,0.250000X0.054784X0.580112X-0.529784X0.242612X-0.054784X-0.580112X0.529784X-0.242612X0*%
%ADD32R,0.900000X1.500000*%
%ADD33C,0.600000*%
%ADD34R,4.200000X4.200000*%
%ADD35RoundRect,0.250000X-0.350000X-0.450000X0.350000X-0.450000X0.350000X0.450000X-0.350000X0.450000X0*%
%ADD36RoundRect,0.250000X0.350000X0.450000X-0.350000X0.450000X-0.350000X-0.450000X0.350000X-0.450000X0*%
%ADD37RoundRect,0.250000X0.580112X-0.054784X0.242612X0.529784X-0.580112X0.054784X-0.242612X-0.529784X0*%
%ADD38RoundRect,0.284615X0.455385X0.565385X-0.455385X0.565385X-0.455385X-0.565385X0.455385X-0.565385X0*%
%ADD39RoundRect,0.286538X0.458462X0.563462X-0.458462X0.563462X-0.458462X-0.563462X0.458462X-0.563462X0*%
%ADD40RoundRect,0.250000X-0.450000X0.350000X-0.450000X-0.350000X0.450000X-0.350000X0.450000X0.350000X0*%
%ADD41RoundRect,0.250000X-0.580112X0.054784X-0.242612X-0.529784X0.580112X-0.054784X0.242612X0.529784X0*%
%ADD42RoundRect,0.250000X0.337500X0.475000X-0.337500X0.475000X-0.337500X-0.475000X0.337500X-0.475000X0*%
%ADD43FreePoly2,180.000000*%
%ADD44FreePoly3,180.000000*%
%ADD45RotRect,1.500000X0.900000X120.000000*%
%ADD46RotRect,1.500000X0.900000X60.000000*%
%ADD47R,4.300000X0.700000*%
%ADD48RotRect,1.500000X0.900000X300.000000*%
%ADD49R,2.000000X1.500000*%
%ADD50R,2.000000X3.800000*%
%ADD51RoundRect,0.250000X0.529784X0.242612X-0.054784X0.580112X-0.529784X-0.242612X0.054784X-0.580112X0*%
%ADD52RoundRect,0.250000X0.450000X-0.350000X0.450000X0.350000X-0.450000X0.350000X-0.450000X-0.350000X0*%
%ADD53RoundRect,0.250000X-0.529784X-0.242612X0.054784X-0.580112X0.529784X0.242612X-0.054784X0.580112X0*%
%ADD54RoundRect,0.250000X-1.750000X-1.000000X1.750000X-1.000000X1.750000X1.000000X-1.750000X1.000000X0*%
%ADD55RoundRect,0.150000X-0.587500X-0.150000X0.587500X-0.150000X0.587500X0.150000X-0.587500X0.150000X0*%
%ADD56R,1.000000X0.800000*%
%ADD57C,0.900000*%
%ADD58R,0.700000X1.500000*%
%ADD59RotRect,1.500000X0.900000X210.000000*%
%ADD60RotRect,1.500000X0.900000X30.000000*%
%ADD61RotRect,1.500000X0.900000X330.000000*%
%ADD62RoundRect,0.250000X0.242612X-0.529784X0.580112X0.054784X-0.242612X0.529784X-0.580112X-0.054784X0*%
%ADD63R,1.600000X2.000000*%
%ADD64RoundRect,0.250000X-0.054784X-0.580112X0.529784X-0.242612X0.054784X0.580112X-0.529784X0.242612X0*%
%ADD65RotRect,1.500000X0.900000X240.000000*%
%ADD66RoundRect,0.150000X0.587500X0.150000X-0.587500X0.150000X-0.587500X-0.150000X0.587500X-0.150000X0*%
%ADD67RoundRect,0.250000X-0.242612X0.529784X-0.580112X-0.054784X0.242612X-0.529784X0.580112X0.054784X0*%
%ADD68RoundRect,0.250000X0.475000X-0.337500X0.475000X0.337500X-0.475000X0.337500X-0.475000X-0.337500X0*%
%ADD69R,1.874000X4.300000*%
%ADD70RoundRect,0.150000X-0.150000X0.512500X-0.150000X-0.512500X0.150000X-0.512500X0.150000X0.512500X0*%
G04 APERTURE END LIST*
D10*
%TO.C,REF\u002A\u002A*%
X113000000Y-108500000D03*
%TD*%
%TO.C,REF\u002A\u002A*%
X181100000Y-120200000D03*
%TD*%
%TO.C,REF\u002A\u002A*%
X176800000Y-120200000D03*
%TD*%
%TO.C,REF\u002A\u002A*%
X113000000Y-103500000D03*
%TD*%
%TO.C,REF\u002A\u002A*%
X189700000Y-120200000D03*
%TD*%
%TO.C,REF\u002A\u002A*%
X113000000Y-112600000D03*
%TD*%
%TO.C,REF\u002A\u002A*%
X113000000Y-98500000D03*
%TD*%
%TO.C,REF\u002A\u002A*%
X166700000Y-120200000D03*
%TD*%
%TO.C,REF\u002A\u002A*%
X183700000Y-120200000D03*
%TD*%
D11*
%TO.C,J8*%
X119510000Y-86420000D03*
X119510000Y-85920000D03*
X119510000Y-85420000D03*
X119510000Y-84920000D03*
X119510000Y-84420000D03*
X119510000Y-83920000D03*
X119510000Y-82920000D03*
X119510000Y-82420000D03*
X119510000Y-81920000D03*
X119510000Y-81420000D03*
X119510000Y-80920000D03*
X119510000Y-80420000D03*
D12*
X118210000Y-80320000D03*
D11*
X118210000Y-81170000D03*
X118210000Y-81670000D03*
X118210000Y-82170000D03*
X118210000Y-82670000D03*
X118210000Y-83170000D03*
X118210000Y-83670000D03*
X118210000Y-84170000D03*
X118210000Y-84670000D03*
X118210000Y-85170000D03*
X118210000Y-85670000D03*
D12*
X118210000Y-86520000D03*
D13*
X119100000Y-87740000D03*
D14*
X113740000Y-87740000D03*
D13*
X119100000Y-79100000D03*
D14*
X113740000Y-79100000D03*
%TD*%
D15*
%TO.C,REF\u002A\u002A*%
X167122301Y-94654633D03*
%TD*%
%TO.C,REF\u002A\u002A*%
X144307482Y-117535144D03*
%TD*%
%TO.C,REF\u002A\u002A*%
X121460000Y-94670000D03*
%TD*%
%TO.C,REF\u002A\u002A*%
X144260000Y-71870000D03*
%TD*%
D16*
%TO.C,REF\u002A\u002A*%
X193226027Y-117666028D03*
X193190000Y-71790000D03*
X115575000Y-71790000D03*
X115570000Y-117700000D03*
%TD*%
D15*
%TO.C,REF\u002A\u002A*%
X150708000Y-101124000D03*
%TD*%
%TO.C,REF\u002A\u002A*%
X150698000Y-88284000D03*
%TD*%
%TO.C,REF\u002A\u002A*%
X137868000Y-88284000D03*
%TD*%
%TO.C,REF\u002A\u002A*%
X137878000Y-101114000D03*
%TD*%
D17*
%TO.C,C5*%
X188100000Y-106450000D03*
X188100000Y-108525000D03*
%TD*%
D18*
%TO.C,J7*%
X163500000Y-70820000D03*
X164500000Y-70820000D03*
X165500000Y-70820000D03*
X166500000Y-70820000D03*
%TD*%
D19*
%TO.C,WLED4*%
X146749000Y-76541000D03*
X146749000Y-79841000D03*
X141849000Y-79841000D03*
X141849000Y-76541000D03*
%TD*%
D20*
%TO.C,C25*%
X124400000Y-120100000D03*
X122450000Y-120100000D03*
%TD*%
D21*
%TO.C,FB1*%
X114891432Y-90933900D03*
X117191432Y-90933900D03*
%TD*%
D22*
%TO.C,D1*%
X186700000Y-79730000D03*
X186700000Y-81780000D03*
%TD*%
D23*
%TO.C,C9*%
X121000000Y-73100000D03*
X123075000Y-73100000D03*
%TD*%
D24*
%TO.C,U4*%
X134210000Y-74700000D03*
X132940000Y-74700000D03*
X131670000Y-74700000D03*
X130400000Y-74700000D03*
X129130000Y-74700000D03*
X127860000Y-74700000D03*
X126590000Y-74700000D03*
X125320000Y-74700000D03*
X125320000Y-69750000D03*
X126590000Y-69750000D03*
X127860000Y-69750000D03*
X129130000Y-69750000D03*
X130400000Y-69750000D03*
X131670000Y-69750000D03*
X132940000Y-69750000D03*
X134210000Y-69750000D03*
%TD*%
D25*
%TO.C,JP2*%
X121600000Y-105200000D03*
D26*
X122900000Y-105200000D03*
D27*
X124200000Y-105200000D03*
%TD*%
D28*
%TO.C,JP1*%
X129500000Y-113400000D03*
D26*
X128200000Y-113400000D03*
D29*
X126900000Y-113400000D03*
%TD*%
D30*
%TO.C,WLED3*%
X155490496Y-80139840D03*
X153840496Y-82997724D03*
X149596972Y-80547724D03*
X151246972Y-77689840D03*
%TD*%
D18*
%TO.C,J6*%
X168200000Y-117150000D03*
X169200000Y-117150000D03*
X170200000Y-117150000D03*
X171200000Y-117150000D03*
X172200000Y-117150000D03*
X173200000Y-117150000D03*
X174200000Y-117150000D03*
X175200000Y-117150000D03*
%TD*%
D31*
%TO.C,C17*%
X139093000Y-83270000D03*
X137295998Y-84307500D03*
%TD*%
D32*
%TO.C,U3*%
X189335000Y-103150000D03*
X188065000Y-103150000D03*
X186795000Y-103150000D03*
X185525000Y-103150000D03*
X184255000Y-103150000D03*
X182985000Y-103150000D03*
X181715000Y-103150000D03*
X180445000Y-103150000D03*
X179175000Y-103150000D03*
X177905000Y-103150000D03*
X176635000Y-103150000D03*
X175365000Y-103150000D03*
X174095000Y-103150000D03*
X172825000Y-103150000D03*
D19*
X171575000Y-100110000D03*
X171575000Y-98840000D03*
X171575000Y-97570000D03*
X171575000Y-96300000D03*
X171575000Y-95030000D03*
X171575000Y-93760000D03*
X171575000Y-92490000D03*
X171575000Y-91220000D03*
X171575000Y-89950000D03*
X171575000Y-88680000D03*
D32*
X172825000Y-85650000D03*
X174095000Y-85650000D03*
X175365000Y-85650000D03*
X176635000Y-85650000D03*
X177905000Y-85650000D03*
X179175000Y-85650000D03*
X180445000Y-85650000D03*
X181715000Y-85650000D03*
X182985000Y-85650000D03*
X184255000Y-85650000D03*
X185525000Y-85650000D03*
X186795000Y-85650000D03*
X188065000Y-85650000D03*
X189335000Y-85650000D03*
D33*
X181232500Y-96605000D03*
X182757500Y-96605000D03*
X180470000Y-95842500D03*
X181995000Y-95842500D03*
X183520000Y-95842500D03*
X181232500Y-95080000D03*
D34*
X181995000Y-95080000D03*
D33*
X182757500Y-95080000D03*
X180470000Y-94317500D03*
X181995000Y-94317500D03*
X183520000Y-94317500D03*
X181232500Y-93555000D03*
X182757500Y-93555000D03*
%TD*%
D35*
%TO.C,R2*%
X126600000Y-116900000D03*
X128600000Y-116900000D03*
%TD*%
D23*
%TO.C,C22*%
X143284000Y-107273000D03*
X145359000Y-107273000D03*
%TD*%
D36*
%TO.C,R5*%
X123100000Y-70100000D03*
X121100000Y-70100000D03*
%TD*%
D37*
%TO.C,C14*%
X155603000Y-89239000D03*
X154565500Y-87441998D03*
%TD*%
D20*
%TO.C,C26*%
X124400000Y-113500000D03*
X122450000Y-113500000D03*
%TD*%
D38*
%TO.C,D2*%
X158985000Y-72700000D03*
D39*
X155300000Y-72700000D03*
%TD*%
D40*
%TO.C,R10*%
X170800000Y-79800000D03*
X170800000Y-81800000D03*
%TD*%
D41*
%TO.C,C20*%
X132997000Y-100161000D03*
X134034500Y-101958002D03*
%TD*%
D42*
%TO.C,C10*%
X116937500Y-93500000D03*
X114862500Y-93500000D03*
%TD*%
D43*
%TO.C,JPw1*%
X136340000Y-94690000D03*
D44*
X135040000Y-94690000D03*
%TD*%
D45*
%TO.C,WLED2*%
X161291884Y-87768524D03*
X158434000Y-89418524D03*
X155984000Y-85175000D03*
X158841884Y-83525000D03*
%TD*%
D46*
%TO.C,WLED12*%
X158841884Y-105875000D03*
X155984000Y-104225000D03*
X158434000Y-99981476D03*
X161291884Y-101631476D03*
%TD*%
D42*
%TO.C,C3*%
X163875000Y-109800000D03*
X161800000Y-109800000D03*
%TD*%
D40*
%TO.C,R17*%
X181700000Y-106500000D03*
X181700000Y-108500000D03*
%TD*%
D18*
%TO.C,J9*%
X177530000Y-70820000D03*
X178530000Y-70820000D03*
X179530000Y-70820000D03*
X180530000Y-70820000D03*
X181530000Y-70820000D03*
%TD*%
D17*
%TO.C,C2*%
X153500000Y-116645000D03*
X153500000Y-118720000D03*
%TD*%
D47*
%TO.C,J1*%
X116762067Y-111030000D03*
X116762067Y-110030000D03*
%TD*%
D25*
%TO.C,JP3*%
X143150000Y-102992500D03*
D26*
X144450000Y-102992500D03*
D27*
X145750000Y-102992500D03*
%TD*%
D38*
%TO.C,D3*%
X158985000Y-69800000D03*
D39*
X155300000Y-69800000D03*
%TD*%
D17*
%TO.C,C1*%
X150590000Y-116645000D03*
X150590000Y-118720000D03*
%TD*%
D47*
%TO.C,J3*%
X116300000Y-102000000D03*
X116300000Y-101000000D03*
X116300000Y-100000000D03*
%TD*%
D23*
%TO.C,C8*%
X121025000Y-76200000D03*
X123100000Y-76200000D03*
%TD*%
D48*
%TO.C,WLED8*%
X127343745Y-101658238D03*
X130201629Y-100008238D03*
X132651629Y-104251762D03*
X129793745Y-105901762D03*
%TD*%
D40*
%TO.C,R12*%
X122100000Y-84300000D03*
X122100000Y-86300000D03*
%TD*%
D49*
%TO.C,U2*%
X157150000Y-118400000D03*
X157150000Y-116100000D03*
D50*
X163450000Y-116100000D03*
D49*
X157150000Y-113800000D03*
%TD*%
D17*
%TO.C,C19*%
X131854000Y-93641000D03*
X131854000Y-95716000D03*
%TD*%
D51*
%TO.C,C15*%
X151304002Y-84307500D03*
X149507000Y-83270000D03*
%TD*%
D17*
%TO.C,C4*%
X184700000Y-106400000D03*
X184700000Y-108475000D03*
%TD*%
D18*
%TO.C,J10*%
X188200000Y-116950000D03*
X187200000Y-116950000D03*
X186200000Y-116950000D03*
X185200000Y-116950000D03*
%TD*%
D52*
%TO.C,R8*%
X180500000Y-81800000D03*
X180500000Y-79800000D03*
%TD*%
D53*
%TO.C,C21*%
X137168998Y-104965500D03*
X138966000Y-106003000D03*
%TD*%
D54*
%TO.C,EC1*%
X140310000Y-94720000D03*
X148310000Y-94720000D03*
%TD*%
D35*
%TO.C,R15*%
X150400000Y-69800000D03*
X152400000Y-69800000D03*
%TD*%
D55*
%TO.C,Q2*%
X175662500Y-81783000D03*
X175662500Y-79883000D03*
X177537500Y-80833000D03*
%TD*%
D56*
%TO.C,SW1*%
X138950000Y-119730000D03*
X138950000Y-117520000D03*
D57*
X136800000Y-118630000D03*
X133800000Y-118630000D03*
D56*
X131650000Y-119730000D03*
X131650000Y-117520000D03*
D58*
X137550000Y-116870000D03*
X134550000Y-116870000D03*
X133050000Y-116870000D03*
%TD*%
D40*
%TO.C,R13*%
X162800000Y-78300000D03*
X162800000Y-80300000D03*
%TD*%
D35*
%TO.C,R3*%
X124020000Y-110220000D03*
X126020000Y-110220000D03*
%TD*%
D59*
%TO.C,WLED5*%
X137347044Y-77734102D03*
X138997044Y-80591986D03*
X134753520Y-83041986D03*
X133103520Y-80184102D03*
%TD*%
D60*
%TO.C,WLED11*%
X151232476Y-111654884D03*
X149582476Y-108797000D03*
X153826000Y-106347000D03*
X155476000Y-109204884D03*
%TD*%
D32*
%TO.C,WLED7*%
X126139000Y-92250000D03*
X129439000Y-92250000D03*
X129439000Y-97150000D03*
X126139000Y-97150000D03*
%TD*%
D61*
%TO.C,WLED9*%
X133159830Y-109209865D03*
X134809830Y-106351981D03*
X139053354Y-108801981D03*
X137403354Y-111659865D03*
%TD*%
D35*
%TO.C,R16*%
X150400000Y-72700000D03*
X152400000Y-72700000D03*
%TD*%
D62*
%TO.C,C24*%
X154587000Y-101812000D03*
X155624500Y-100014998D03*
%TD*%
D63*
%TO.C,SW3*%
X167050000Y-106300000D03*
X167050000Y-100900000D03*
%TD*%
D64*
%TO.C,C23*%
X149507000Y-106130000D03*
X151304002Y-105092500D03*
%TD*%
D65*
%TO.C,WLED6*%
X129795116Y-83508991D03*
X132653000Y-85158991D03*
X130203000Y-89402515D03*
X127345116Y-87752515D03*
%TD*%
D35*
%TO.C,R1*%
X126600000Y-119900000D03*
X128600000Y-119900000D03*
%TD*%
D63*
%TO.C,SW2*%
X166800000Y-84650000D03*
X166800000Y-79250000D03*
%TD*%
D66*
%TO.C,Q1*%
X168245000Y-87950000D03*
X168245000Y-89850000D03*
X166370000Y-88900000D03*
%TD*%
D18*
%TO.C,J4*%
X188330000Y-70811753D03*
X187330000Y-70811753D03*
X186330000Y-70811753D03*
X185330000Y-70811753D03*
X184330000Y-70811753D03*
%TD*%
D67*
%TO.C,C18*%
X134023750Y-87578499D03*
X132986250Y-89375501D03*
%TD*%
D52*
%TO.C,R6*%
X152710000Y-95820000D03*
X152710000Y-93820000D03*
%TD*%
D23*
%TO.C,C6*%
X136400000Y-70100000D03*
X138475000Y-70100000D03*
%TD*%
D68*
%TO.C,C13*%
X156746000Y-95737500D03*
X156746000Y-93662500D03*
%TD*%
D32*
%TO.C,WLED1*%
X162459000Y-97113000D03*
X159159000Y-97113000D03*
X159159000Y-92213000D03*
X162459000Y-92213000D03*
%TD*%
D23*
%TO.C,C7*%
X136450000Y-73050000D03*
X138525000Y-73050000D03*
%TD*%
D69*
%TO.C,J5*%
X178913000Y-117150000D03*
%TD*%
D68*
%TO.C,C11*%
X124800000Y-80437500D03*
X124800000Y-78362500D03*
%TD*%
D40*
%TO.C,R7*%
X189400000Y-79756000D03*
X189400000Y-81756000D03*
%TD*%
D42*
%TO.C,C16*%
X145359000Y-82254000D03*
X143284000Y-82254000D03*
%TD*%
D68*
%TO.C,C12*%
X122100000Y-90937500D03*
X122100000Y-88862500D03*
%TD*%
D19*
%TO.C,WLED10*%
X141887000Y-112859000D03*
X141887000Y-109559000D03*
X146787000Y-109559000D03*
X146787000Y-112859000D03*
%TD*%
D40*
%TO.C,R11*%
X173350000Y-79800000D03*
X173350000Y-81800000D03*
%TD*%
%TO.C,R14*%
X159700000Y-75400000D03*
X159700000Y-77400000D03*
%TD*%
D18*
%TO.C,J2*%
X169730000Y-70820000D03*
X170730000Y-70820000D03*
X171730000Y-70820000D03*
X172730000Y-70820000D03*
X173730000Y-70820000D03*
X174730000Y-70820000D03*
%TD*%
D70*
%TO.C,U1*%
X122650000Y-115900000D03*
X123600000Y-115900000D03*
X124550000Y-115900000D03*
X124550000Y-118175000D03*
X122650000Y-118175000D03*
%TD*%
D40*
%TO.C,R4*%
X128300000Y-77300000D03*
X128300000Y-79300000D03*
%TD*%
D52*
%TO.C,R9*%
X183261000Y-81788000D03*
X183261000Y-79788000D03*
%TD*%
M02*
