%TF.GenerationSoftware,KiCad,Pcbnew,7.0.1*%
%TF.CreationDate,2023-03-18T00:09:11+00:00*%
%TF.ProjectId,ImogenWren,496d6f67-656e-4577-9265-6e2e6b696361,rev?*%
%TF.SameCoordinates,Original*%
%TF.FileFunction,Copper,L1,Top*%
%TF.FilePolarity,Positive*%
%FSLAX46Y46*%
G04 Gerber Fmt 4.6, Leading zero omitted, Abs format (unit mm)*
G04 Created by KiCad (PCBNEW 7.0.1) date 2023-03-18 00:09:11*
%MOMM*%
%LPD*%
G01*
G04 APERTURE LIST*
%TA.AperFunction,ComponentPad*%
%ADD10O,2.100000X1.100000*%
%TD*%
%TA.AperFunction,ComponentPad*%
%ADD11O,2.600000X1.100000*%
%TD*%
%TA.AperFunction,HeatsinkPad*%
%ADD12C,0.600000*%
%TD*%
%TA.AperFunction,ViaPad*%
%ADD13C,0.800000*%
%TD*%
%TA.AperFunction,Conductor*%
%ADD14C,0.800000*%
%TD*%
%TA.AperFunction,Conductor*%
%ADD15C,0.300000*%
%TD*%
%TA.AperFunction,Conductor*%
%ADD16C,0.500000*%
%TD*%
G04 APERTURE END LIST*
D10*
%TO.P,J8,S1,SHIELD*%
%TO.N,GND*%
X119100000Y-87740000D03*
D11*
X113740000Y-87740000D03*
D10*
X119100000Y-79100000D03*
D11*
X113740000Y-79100000D03*
%TD*%
D12*
%TO.P,U3,39,GND*%
%TO.N,GND*%
X181232500Y-96605000D03*
X182757500Y-96605000D03*
X180470000Y-95842500D03*
X181995000Y-95842500D03*
X183520000Y-95842500D03*
X181232500Y-95080000D03*
X182757500Y-95080000D03*
X180470000Y-94317500D03*
X181995000Y-94317500D03*
X183520000Y-94317500D03*
X181232500Y-93555000D03*
X182757500Y-93555000D03*
%TD*%
D13*
%TO.N,/BATTERY_POWER_BUS*%
X135730025Y-104149500D03*
X161900000Y-68465002D03*
X136600000Y-68800000D03*
X140900000Y-81700000D03*
X130800000Y-108100000D03*
X182500000Y-73000000D03*
%TO.N,GND*%
X165100000Y-78100000D03*
X128200000Y-114500000D03*
X146200000Y-96900000D03*
X156900000Y-100014998D03*
X145814000Y-108586000D03*
X189000000Y-77000000D03*
X121000000Y-114800000D03*
X133900000Y-98400000D03*
X183800000Y-90400000D03*
X120200000Y-74700000D03*
X152558502Y-106150500D03*
X149596972Y-81900000D03*
X138966000Y-107500000D03*
X155353749Y-86653749D03*
X137587000Y-70599500D03*
X136900000Y-81900000D03*
X166000000Y-99100000D03*
X148600000Y-98600000D03*
X137637000Y-73400000D03*
X131500000Y-89402515D03*
X157704250Y-92704250D03*
X133700000Y-77700000D03*
X147500000Y-72700000D03*
X128501681Y-96901681D03*
X186700000Y-75800000D03*
X113675000Y-92075000D03*
X160200000Y-109600000D03*
X114250001Y-102750002D03*
X142315000Y-81285000D03*
X123100000Y-74600000D03*
X118999998Y-119099999D03*
X173200000Y-98100000D03*
X162180669Y-72871597D03*
X131700000Y-120730000D03*
%TO.N,/ESP32/3V3_BUS*%
X163450000Y-112800000D03*
X182000000Y-81900000D03*
X186500000Y-106200000D03*
X183500000Y-111700000D03*
%TO.N,/ESP32/USB ESP32 CH340 Interface /ESP_EN*%
X185900000Y-101100000D03*
X166900000Y-104500000D03*
X178000000Y-81900000D03*
X179849500Y-100900000D03*
%TO.N,/USB_POWER*%
X125600000Y-118400000D03*
X125400000Y-103500000D03*
%TO.N,/USB/D-*%
X122200000Y-83100000D03*
X117250171Y-83410173D03*
X120500000Y-82900000D03*
%TO.N,/WS2812b LEDs/5V_IN*%
X157600000Y-86500000D03*
X160700000Y-88500000D03*
%TO.N,Net-(U3-SDI{slash}SD1)*%
X169670611Y-73099957D03*
X173170038Y-88949622D03*
%TO.N,Net-(U3-SDO{slash}SD0)*%
X170670112Y-73101429D03*
X173920444Y-89609846D03*
%TO.N,Net-(U3-SCK{slash}CLK)*%
X174631704Y-90312068D03*
X171669608Y-73097652D03*
%TO.N,Net-(U3-SCS{slash}CMD)*%
X175385958Y-90967893D03*
X172697055Y-73049500D03*
%TO.N,Net-(U3-SWP{slash}SD3)*%
X176001494Y-91755371D03*
X173693230Y-73130989D03*
%TO.N,Net-(U3-SHD{slash}SD2)*%
X174736243Y-73114048D03*
X177000000Y-91000000D03*
%TO.N,Net-(U3-GPIO4(T0))*%
X181100000Y-113200000D03*
X179600000Y-99000000D03*
%TO.N,Net-(U3-GPIO2(T2))*%
X169200000Y-108649500D03*
X175300000Y-110900000D03*
%TO.N,Net-(U3-GPIO33(T8))*%
X172478781Y-111338736D03*
X169960454Y-111894948D03*
%TO.N,Net-(U3-GPIO32(T9))*%
X168200000Y-113600000D03*
X173900000Y-112900000D03*
%TO.N,/BATTERY_POWER*%
X123200000Y-111400000D03*
X122103750Y-107496250D03*
%TO.N,Net-(Q1-B)*%
X168921611Y-81663607D03*
X169320759Y-85100850D03*
%TO.N,Net-(Q1-E)*%
X168029358Y-88934650D03*
X164650500Y-81471137D03*
%TO.N,SCL*%
X185800000Y-83700000D03*
X181961500Y-80100000D03*
%TO.N,SDA*%
X182562815Y-84322769D03*
X181900000Y-78800000D03*
%TO.N,/CHARGE_STATUS*%
X123699000Y-117337401D03*
X179849500Y-106500000D03*
%TO.N,18*%
X186289976Y-73001427D03*
X179175000Y-84100000D03*
%TO.N,Net-(D2-K)*%
X169800000Y-87700000D03*
X161400000Y-80200000D03*
%TO.N,/ESP32/SSERIAL_TX*%
X187496217Y-110095374D03*
X183900000Y-112800000D03*
%TO.N,/ESP32/SSERIAL_RX*%
X188129008Y-110869054D03*
X185900000Y-111900000D03*
%TO.N,19*%
X180445000Y-84200000D03*
X187279500Y-72860546D03*
%TO.N,Net-(WLED1-DOUT)*%
X160600000Y-89700000D03*
X164100000Y-94100000D03*
%TO.N,Net-(JP3-C)*%
X138800000Y-102800000D03*
X124400500Y-102905804D03*
%TO.N,Net-(D3-K)*%
X169756578Y-86596623D03*
X161900000Y-71100000D03*
X165400000Y-79700000D03*
%TD*%
D14*
%TO.N,GND*%
X121000000Y-117099997D02*
X121000000Y-114800000D01*
X121300000Y-114500000D02*
X121000000Y-114800000D01*
X128200000Y-114500000D02*
X121300000Y-114500000D01*
%TO.N,/BATTERY_POWER*%
X122103750Y-107496250D02*
X123200000Y-108592500D01*
X123200000Y-108592500D02*
X123200000Y-111400000D01*
%TO.N,GND*%
X121000000Y-117099997D02*
X118999998Y-119099999D01*
D15*
%TO.N,/ESP32/SSERIAL_RX*%
X188129008Y-110869054D02*
X187098062Y-111900000D01*
X187098062Y-111900000D02*
X185900000Y-111900000D01*
%TO.N,/ESP32/SSERIAL_TX*%
X186604626Y-110095374D02*
X187496217Y-110095374D01*
X183900000Y-112800000D02*
X186604626Y-110095374D01*
D14*
%TO.N,GND*%
X180470000Y-95842500D02*
X181232500Y-95080000D01*
X181232500Y-96605000D02*
X180470000Y-95842500D01*
X148600000Y-102388498D02*
X152362002Y-106150500D01*
X131500000Y-89402515D02*
X131500000Y-87572470D01*
X148600000Y-98600000D02*
X148600000Y-102388498D01*
X164200000Y-77200000D02*
X164200000Y-74890928D01*
X146828000Y-109600000D02*
X160200000Y-109600000D01*
X155353749Y-90353749D02*
X157704250Y-92704250D01*
X182757500Y-93555000D02*
X181232500Y-93555000D01*
X183520000Y-94062500D02*
X182757500Y-93300000D01*
D16*
X119100000Y-87740000D02*
X116100000Y-84740000D01*
X137637000Y-73400000D02*
X137637000Y-74763000D01*
D14*
X183900000Y-93200000D02*
X180100000Y-93200000D01*
X180470000Y-95842500D02*
X175457500Y-95842500D01*
D16*
X116100000Y-82100000D02*
X119100000Y-79100000D01*
D14*
X113740000Y-87740000D02*
X119100000Y-87740000D01*
X182757500Y-93555000D02*
X183520000Y-94317500D01*
X155353749Y-86653749D02*
X155353749Y-90353749D01*
X142315000Y-81285000D02*
X142315000Y-82485000D01*
D15*
X189000000Y-77000000D02*
X187900000Y-77000000D01*
D14*
X128501681Y-96901681D02*
X130000000Y-98400000D01*
X142315000Y-81285000D02*
X148981972Y-81285000D01*
X128501681Y-92400834D02*
X128501681Y-96901681D01*
X183895000Y-96605000D02*
X183900000Y-96600000D01*
X166000000Y-99100000D02*
X172200000Y-99100000D01*
X183520000Y-95842500D02*
X182757500Y-96605000D01*
X156900000Y-100014998D02*
X157814998Y-99100000D01*
X146200000Y-96900000D02*
X140100000Y-90800000D01*
X181995000Y-97295000D02*
X182000000Y-97300000D01*
X181995000Y-94317500D02*
X183520000Y-94317500D01*
X157814998Y-99100000D02*
X166000000Y-99100000D01*
X182757500Y-93300000D02*
X182757500Y-91442500D01*
X182300000Y-97062500D02*
X182757500Y-96605000D01*
X182757500Y-93555000D02*
X182757500Y-93300000D01*
X183520000Y-95842500D02*
X183520000Y-94062500D01*
X183900000Y-96600000D02*
X183900000Y-93200000D01*
X141758014Y-83041986D02*
X138041986Y-83041986D01*
X183520000Y-95842500D02*
X180470000Y-95842500D01*
X181232500Y-96605000D02*
X181232500Y-97132500D01*
X183520000Y-94317500D02*
X183520000Y-95842500D01*
X138041986Y-83041986D02*
X136900000Y-81900000D01*
X149596972Y-81900000D02*
X150600000Y-81900000D01*
X113675000Y-92075000D02*
X114250000Y-92650000D01*
X149596972Y-81900000D02*
X149596972Y-74796972D01*
X183520000Y-95842500D02*
X182757500Y-95080000D01*
X142315000Y-82485000D02*
X141758014Y-83041986D01*
X130000000Y-98400000D02*
X133900000Y-98400000D01*
X172200000Y-99100000D02*
X173200000Y-98100000D01*
X182757500Y-91442500D02*
X183800000Y-90400000D01*
X123398319Y-96901681D02*
X118501681Y-96901681D01*
X149596972Y-74796972D02*
X147500000Y-72700000D01*
X181700000Y-97600000D02*
X182000000Y-97300000D01*
X147900000Y-98600000D02*
X146200000Y-96900000D01*
X129259954Y-114500000D02*
X128200000Y-114500000D01*
X164200000Y-74890928D02*
X162180669Y-72871597D01*
D16*
X134700000Y-77700000D02*
X133700000Y-77700000D01*
D14*
X144728000Y-107500000D02*
X145814000Y-108586000D01*
X138966000Y-107500000D02*
X144728000Y-107500000D01*
X180195000Y-96605000D02*
X181232500Y-96605000D01*
X137906046Y-108559954D02*
X135200000Y-108559954D01*
X118501681Y-96901681D02*
X113675000Y-92075000D01*
X114250000Y-92650000D02*
X114250001Y-102750002D01*
X131500000Y-87572470D02*
X136030484Y-83041986D01*
X150600000Y-81900000D02*
X155353749Y-86653749D01*
X134400000Y-90800000D02*
X133002515Y-89402515D01*
X175457500Y-95842500D02*
X173200000Y-98100000D01*
X135200000Y-108559954D02*
X129259954Y-114500000D01*
D16*
X116100000Y-84740000D02*
X116100000Y-82100000D01*
X120200000Y-74700000D02*
X123000000Y-74700000D01*
D14*
X180470000Y-95842500D02*
X180470000Y-94317500D01*
D16*
X137637000Y-73400000D02*
X137637000Y-70649500D01*
D14*
X181232500Y-97132500D02*
X181700000Y-97600000D01*
X180100000Y-93200000D02*
X180100000Y-96700000D01*
X181995000Y-95842500D02*
X182300000Y-96147500D01*
X181232500Y-93555000D02*
X180470000Y-94317500D01*
D16*
X137637000Y-70649500D02*
X137587000Y-70599500D01*
D14*
X183520000Y-94317500D02*
X181232500Y-96605000D01*
X131500000Y-89402515D02*
X128501681Y-92400834D01*
X180470000Y-94317500D02*
X182757500Y-96605000D01*
D15*
X187900000Y-77000000D02*
X186700000Y-75800000D01*
D14*
X182300000Y-96147500D02*
X182300000Y-97062500D01*
X128200000Y-117230000D02*
X131700000Y-120730000D01*
X145814000Y-108586000D02*
X146828000Y-109600000D01*
X136030484Y-82769516D02*
X136900000Y-81900000D01*
X136030484Y-83041986D02*
X136030484Y-82769516D01*
D16*
X137637000Y-74763000D02*
X134700000Y-77700000D01*
D14*
X180100000Y-96700000D02*
X180195000Y-96605000D01*
X123398319Y-96901681D02*
X128501681Y-96901681D01*
X138966000Y-107500000D02*
X137906046Y-108559954D01*
X165100000Y-78100000D02*
X164200000Y-77200000D01*
X128200000Y-114500000D02*
X128200000Y-117230000D01*
X133002515Y-89402515D02*
X131500000Y-89402515D01*
X140100000Y-90800000D02*
X134400000Y-90800000D01*
X182757500Y-96605000D02*
X183895000Y-96605000D01*
X148600000Y-98600000D02*
X147900000Y-98600000D01*
X152362002Y-106150500D02*
X152558502Y-106150500D01*
X181232500Y-95080000D02*
X182757500Y-95080000D01*
X148981972Y-81285000D02*
X149596972Y-81900000D01*
X181995000Y-95842500D02*
X181995000Y-97295000D01*
X180470000Y-94317500D02*
X181995000Y-94317500D01*
D16*
X123000000Y-74700000D02*
X123100000Y-74600000D01*
D14*
%TO.N,/ESP32/3V3_BUS*%
X188200000Y-88088000D02*
X188188000Y-88088000D01*
X186500000Y-107200000D02*
X183500000Y-110200000D01*
X188188000Y-88088000D02*
X182000000Y-81900000D01*
X183500000Y-110200000D02*
X183500000Y-111700000D01*
X188200000Y-104500000D02*
X188200000Y-88088000D01*
X186500000Y-106200000D02*
X188200000Y-104500000D01*
X186500000Y-106200000D02*
X186500000Y-107200000D01*
D15*
%TO.N,/ESP32/USB ESP32 CH340 Interface /ESP_EN*%
X178000000Y-81900000D02*
X178000000Y-84800000D01*
X179200000Y-86000000D02*
X181600000Y-86000000D01*
X181600000Y-86000000D02*
X185900000Y-90300000D01*
X178000000Y-84800000D02*
X179200000Y-86000000D01*
X185900000Y-90300000D02*
X185900000Y-101100000D01*
%TO.N,/USB/D-*%
X122000000Y-82900000D02*
X122200000Y-83100000D01*
X119989827Y-83410173D02*
X120500000Y-82900000D01*
X117250171Y-83410173D02*
X119989827Y-83410173D01*
X120500000Y-82900000D02*
X122000000Y-82900000D01*
%TO.N,/WS2812b LEDs/5V_IN*%
X158700000Y-86500000D02*
X157600000Y-86500000D01*
X160700000Y-88500000D02*
X158700000Y-86500000D01*
%TO.N,Net-(U3-SDI{slash}SD1)*%
X169670611Y-73099957D02*
X169893483Y-73322829D01*
X169893483Y-73322829D02*
X169893483Y-84613620D01*
X169893483Y-84613620D02*
X170070259Y-84790396D01*
X170070259Y-85849843D02*
X173170038Y-88949622D01*
X170070259Y-84790396D02*
X170070259Y-85849843D01*
%TO.N,Net-(U3-SDO{slash}SD0)*%
X173920444Y-88560490D02*
X173920444Y-89609846D01*
X170670112Y-73101429D02*
X170670112Y-85310158D01*
X170670112Y-85310158D02*
X173920444Y-88560490D01*
%TO.N,Net-(U3-SCK{slash}CLK)*%
X174771375Y-90172397D02*
X174631704Y-90312068D01*
X171669608Y-85603252D02*
X174771375Y-88705019D01*
X174771375Y-88705019D02*
X174771375Y-90172397D01*
X171669608Y-73097652D02*
X171669608Y-85603252D01*
%TO.N,Net-(U3-SCS{slash}CMD)*%
X172697055Y-85924298D02*
X175385958Y-88613201D01*
X172697055Y-73049500D02*
X172697055Y-85924298D01*
X175385958Y-88613201D02*
X175385958Y-90967893D01*
%TO.N,Net-(U3-SWP{slash}SD3)*%
X176135958Y-91620907D02*
X176001494Y-91755371D01*
X173693230Y-73130989D02*
X173693230Y-85793230D01*
X173693230Y-85793230D02*
X176135958Y-88235958D01*
X176135958Y-88235958D02*
X176135958Y-91620907D01*
%TO.N,Net-(U3-SHD{slash}SD2)*%
X177000000Y-87900000D02*
X177000000Y-91000000D01*
X174736243Y-73114048D02*
X174736243Y-85636243D01*
X174736243Y-85636243D02*
X177000000Y-87900000D01*
%TO.N,Net-(U3-GPIO4(T0))*%
X179100000Y-111200000D02*
X179100000Y-99500000D01*
X181100000Y-113200000D02*
X179100000Y-111200000D01*
X179100000Y-99500000D02*
X179600000Y-99000000D01*
%TO.N,Net-(Q1-B)*%
X169171610Y-84951701D02*
X169320759Y-85100850D01*
X169171610Y-81913606D02*
X169171610Y-84951701D01*
X168921611Y-81663607D02*
X169171610Y-81913606D01*
%TO.N,Net-(Q1-E)*%
X168029358Y-88934650D02*
X164700499Y-85605791D01*
X164700499Y-85605791D02*
X164700499Y-81521136D01*
X164700499Y-81521136D02*
X164650500Y-81471137D01*
%TO.N,SCL*%
X182200000Y-80100000D02*
X181961500Y-80100000D01*
X185800000Y-83700000D02*
X182200000Y-80100000D01*
%TO.N,SDA*%
X181900000Y-78800000D02*
X181100000Y-79600000D01*
X181100000Y-79600000D02*
X181100000Y-83700000D01*
X181100000Y-83700000D02*
X181722769Y-84322769D01*
X181722769Y-84322769D02*
X182562815Y-84322769D01*
%TO.N,18*%
X178900499Y-79293100D02*
X178900499Y-83825499D01*
X186289976Y-73001427D02*
X185192172Y-73001427D01*
X185192172Y-73001427D02*
X178900499Y-79293100D01*
X178900499Y-83825499D02*
X179175000Y-84100000D01*
%TO.N,19*%
X179400000Y-79500000D02*
X179400000Y-83155000D01*
X185100000Y-73800000D02*
X179400000Y-79500000D01*
X187279500Y-73481161D02*
X186960661Y-73800000D01*
X187279500Y-72860546D02*
X187279500Y-73481161D01*
X186960661Y-73800000D02*
X185100000Y-73800000D01*
X179400000Y-83155000D02*
X180445000Y-84200000D01*
%TD*%
%TA.AperFunction,Conductor*%
%TO.N,GND*%
G36*
X135815445Y-68078424D02*
G01*
X135859073Y-68114498D01*
X135882121Y-68166205D01*
X135879784Y-68222767D01*
X135864736Y-68250187D01*
X135867476Y-68251769D01*
X135765472Y-68428443D01*
X135706458Y-68610070D01*
X135686496Y-68799999D01*
X135706458Y-68989929D01*
X135765472Y-69171556D01*
X135860957Y-69336941D01*
X135888746Y-69367804D01*
X135988747Y-69478866D01*
X136035957Y-69513166D01*
X136143248Y-69591118D01*
X136317714Y-69668795D01*
X136504511Y-69708500D01*
X136504513Y-69708500D01*
X136695487Y-69708500D01*
X136695489Y-69708500D01*
X136882285Y-69668795D01*
X136882286Y-69668794D01*
X136882288Y-69668794D01*
X137056752Y-69591118D01*
X137211253Y-69478866D01*
X137339040Y-69336944D01*
X137434527Y-69171556D01*
X137493542Y-68989928D01*
X137513504Y-68800000D01*
X137493542Y-68610072D01*
X137434527Y-68428444D01*
X137434527Y-68428443D01*
X137332524Y-68251769D01*
X137335263Y-68250187D01*
X137320216Y-68222767D01*
X137317879Y-68166205D01*
X137340927Y-68114498D01*
X137384555Y-68078424D01*
X137439671Y-68065502D01*
X160903881Y-68065502D01*
X160960176Y-68079017D01*
X161004199Y-68116617D01*
X161026354Y-68170104D01*
X161021812Y-68227820D01*
X161006458Y-68275072D01*
X160986496Y-68465002D01*
X161006458Y-68654931D01*
X161065472Y-68836558D01*
X161160957Y-69001943D01*
X161190355Y-69034593D01*
X161288747Y-69143868D01*
X161443247Y-69256119D01*
X161443248Y-69256120D01*
X161617714Y-69333797D01*
X161804511Y-69373502D01*
X161804513Y-69373502D01*
X161995487Y-69373502D01*
X161995489Y-69373502D01*
X162182285Y-69333797D01*
X162182286Y-69333796D01*
X162182288Y-69333796D01*
X162356752Y-69256120D01*
X162511253Y-69143868D01*
X162639040Y-69001946D01*
X162734527Y-68836558D01*
X162793542Y-68654930D01*
X162813504Y-68465002D01*
X162793542Y-68275074D01*
X162778187Y-68227819D01*
X162773646Y-68170104D01*
X162795801Y-68116617D01*
X162839824Y-68079017D01*
X162896119Y-68065502D01*
X190761000Y-68065502D01*
X190823000Y-68082115D01*
X190868387Y-68127502D01*
X190885000Y-68189502D01*
X190885000Y-121261652D01*
X190868388Y-121323650D01*
X190823004Y-121369037D01*
X190761006Y-121385652D01*
X115573193Y-121389498D01*
X115566791Y-121389333D01*
X115416977Y-121381595D01*
X115416573Y-121381573D01*
X115204364Y-121369919D01*
X115192702Y-121368724D01*
X115019579Y-121342657D01*
X115018380Y-121342470D01*
X114831458Y-121312453D01*
X114820768Y-121310250D01*
X114646656Y-121266296D01*
X114644721Y-121265791D01*
X114611057Y-121256706D01*
X114466286Y-121217636D01*
X114456644Y-121214607D01*
X114285889Y-121153219D01*
X114283236Y-121152231D01*
X114112604Y-121086450D01*
X114104060Y-121082783D01*
X113939192Y-121004570D01*
X113935927Y-121002961D01*
X113773992Y-120920232D01*
X113766567Y-120916113D01*
X113609660Y-120821887D01*
X113605889Y-120819529D01*
X113453891Y-120720666D01*
X113447583Y-120716279D01*
X113300375Y-120606986D01*
X113296222Y-120603764D01*
X113155579Y-120489791D01*
X113150360Y-120485317D01*
X113014428Y-120362073D01*
X113010036Y-120357890D01*
X112882106Y-120229960D01*
X112877923Y-120225567D01*
X112812751Y-120153685D01*
X165845740Y-120153685D01*
X165855754Y-120338407D01*
X165905245Y-120516658D01*
X165991899Y-120680103D01*
X166111663Y-120821100D01*
X166258936Y-120933055D01*
X166426830Y-121010731D01*
X166426831Y-121010731D01*
X166426833Y-121010732D01*
X166607503Y-121050500D01*
X166746113Y-121050500D01*
X166746115Y-121050500D01*
X166815011Y-121043007D01*
X166883910Y-121035514D01*
X167059221Y-120976444D01*
X167217736Y-120881070D01*
X167352041Y-120753849D01*
X167455858Y-120600730D01*
X167524331Y-120428875D01*
X167554260Y-120246317D01*
X167549238Y-120153685D01*
X175945740Y-120153685D01*
X175955754Y-120338407D01*
X176005245Y-120516658D01*
X176091899Y-120680103D01*
X176211663Y-120821100D01*
X176358936Y-120933055D01*
X176526830Y-121010731D01*
X176526831Y-121010731D01*
X176526833Y-121010732D01*
X176707503Y-121050500D01*
X176846113Y-121050500D01*
X176846115Y-121050500D01*
X176915011Y-121043007D01*
X176983910Y-121035514D01*
X177159221Y-120976444D01*
X177317736Y-120881070D01*
X177452041Y-120753849D01*
X177555858Y-120600730D01*
X177624331Y-120428875D01*
X177654260Y-120246317D01*
X177649238Y-120153685D01*
X180245740Y-120153685D01*
X180255754Y-120338407D01*
X180305245Y-120516658D01*
X180391899Y-120680103D01*
X180511663Y-120821100D01*
X180658936Y-120933055D01*
X180826830Y-121010731D01*
X180826831Y-121010731D01*
X180826833Y-121010732D01*
X181007503Y-121050500D01*
X181146113Y-121050500D01*
X181146115Y-121050500D01*
X181215011Y-121043007D01*
X181283910Y-121035514D01*
X181459221Y-120976444D01*
X181617736Y-120881070D01*
X181752041Y-120753849D01*
X181855858Y-120600730D01*
X181924331Y-120428875D01*
X181954260Y-120246317D01*
X181949238Y-120153685D01*
X182845740Y-120153685D01*
X182855754Y-120338407D01*
X182905245Y-120516658D01*
X182991899Y-120680103D01*
X183111663Y-120821100D01*
X183258936Y-120933055D01*
X183426830Y-121010731D01*
X183426831Y-121010731D01*
X183426833Y-121010732D01*
X183607503Y-121050500D01*
X183746113Y-121050500D01*
X183746115Y-121050500D01*
X183815011Y-121043007D01*
X183883910Y-121035514D01*
X184059221Y-120976444D01*
X184217736Y-120881070D01*
X184352041Y-120753849D01*
X184455858Y-120600730D01*
X184524331Y-120428875D01*
X184554260Y-120246317D01*
X184549238Y-120153685D01*
X188845740Y-120153685D01*
X188855754Y-120338407D01*
X188905245Y-120516658D01*
X188991899Y-120680103D01*
X189111663Y-120821100D01*
X189258936Y-120933055D01*
X189426830Y-121010731D01*
X189426831Y-121010731D01*
X189426833Y-121010732D01*
X189607503Y-121050500D01*
X189746113Y-121050500D01*
X189746115Y-121050500D01*
X189815011Y-121043007D01*
X189883910Y-121035514D01*
X190059221Y-120976444D01*
X190217736Y-120881070D01*
X190352041Y-120753849D01*
X190455858Y-120600730D01*
X190524331Y-120428875D01*
X190554260Y-120246317D01*
X190544245Y-120061593D01*
X190494754Y-119883341D01*
X190408100Y-119719896D01*
X190288337Y-119578900D01*
X190288336Y-119578899D01*
X190141063Y-119466944D01*
X189973169Y-119389268D01*
X189792497Y-119349500D01*
X189653887Y-119349500D01*
X189653885Y-119349500D01*
X189516091Y-119364485D01*
X189340779Y-119423556D01*
X189182262Y-119518931D01*
X189047960Y-119646149D01*
X188944140Y-119799272D01*
X188875669Y-119971121D01*
X188845740Y-120153685D01*
X184549238Y-120153685D01*
X184544245Y-120061593D01*
X184494754Y-119883341D01*
X184408100Y-119719896D01*
X184288337Y-119578900D01*
X184288336Y-119578899D01*
X184141063Y-119466944D01*
X183973169Y-119389268D01*
X183792497Y-119349500D01*
X183653887Y-119349500D01*
X183653885Y-119349500D01*
X183516091Y-119364485D01*
X183340779Y-119423556D01*
X183182262Y-119518931D01*
X183047960Y-119646149D01*
X182944140Y-119799272D01*
X182875669Y-119971121D01*
X182845740Y-120153685D01*
X181949238Y-120153685D01*
X181944245Y-120061593D01*
X181894754Y-119883341D01*
X181808100Y-119719896D01*
X181688337Y-119578900D01*
X181688336Y-119578899D01*
X181541063Y-119466944D01*
X181373169Y-119389268D01*
X181192497Y-119349500D01*
X181053887Y-119349500D01*
X181053885Y-119349500D01*
X180916091Y-119364485D01*
X180740779Y-119423556D01*
X180582262Y-119518931D01*
X180447960Y-119646149D01*
X180344140Y-119799272D01*
X180275669Y-119971121D01*
X180245740Y-120153685D01*
X177649238Y-120153685D01*
X177644245Y-120061593D01*
X177594754Y-119883341D01*
X177508100Y-119719896D01*
X177388337Y-119578900D01*
X177388336Y-119578899D01*
X177241063Y-119466944D01*
X177073169Y-119389268D01*
X176892497Y-119349500D01*
X176753887Y-119349500D01*
X176753885Y-119349500D01*
X176616091Y-119364485D01*
X176440779Y-119423556D01*
X176282262Y-119518931D01*
X176147960Y-119646149D01*
X176044140Y-119799272D01*
X175975669Y-119971121D01*
X175945740Y-120153685D01*
X167549238Y-120153685D01*
X167544245Y-120061593D01*
X167494754Y-119883341D01*
X167408100Y-119719896D01*
X167288337Y-119578900D01*
X167288336Y-119578899D01*
X167141063Y-119466944D01*
X166973169Y-119389268D01*
X166792497Y-119349500D01*
X166653887Y-119349500D01*
X166653885Y-119349500D01*
X166516091Y-119364485D01*
X166340779Y-119423556D01*
X166182262Y-119518931D01*
X166047960Y-119646149D01*
X165944140Y-119799272D01*
X165875669Y-119971121D01*
X165845740Y-120153685D01*
X112812751Y-120153685D01*
X112754666Y-120089619D01*
X112750206Y-120084419D01*
X112636220Y-119943760D01*
X112633011Y-119939622D01*
X112523710Y-119792403D01*
X112519338Y-119786117D01*
X112420452Y-119634083D01*
X112418104Y-119630327D01*
X112351209Y-119518931D01*
X112323878Y-119473418D01*
X112319779Y-119466031D01*
X112237014Y-119304026D01*
X112235425Y-119300797D01*
X112210112Y-119247440D01*
X112157203Y-119135912D01*
X112153552Y-119127406D01*
X112087751Y-118956720D01*
X112086823Y-118954229D01*
X112025376Y-118783309D01*
X112022351Y-118773675D01*
X112021779Y-118771556D01*
X111974224Y-118595338D01*
X111973722Y-118593416D01*
X111972842Y-118589929D01*
X111929738Y-118419183D01*
X111927548Y-118408562D01*
X111897485Y-118221351D01*
X111897371Y-118220616D01*
X111871270Y-118047265D01*
X111870080Y-118035644D01*
X111858410Y-117823167D01*
X111855548Y-117767764D01*
X113715787Y-117767764D01*
X113745413Y-118037016D01*
X113769335Y-118128519D01*
X113813928Y-118299088D01*
X113864973Y-118419207D01*
X113919871Y-118548392D01*
X114060982Y-118779611D01*
X114208373Y-118956720D01*
X114234255Y-118987820D01*
X114435998Y-119168582D01*
X114661910Y-119318044D01*
X114729012Y-119349500D01*
X114907177Y-119433021D01*
X115166562Y-119511058D01*
X115166569Y-119511060D01*
X115434561Y-119550500D01*
X115637631Y-119550500D01*
X115637634Y-119550500D01*
X115840156Y-119535677D01*
X115840156Y-119535676D01*
X116104553Y-119476780D01*
X116357558Y-119380014D01*
X116593777Y-119247441D01*
X116808177Y-119081888D01*
X116996186Y-118886881D01*
X117153799Y-118666579D01*
X117277656Y-118425675D01*
X117286416Y-118399999D01*
X124686496Y-118399999D01*
X124706458Y-118589929D01*
X124765472Y-118771556D01*
X124860957Y-118936941D01*
X124860960Y-118936944D01*
X124988747Y-119078866D01*
X125112227Y-119168580D01*
X125143248Y-119191118D01*
X125317714Y-119268795D01*
X125504511Y-119308500D01*
X125504513Y-119308500D01*
X125695487Y-119308500D01*
X125695489Y-119308500D01*
X125882285Y-119268795D01*
X125882286Y-119268794D01*
X125882288Y-119268794D01*
X126056752Y-119191118D01*
X126211253Y-119078866D01*
X126339040Y-118936944D01*
X126371788Y-118880224D01*
X126434527Y-118771556D01*
X126452885Y-118715055D01*
X133099500Y-118715055D01*
X133140209Y-118880224D01*
X133179009Y-118954149D01*
X133219266Y-119030852D01*
X133261803Y-119078866D01*
X133332072Y-119158184D01*
X133347136Y-119168582D01*
X133472070Y-119254818D01*
X133631128Y-119315140D01*
X133757628Y-119330500D01*
X133842371Y-119330500D01*
X133842372Y-119330500D01*
X133968872Y-119315140D01*
X134127930Y-119254818D01*
X134267929Y-119158183D01*
X134380734Y-119030852D01*
X134459790Y-118880225D01*
X134500500Y-118715056D01*
X134500500Y-118715055D01*
X136099500Y-118715055D01*
X136140209Y-118880224D01*
X136179009Y-118954149D01*
X136219266Y-119030852D01*
X136261803Y-119078866D01*
X136332072Y-119158184D01*
X136347136Y-119168582D01*
X136472070Y-119254818D01*
X136631128Y-119315140D01*
X136757628Y-119330500D01*
X136842371Y-119330500D01*
X136842372Y-119330500D01*
X136968872Y-119315140D01*
X137127930Y-119254818D01*
X137267929Y-119158183D01*
X137380734Y-119030852D01*
X137459790Y-118880225D01*
X137500500Y-118715056D01*
X137500500Y-118544944D01*
X137459790Y-118379775D01*
X137380734Y-118229148D01*
X137267929Y-118101817D01*
X137267928Y-118101816D01*
X137267927Y-118101815D01*
X137127930Y-118005182D01*
X136968872Y-117944860D01*
X136842372Y-117929500D01*
X136757628Y-117929500D01*
X136694378Y-117937179D01*
X136631127Y-117944860D01*
X136472069Y-118005182D01*
X136332072Y-118101815D01*
X136219265Y-118229149D01*
X136140209Y-118379775D01*
X136099500Y-118544945D01*
X136099500Y-118715055D01*
X134500500Y-118715055D01*
X134500500Y-118544944D01*
X134459790Y-118379775D01*
X134380734Y-118229148D01*
X134267929Y-118101817D01*
X134267928Y-118101816D01*
X134267927Y-118101815D01*
X134127930Y-118005182D01*
X133968872Y-117944860D01*
X133842372Y-117929500D01*
X133757628Y-117929500D01*
X133694378Y-117937179D01*
X133631127Y-117944860D01*
X133472069Y-118005182D01*
X133332072Y-118101815D01*
X133219265Y-118229149D01*
X133140209Y-118379775D01*
X133099500Y-118544945D01*
X133099500Y-118715055D01*
X126452885Y-118715055D01*
X126493542Y-118589928D01*
X126513504Y-118400000D01*
X126493542Y-118210072D01*
X126437313Y-118037018D01*
X126434527Y-118028443D01*
X126339042Y-117863058D01*
X126302703Y-117822700D01*
X126211253Y-117721134D01*
X126056752Y-117608882D01*
X126056751Y-117608881D01*
X125891132Y-117535143D01*
X142951822Y-117535143D01*
X142972418Y-117770551D01*
X143000229Y-117874342D01*
X143033579Y-117998807D01*
X143133447Y-118212973D01*
X143268987Y-118406545D01*
X143436081Y-118573639D01*
X143629653Y-118709179D01*
X143843819Y-118809047D01*
X144072073Y-118870206D01*
X144072074Y-118870207D01*
X144248514Y-118885644D01*
X144248516Y-118885644D01*
X144366448Y-118885644D01*
X144366450Y-118885644D01*
X144484075Y-118875352D01*
X144542890Y-118870207D01*
X144771145Y-118809047D01*
X144985311Y-118709179D01*
X145178883Y-118573639D01*
X145345977Y-118406545D01*
X145481517Y-118212974D01*
X145581385Y-117998807D01*
X145642545Y-117770552D01*
X145663141Y-117535144D01*
X145662796Y-117531206D01*
X145642545Y-117299736D01*
X145624046Y-117230695D01*
X145581385Y-117071481D01*
X145481517Y-116857315D01*
X145345977Y-116663743D01*
X145178883Y-116496649D01*
X144985311Y-116361109D01*
X144771145Y-116261241D01*
X144771144Y-116261240D01*
X144542889Y-116200080D01*
X144366450Y-116184644D01*
X144366448Y-116184644D01*
X144248516Y-116184644D01*
X144248514Y-116184644D01*
X144072074Y-116200080D01*
X143843818Y-116261241D01*
X143629652Y-116361109D01*
X143436080Y-116496649D01*
X143268990Y-116663739D01*
X143268987Y-116663742D01*
X143268987Y-116663743D01*
X143173258Y-116800459D01*
X143133446Y-116857316D01*
X143033579Y-117071481D01*
X142972418Y-117299736D01*
X142951822Y-117535143D01*
X125891132Y-117535143D01*
X125882285Y-117531204D01*
X125695489Y-117491500D01*
X125695487Y-117491500D01*
X125504513Y-117491500D01*
X125504511Y-117491500D01*
X125317714Y-117531204D01*
X125143248Y-117608881D01*
X124988748Y-117721133D01*
X124860957Y-117863058D01*
X124765472Y-118028443D01*
X124706458Y-118210070D01*
X124686496Y-118399999D01*
X117286416Y-118399999D01*
X117365118Y-118169305D01*
X117414319Y-117902933D01*
X117424212Y-117632235D01*
X117394586Y-117362982D01*
X117387898Y-117337400D01*
X122785496Y-117337400D01*
X122805458Y-117527330D01*
X122864472Y-117708957D01*
X122959957Y-117874342D01*
X122959960Y-117874345D01*
X123087747Y-118016267D01*
X123205493Y-118101815D01*
X123242248Y-118128519D01*
X123416714Y-118206196D01*
X123603511Y-118245901D01*
X123603513Y-118245901D01*
X123794487Y-118245901D01*
X123794489Y-118245901D01*
X123981285Y-118206196D01*
X123981286Y-118206195D01*
X123981288Y-118206195D01*
X124155752Y-118128519D01*
X124310253Y-118016267D01*
X124438040Y-117874345D01*
X124533527Y-117708957D01*
X124592542Y-117527329D01*
X124612504Y-117337401D01*
X124592542Y-117147473D01*
X124536284Y-116974329D01*
X124533527Y-116965844D01*
X124438042Y-116800459D01*
X124418442Y-116778692D01*
X124310253Y-116658535D01*
X124155752Y-116546283D01*
X124155751Y-116546282D01*
X123981285Y-116468605D01*
X123794489Y-116428901D01*
X123794487Y-116428901D01*
X123603513Y-116428901D01*
X123603511Y-116428901D01*
X123416714Y-116468605D01*
X123242248Y-116546282D01*
X123087748Y-116658534D01*
X122959957Y-116800459D01*
X122864472Y-116965844D01*
X122805458Y-117147471D01*
X122785496Y-117337400D01*
X117387898Y-117337400D01*
X117326072Y-117100912D01*
X117220130Y-116851610D01*
X117105476Y-116663743D01*
X117079017Y-116620388D01*
X116905746Y-116412181D01*
X116800758Y-116318112D01*
X116704002Y-116231418D01*
X116478090Y-116081956D01*
X116478086Y-116081954D01*
X116232822Y-115966978D01*
X115973437Y-115888941D01*
X115973431Y-115888940D01*
X115705439Y-115849500D01*
X115502369Y-115849500D01*
X115502366Y-115849500D01*
X115299843Y-115864322D01*
X115035449Y-115923219D01*
X114782441Y-116019986D01*
X114546223Y-116152559D01*
X114331825Y-116318109D01*
X114143813Y-116513120D01*
X113986201Y-116733420D01*
X113862342Y-116974329D01*
X113774881Y-117230695D01*
X113725680Y-117497066D01*
X113715787Y-117767764D01*
X111855548Y-117767764D01*
X111850664Y-117673193D01*
X111850500Y-117666799D01*
X111850500Y-112553685D01*
X112145740Y-112553685D01*
X112155754Y-112738407D01*
X112205245Y-112916658D01*
X112291899Y-113080103D01*
X112411663Y-113221100D01*
X112558936Y-113333055D01*
X112726830Y-113410731D01*
X112726831Y-113410731D01*
X112726833Y-113410732D01*
X112907503Y-113450500D01*
X113046113Y-113450500D01*
X113046115Y-113450500D01*
X113115011Y-113443006D01*
X113183910Y-113435514D01*
X113359221Y-113376444D01*
X113517736Y-113281070D01*
X113652041Y-113153849D01*
X113755858Y-113000730D01*
X113824331Y-112828875D01*
X113829065Y-112800000D01*
X162536496Y-112800000D01*
X162539486Y-112828444D01*
X162556458Y-112989929D01*
X162615472Y-113171556D01*
X162710957Y-113336941D01*
X162710960Y-113336944D01*
X162838747Y-113478866D01*
X162966323Y-113571556D01*
X162993248Y-113591118D01*
X163167714Y-113668795D01*
X163354511Y-113708500D01*
X163354513Y-113708500D01*
X163545487Y-113708500D01*
X163545489Y-113708500D01*
X163732285Y-113668795D01*
X163732286Y-113668794D01*
X163732288Y-113668794D01*
X163886803Y-113600000D01*
X167286496Y-113600000D01*
X167306458Y-113789929D01*
X167365472Y-113971556D01*
X167460957Y-114136941D01*
X167460960Y-114136944D01*
X167588747Y-114278866D01*
X167743248Y-114391118D01*
X167917714Y-114468795D01*
X168104511Y-114508500D01*
X168104513Y-114508500D01*
X168295487Y-114508500D01*
X168295489Y-114508500D01*
X168482285Y-114468795D01*
X168482286Y-114468794D01*
X168482288Y-114468794D01*
X168656752Y-114391118D01*
X168811253Y-114278866D01*
X168939040Y-114136944D01*
X169034527Y-113971556D01*
X169093542Y-113789928D01*
X169113504Y-113600000D01*
X169093542Y-113410072D01*
X169034527Y-113228444D01*
X169034527Y-113228443D01*
X168939042Y-113063058D01*
X168882921Y-113000730D01*
X168811253Y-112921134D01*
X168782163Y-112899999D01*
X172986496Y-112899999D01*
X173006458Y-113089929D01*
X173065472Y-113271556D01*
X173160957Y-113436941D01*
X173160960Y-113436944D01*
X173288747Y-113578866D01*
X173412522Y-113668794D01*
X173443248Y-113691118D01*
X173617714Y-113768795D01*
X173804511Y-113808500D01*
X173804513Y-113808500D01*
X173995487Y-113808500D01*
X173995489Y-113808500D01*
X174182285Y-113768795D01*
X174182286Y-113768794D01*
X174182288Y-113768794D01*
X174356752Y-113691118D01*
X174511253Y-113578866D01*
X174639040Y-113436944D01*
X174673971Y-113376443D01*
X174734527Y-113271556D01*
X174772772Y-113153850D01*
X174793542Y-113089928D01*
X174813504Y-112900000D01*
X174793542Y-112710072D01*
X174750910Y-112578865D01*
X174734527Y-112528443D01*
X174639042Y-112363058D01*
X174610360Y-112331204D01*
X174511253Y-112221134D01*
X174414901Y-112151129D01*
X174356751Y-112108881D01*
X174182285Y-112031204D01*
X173995489Y-111991500D01*
X173995487Y-111991500D01*
X173804513Y-111991500D01*
X173804511Y-111991500D01*
X173617714Y-112031204D01*
X173443248Y-112108881D01*
X173288748Y-112221133D01*
X173160957Y-112363058D01*
X173065472Y-112528443D01*
X173006458Y-112710070D01*
X172986496Y-112899999D01*
X168782163Y-112899999D01*
X168683677Y-112828444D01*
X168656751Y-112808881D01*
X168482285Y-112731204D01*
X168295489Y-112691500D01*
X168295487Y-112691500D01*
X168104513Y-112691500D01*
X168104511Y-112691500D01*
X167917714Y-112731204D01*
X167743248Y-112808881D01*
X167588748Y-112921133D01*
X167460957Y-113063058D01*
X167365472Y-113228443D01*
X167306458Y-113410070D01*
X167286496Y-113600000D01*
X163886803Y-113600000D01*
X163906752Y-113591118D01*
X164061253Y-113478866D01*
X164189040Y-113336944D01*
X164191286Y-113333055D01*
X164284527Y-113171556D01*
X164311049Y-113089929D01*
X164343542Y-112989928D01*
X164363504Y-112800000D01*
X164343542Y-112610072D01*
X164307177Y-112498152D01*
X164284527Y-112428443D01*
X164189042Y-112263058D01*
X164139044Y-112207530D01*
X164061253Y-112121134D01*
X163937478Y-112031206D01*
X163906751Y-112008881D01*
X163732285Y-111931204D01*
X163561706Y-111894947D01*
X169046950Y-111894947D01*
X169066912Y-112084877D01*
X169125926Y-112266504D01*
X169221411Y-112431889D01*
X169221414Y-112431892D01*
X169349201Y-112573814D01*
X169503701Y-112686065D01*
X169503702Y-112686066D01*
X169678168Y-112763743D01*
X169864965Y-112803448D01*
X169864967Y-112803448D01*
X170055941Y-112803448D01*
X170055943Y-112803448D01*
X170242739Y-112763743D01*
X170242740Y-112763742D01*
X170242742Y-112763742D01*
X170417206Y-112686066D01*
X170571707Y-112573814D01*
X170699494Y-112431892D01*
X170701486Y-112428443D01*
X170794981Y-112266504D01*
X170809723Y-112221133D01*
X170853996Y-112084876D01*
X170873958Y-111894948D01*
X170853996Y-111705020D01*
X170813006Y-111578866D01*
X170794981Y-111523391D01*
X170699496Y-111358006D01*
X170682145Y-111338736D01*
X171565277Y-111338736D01*
X171566029Y-111345890D01*
X171585239Y-111528665D01*
X171644253Y-111710292D01*
X171739738Y-111875677D01*
X171739741Y-111875680D01*
X171867528Y-112017602D01*
X171960124Y-112084877D01*
X172022029Y-112129854D01*
X172196495Y-112207531D01*
X172383292Y-112247236D01*
X172383294Y-112247236D01*
X172574268Y-112247236D01*
X172574270Y-112247236D01*
X172761066Y-112207531D01*
X172761067Y-112207530D01*
X172761069Y-112207530D01*
X172935533Y-112129854D01*
X173090034Y-112017602D01*
X173217821Y-111875680D01*
X173247916Y-111823555D01*
X173313308Y-111710292D01*
X173330022Y-111658851D01*
X173372323Y-111528664D01*
X173392285Y-111338736D01*
X173372323Y-111148808D01*
X173313308Y-110967180D01*
X173313308Y-110967179D01*
X173274522Y-110900000D01*
X174386496Y-110900000D01*
X174406458Y-111089929D01*
X174465472Y-111271556D01*
X174560957Y-111436941D01*
X174584961Y-111463600D01*
X174688747Y-111578866D01*
X174800655Y-111660172D01*
X174843248Y-111691118D01*
X175017714Y-111768795D01*
X175204511Y-111808500D01*
X175204513Y-111808500D01*
X175395487Y-111808500D01*
X175395489Y-111808500D01*
X175582285Y-111768795D01*
X175582286Y-111768794D01*
X175582288Y-111768794D01*
X175756752Y-111691118D01*
X175911253Y-111578866D01*
X176039040Y-111436944D01*
X176056909Y-111405995D01*
X176134527Y-111271556D01*
X176155047Y-111208401D01*
X176193542Y-111089928D01*
X176213504Y-110900000D01*
X176193542Y-110710072D01*
X176134527Y-110528444D01*
X176134527Y-110528443D01*
X176039042Y-110363058D01*
X176011176Y-110332110D01*
X175911253Y-110221134D01*
X175814901Y-110151129D01*
X175756751Y-110108881D01*
X175582285Y-110031204D01*
X175395489Y-109991500D01*
X175395487Y-109991500D01*
X175204513Y-109991500D01*
X175204511Y-109991500D01*
X175017714Y-110031204D01*
X174843248Y-110108881D01*
X174688748Y-110221133D01*
X174560957Y-110363058D01*
X174465472Y-110528443D01*
X174406458Y-110710070D01*
X174386496Y-110900000D01*
X173274522Y-110900000D01*
X173217823Y-110801794D01*
X173193013Y-110774240D01*
X173090034Y-110659870D01*
X172935533Y-110547618D01*
X172935532Y-110547617D01*
X172761066Y-110469940D01*
X172574270Y-110430236D01*
X172574268Y-110430236D01*
X172383294Y-110430236D01*
X172383292Y-110430236D01*
X172196495Y-110469940D01*
X172022029Y-110547617D01*
X171867529Y-110659869D01*
X171739738Y-110801794D01*
X171644253Y-110967179D01*
X171585239Y-111148806D01*
X171568945Y-111303833D01*
X171565277Y-111338736D01*
X170682145Y-111338736D01*
X170650716Y-111303831D01*
X170571707Y-111216082D01*
X170417206Y-111103830D01*
X170417205Y-111103829D01*
X170242739Y-111026152D01*
X170055943Y-110986448D01*
X170055941Y-110986448D01*
X169864967Y-110986448D01*
X169864965Y-110986448D01*
X169678168Y-111026152D01*
X169503702Y-111103829D01*
X169349202Y-111216081D01*
X169221411Y-111358006D01*
X169125926Y-111523391D01*
X169066912Y-111705018D01*
X169046950Y-111894947D01*
X163561706Y-111894947D01*
X163545489Y-111891500D01*
X163545487Y-111891500D01*
X163354513Y-111891500D01*
X163354511Y-111891500D01*
X163167714Y-111931204D01*
X162993248Y-112008881D01*
X162855610Y-112108882D01*
X162838747Y-112121134D01*
X162828948Y-112132016D01*
X162710957Y-112263058D01*
X162615472Y-112428443D01*
X162556458Y-112610070D01*
X162540307Y-112763742D01*
X162536496Y-112800000D01*
X113829065Y-112800000D01*
X113854260Y-112646317D01*
X113844245Y-112461593D01*
X113838043Y-112439257D01*
X113794754Y-112283341D01*
X113708100Y-112119896D01*
X113613803Y-112008881D01*
X113588337Y-111978900D01*
X113588336Y-111978899D01*
X113441063Y-111866944D01*
X113273169Y-111789268D01*
X113092497Y-111749500D01*
X112953887Y-111749500D01*
X112953885Y-111749500D01*
X112816091Y-111764485D01*
X112640779Y-111823556D01*
X112482262Y-111918931D01*
X112347960Y-112046149D01*
X112244140Y-112199272D01*
X112175669Y-112371121D01*
X112156248Y-112489586D01*
X112146082Y-112551601D01*
X112145740Y-112553685D01*
X111850500Y-112553685D01*
X111850500Y-108453685D01*
X112145740Y-108453685D01*
X112155754Y-108638407D01*
X112205245Y-108816658D01*
X112291899Y-108980103D01*
X112411663Y-109121100D01*
X112558936Y-109233055D01*
X112726830Y-109310731D01*
X112726831Y-109310731D01*
X112726833Y-109310732D01*
X112907503Y-109350500D01*
X113046113Y-109350500D01*
X113046115Y-109350500D01*
X113115011Y-109343006D01*
X113183910Y-109335514D01*
X113359221Y-109276444D01*
X113517736Y-109181070D01*
X113652041Y-109053849D01*
X113755858Y-108900730D01*
X113824331Y-108728875D01*
X113854260Y-108546317D01*
X113844245Y-108361593D01*
X113824347Y-108289928D01*
X113794754Y-108183341D01*
X113708100Y-108019896D01*
X113677405Y-107983759D01*
X113588337Y-107878900D01*
X113588336Y-107878899D01*
X113441063Y-107766944D01*
X113273169Y-107689268D01*
X113092497Y-107649500D01*
X112953887Y-107649500D01*
X112953885Y-107649500D01*
X112816091Y-107664485D01*
X112640779Y-107723556D01*
X112482262Y-107818931D01*
X112347960Y-107946149D01*
X112244140Y-108099272D01*
X112175669Y-108271121D01*
X112160837Y-108361593D01*
X112151800Y-108416722D01*
X112145740Y-108453685D01*
X111850500Y-108453685D01*
X111850500Y-107496248D01*
X121190245Y-107496248D01*
X121197401Y-107564334D01*
X121197910Y-107570803D01*
X121201492Y-107639149D01*
X121201492Y-107639152D01*
X121201493Y-107639153D01*
X121205176Y-107652898D01*
X121208719Y-107672018D01*
X121210207Y-107686176D01*
X121231363Y-107751288D01*
X121233199Y-107757487D01*
X121235734Y-107766944D01*
X121250921Y-107823623D01*
X121257380Y-107836299D01*
X121264824Y-107854269D01*
X121269222Y-107867805D01*
X121275628Y-107878900D01*
X121303456Y-107927099D01*
X121306546Y-107932791D01*
X121337621Y-107993780D01*
X121346578Y-108004842D01*
X121357594Y-108020871D01*
X121364708Y-108033193D01*
X121410510Y-108084061D01*
X121414708Y-108088975D01*
X121427678Y-108104991D01*
X121427681Y-108104994D01*
X121427682Y-108104995D01*
X121442228Y-108119541D01*
X121446697Y-108124250D01*
X121492497Y-108175116D01*
X121504007Y-108183478D01*
X121518801Y-108196114D01*
X122255181Y-108932494D01*
X122282061Y-108972722D01*
X122291500Y-109020175D01*
X122291500Y-111345890D01*
X122290821Y-111358851D01*
X122286496Y-111400000D01*
X122291500Y-111447610D01*
X122306458Y-111589929D01*
X122365472Y-111771556D01*
X122460957Y-111936941D01*
X122460960Y-111936944D01*
X122588747Y-112078866D01*
X122646924Y-112121134D01*
X122743248Y-112191118D01*
X122917714Y-112268795D01*
X123104511Y-112308500D01*
X123104513Y-112308500D01*
X123295487Y-112308500D01*
X123295489Y-112308500D01*
X123482285Y-112268795D01*
X123482286Y-112268794D01*
X123482288Y-112268794D01*
X123656752Y-112191118D01*
X123811253Y-112078866D01*
X123939040Y-111936944D01*
X123949441Y-111918930D01*
X124034527Y-111771556D01*
X124036824Y-111764486D01*
X124093542Y-111589928D01*
X124108500Y-111447610D01*
X124113504Y-111400000D01*
X124109178Y-111358849D01*
X124108500Y-111345890D01*
X124108500Y-108673756D01*
X124110027Y-108654358D01*
X124110796Y-108649500D01*
X124112252Y-108640310D01*
X124108669Y-108571962D01*
X124108500Y-108565473D01*
X124108500Y-108544886D01*
X124106348Y-108524415D01*
X124105839Y-108517962D01*
X124102257Y-108449597D01*
X124098575Y-108435858D01*
X124095029Y-108416722D01*
X124093542Y-108402573D01*
X124072387Y-108337465D01*
X124070543Y-108331238D01*
X124052831Y-108265131D01*
X124046370Y-108252452D01*
X124038923Y-108234474D01*
X124038433Y-108232966D01*
X124034527Y-108220944D01*
X124000302Y-108161663D01*
X123997211Y-108155971D01*
X123968692Y-108100000D01*
X129886496Y-108100000D01*
X129906458Y-108289929D01*
X129965472Y-108471556D01*
X130060957Y-108636941D01*
X130085321Y-108664000D01*
X130188747Y-108778866D01*
X130343248Y-108891118D01*
X130517714Y-108968795D01*
X130704511Y-109008500D01*
X130704513Y-109008500D01*
X130895487Y-109008500D01*
X130895489Y-109008500D01*
X131082285Y-108968795D01*
X131082286Y-108968794D01*
X131082288Y-108968794D01*
X131256752Y-108891118D01*
X131411253Y-108778866D01*
X131527735Y-108649499D01*
X168286496Y-108649499D01*
X168306458Y-108839429D01*
X168365472Y-109021056D01*
X168460957Y-109186441D01*
X168460960Y-109186444D01*
X168588747Y-109328366D01*
X168705500Y-109413192D01*
X168743248Y-109440618D01*
X168917714Y-109518295D01*
X169104511Y-109558000D01*
X169104513Y-109558000D01*
X169295487Y-109558000D01*
X169295489Y-109558000D01*
X169482285Y-109518295D01*
X169482286Y-109518294D01*
X169482288Y-109518294D01*
X169656752Y-109440618D01*
X169811253Y-109328366D01*
X169939040Y-109186444D01*
X169976767Y-109121100D01*
X170034527Y-109021056D01*
X170047833Y-108980104D01*
X170093542Y-108839428D01*
X170113504Y-108649500D01*
X170093542Y-108459572D01*
X170052866Y-108334385D01*
X170034527Y-108277943D01*
X169939042Y-108112558D01*
X169867581Y-108033193D01*
X169811253Y-107970634D01*
X169713395Y-107899536D01*
X169656751Y-107858381D01*
X169482285Y-107780704D01*
X169295489Y-107741000D01*
X169295487Y-107741000D01*
X169104513Y-107741000D01*
X169104511Y-107741000D01*
X168917714Y-107780704D01*
X168743248Y-107858381D01*
X168588748Y-107970633D01*
X168460957Y-108112558D01*
X168365472Y-108277943D01*
X168306458Y-108459570D01*
X168286496Y-108649499D01*
X131527735Y-108649499D01*
X131539040Y-108636944D01*
X131634527Y-108471556D01*
X131693542Y-108289928D01*
X131713504Y-108100000D01*
X131693542Y-107910072D01*
X131654600Y-107790221D01*
X131634527Y-107728443D01*
X131539042Y-107563058D01*
X131506908Y-107527370D01*
X131411253Y-107421134D01*
X131256752Y-107308882D01*
X131256751Y-107308881D01*
X131082285Y-107231204D01*
X130895489Y-107191500D01*
X130895487Y-107191500D01*
X130704513Y-107191500D01*
X130704511Y-107191500D01*
X130517714Y-107231204D01*
X130343248Y-107308881D01*
X130188748Y-107421133D01*
X130060957Y-107563058D01*
X129965472Y-107728443D01*
X129906458Y-107910070D01*
X129886496Y-108100000D01*
X123968692Y-108100000D01*
X123966130Y-108094972D01*
X123966129Y-108094970D01*
X123957163Y-108083898D01*
X123946157Y-108067883D01*
X123939040Y-108055556D01*
X123893239Y-108004688D01*
X123889024Y-107999753D01*
X123876074Y-107983761D01*
X123876072Y-107983759D01*
X123861502Y-107969189D01*
X123857050Y-107964497D01*
X123840531Y-107946151D01*
X123811253Y-107913634D01*
X123811252Y-107913633D01*
X123811251Y-107913632D01*
X123799741Y-107905269D01*
X123784946Y-107892633D01*
X122765270Y-106872957D01*
X122760801Y-106868248D01*
X122715003Y-106817384D01*
X122659612Y-106777139D01*
X122654477Y-106773198D01*
X122601280Y-106730121D01*
X122588597Y-106723658D01*
X122572012Y-106713494D01*
X122560504Y-106705133D01*
X122560497Y-106705130D01*
X122497959Y-106677286D01*
X122492100Y-106674492D01*
X122431116Y-106643419D01*
X122417376Y-106639737D01*
X122399044Y-106633246D01*
X122386036Y-106627455D01*
X122319083Y-106613224D01*
X122312771Y-106611709D01*
X122246653Y-106593993D01*
X122232437Y-106593247D01*
X122213161Y-106590709D01*
X122199237Y-106587750D01*
X122199236Y-106587750D01*
X122130777Y-106587750D01*
X122124287Y-106587580D01*
X122055940Y-106583998D01*
X122055939Y-106583998D01*
X122041892Y-106586223D01*
X122022494Y-106587750D01*
X122008263Y-106587750D01*
X121941289Y-106601984D01*
X121934910Y-106603166D01*
X121867319Y-106613872D01*
X121854030Y-106618973D01*
X121835383Y-106624496D01*
X121821462Y-106627455D01*
X121758936Y-106655293D01*
X121752941Y-106657776D01*
X121689029Y-106682310D01*
X121677092Y-106690062D01*
X121660002Y-106699341D01*
X121646999Y-106705130D01*
X121591619Y-106745366D01*
X121586271Y-106749041D01*
X121528865Y-106786321D01*
X121518794Y-106796392D01*
X121504008Y-106809020D01*
X121492496Y-106817384D01*
X121446696Y-106868249D01*
X121442231Y-106872955D01*
X121393820Y-106921366D01*
X121386070Y-106933301D01*
X121374231Y-106948731D01*
X121364708Y-106959307D01*
X121330490Y-107018574D01*
X121327101Y-107024106D01*
X121289812Y-107081528D01*
X121284709Y-107094820D01*
X121276340Y-107112365D01*
X121269222Y-107124695D01*
X121248073Y-107189783D01*
X121245908Y-107195899D01*
X121221371Y-107259821D01*
X121219145Y-107273875D01*
X121214606Y-107292782D01*
X121210208Y-107306319D01*
X121203050Y-107374416D01*
X121202203Y-107380850D01*
X121191497Y-107448443D01*
X121192242Y-107462649D01*
X121191733Y-107482094D01*
X121190245Y-107496248D01*
X111850500Y-107496248D01*
X111850500Y-103453685D01*
X112145740Y-103453685D01*
X112155754Y-103638407D01*
X112205245Y-103816658D01*
X112291899Y-103980103D01*
X112411663Y-104121100D01*
X112558936Y-104233055D01*
X112726830Y-104310731D01*
X112726831Y-104310731D01*
X112726833Y-104310732D01*
X112907503Y-104350500D01*
X113046113Y-104350500D01*
X113046115Y-104350500D01*
X113115011Y-104343006D01*
X113183910Y-104335514D01*
X113359221Y-104276444D01*
X113517736Y-104181070D01*
X113652041Y-104053849D01*
X113755858Y-103900730D01*
X113824331Y-103728875D01*
X113854260Y-103546317D01*
X113844245Y-103361593D01*
X113843353Y-103358382D01*
X113794754Y-103183341D01*
X113708100Y-103019896D01*
X113611189Y-102905804D01*
X113611188Y-102905803D01*
X123486996Y-102905803D01*
X123506958Y-103095733D01*
X123565972Y-103277360D01*
X123661457Y-103442745D01*
X123661460Y-103442748D01*
X123789247Y-103584670D01*
X123905035Y-103668795D01*
X123943748Y-103696922D01*
X124118214Y-103774599D01*
X124305011Y-103814304D01*
X124460827Y-103814304D01*
X124522827Y-103830917D01*
X124568214Y-103876304D01*
X124660957Y-104036941D01*
X124660960Y-104036944D01*
X124788747Y-104178866D01*
X124923050Y-104276443D01*
X124943248Y-104291118D01*
X125117714Y-104368795D01*
X125304511Y-104408500D01*
X125304513Y-104408500D01*
X125495487Y-104408500D01*
X125495489Y-104408500D01*
X125682285Y-104368795D01*
X125682286Y-104368794D01*
X125682288Y-104368794D01*
X125856752Y-104291118D01*
X126011253Y-104178866D01*
X126037694Y-104149500D01*
X134816521Y-104149500D01*
X134836483Y-104339429D01*
X134895497Y-104521056D01*
X134990982Y-104686441D01*
X134990985Y-104686444D01*
X135118772Y-104828366D01*
X135178218Y-104871556D01*
X135273273Y-104940618D01*
X135447739Y-105018295D01*
X135634536Y-105058000D01*
X135634538Y-105058000D01*
X135825512Y-105058000D01*
X135825514Y-105058000D01*
X136012310Y-105018295D01*
X136012311Y-105018294D01*
X136012313Y-105018294D01*
X136186777Y-104940618D01*
X136341278Y-104828366D01*
X136469065Y-104686444D01*
X136494204Y-104642903D01*
X136564552Y-104521056D01*
X136564721Y-104520537D01*
X136571394Y-104500000D01*
X165986496Y-104500000D01*
X165989337Y-104527027D01*
X166006458Y-104689929D01*
X166065472Y-104871556D01*
X166160957Y-105036941D01*
X166179919Y-105058000D01*
X166288747Y-105178866D01*
X166443247Y-105291117D01*
X166443248Y-105291118D01*
X166617714Y-105368795D01*
X166804511Y-105408500D01*
X166804513Y-105408500D01*
X166995487Y-105408500D01*
X166995489Y-105408500D01*
X167182285Y-105368795D01*
X167182286Y-105368794D01*
X167182288Y-105368794D01*
X167356752Y-105291118D01*
X167511253Y-105178866D01*
X167639040Y-105036944D01*
X167661797Y-104997529D01*
X167734527Y-104871556D01*
X167771383Y-104758125D01*
X167793542Y-104689928D01*
X167813504Y-104500000D01*
X167793542Y-104310072D01*
X167734527Y-104128444D01*
X167734527Y-104128443D01*
X167639042Y-103963058D01*
X167582921Y-103900730D01*
X167511253Y-103821134D01*
X167356752Y-103708882D01*
X167356751Y-103708881D01*
X167182285Y-103631204D01*
X166995489Y-103591500D01*
X166995487Y-103591500D01*
X166804513Y-103591500D01*
X166804511Y-103591500D01*
X166617714Y-103631204D01*
X166443248Y-103708881D01*
X166288748Y-103821133D01*
X166160957Y-103963058D01*
X166065472Y-104128443D01*
X166006458Y-104310070D01*
X166003372Y-104339429D01*
X165986496Y-104500000D01*
X136571394Y-104500000D01*
X136623567Y-104339428D01*
X136643529Y-104149500D01*
X136623567Y-103959572D01*
X136581764Y-103830917D01*
X136564552Y-103777943D01*
X136469067Y-103612558D01*
X136409423Y-103546317D01*
X136341278Y-103470634D01*
X136191197Y-103361593D01*
X136186776Y-103358381D01*
X136012310Y-103280704D01*
X135825514Y-103241000D01*
X135825512Y-103241000D01*
X135634538Y-103241000D01*
X135634536Y-103241000D01*
X135447739Y-103280704D01*
X135273273Y-103358381D01*
X135118773Y-103470633D01*
X134990982Y-103612558D01*
X134895497Y-103777943D01*
X134836483Y-103959570D01*
X134816521Y-104149500D01*
X126037694Y-104149500D01*
X126139040Y-104036944D01*
X126234527Y-103871556D01*
X126293542Y-103689928D01*
X126313504Y-103500000D01*
X126293542Y-103310072D01*
X126234527Y-103128444D01*
X126234527Y-103128443D01*
X126139042Y-102963058D01*
X126087489Y-102905803D01*
X126011253Y-102821134D01*
X125876949Y-102723556D01*
X125856751Y-102708881D01*
X125682285Y-102631204D01*
X125495489Y-102591500D01*
X125495487Y-102591500D01*
X125339673Y-102591500D01*
X125277673Y-102574887D01*
X125232286Y-102529500D01*
X125139542Y-102368862D01*
X125075768Y-102298034D01*
X125011753Y-102226938D01*
X124866127Y-102121134D01*
X124857251Y-102114685D01*
X124682785Y-102037008D01*
X124495989Y-101997304D01*
X124495987Y-101997304D01*
X124305013Y-101997304D01*
X124305011Y-101997304D01*
X124118214Y-102037008D01*
X123943748Y-102114685D01*
X123789248Y-102226937D01*
X123661457Y-102368862D01*
X123565972Y-102534247D01*
X123506958Y-102715874D01*
X123486996Y-102905803D01*
X113611188Y-102905803D01*
X113588337Y-102878900D01*
X113588336Y-102878899D01*
X113441063Y-102766944D01*
X113273169Y-102689268D01*
X113092497Y-102649500D01*
X112953887Y-102649500D01*
X112953885Y-102649500D01*
X112816091Y-102664485D01*
X112640779Y-102723556D01*
X112482262Y-102818931D01*
X112347960Y-102946149D01*
X112244140Y-103099272D01*
X112175669Y-103271121D01*
X112145740Y-103453685D01*
X111850500Y-103453685D01*
X111850500Y-101113999D01*
X136522340Y-101113999D01*
X136542936Y-101349407D01*
X136575666Y-101471556D01*
X136604097Y-101577663D01*
X136703965Y-101791829D01*
X136839505Y-101985401D01*
X137006599Y-102152495D01*
X137200171Y-102288035D01*
X137414337Y-102387903D01*
X137642592Y-102449063D01*
X137795121Y-102462407D01*
X137856025Y-102484775D01*
X137897296Y-102534841D01*
X137907633Y-102598896D01*
X137906458Y-102610070D01*
X137906458Y-102610072D01*
X137891181Y-102755419D01*
X137886496Y-102799999D01*
X137906458Y-102989929D01*
X137965472Y-103171556D01*
X138060957Y-103336941D01*
X138060960Y-103336944D01*
X138188747Y-103478866D01*
X138281581Y-103546314D01*
X138343248Y-103591118D01*
X138517714Y-103668795D01*
X138704511Y-103708500D01*
X138704513Y-103708500D01*
X138895487Y-103708500D01*
X138895489Y-103708500D01*
X139082285Y-103668795D01*
X139082286Y-103668794D01*
X139082288Y-103668794D01*
X139256752Y-103591118D01*
X139411253Y-103478866D01*
X139539040Y-103336944D01*
X139594434Y-103241000D01*
X139634527Y-103171556D01*
X139648535Y-103128443D01*
X139693542Y-102989928D01*
X139713504Y-102800000D01*
X139693542Y-102610072D01*
X139649492Y-102474500D01*
X139634527Y-102428443D01*
X139539042Y-102263058D01*
X139506518Y-102226937D01*
X139411253Y-102121134D01*
X139295467Y-102037010D01*
X139256753Y-102008882D01*
X139118691Y-101947413D01*
X139068386Y-101906433D01*
X139045664Y-101845658D01*
X139056744Y-101781730D01*
X139151903Y-101577663D01*
X139213063Y-101349408D01*
X139232784Y-101124000D01*
X149352340Y-101124000D01*
X149372936Y-101359407D01*
X149431417Y-101577662D01*
X149434097Y-101587663D01*
X149533965Y-101801829D01*
X149669505Y-101995401D01*
X149836599Y-102162495D01*
X150030171Y-102298035D01*
X150244337Y-102397903D01*
X150435271Y-102449063D01*
X150472592Y-102459063D01*
X150649032Y-102474500D01*
X150649034Y-102474500D01*
X150766966Y-102474500D01*
X150766968Y-102474500D01*
X150898557Y-102462987D01*
X150943408Y-102459063D01*
X151171663Y-102397903D01*
X151385829Y-102298035D01*
X151579401Y-102162495D01*
X151746495Y-101995401D01*
X151882035Y-101801830D01*
X151981903Y-101587663D01*
X152043063Y-101359408D01*
X152063659Y-101124000D01*
X152043063Y-100888592D01*
X151981903Y-100660337D01*
X151882035Y-100446171D01*
X151746495Y-100252599D01*
X151579401Y-100085505D01*
X151385829Y-99949965D01*
X151171663Y-99850097D01*
X151134342Y-99840097D01*
X150943407Y-99788936D01*
X150766968Y-99773500D01*
X150766966Y-99773500D01*
X150649034Y-99773500D01*
X150649032Y-99773500D01*
X150472592Y-99788936D01*
X150244336Y-99850097D01*
X150030170Y-99949965D01*
X149836598Y-100085505D01*
X149669508Y-100252595D01*
X149669505Y-100252598D01*
X149669505Y-100252599D01*
X149540967Y-100436171D01*
X149533964Y-100446172D01*
X149434097Y-100660337D01*
X149372936Y-100888592D01*
X149352340Y-101124000D01*
X139232784Y-101124000D01*
X139233659Y-101114000D01*
X139213063Y-100878592D01*
X139151903Y-100650337D01*
X139052035Y-100436171D01*
X138916495Y-100242599D01*
X138749401Y-100075505D01*
X138555829Y-99939965D01*
X138341663Y-99840097D01*
X138113407Y-99778936D01*
X137936968Y-99763500D01*
X137936966Y-99763500D01*
X137819034Y-99763500D01*
X137819032Y-99763500D01*
X137642592Y-99778936D01*
X137414336Y-99840097D01*
X137200170Y-99939965D01*
X137006598Y-100075505D01*
X136839508Y-100242595D01*
X136703964Y-100436172D01*
X136604097Y-100650337D01*
X136542936Y-100878592D01*
X136522340Y-101113999D01*
X111850500Y-101113999D01*
X111850500Y-99479150D01*
X178436594Y-99479150D01*
X178440950Y-99525234D01*
X178441500Y-99536903D01*
X178441500Y-111113610D01*
X178439133Y-111135044D01*
X178441439Y-111208401D01*
X178441500Y-111212296D01*
X178441500Y-111241432D01*
X178442068Y-111245931D01*
X178442983Y-111257564D01*
X178444437Y-111303833D01*
X178450463Y-111324575D01*
X178454408Y-111343621D01*
X178457117Y-111365063D01*
X178474158Y-111408105D01*
X178477941Y-111419154D01*
X178490855Y-111463601D01*
X178501850Y-111482193D01*
X178510409Y-111499663D01*
X178518364Y-111519754D01*
X178518365Y-111519756D01*
X178545578Y-111557211D01*
X178551977Y-111566952D01*
X178565566Y-111589929D01*
X178575548Y-111606808D01*
X178590822Y-111622082D01*
X178603458Y-111636876D01*
X178616159Y-111654357D01*
X178651820Y-111683858D01*
X178660461Y-111691721D01*
X180157531Y-113188791D01*
X180181770Y-113223088D01*
X180193170Y-113263509D01*
X180200480Y-113333054D01*
X180206458Y-113389929D01*
X180265472Y-113571556D01*
X180360957Y-113736941D01*
X180360960Y-113736944D01*
X180488747Y-113878866D01*
X180616323Y-113971556D01*
X180643248Y-113991118D01*
X180817714Y-114068795D01*
X181004511Y-114108500D01*
X181004513Y-114108500D01*
X181195487Y-114108500D01*
X181195489Y-114108500D01*
X181382285Y-114068795D01*
X181382286Y-114068794D01*
X181382288Y-114068794D01*
X181556752Y-113991118D01*
X181711253Y-113878866D01*
X181839040Y-113736944D01*
X181934527Y-113571556D01*
X181993542Y-113389928D01*
X182013504Y-113200000D01*
X181993542Y-113010072D01*
X181934527Y-112828444D01*
X181934527Y-112828443D01*
X181839042Y-112663058D01*
X181791331Y-112610070D01*
X181711253Y-112521134D01*
X181610607Y-112448010D01*
X181556751Y-112408881D01*
X181382285Y-112331204D01*
X181195489Y-112291500D01*
X181195487Y-112291500D01*
X181174122Y-112291500D01*
X181126669Y-112282061D01*
X181086441Y-112255181D01*
X179794819Y-110963559D01*
X179767939Y-110923331D01*
X179758500Y-110875878D01*
X179758500Y-107532500D01*
X179775113Y-107470500D01*
X179820500Y-107425113D01*
X179882500Y-107408500D01*
X179944989Y-107408500D01*
X180131785Y-107368795D01*
X180131786Y-107368794D01*
X180131788Y-107368794D01*
X180306252Y-107291118D01*
X180460753Y-107178866D01*
X180588540Y-107036944D01*
X180597519Y-107021393D01*
X180684027Y-106871556D01*
X180700851Y-106819778D01*
X180743042Y-106689928D01*
X180763004Y-106500000D01*
X180743042Y-106310072D01*
X180707277Y-106200000D01*
X180684027Y-106128443D01*
X180588542Y-105963058D01*
X180507118Y-105872628D01*
X180460753Y-105821134D01*
X180306252Y-105708882D01*
X180306251Y-105708881D01*
X180131785Y-105631204D01*
X179944989Y-105591500D01*
X179944987Y-105591500D01*
X179882500Y-105591500D01*
X179820500Y-105574887D01*
X179775113Y-105529500D01*
X179758500Y-105467500D01*
X179758500Y-101932500D01*
X179775113Y-101870500D01*
X179820500Y-101825113D01*
X179882500Y-101808500D01*
X179944989Y-101808500D01*
X180131785Y-101768795D01*
X180131786Y-101768794D01*
X180131788Y-101768794D01*
X180306252Y-101691118D01*
X180460753Y-101578866D01*
X180588540Y-101436944D01*
X180684027Y-101271556D01*
X180743042Y-101089928D01*
X180763004Y-100900000D01*
X180743042Y-100710072D01*
X180684027Y-100528444D01*
X180684027Y-100528443D01*
X180588542Y-100363058D01*
X180568942Y-100341291D01*
X180460753Y-100221134D01*
X180306252Y-100108882D01*
X180306251Y-100108881D01*
X180131785Y-100031204D01*
X180089299Y-100022174D01*
X180034055Y-99994751D01*
X179998856Y-99944105D01*
X179992411Y-99882767D01*
X180016312Y-99825911D01*
X180047793Y-99800960D01*
X180046208Y-99798779D01*
X180081001Y-99773500D01*
X180211253Y-99678866D01*
X180339040Y-99536944D01*
X180372408Y-99479150D01*
X180434527Y-99371556D01*
X180438108Y-99360536D01*
X180493542Y-99189928D01*
X180513504Y-99000000D01*
X180493542Y-98810072D01*
X180434527Y-98628444D01*
X180434527Y-98628443D01*
X180339042Y-98463058D01*
X180247682Y-98361593D01*
X180211253Y-98321134D01*
X180056752Y-98208882D01*
X180056751Y-98208881D01*
X179882285Y-98131204D01*
X179695489Y-98091500D01*
X179695487Y-98091500D01*
X179504513Y-98091500D01*
X179504511Y-98091500D01*
X179317714Y-98131204D01*
X179143248Y-98208881D01*
X178988748Y-98321133D01*
X178860957Y-98463058D01*
X178765472Y-98628443D01*
X178706458Y-98810070D01*
X178693415Y-98934162D01*
X178682839Y-98972818D01*
X178660487Y-99006082D01*
X178628381Y-99040272D01*
X178625700Y-99043038D01*
X178614891Y-99053849D01*
X178605068Y-99063672D01*
X178602287Y-99067257D01*
X178594713Y-99076124D01*
X178563027Y-99109867D01*
X178552619Y-99128799D01*
X178541940Y-99145056D01*
X178528694Y-99162133D01*
X178510309Y-99204616D01*
X178505173Y-99215101D01*
X178482875Y-99255661D01*
X178477503Y-99276586D01*
X178471202Y-99294988D01*
X178462619Y-99314822D01*
X178455379Y-99360536D01*
X178453011Y-99371970D01*
X178441500Y-99416809D01*
X178441500Y-99438419D01*
X178439973Y-99457818D01*
X178436594Y-99479150D01*
X111850500Y-99479150D01*
X111850500Y-98453685D01*
X112145740Y-98453685D01*
X112155754Y-98638407D01*
X112205245Y-98816658D01*
X112291899Y-98980103D01*
X112411663Y-99121100D01*
X112558936Y-99233055D01*
X112726830Y-99310731D01*
X112726831Y-99310731D01*
X112726833Y-99310732D01*
X112907503Y-99350500D01*
X113046113Y-99350500D01*
X113046115Y-99350500D01*
X113115011Y-99343006D01*
X113183910Y-99335514D01*
X113359221Y-99276444D01*
X113517736Y-99181070D01*
X113652041Y-99053849D01*
X113755858Y-98900730D01*
X113824331Y-98728875D01*
X113854260Y-98546317D01*
X113844245Y-98361593D01*
X113833011Y-98321133D01*
X113794754Y-98183341D01*
X113708100Y-98019896D01*
X113588336Y-97878899D01*
X113441063Y-97766944D01*
X113273169Y-97689268D01*
X113092497Y-97649500D01*
X112953887Y-97649500D01*
X112953885Y-97649500D01*
X112816091Y-97664485D01*
X112640779Y-97723556D01*
X112482262Y-97818931D01*
X112347960Y-97946149D01*
X112244140Y-98099272D01*
X112175669Y-98271121D01*
X112145740Y-98453685D01*
X111850500Y-98453685D01*
X111850500Y-97321660D01*
X180869391Y-97321660D01*
X180883196Y-97330335D01*
X181053359Y-97389877D01*
X181232500Y-97410062D01*
X181411640Y-97389877D01*
X181581803Y-97330335D01*
X181595607Y-97321661D01*
X181595607Y-97321660D01*
X182394391Y-97321660D01*
X182408196Y-97330335D01*
X182578359Y-97389877D01*
X182757500Y-97410062D01*
X182936640Y-97389877D01*
X183106803Y-97330335D01*
X183120607Y-97321661D01*
X183120607Y-97321660D01*
X182757501Y-96958553D01*
X182757500Y-96958553D01*
X182394391Y-97321660D01*
X181595607Y-97321660D01*
X181232501Y-96958553D01*
X181232500Y-96958553D01*
X180869391Y-97321660D01*
X111850500Y-97321660D01*
X111850500Y-96559160D01*
X180106891Y-96559160D01*
X180120696Y-96567835D01*
X180290855Y-96627376D01*
X180333480Y-96632178D01*
X180385569Y-96650404D01*
X180424592Y-96689425D01*
X180442819Y-96741514D01*
X180447622Y-96784140D01*
X180507165Y-96954304D01*
X180515838Y-96968108D01*
X180878947Y-96605001D01*
X180878947Y-96605000D01*
X181586053Y-96605000D01*
X181949160Y-96968107D01*
X181981121Y-96964507D01*
X182008887Y-96964508D01*
X182040838Y-96968108D01*
X182403947Y-96605001D01*
X182403947Y-96605000D01*
X183111053Y-96605000D01*
X183474160Y-96968107D01*
X183474161Y-96968107D01*
X183482835Y-96954303D01*
X183542376Y-96784144D01*
X183547178Y-96741518D01*
X183565405Y-96689428D01*
X183604428Y-96650405D01*
X183656518Y-96632178D01*
X183699144Y-96627376D01*
X183869303Y-96567835D01*
X183883107Y-96559161D01*
X183883107Y-96559160D01*
X183520000Y-96196053D01*
X183111053Y-96605000D01*
X182403947Y-96605000D01*
X181995000Y-96196053D01*
X181586053Y-96605000D01*
X180878947Y-96605000D01*
X180470001Y-96196053D01*
X180470000Y-96196053D01*
X180106891Y-96559160D01*
X111850500Y-96559160D01*
X111850500Y-94669999D01*
X120104340Y-94669999D01*
X120124936Y-94905407D01*
X120181979Y-95118295D01*
X120186097Y-95133663D01*
X120285965Y-95347829D01*
X120421505Y-95541401D01*
X120588599Y-95708495D01*
X120782171Y-95844035D01*
X120996337Y-95943903D01*
X121224592Y-96005063D01*
X121401032Y-96020500D01*
X121401034Y-96020500D01*
X121518966Y-96020500D01*
X121518968Y-96020500D01*
X121636593Y-96010208D01*
X121695408Y-96005063D01*
X121923663Y-95943903D01*
X122137829Y-95844035D01*
X122331401Y-95708495D01*
X122498495Y-95541401D01*
X122634035Y-95347830D01*
X122733903Y-95133663D01*
X122795063Y-94905408D01*
X122815659Y-94670000D01*
X122795063Y-94434592D01*
X122733903Y-94206337D01*
X122684316Y-94099999D01*
X163186496Y-94099999D01*
X163206458Y-94289929D01*
X163265472Y-94471556D01*
X163360957Y-94636941D01*
X163360960Y-94636944D01*
X163488747Y-94778866D01*
X163641764Y-94890040D01*
X163643248Y-94891118D01*
X163817714Y-94968795D01*
X164004511Y-95008500D01*
X164004513Y-95008500D01*
X164195487Y-95008500D01*
X164195489Y-95008500D01*
X164382285Y-94968795D01*
X164382286Y-94968794D01*
X164382288Y-94968794D01*
X164556752Y-94891118D01*
X164711253Y-94778866D01*
X164823113Y-94654633D01*
X165766641Y-94654633D01*
X165787237Y-94890040D01*
X165825854Y-95034160D01*
X165848398Y-95118296D01*
X165948266Y-95332462D01*
X166083806Y-95526034D01*
X166250900Y-95693128D01*
X166444472Y-95828668D01*
X166658638Y-95928536D01*
X166886892Y-95989695D01*
X166886893Y-95989696D01*
X167063333Y-96005133D01*
X167063335Y-96005133D01*
X167181267Y-96005133D01*
X167181269Y-96005133D01*
X167298894Y-95994841D01*
X167357709Y-95989696D01*
X167585964Y-95928536D01*
X167770467Y-95842500D01*
X179664937Y-95842500D01*
X179685122Y-96021640D01*
X179744665Y-96191804D01*
X179753338Y-96205608D01*
X180116447Y-95842501D01*
X180116447Y-95842500D01*
X180823553Y-95842500D01*
X181232500Y-96251447D01*
X181641447Y-95842500D01*
X182348553Y-95842500D01*
X182757500Y-96251447D01*
X183166446Y-95842501D01*
X183873553Y-95842501D01*
X184236660Y-96205607D01*
X184236661Y-96205607D01*
X184245335Y-96191803D01*
X184304877Y-96021640D01*
X184325062Y-95842500D01*
X184304877Y-95663359D01*
X184245335Y-95493196D01*
X184236660Y-95479391D01*
X183873553Y-95842500D01*
X183873553Y-95842501D01*
X183166446Y-95842501D01*
X183166447Y-95842500D01*
X182757500Y-95433553D01*
X182348553Y-95842500D01*
X181641447Y-95842500D01*
X181232500Y-95433553D01*
X180823553Y-95842500D01*
X180116447Y-95842500D01*
X179753338Y-95479390D01*
X179753338Y-95479391D01*
X179744664Y-95493196D01*
X179685122Y-95663359D01*
X179664937Y-95842500D01*
X167770467Y-95842500D01*
X167800130Y-95828668D01*
X167993702Y-95693128D01*
X168160796Y-95526034D01*
X168296336Y-95332463D01*
X168392687Y-95125838D01*
X180106890Y-95125838D01*
X180469999Y-95488947D01*
X180878947Y-95080000D01*
X181586053Y-95080000D01*
X181995000Y-95488947D01*
X182403947Y-95080000D01*
X183111053Y-95080000D01*
X183520000Y-95488947D01*
X183520001Y-95488947D01*
X183883108Y-95125838D01*
X183879508Y-95093887D01*
X183879507Y-95066121D01*
X183883107Y-95034160D01*
X183520000Y-94671053D01*
X183111053Y-95080000D01*
X182403947Y-95080000D01*
X181995000Y-94671053D01*
X181586053Y-95080000D01*
X180878947Y-95080000D01*
X180470001Y-94671053D01*
X180470000Y-94671053D01*
X180106890Y-95034161D01*
X180110491Y-95066123D01*
X180110491Y-95093892D01*
X180106890Y-95125838D01*
X168392687Y-95125838D01*
X168396204Y-95118296D01*
X168457364Y-94890041D01*
X168477960Y-94654633D01*
X168457364Y-94419225D01*
X168430107Y-94317500D01*
X179664937Y-94317500D01*
X179685122Y-94496640D01*
X179744665Y-94666804D01*
X179753338Y-94680608D01*
X180116447Y-94317501D01*
X180116447Y-94317500D01*
X180823553Y-94317500D01*
X181232500Y-94726447D01*
X181641447Y-94317500D01*
X182348553Y-94317500D01*
X182757500Y-94726447D01*
X183166446Y-94317501D01*
X183873553Y-94317501D01*
X184236660Y-94680607D01*
X184236661Y-94680607D01*
X184245335Y-94666803D01*
X184304877Y-94496640D01*
X184325062Y-94317500D01*
X184304877Y-94138359D01*
X184245335Y-93968196D01*
X184236660Y-93954391D01*
X183873553Y-94317500D01*
X183873553Y-94317501D01*
X183166446Y-94317501D01*
X183166447Y-94317500D01*
X182757500Y-93908553D01*
X182348553Y-94317500D01*
X181641447Y-94317500D01*
X181232500Y-93908553D01*
X180823553Y-94317500D01*
X180116447Y-94317500D01*
X179753338Y-93954390D01*
X179753338Y-93954391D01*
X179744664Y-93968196D01*
X179685122Y-94138359D01*
X179664937Y-94317500D01*
X168430107Y-94317500D01*
X168396204Y-94190970D01*
X168296336Y-93976804D01*
X168160796Y-93783232D01*
X167993702Y-93616138D01*
X167971851Y-93600838D01*
X180106890Y-93600838D01*
X180469999Y-93963947D01*
X180878946Y-93555001D01*
X181586053Y-93555001D01*
X181994999Y-93963947D01*
X182403946Y-93555001D01*
X183111053Y-93555001D01*
X183520000Y-93963947D01*
X183520001Y-93963947D01*
X183883108Y-93600838D01*
X183869304Y-93592165D01*
X183699140Y-93532622D01*
X183656514Y-93527819D01*
X183604425Y-93509592D01*
X183565404Y-93470569D01*
X183547178Y-93418480D01*
X183542376Y-93375855D01*
X183482835Y-93205696D01*
X183474160Y-93191891D01*
X183111053Y-93555000D01*
X183111053Y-93555001D01*
X182403946Y-93555001D01*
X182403947Y-93555000D01*
X182040838Y-93191890D01*
X182008892Y-93195491D01*
X181981123Y-93195491D01*
X181949161Y-93191890D01*
X181586053Y-93555000D01*
X181586053Y-93555001D01*
X180878946Y-93555001D01*
X180878947Y-93555000D01*
X180515838Y-93191890D01*
X180515838Y-93191891D01*
X180507164Y-93205696D01*
X180447622Y-93375859D01*
X180442819Y-93418485D01*
X180424592Y-93470572D01*
X180385572Y-93509592D01*
X180333485Y-93527819D01*
X180290859Y-93532622D01*
X180120696Y-93592164D01*
X180106891Y-93600838D01*
X180106890Y-93600838D01*
X167971851Y-93600838D01*
X167800130Y-93480598D01*
X167585964Y-93380730D01*
X167567770Y-93375855D01*
X167357708Y-93319569D01*
X167181269Y-93304133D01*
X167181267Y-93304133D01*
X167063335Y-93304133D01*
X167063333Y-93304133D01*
X166886893Y-93319569D01*
X166658637Y-93380730D01*
X166444471Y-93480598D01*
X166250899Y-93616138D01*
X166083809Y-93783228D01*
X166083806Y-93783231D01*
X166083806Y-93783232D01*
X165996056Y-93908553D01*
X165948265Y-93976805D01*
X165848398Y-94190970D01*
X165787237Y-94419225D01*
X165766641Y-94654633D01*
X164823113Y-94654633D01*
X164839040Y-94636944D01*
X164934527Y-94471556D01*
X164993542Y-94289928D01*
X165013504Y-94100000D01*
X164993542Y-93910072D01*
X164934527Y-93728444D01*
X164934527Y-93728443D01*
X164839042Y-93563058D01*
X164778631Y-93495965D01*
X164711253Y-93421134D01*
X164614901Y-93351129D01*
X164556751Y-93308881D01*
X164382285Y-93231204D01*
X164195489Y-93191500D01*
X164195487Y-93191500D01*
X164004513Y-93191500D01*
X164004511Y-93191500D01*
X163817714Y-93231204D01*
X163643248Y-93308881D01*
X163488748Y-93421133D01*
X163360957Y-93563058D01*
X163265472Y-93728443D01*
X163206458Y-93910070D01*
X163186496Y-94099999D01*
X122684316Y-94099999D01*
X122634035Y-93992171D01*
X122498495Y-93798599D01*
X122331401Y-93631505D01*
X122137829Y-93495965D01*
X121923663Y-93396097D01*
X121923662Y-93396096D01*
X121695407Y-93334936D01*
X121518968Y-93319500D01*
X121518966Y-93319500D01*
X121401034Y-93319500D01*
X121401032Y-93319500D01*
X121224592Y-93334936D01*
X120996336Y-93396097D01*
X120782170Y-93495965D01*
X120588598Y-93631505D01*
X120421508Y-93798595D01*
X120421505Y-93798598D01*
X120421505Y-93798599D01*
X120296725Y-93976804D01*
X120285964Y-93992172D01*
X120186097Y-94206337D01*
X120124936Y-94434592D01*
X120104340Y-94669999D01*
X111850500Y-94669999D01*
X111850500Y-92838338D01*
X180869390Y-92838338D01*
X181232500Y-93201447D01*
X181232501Y-93201447D01*
X181595608Y-92838338D01*
X182394390Y-92838338D01*
X182757500Y-93201447D01*
X182757501Y-93201447D01*
X183120608Y-92838338D01*
X183106804Y-92829665D01*
X182936640Y-92770122D01*
X182757500Y-92749937D01*
X182578359Y-92770122D01*
X182408196Y-92829664D01*
X182394391Y-92838338D01*
X182394390Y-92838338D01*
X181595608Y-92838338D01*
X181581804Y-92829665D01*
X181411640Y-92770122D01*
X181232500Y-92749937D01*
X181053359Y-92770122D01*
X180883196Y-92829664D01*
X180869391Y-92838338D01*
X180869390Y-92838338D01*
X111850500Y-92838338D01*
X111850500Y-88330606D01*
X111867521Y-88267904D01*
X111913911Y-88222417D01*
X111976935Y-88206630D01*
X112039290Y-88224879D01*
X112083858Y-88272153D01*
X112112731Y-88326170D01*
X112243945Y-88486054D01*
X112403828Y-88617268D01*
X112586235Y-88714766D01*
X112784165Y-88774808D01*
X112938412Y-88790000D01*
X113490000Y-88790000D01*
X113490000Y-87990000D01*
X113990000Y-87990000D01*
X113990000Y-88790000D01*
X114541588Y-88790000D01*
X114695834Y-88774808D01*
X114893764Y-88714766D01*
X115076171Y-88617268D01*
X115236054Y-88486054D01*
X115367268Y-88326171D01*
X115464766Y-88143764D01*
X115511410Y-87990000D01*
X117578590Y-87990000D01*
X117625233Y-88143764D01*
X117722731Y-88326171D01*
X117853945Y-88486054D01*
X118013828Y-88617268D01*
X118196235Y-88714766D01*
X118394165Y-88774808D01*
X118548412Y-88790000D01*
X118850000Y-88790000D01*
X118850000Y-87990000D01*
X119350000Y-87990000D01*
X119350000Y-88790000D01*
X119651588Y-88790000D01*
X119805834Y-88774808D01*
X120003764Y-88714766D01*
X120186171Y-88617268D01*
X120346054Y-88486054D01*
X120477268Y-88326171D01*
X120499809Y-88283999D01*
X136512340Y-88283999D01*
X136532936Y-88519407D01*
X136559158Y-88617268D01*
X136594097Y-88747663D01*
X136693965Y-88961829D01*
X136829505Y-89155401D01*
X136996599Y-89322495D01*
X137190171Y-89458035D01*
X137404337Y-89557903D01*
X137611890Y-89613516D01*
X137632592Y-89619063D01*
X137809032Y-89634500D01*
X137809034Y-89634500D01*
X137926966Y-89634500D01*
X137926968Y-89634500D01*
X138044594Y-89624208D01*
X138103408Y-89619063D01*
X138331663Y-89557903D01*
X138545829Y-89458035D01*
X138739401Y-89322495D01*
X138906495Y-89155401D01*
X139042035Y-88961830D01*
X139141903Y-88747663D01*
X139203063Y-88519408D01*
X139223659Y-88284000D01*
X139223659Y-88283999D01*
X149342340Y-88283999D01*
X149362936Y-88519407D01*
X149389158Y-88617268D01*
X149424097Y-88747663D01*
X149523965Y-88961829D01*
X149659505Y-89155401D01*
X149826599Y-89322495D01*
X150020171Y-89458035D01*
X150234337Y-89557903D01*
X150441890Y-89613516D01*
X150462592Y-89619063D01*
X150639032Y-89634500D01*
X150639034Y-89634500D01*
X150756966Y-89634500D01*
X150756968Y-89634500D01*
X150874594Y-89624208D01*
X150933408Y-89619063D01*
X151161663Y-89557903D01*
X151375829Y-89458035D01*
X151569401Y-89322495D01*
X151736495Y-89155401D01*
X151872035Y-88961830D01*
X151971903Y-88747663D01*
X152033063Y-88519408D01*
X152053659Y-88284000D01*
X152052622Y-88272153D01*
X152033063Y-88048592D01*
X152018037Y-87992513D01*
X151971903Y-87820337D01*
X151872035Y-87606171D01*
X151736495Y-87412599D01*
X151569401Y-87245505D01*
X151375829Y-87109965D01*
X151161663Y-87010097D01*
X150933407Y-86948936D01*
X150756968Y-86933500D01*
X150756966Y-86933500D01*
X150639034Y-86933500D01*
X150639032Y-86933500D01*
X150462592Y-86948936D01*
X150234336Y-87010097D01*
X150020170Y-87109965D01*
X149826598Y-87245505D01*
X149659508Y-87412595D01*
X149659505Y-87412598D01*
X149659505Y-87412599D01*
X149527494Y-87601131D01*
X149523964Y-87606172D01*
X149424097Y-87820337D01*
X149362936Y-88048592D01*
X149342340Y-88283999D01*
X139223659Y-88283999D01*
X139203063Y-88048592D01*
X139141903Y-87820337D01*
X139042035Y-87606171D01*
X138906495Y-87412599D01*
X138739401Y-87245505D01*
X138545829Y-87109965D01*
X138331663Y-87010097D01*
X138103407Y-86948936D01*
X137926968Y-86933500D01*
X137926966Y-86933500D01*
X137809034Y-86933500D01*
X137809032Y-86933500D01*
X137632592Y-86948936D01*
X137404336Y-87010097D01*
X137190170Y-87109965D01*
X136996598Y-87245505D01*
X136829508Y-87412595D01*
X136829505Y-87412598D01*
X136829505Y-87412599D01*
X136697494Y-87601131D01*
X136693964Y-87606172D01*
X136594097Y-87820337D01*
X136532936Y-88048592D01*
X136512340Y-88283999D01*
X120499809Y-88283999D01*
X120574766Y-88143764D01*
X120621410Y-87990000D01*
X119350000Y-87990000D01*
X118850000Y-87990000D01*
X117578590Y-87990000D01*
X115511410Y-87990000D01*
X113990000Y-87990000D01*
X113490000Y-87990000D01*
X113490000Y-86690000D01*
X113990000Y-86690000D01*
X113990000Y-87490000D01*
X115511410Y-87490000D01*
X117578590Y-87490000D01*
X118850000Y-87490000D01*
X118850000Y-86690000D01*
X119350000Y-86690000D01*
X119350000Y-87490000D01*
X120621410Y-87490000D01*
X120574766Y-87336235D01*
X120477268Y-87153828D01*
X120346054Y-86993945D01*
X120186171Y-86862731D01*
X120003764Y-86765233D01*
X119805834Y-86705191D01*
X119651588Y-86690000D01*
X119350000Y-86690000D01*
X118850000Y-86690000D01*
X118548412Y-86690000D01*
X118394165Y-86705191D01*
X118196235Y-86765233D01*
X118013828Y-86862731D01*
X117853945Y-86993945D01*
X117722731Y-87153828D01*
X117625233Y-87336235D01*
X117578590Y-87490000D01*
X115511410Y-87490000D01*
X115464766Y-87336235D01*
X115367268Y-87153828D01*
X115236054Y-86993945D01*
X115076171Y-86862731D01*
X114893764Y-86765233D01*
X114695834Y-86705191D01*
X114541588Y-86690000D01*
X113990000Y-86690000D01*
X113490000Y-86690000D01*
X112938412Y-86690000D01*
X112784165Y-86705191D01*
X112586235Y-86765233D01*
X112403828Y-86862731D01*
X112243945Y-86993945D01*
X112112731Y-87153829D01*
X112083858Y-87207847D01*
X112039290Y-87255121D01*
X111976935Y-87273370D01*
X111913911Y-87257583D01*
X111867521Y-87212096D01*
X111850500Y-87149394D01*
X111850500Y-86500000D01*
X156686496Y-86500000D01*
X156706458Y-86689929D01*
X156765472Y-86871556D01*
X156860957Y-87036941D01*
X156860960Y-87036944D01*
X156988747Y-87178866D01*
X157118820Y-87273370D01*
X157143248Y-87291118D01*
X157317714Y-87368795D01*
X157504511Y-87408500D01*
X157504513Y-87408500D01*
X157695487Y-87408500D01*
X157695489Y-87408500D01*
X157882285Y-87368795D01*
X157882286Y-87368794D01*
X157882288Y-87368794D01*
X158056752Y-87291118D01*
X158206688Y-87182182D01*
X158241257Y-87164569D01*
X158279575Y-87158500D01*
X158375878Y-87158500D01*
X158423331Y-87167939D01*
X158463559Y-87194819D01*
X159757531Y-88488791D01*
X159781770Y-88523088D01*
X159793171Y-88563510D01*
X159806458Y-88689929D01*
X159865472Y-88871556D01*
X159921208Y-88968092D01*
X159937142Y-89017130D01*
X159931752Y-89068409D01*
X159905972Y-89113063D01*
X159860959Y-89163055D01*
X159765472Y-89328443D01*
X159706458Y-89510070D01*
X159686496Y-89700000D01*
X159706458Y-89889929D01*
X159765472Y-90071556D01*
X159860957Y-90236941D01*
X159860960Y-90236944D01*
X159988747Y-90378866D01*
X160104624Y-90463056D01*
X160143248Y-90491118D01*
X160317714Y-90568795D01*
X160504511Y-90608500D01*
X160504513Y-90608500D01*
X160695487Y-90608500D01*
X160695489Y-90608500D01*
X160882285Y-90568795D01*
X160882286Y-90568794D01*
X160882288Y-90568794D01*
X161056752Y-90491118D01*
X161211253Y-90378866D01*
X161339040Y-90236944D01*
X161397935Y-90134936D01*
X161434527Y-90071556D01*
X161445950Y-90036400D01*
X161493542Y-89889928D01*
X161513504Y-89700000D01*
X161493542Y-89510072D01*
X161434527Y-89328444D01*
X161434527Y-89328443D01*
X161378791Y-89231906D01*
X161362857Y-89182867D01*
X161368247Y-89131587D01*
X161394029Y-89086933D01*
X161439040Y-89036944D01*
X161534527Y-88871556D01*
X161593542Y-88689928D01*
X161613504Y-88500000D01*
X161593542Y-88310072D01*
X161539505Y-88143764D01*
X161534527Y-88128443D01*
X161439042Y-87963058D01*
X161380528Y-87898072D01*
X161311253Y-87821134D01*
X161167160Y-87716444D01*
X161156751Y-87708881D01*
X160982285Y-87631204D01*
X160795489Y-87591500D01*
X160795487Y-87591500D01*
X160774122Y-87591500D01*
X160726669Y-87582061D01*
X160686441Y-87555181D01*
X159226718Y-86095458D01*
X159213234Y-86078627D01*
X159159725Y-86028379D01*
X159156928Y-86025668D01*
X159136332Y-86005072D01*
X159132748Y-86002292D01*
X159123878Y-85994716D01*
X159090133Y-85963028D01*
X159071200Y-85952619D01*
X159054941Y-85941939D01*
X159037868Y-85928696D01*
X159028463Y-85924626D01*
X158995377Y-85910308D01*
X158984900Y-85905175D01*
X158953629Y-85887984D01*
X158944334Y-85882874D01*
X158923413Y-85877503D01*
X158905004Y-85871200D01*
X158885175Y-85862619D01*
X158839455Y-85855378D01*
X158828016Y-85853009D01*
X158783190Y-85841500D01*
X158783188Y-85841500D01*
X158761581Y-85841500D01*
X158742183Y-85839973D01*
X158733603Y-85838614D01*
X158720849Y-85836594D01*
X158720848Y-85836594D01*
X158674764Y-85840950D01*
X158663097Y-85841500D01*
X158279575Y-85841500D01*
X158241257Y-85835431D01*
X158206689Y-85817818D01*
X158056751Y-85708881D01*
X157882285Y-85631204D01*
X157695489Y-85591500D01*
X157695487Y-85591500D01*
X157504513Y-85591500D01*
X157504511Y-85591500D01*
X157317714Y-85631204D01*
X157143248Y-85708881D01*
X156988748Y-85821133D01*
X156860957Y-85963058D01*
X156765472Y-86128443D01*
X156706458Y-86310070D01*
X156686496Y-86500000D01*
X111850500Y-86500000D01*
X111850500Y-83410173D01*
X116336667Y-83410173D01*
X116356629Y-83600102D01*
X116415643Y-83781729D01*
X116511128Y-83947114D01*
X116511131Y-83947117D01*
X116638918Y-84089039D01*
X116793419Y-84201291D01*
X116967885Y-84278968D01*
X117154682Y-84318673D01*
X117154684Y-84318673D01*
X117345658Y-84318673D01*
X117345660Y-84318673D01*
X117532456Y-84278968D01*
X117532457Y-84278967D01*
X117532459Y-84278967D01*
X117706923Y-84201291D01*
X117856859Y-84092355D01*
X117891428Y-84074742D01*
X117929746Y-84068673D01*
X119903437Y-84068673D01*
X119924871Y-84071039D01*
X119927362Y-84070960D01*
X119927364Y-84070961D01*
X119998227Y-84068734D01*
X120002123Y-84068673D01*
X120031263Y-84068673D01*
X120035749Y-84068106D01*
X120047398Y-84067188D01*
X120093658Y-84065735D01*
X120114403Y-84059707D01*
X120133443Y-84055764D01*
X120154891Y-84053055D01*
X120197945Y-84036008D01*
X120208969Y-84032233D01*
X120253427Y-84019318D01*
X120272018Y-84008322D01*
X120289491Y-83999762D01*
X120309583Y-83991808D01*
X120347049Y-83964585D01*
X120356787Y-83958189D01*
X120396634Y-83934626D01*
X120411914Y-83919344D01*
X120426704Y-83906713D01*
X120444184Y-83894014D01*
X120473687Y-83858348D01*
X120481546Y-83849712D01*
X120486449Y-83844809D01*
X120526674Y-83817937D01*
X120574121Y-83808500D01*
X120595489Y-83808500D01*
X120782285Y-83768795D01*
X120782286Y-83768794D01*
X120782288Y-83768794D01*
X120956752Y-83691118D01*
X121106688Y-83582182D01*
X121141257Y-83564569D01*
X121179575Y-83558500D01*
X121344079Y-83558500D01*
X121406080Y-83575113D01*
X121451467Y-83620501D01*
X121459243Y-83633971D01*
X121460960Y-83636944D01*
X121588747Y-83778866D01*
X121691949Y-83853847D01*
X121743248Y-83891118D01*
X121917714Y-83968795D01*
X122104511Y-84008500D01*
X122104513Y-84008500D01*
X122295487Y-84008500D01*
X122295489Y-84008500D01*
X122482285Y-83968795D01*
X122482286Y-83968794D01*
X122482288Y-83968794D01*
X122656752Y-83891118D01*
X122811253Y-83778866D01*
X122939040Y-83636944D01*
X122940757Y-83633971D01*
X123034527Y-83471556D01*
X123050196Y-83423331D01*
X123093542Y-83289928D01*
X123113504Y-83100000D01*
X123093542Y-82910072D01*
X123051948Y-82782061D01*
X123034527Y-82728443D01*
X122939042Y-82563058D01*
X122907873Y-82528442D01*
X122811253Y-82421134D01*
X122656752Y-82308882D01*
X122656751Y-82308881D01*
X122482285Y-82231204D01*
X122295489Y-82191500D01*
X122295487Y-82191500D01*
X122104513Y-82191500D01*
X122104511Y-82191500D01*
X121904964Y-82233915D01*
X121904918Y-82233702D01*
X121868234Y-82241500D01*
X121179575Y-82241500D01*
X121141257Y-82235431D01*
X121106689Y-82217818D01*
X120956751Y-82108881D01*
X120782285Y-82031204D01*
X120595489Y-81991500D01*
X120595487Y-81991500D01*
X120404513Y-81991500D01*
X120404511Y-81991500D01*
X120217714Y-82031204D01*
X120043248Y-82108881D01*
X119888748Y-82221133D01*
X119760957Y-82363058D01*
X119665473Y-82528442D01*
X119620780Y-82665992D01*
X119594999Y-82710646D01*
X119553284Y-82740953D01*
X119502849Y-82751673D01*
X117929746Y-82751673D01*
X117891428Y-82745604D01*
X117856860Y-82727991D01*
X117706922Y-82619054D01*
X117532456Y-82541377D01*
X117345660Y-82501673D01*
X117345658Y-82501673D01*
X117154684Y-82501673D01*
X117154682Y-82501673D01*
X116967885Y-82541377D01*
X116793419Y-82619054D01*
X116638919Y-82731306D01*
X116511128Y-82873231D01*
X116415643Y-83038616D01*
X116356629Y-83220243D01*
X116336667Y-83410173D01*
X111850500Y-83410173D01*
X111850500Y-81699999D01*
X139986496Y-81699999D01*
X140006458Y-81889929D01*
X140065472Y-82071556D01*
X140160957Y-82236941D01*
X140160960Y-82236944D01*
X140288747Y-82378866D01*
X140393158Y-82454725D01*
X140443248Y-82491118D01*
X140617714Y-82568795D01*
X140804511Y-82608500D01*
X140804513Y-82608500D01*
X140995487Y-82608500D01*
X140995489Y-82608500D01*
X141182285Y-82568795D01*
X141182286Y-82568794D01*
X141182288Y-82568794D01*
X141356752Y-82491118D01*
X141511253Y-82378866D01*
X141639040Y-82236944D01*
X141650083Y-82217818D01*
X141734527Y-82071556D01*
X141746352Y-82035163D01*
X141793542Y-81889928D01*
X141813504Y-81700000D01*
X141793542Y-81510072D01*
X141780891Y-81471137D01*
X163736996Y-81471137D01*
X163756958Y-81661066D01*
X163815972Y-81842693D01*
X163911457Y-82008078D01*
X163911460Y-82008081D01*
X164010151Y-82117689D01*
X164033763Y-82156220D01*
X164041999Y-82200658D01*
X164041999Y-85519401D01*
X164039632Y-85540835D01*
X164041938Y-85614192D01*
X164041999Y-85618087D01*
X164041999Y-85647223D01*
X164042567Y-85651722D01*
X164043482Y-85663355D01*
X164044936Y-85709624D01*
X164050962Y-85730366D01*
X164054907Y-85749412D01*
X164057616Y-85770854D01*
X164074657Y-85813896D01*
X164078440Y-85824945D01*
X164091354Y-85869392D01*
X164102349Y-85887984D01*
X164110908Y-85905454D01*
X164118499Y-85924626D01*
X164118864Y-85925547D01*
X164146077Y-85963002D01*
X164152476Y-85972743D01*
X164171596Y-86005073D01*
X164176047Y-86012599D01*
X164191321Y-86027873D01*
X164203957Y-86042667D01*
X164216658Y-86060148D01*
X164238995Y-86078627D01*
X164252319Y-86089649D01*
X164260960Y-86097512D01*
X167086889Y-88923441D01*
X167111128Y-88957738D01*
X167122528Y-88998159D01*
X167124523Y-89017130D01*
X167135816Y-89124579D01*
X167194830Y-89306206D01*
X167290315Y-89471591D01*
X167290318Y-89471594D01*
X167418105Y-89613516D01*
X167537140Y-89700000D01*
X167572606Y-89725768D01*
X167747072Y-89803445D01*
X167933869Y-89843150D01*
X167933871Y-89843150D01*
X168124845Y-89843150D01*
X168124847Y-89843150D01*
X168311643Y-89803445D01*
X168311644Y-89803444D01*
X168311646Y-89803444D01*
X168486110Y-89725768D01*
X168640611Y-89613516D01*
X168768398Y-89471594D01*
X168776227Y-89458035D01*
X168863885Y-89306206D01*
X168863884Y-89306206D01*
X168922900Y-89124578D01*
X168942862Y-88934650D01*
X168922900Y-88744722D01*
X168881487Y-88617268D01*
X168863885Y-88563093D01*
X168768400Y-88397708D01*
X168707981Y-88330606D01*
X168640611Y-88255784D01*
X168544259Y-88185779D01*
X168486109Y-88143531D01*
X168311643Y-88065854D01*
X168124847Y-88026150D01*
X168124845Y-88026150D01*
X168103480Y-88026150D01*
X168056027Y-88016711D01*
X168015799Y-87989831D01*
X165395318Y-85369350D01*
X165368438Y-85329122D01*
X165358999Y-85281669D01*
X165358999Y-82089600D01*
X165367235Y-82045163D01*
X165383037Y-82019375D01*
X165383024Y-82019368D01*
X165485027Y-81842693D01*
X165485026Y-81842693D01*
X165543216Y-81663606D01*
X168008107Y-81663606D01*
X168028069Y-81853536D01*
X168087083Y-82035163D01*
X168182568Y-82200548D01*
X168182571Y-82200551D01*
X168310358Y-82342473D01*
X168461998Y-82452646D01*
X168499595Y-82496667D01*
X168513110Y-82552962D01*
X168513110Y-84649514D01*
X168496497Y-84711514D01*
X168486231Y-84729293D01*
X168427217Y-84910920D01*
X168407255Y-85100850D01*
X168427217Y-85290779D01*
X168486231Y-85472406D01*
X168581716Y-85637791D01*
X168604734Y-85663355D01*
X168709506Y-85779716D01*
X168793787Y-85840950D01*
X168864008Y-85891969D01*
X168894297Y-85905454D01*
X168937359Y-85924626D01*
X168989725Y-85968565D01*
X169010849Y-86033578D01*
X168994312Y-86099906D01*
X168922050Y-86225066D01*
X168863036Y-86406693D01*
X168853229Y-86500000D01*
X168843074Y-86596623D01*
X168847358Y-86637379D01*
X168863036Y-86786552D01*
X168922050Y-86968179D01*
X169011965Y-87123915D01*
X169028578Y-87185914D01*
X169011966Y-87247914D01*
X168965472Y-87328444D01*
X168906458Y-87510070D01*
X168886496Y-87700000D01*
X168906458Y-87889929D01*
X168965472Y-88071556D01*
X169060957Y-88236941D01*
X169088836Y-88267904D01*
X169188747Y-88378866D01*
X169322871Y-88476313D01*
X169343248Y-88491118D01*
X169517714Y-88568795D01*
X169704511Y-88608500D01*
X169704513Y-88608500D01*
X169895487Y-88608500D01*
X169895489Y-88608500D01*
X170082285Y-88568795D01*
X170082286Y-88568794D01*
X170082288Y-88568794D01*
X170256752Y-88491118D01*
X170411253Y-88378866D01*
X170539040Y-88236944D01*
X170634527Y-88071556D01*
X170693542Y-87889928D01*
X170712546Y-87709109D01*
X170738488Y-87645305D01*
X170794475Y-87605185D01*
X170863233Y-87601131D01*
X170923548Y-87634392D01*
X172227569Y-88938413D01*
X172251808Y-88972710D01*
X172263208Y-89013131D01*
X172265712Y-89036944D01*
X172276496Y-89139551D01*
X172335510Y-89321178D01*
X172430995Y-89486563D01*
X172430998Y-89486566D01*
X172558785Y-89628488D01*
X172692679Y-89725768D01*
X172713286Y-89740740D01*
X172887752Y-89818417D01*
X172973703Y-89836686D01*
X173030894Y-89865825D01*
X173065854Y-89919657D01*
X173085917Y-89981403D01*
X173181401Y-90146787D01*
X173181404Y-90146790D01*
X173309191Y-90288712D01*
X173433277Y-90378866D01*
X173463692Y-90400964D01*
X173638158Y-90478641D01*
X173667402Y-90484857D01*
X173724593Y-90513997D01*
X173759552Y-90567828D01*
X173797177Y-90683625D01*
X173892661Y-90849009D01*
X173892664Y-90849012D01*
X174020451Y-90990934D01*
X174174952Y-91103186D01*
X174349418Y-91180863D01*
X174441038Y-91200337D01*
X174498229Y-91229476D01*
X174533188Y-91283307D01*
X174551430Y-91339448D01*
X174646915Y-91504834D01*
X174646918Y-91504837D01*
X174774705Y-91646759D01*
X174929206Y-91759011D01*
X175030783Y-91804236D01*
X175080665Y-91844629D01*
X175103668Y-91904552D01*
X175107951Y-91945295D01*
X175166966Y-92126927D01*
X175262451Y-92292312D01*
X175262454Y-92292315D01*
X175390241Y-92434237D01*
X175544742Y-92546489D01*
X175719208Y-92624166D01*
X175906005Y-92663871D01*
X175906007Y-92663871D01*
X176096981Y-92663871D01*
X176096983Y-92663871D01*
X176283779Y-92624166D01*
X176283780Y-92624165D01*
X176283782Y-92624165D01*
X176458246Y-92546489D01*
X176612747Y-92434237D01*
X176740534Y-92292315D01*
X176836021Y-92126927D01*
X176879152Y-91994182D01*
X176904934Y-91949528D01*
X176946649Y-91919220D01*
X176997084Y-91908500D01*
X177095489Y-91908500D01*
X177282285Y-91868795D01*
X177282286Y-91868794D01*
X177282288Y-91868794D01*
X177456752Y-91791118D01*
X177611253Y-91678866D01*
X177739040Y-91536944D01*
X177834527Y-91371556D01*
X177893542Y-91189928D01*
X177913504Y-91000000D01*
X177893542Y-90810072D01*
X177834527Y-90628444D01*
X177834527Y-90628443D01*
X177739040Y-90463056D01*
X177690350Y-90408980D01*
X177666736Y-90370446D01*
X177658500Y-90326008D01*
X177658500Y-87986392D01*
X177660867Y-87964952D01*
X177660461Y-87952044D01*
X177658561Y-87891580D01*
X177658500Y-87887685D01*
X177658500Y-87858573D01*
X177658500Y-87858568D01*
X177657931Y-87854072D01*
X177657015Y-87842427D01*
X177656321Y-87820336D01*
X177655562Y-87796169D01*
X177649534Y-87775421D01*
X177645591Y-87756384D01*
X177642882Y-87734936D01*
X177625830Y-87691869D01*
X177622062Y-87680861D01*
X177609145Y-87636400D01*
X177609144Y-87636399D01*
X177609144Y-87636397D01*
X177598151Y-87617810D01*
X177589589Y-87600335D01*
X177581635Y-87580244D01*
X177554423Y-87542792D01*
X177548021Y-87533047D01*
X177524453Y-87493193D01*
X177509169Y-87477909D01*
X177496539Y-87463121D01*
X177483841Y-87445643D01*
X177448171Y-87416134D01*
X177439532Y-87408272D01*
X175431062Y-85399802D01*
X175404182Y-85359574D01*
X175394743Y-85312121D01*
X175394743Y-81899999D01*
X177086496Y-81899999D01*
X177106458Y-82089929D01*
X177165472Y-82271556D01*
X177260959Y-82436943D01*
X177309650Y-82491020D01*
X177333264Y-82529554D01*
X177341500Y-82573992D01*
X177341500Y-84713610D01*
X177339133Y-84735044D01*
X177341439Y-84808401D01*
X177341500Y-84812296D01*
X177341500Y-84841432D01*
X177342068Y-84845931D01*
X177342983Y-84857564D01*
X177344437Y-84903833D01*
X177350463Y-84924575D01*
X177354408Y-84943621D01*
X177357117Y-84965063D01*
X177374158Y-85008105D01*
X177377941Y-85019154D01*
X177390855Y-85063601D01*
X177401850Y-85082193D01*
X177410409Y-85099663D01*
X177410879Y-85100850D01*
X177418365Y-85119756D01*
X177445578Y-85157211D01*
X177451977Y-85166952D01*
X177475547Y-85206807D01*
X177475548Y-85206808D01*
X177490822Y-85222082D01*
X177503458Y-85236876D01*
X177516159Y-85254358D01*
X177551827Y-85283865D01*
X177560467Y-85291727D01*
X178673282Y-86404542D01*
X178686772Y-86421378D01*
X178740288Y-86471633D01*
X178743086Y-86474345D01*
X178763666Y-86494925D01*
X178767238Y-86497696D01*
X178776119Y-86505281D01*
X178801173Y-86528808D01*
X178809867Y-86536972D01*
X178828803Y-86547382D01*
X178845051Y-86558055D01*
X178862131Y-86571304D01*
X178904622Y-86589691D01*
X178915100Y-86594824D01*
X178955663Y-86617124D01*
X178976589Y-86622496D01*
X178994995Y-86628799D01*
X179014819Y-86637378D01*
X179014821Y-86637378D01*
X179014823Y-86637379D01*
X179060557Y-86644622D01*
X179071955Y-86646982D01*
X179116812Y-86658500D01*
X179138418Y-86658500D01*
X179157817Y-86660027D01*
X179179151Y-86663406D01*
X179225234Y-86659049D01*
X179236902Y-86658500D01*
X181275878Y-86658500D01*
X181323331Y-86667939D01*
X181363559Y-86694819D01*
X185205181Y-90536440D01*
X185232061Y-90576668D01*
X185241500Y-90624121D01*
X185241500Y-100426008D01*
X185233264Y-100470446D01*
X185209650Y-100508980D01*
X185160959Y-100563056D01*
X185065472Y-100728443D01*
X185006458Y-100910070D01*
X184986496Y-101100000D01*
X185006458Y-101289929D01*
X185065472Y-101471556D01*
X185160957Y-101636941D01*
X185160960Y-101636944D01*
X185288747Y-101778866D01*
X185380678Y-101845658D01*
X185443248Y-101891118D01*
X185617714Y-101968795D01*
X185804511Y-102008500D01*
X185804513Y-102008500D01*
X185995487Y-102008500D01*
X185995489Y-102008500D01*
X186182285Y-101968795D01*
X186182286Y-101968794D01*
X186182288Y-101968794D01*
X186356752Y-101891118D01*
X186511253Y-101778866D01*
X186639040Y-101636944D01*
X186667493Y-101587663D01*
X186734527Y-101471556D01*
X186770966Y-101359408D01*
X186793542Y-101289928D01*
X186813504Y-101100000D01*
X186793542Y-100910072D01*
X186734527Y-100728444D01*
X186734527Y-100728443D01*
X186639040Y-100563056D01*
X186590350Y-100508980D01*
X186566736Y-100470446D01*
X186558500Y-100426008D01*
X186558500Y-90386390D01*
X186560866Y-90364955D01*
X186558561Y-90291599D01*
X186558500Y-90287704D01*
X186558500Y-90258570D01*
X186557932Y-90254075D01*
X186557015Y-90242424D01*
X186556843Y-90236941D01*
X186555562Y-90196169D01*
X186549534Y-90175421D01*
X186545591Y-90156384D01*
X186542882Y-90134936D01*
X186525830Y-90091869D01*
X186522062Y-90080861D01*
X186509145Y-90036400D01*
X186498148Y-90017807D01*
X186489587Y-90000330D01*
X186481635Y-89980244D01*
X186454422Y-89942789D01*
X186448008Y-89933024D01*
X186424453Y-89893194D01*
X186421187Y-89889928D01*
X186409172Y-89877913D01*
X186396539Y-89863121D01*
X186383841Y-89845643D01*
X186348165Y-89816129D01*
X186339526Y-89808267D01*
X182126718Y-85595458D01*
X182113234Y-85578627D01*
X182059725Y-85528379D01*
X182056928Y-85525668D01*
X182036332Y-85505072D01*
X182032748Y-85502292D01*
X182023878Y-85494716D01*
X181990133Y-85463028D01*
X181971200Y-85452619D01*
X181954941Y-85441939D01*
X181937868Y-85428696D01*
X181937867Y-85428695D01*
X181895377Y-85410308D01*
X181884900Y-85405175D01*
X181862007Y-85392590D01*
X181844334Y-85382874D01*
X181823413Y-85377503D01*
X181805004Y-85371200D01*
X181785175Y-85362619D01*
X181739455Y-85355378D01*
X181728016Y-85353009D01*
X181683190Y-85341500D01*
X181683188Y-85341500D01*
X181661581Y-85341500D01*
X181642183Y-85339973D01*
X181633603Y-85338614D01*
X181620849Y-85336594D01*
X181620848Y-85336594D01*
X181574764Y-85340950D01*
X181563097Y-85341500D01*
X180624090Y-85341500D01*
X180565876Y-85326986D01*
X180521289Y-85286840D01*
X180500769Y-85230462D01*
X180509119Y-85171049D01*
X180544384Y-85122510D01*
X180598309Y-85096210D01*
X180727285Y-85068795D01*
X180727286Y-85068794D01*
X180727288Y-85068794D01*
X180901752Y-84991118D01*
X181056253Y-84878866D01*
X181106863Y-84822656D01*
X181162755Y-84787049D01*
X181229008Y-84785314D01*
X181279516Y-84813891D01*
X181280274Y-84812915D01*
X181290007Y-84820465D01*
X181298888Y-84828050D01*
X181313139Y-84841432D01*
X181332636Y-84859741D01*
X181351572Y-84870151D01*
X181367820Y-84880824D01*
X181384900Y-84894073D01*
X181427391Y-84912460D01*
X181437869Y-84917593D01*
X181478432Y-84939893D01*
X181499358Y-84945265D01*
X181517764Y-84951568D01*
X181537588Y-84960147D01*
X181537590Y-84960147D01*
X181537592Y-84960148D01*
X181583326Y-84967391D01*
X181594724Y-84969751D01*
X181639581Y-84981269D01*
X181661187Y-84981269D01*
X181680586Y-84982796D01*
X181701920Y-84986175D01*
X181744105Y-84982187D01*
X181748001Y-84981819D01*
X181759670Y-84981269D01*
X181883240Y-84981269D01*
X181921558Y-84987338D01*
X181956126Y-85004951D01*
X182106063Y-85113887D01*
X182280529Y-85191564D01*
X182467326Y-85231269D01*
X182467328Y-85231269D01*
X182658302Y-85231269D01*
X182658304Y-85231269D01*
X182845100Y-85191564D01*
X182845101Y-85191563D01*
X182845103Y-85191563D01*
X183019567Y-85113887D01*
X183174068Y-85001635D01*
X183301855Y-84859713D01*
X183357600Y-84763159D01*
X183396095Y-84722059D01*
X183448800Y-84702222D01*
X183504844Y-84707742D01*
X183552667Y-84737480D01*
X187255181Y-88439994D01*
X187282061Y-88480222D01*
X187291500Y-88527675D01*
X187291500Y-104072325D01*
X187282061Y-104119778D01*
X187255181Y-104160006D01*
X185915049Y-105500136D01*
X185900259Y-105512769D01*
X185888746Y-105521134D01*
X185842954Y-105571990D01*
X185838494Y-105576690D01*
X185823935Y-105591250D01*
X185810968Y-105607262D01*
X185806759Y-105612189D01*
X185760957Y-105663059D01*
X185753839Y-105675386D01*
X185742831Y-105691403D01*
X185733872Y-105702467D01*
X185702790Y-105763468D01*
X185699694Y-105769169D01*
X185665471Y-105828445D01*
X185661069Y-105841992D01*
X185653630Y-105859950D01*
X185647170Y-105872628D01*
X185629456Y-105938738D01*
X185627614Y-105944959D01*
X185606457Y-106010075D01*
X185604970Y-106024223D01*
X185601426Y-106043345D01*
X185597743Y-106057092D01*
X185594160Y-106125445D01*
X185593651Y-106131914D01*
X185586496Y-106200000D01*
X185587983Y-106214155D01*
X185588492Y-106233599D01*
X185587747Y-106247807D01*
X185589973Y-106261857D01*
X185591500Y-106281256D01*
X185591500Y-106772325D01*
X185582061Y-106819778D01*
X185555181Y-106860006D01*
X182915049Y-109500136D01*
X182900259Y-109512769D01*
X182888746Y-109521134D01*
X182842954Y-109571990D01*
X182838494Y-109576690D01*
X182823935Y-109591250D01*
X182810968Y-109607262D01*
X182806759Y-109612189D01*
X182760957Y-109663059D01*
X182753839Y-109675386D01*
X182742831Y-109691403D01*
X182733872Y-109702467D01*
X182702790Y-109763468D01*
X182699694Y-109769169D01*
X182665471Y-109828445D01*
X182661069Y-109841992D01*
X182653630Y-109859950D01*
X182647170Y-109872628D01*
X182629456Y-109938738D01*
X182627617Y-109944947D01*
X182612492Y-109991500D01*
X182606457Y-110010075D01*
X182604970Y-110024223D01*
X182601426Y-110043345D01*
X182597743Y-110057092D01*
X182594159Y-110125454D01*
X182593651Y-110131916D01*
X182591500Y-110152393D01*
X182591500Y-110172973D01*
X182591330Y-110179463D01*
X182587748Y-110247810D01*
X182589973Y-110261858D01*
X182591500Y-110281256D01*
X182591500Y-111645890D01*
X182590821Y-111658851D01*
X182586496Y-111700000D01*
X182599482Y-111823555D01*
X182606458Y-111889929D01*
X182665472Y-112071556D01*
X182760957Y-112236941D01*
X182760960Y-112236944D01*
X182888747Y-112378866D01*
X182956984Y-112428443D01*
X182971868Y-112439257D01*
X183006369Y-112477575D01*
X183022303Y-112526612D01*
X183016914Y-112577891D01*
X183006458Y-112610070D01*
X182990307Y-112763742D01*
X182986496Y-112800000D01*
X182989486Y-112828444D01*
X183006458Y-112989929D01*
X183065472Y-113171556D01*
X183160957Y-113336941D01*
X183160960Y-113336944D01*
X183288747Y-113478866D01*
X183416323Y-113571556D01*
X183443248Y-113591118D01*
X183617714Y-113668795D01*
X183804511Y-113708500D01*
X183804513Y-113708500D01*
X183995487Y-113708500D01*
X183995489Y-113708500D01*
X184182285Y-113668795D01*
X184182286Y-113668794D01*
X184182288Y-113668794D01*
X184356752Y-113591118D01*
X184511253Y-113478866D01*
X184639040Y-113336944D01*
X184641286Y-113333055D01*
X184734527Y-113171556D01*
X184761049Y-113089929D01*
X184793542Y-112989928D01*
X184806828Y-112863507D01*
X184818228Y-112823088D01*
X184842465Y-112788793D01*
X185084368Y-112546890D01*
X185142049Y-112514256D01*
X185208301Y-112515991D01*
X185264197Y-112551601D01*
X185288745Y-112578865D01*
X185443248Y-112691118D01*
X185617714Y-112768795D01*
X185804511Y-112808500D01*
X185804513Y-112808500D01*
X185995487Y-112808500D01*
X185995489Y-112808500D01*
X186182285Y-112768795D01*
X186182286Y-112768794D01*
X186182288Y-112768794D01*
X186356752Y-112691118D01*
X186506688Y-112582182D01*
X186541257Y-112564569D01*
X186579575Y-112558500D01*
X187011672Y-112558500D01*
X187033106Y-112560866D01*
X187035597Y-112560787D01*
X187035599Y-112560788D01*
X187106462Y-112558561D01*
X187110358Y-112558500D01*
X187139498Y-112558500D01*
X187143984Y-112557933D01*
X187155633Y-112557015D01*
X187201893Y-112555562D01*
X187222638Y-112549534D01*
X187241678Y-112545591D01*
X187263126Y-112542882D01*
X187306180Y-112525835D01*
X187317204Y-112522060D01*
X187361662Y-112509145D01*
X187380253Y-112498149D01*
X187397726Y-112489589D01*
X187417818Y-112481635D01*
X187455284Y-112454412D01*
X187465022Y-112448016D01*
X187504869Y-112424453D01*
X187520149Y-112409171D01*
X187534939Y-112396540D01*
X187552419Y-112383841D01*
X187581931Y-112348165D01*
X187589774Y-112339546D01*
X188115448Y-111813873D01*
X188155677Y-111786993D01*
X188203130Y-111777554D01*
X188224497Y-111777554D01*
X188411293Y-111737849D01*
X188411294Y-111737848D01*
X188411296Y-111737848D01*
X188585760Y-111660172D01*
X188740261Y-111547920D01*
X188868048Y-111405998D01*
X188891682Y-111365064D01*
X188963535Y-111240610D01*
X188982140Y-111183351D01*
X189022550Y-111058982D01*
X189042512Y-110869054D01*
X189022550Y-110679126D01*
X188963535Y-110497498D01*
X188963535Y-110497497D01*
X188868050Y-110332112D01*
X188822259Y-110281256D01*
X188740261Y-110190188D01*
X188585760Y-110077936D01*
X188585759Y-110077935D01*
X188464558Y-110023973D01*
X188414674Y-109983577D01*
X188391672Y-109923650D01*
X188389759Y-109905444D01*
X188330744Y-109723817D01*
X188235259Y-109558432D01*
X188215659Y-109536665D01*
X188107470Y-109416508D01*
X187995992Y-109335514D01*
X187952968Y-109304255D01*
X187778502Y-109226578D01*
X187591706Y-109186874D01*
X187591704Y-109186874D01*
X187400730Y-109186874D01*
X187400728Y-109186874D01*
X187213931Y-109226578D01*
X187039465Y-109304255D01*
X186889528Y-109413192D01*
X186854960Y-109430805D01*
X186816642Y-109436874D01*
X186691018Y-109436874D01*
X186669578Y-109434506D01*
X186596206Y-109436813D01*
X186592311Y-109436874D01*
X186563191Y-109436874D01*
X186558691Y-109437442D01*
X186547059Y-109438357D01*
X186500794Y-109439811D01*
X186480049Y-109445838D01*
X186461005Y-109449782D01*
X186439559Y-109452491D01*
X186396521Y-109469531D01*
X186385475Y-109473313D01*
X186341027Y-109486227D01*
X186322431Y-109497225D01*
X186304965Y-109505781D01*
X186284871Y-109513737D01*
X186247423Y-109540945D01*
X186237661Y-109547357D01*
X186197821Y-109570918D01*
X186182538Y-109586201D01*
X186167749Y-109598831D01*
X186150270Y-109611530D01*
X186120761Y-109647200D01*
X186112900Y-109655838D01*
X184620181Y-111148559D01*
X184570818Y-111178809D01*
X184513102Y-111183351D01*
X184459615Y-111161196D01*
X184422015Y-111117173D01*
X184408500Y-111060878D01*
X184408500Y-110627675D01*
X184417939Y-110580222D01*
X184444819Y-110539994D01*
X185079369Y-109905444D01*
X187084951Y-107899860D01*
X187099732Y-107887235D01*
X187111253Y-107878866D01*
X187157062Y-107827987D01*
X187161493Y-107823318D01*
X187176072Y-107808741D01*
X187189040Y-107792726D01*
X187193228Y-107787822D01*
X187239040Y-107736944D01*
X187246156Y-107724617D01*
X187257167Y-107708595D01*
X187266129Y-107697530D01*
X187297211Y-107636527D01*
X187300291Y-107630853D01*
X187334527Y-107571556D01*
X187338921Y-107558029D01*
X187346372Y-107540043D01*
X187352830Y-107527370D01*
X187361168Y-107496250D01*
X187370552Y-107461223D01*
X187372384Y-107455042D01*
X187393542Y-107389928D01*
X187395029Y-107375766D01*
X187398573Y-107356648D01*
X187402257Y-107342903D01*
X187405840Y-107274533D01*
X187406348Y-107268082D01*
X187407217Y-107259821D01*
X187408500Y-107247610D01*
X187408500Y-107227027D01*
X187408670Y-107220537D01*
X187410119Y-107192883D01*
X187412252Y-107152190D01*
X187410026Y-107138140D01*
X187408500Y-107118744D01*
X187408500Y-106627675D01*
X187417939Y-106580222D01*
X187444819Y-106539994D01*
X187770658Y-106214155D01*
X188784951Y-105199860D01*
X188799732Y-105187235D01*
X188811253Y-105178866D01*
X188857062Y-105127987D01*
X188861493Y-105123318D01*
X188876072Y-105108741D01*
X188889040Y-105092726D01*
X188893228Y-105087822D01*
X188939040Y-105036944D01*
X188946156Y-105024617D01*
X188957175Y-105008587D01*
X188966129Y-104997530D01*
X188997205Y-104936536D01*
X189000295Y-104930844D01*
X189034527Y-104871556D01*
X189038925Y-104858019D01*
X189046372Y-104840043D01*
X189052827Y-104827374D01*
X189052827Y-104827373D01*
X189052829Y-104827370D01*
X189070547Y-104761242D01*
X189072385Y-104755040D01*
X189093542Y-104689928D01*
X189095029Y-104675766D01*
X189098573Y-104656648D01*
X189102257Y-104642903D01*
X189105840Y-104574533D01*
X189106348Y-104568082D01*
X189108500Y-104547612D01*
X189108500Y-104527027D01*
X189108670Y-104520537D01*
X189109746Y-104499999D01*
X189112252Y-104452190D01*
X189110027Y-104438142D01*
X189108500Y-104418744D01*
X189108500Y-87992515D01*
X189108500Y-87992513D01*
X189099894Y-87952027D01*
X189097868Y-87939234D01*
X189093542Y-87898072D01*
X189080757Y-87858728D01*
X189077397Y-87846189D01*
X189068794Y-87805712D01*
X189051961Y-87767906D01*
X189047309Y-87755786D01*
X189034527Y-87716444D01*
X189013838Y-87680611D01*
X189007952Y-87669061D01*
X188991118Y-87631248D01*
X188966793Y-87597767D01*
X188959726Y-87586884D01*
X188948363Y-87567204D01*
X188939040Y-87551056D01*
X188911342Y-87520295D01*
X188903186Y-87510222D01*
X188878866Y-87476747D01*
X188863728Y-87463117D01*
X188848111Y-87449054D01*
X188838935Y-87439878D01*
X188811251Y-87409132D01*
X188777773Y-87384808D01*
X188767693Y-87376646D01*
X188736944Y-87348960D01*
X188736941Y-87348958D01*
X188727472Y-87340432D01*
X188717896Y-87333083D01*
X186120826Y-84736013D01*
X186090084Y-84685103D01*
X186086584Y-84625734D01*
X186111128Y-84571564D01*
X186158071Y-84535053D01*
X186256752Y-84491118D01*
X186411253Y-84378866D01*
X186539040Y-84236944D01*
X186559625Y-84201291D01*
X186634527Y-84071556D01*
X186651500Y-84019318D01*
X186693542Y-83889928D01*
X186713504Y-83700000D01*
X186693542Y-83510072D01*
X186651540Y-83380805D01*
X186634527Y-83328443D01*
X186539042Y-83163058D01*
X186471775Y-83088351D01*
X186411253Y-83021134D01*
X186258390Y-82910072D01*
X186256751Y-82908881D01*
X186082285Y-82831204D01*
X185895489Y-82791500D01*
X185895487Y-82791500D01*
X185874122Y-82791500D01*
X185826669Y-82782061D01*
X185786441Y-82755181D01*
X182834560Y-79803300D01*
X182804310Y-79753938D01*
X182796027Y-79728444D01*
X182773324Y-79689122D01*
X182700540Y-79563056D01*
X182642702Y-79498820D01*
X182614534Y-79445841D01*
X182614538Y-79385838D01*
X182634066Y-79349121D01*
X182632524Y-79348231D01*
X182734527Y-79171556D01*
X182755203Y-79107922D01*
X182793542Y-78989928D01*
X182813504Y-78800000D01*
X182793542Y-78610072D01*
X182762931Y-78515862D01*
X182734527Y-78428443D01*
X182639042Y-78263058D01*
X182602731Y-78222731D01*
X182511253Y-78121134D01*
X182356752Y-78008882D01*
X182356751Y-78008881D01*
X182182286Y-77931205D01*
X182172915Y-77929213D01*
X182114525Y-77898978D01*
X182079804Y-77843140D01*
X182078514Y-77777399D01*
X182111015Y-77720244D01*
X185336440Y-74494818D01*
X185376668Y-74467939D01*
X185424121Y-74458500D01*
X186874271Y-74458500D01*
X186895705Y-74460866D01*
X186898196Y-74460787D01*
X186898198Y-74460788D01*
X186969061Y-74458561D01*
X186972957Y-74458500D01*
X187002097Y-74458500D01*
X187006583Y-74457933D01*
X187018232Y-74457015D01*
X187064492Y-74455562D01*
X187085237Y-74449534D01*
X187104277Y-74445591D01*
X187125725Y-74442882D01*
X187168779Y-74425835D01*
X187179803Y-74422060D01*
X187224261Y-74409145D01*
X187242852Y-74398149D01*
X187260325Y-74389589D01*
X187280417Y-74381635D01*
X187317878Y-74354416D01*
X187327611Y-74348022D01*
X187367468Y-74324453D01*
X187382748Y-74309171D01*
X187397537Y-74296540D01*
X187415018Y-74283841D01*
X187444532Y-74248162D01*
X187452375Y-74239543D01*
X187684039Y-74007879D01*
X187700875Y-73994393D01*
X187751131Y-73940874D01*
X187753815Y-73938103D01*
X187774426Y-73917494D01*
X187777196Y-73913923D01*
X187784784Y-73905037D01*
X187816472Y-73871294D01*
X187826875Y-73852369D01*
X187837556Y-73836107D01*
X187850804Y-73819030D01*
X187869188Y-73776544D01*
X187874323Y-73766061D01*
X187896624Y-73725498D01*
X187901996Y-73704573D01*
X187908296Y-73686170D01*
X187916879Y-73666338D01*
X187924122Y-73620604D01*
X187926483Y-73609201D01*
X187938000Y-73564349D01*
X187938000Y-73542742D01*
X187939527Y-73523345D01*
X187941104Y-73513388D01*
X187951657Y-73479401D01*
X187971428Y-73449812D01*
X188018540Y-73397490D01*
X188114027Y-73232102D01*
X188173042Y-73050474D01*
X188193004Y-72860546D01*
X188173042Y-72670618D01*
X188136371Y-72557758D01*
X188114027Y-72488989D01*
X188018542Y-72323604D01*
X187963247Y-72262193D01*
X187890753Y-72181680D01*
X187785773Y-72105407D01*
X187736251Y-72069427D01*
X187561785Y-71991750D01*
X187374989Y-71952046D01*
X187374987Y-71952046D01*
X187184013Y-71952046D01*
X187184011Y-71952046D01*
X186997214Y-71991750D01*
X186822746Y-72069428D01*
X186731551Y-72135685D01*
X186671629Y-72158687D01*
X186608233Y-72148646D01*
X186572264Y-72132632D01*
X186385465Y-72092927D01*
X186385463Y-72092927D01*
X186194489Y-72092927D01*
X186194487Y-72092927D01*
X186007690Y-72132631D01*
X185833224Y-72210308D01*
X185683287Y-72319245D01*
X185648719Y-72336858D01*
X185610401Y-72342927D01*
X185278562Y-72342927D01*
X185257127Y-72340560D01*
X185183771Y-72342866D01*
X185179876Y-72342927D01*
X185150740Y-72342927D01*
X185146240Y-72343495D01*
X185134609Y-72344410D01*
X185088340Y-72345864D01*
X185067595Y-72351891D01*
X185048551Y-72355835D01*
X185027107Y-72358544D01*
X184984067Y-72375585D01*
X184973020Y-72379367D01*
X184928573Y-72392281D01*
X184909979Y-72403278D01*
X184892507Y-72411837D01*
X184872415Y-72419791D01*
X184834963Y-72447002D01*
X184825203Y-72453413D01*
X184785366Y-72476973D01*
X184770088Y-72492251D01*
X184755299Y-72504881D01*
X184737816Y-72517583D01*
X184708302Y-72553259D01*
X184700441Y-72561897D01*
X178495951Y-78766386D01*
X178479124Y-78779868D01*
X178428878Y-78833374D01*
X178426199Y-78836138D01*
X178412339Y-78850000D01*
X178405567Y-78856772D01*
X178402786Y-78860357D01*
X178395212Y-78869224D01*
X178363526Y-78902967D01*
X178353118Y-78921899D01*
X178342439Y-78938156D01*
X178329193Y-78955233D01*
X178310808Y-78997716D01*
X178305672Y-79008201D01*
X178283374Y-79048761D01*
X178278002Y-79069686D01*
X178271701Y-79088088D01*
X178263118Y-79107922D01*
X178255878Y-79153636D01*
X178253510Y-79165070D01*
X178241999Y-79209909D01*
X178241999Y-79231519D01*
X178240472Y-79250916D01*
X178237093Y-79272252D01*
X178241449Y-79318334D01*
X178241999Y-79330003D01*
X178241999Y-80869515D01*
X178229919Y-80922899D01*
X178196034Y-80965882D01*
X178146945Y-80990089D01*
X178108520Y-80990592D01*
X178108520Y-80991500D01*
X177904511Y-80991500D01*
X177717714Y-81031204D01*
X177543248Y-81108881D01*
X177388748Y-81221133D01*
X177260957Y-81363058D01*
X177165472Y-81528443D01*
X177106458Y-81710070D01*
X177086496Y-81899999D01*
X175394743Y-81899999D01*
X175394743Y-73788040D01*
X175402979Y-73743602D01*
X175426593Y-73705068D01*
X175435549Y-73695121D01*
X175475283Y-73650992D01*
X175570770Y-73485604D01*
X175629785Y-73303976D01*
X175649747Y-73114048D01*
X175637760Y-73000000D01*
X181586496Y-73000000D01*
X181606458Y-73189929D01*
X181665472Y-73371556D01*
X181760957Y-73536941D01*
X181787824Y-73566780D01*
X181888747Y-73678866D01*
X182039012Y-73788040D01*
X182043248Y-73791118D01*
X182217714Y-73868795D01*
X182404511Y-73908500D01*
X182404513Y-73908500D01*
X182595487Y-73908500D01*
X182595489Y-73908500D01*
X182782285Y-73868795D01*
X182782286Y-73868794D01*
X182782288Y-73868794D01*
X182956752Y-73791118D01*
X183111253Y-73678866D01*
X183239040Y-73536944D01*
X183246892Y-73523345D01*
X183334527Y-73371556D01*
X183361063Y-73289886D01*
X183393542Y-73189928D01*
X183413504Y-73000000D01*
X183393542Y-72810072D01*
X183348230Y-72670616D01*
X183334527Y-72628443D01*
X183239042Y-72463058D01*
X183213941Y-72435181D01*
X183111253Y-72321134D01*
X182987416Y-72231161D01*
X182956751Y-72208881D01*
X182782285Y-72131204D01*
X182595489Y-72091500D01*
X182595487Y-72091500D01*
X182404513Y-72091500D01*
X182404511Y-72091500D01*
X182217714Y-72131204D01*
X182043248Y-72208881D01*
X181888748Y-72321133D01*
X181760957Y-72463058D01*
X181665472Y-72628443D01*
X181606458Y-72810070D01*
X181586496Y-73000000D01*
X175637760Y-73000000D01*
X175629785Y-72924120D01*
X175570770Y-72742492D01*
X175570770Y-72742491D01*
X175475285Y-72577106D01*
X175448922Y-72547827D01*
X175347496Y-72435182D01*
X175221300Y-72343495D01*
X175192994Y-72322929D01*
X175018528Y-72245252D01*
X174831732Y-72205548D01*
X174831730Y-72205548D01*
X174640756Y-72205548D01*
X174640754Y-72205548D01*
X174453957Y-72245252D01*
X174279490Y-72322930D01*
X174273740Y-72327108D01*
X174213818Y-72350108D01*
X174150423Y-72340067D01*
X173975515Y-72262193D01*
X173788719Y-72222489D01*
X173788717Y-72222489D01*
X173597743Y-72222489D01*
X173597741Y-72222489D01*
X173410941Y-72262194D01*
X173320162Y-72302611D01*
X173256766Y-72312652D01*
X173196843Y-72289649D01*
X173153808Y-72258382D01*
X172979340Y-72180704D01*
X172792544Y-72141000D01*
X172792542Y-72141000D01*
X172601568Y-72141000D01*
X172601566Y-72141000D01*
X172414769Y-72180704D01*
X172240302Y-72258382D01*
X172213831Y-72277614D01*
X172153908Y-72300615D01*
X172090513Y-72290574D01*
X171951893Y-72228856D01*
X171765097Y-72189152D01*
X171765095Y-72189152D01*
X171574121Y-72189152D01*
X171574119Y-72189152D01*
X171387322Y-72228856D01*
X171216052Y-72305110D01*
X171165617Y-72315830D01*
X171115182Y-72305110D01*
X170952397Y-72232633D01*
X170765601Y-72192929D01*
X170765599Y-72192929D01*
X170574625Y-72192929D01*
X170574623Y-72192929D01*
X170387826Y-72232633D01*
X170222450Y-72306263D01*
X170172015Y-72316983D01*
X170121580Y-72306263D01*
X169952897Y-72231161D01*
X169766100Y-72191457D01*
X169766098Y-72191457D01*
X169575124Y-72191457D01*
X169575122Y-72191457D01*
X169388325Y-72231161D01*
X169213859Y-72308838D01*
X169059359Y-72421090D01*
X168931568Y-72563015D01*
X168836083Y-72728400D01*
X168777069Y-72910027D01*
X168757107Y-73099957D01*
X168777069Y-73289886D01*
X168836083Y-73471513D01*
X168931568Y-73636898D01*
X168958076Y-73666338D01*
X169059358Y-73778823D01*
X169169027Y-73858502D01*
X169183869Y-73869286D01*
X169221468Y-73913310D01*
X169234983Y-73969604D01*
X169234983Y-80648293D01*
X169222904Y-80701677D01*
X169189019Y-80744659D01*
X169139930Y-80768867D01*
X169085201Y-80769582D01*
X169017098Y-80755107D01*
X168826124Y-80755107D01*
X168826122Y-80755107D01*
X168639325Y-80794811D01*
X168464859Y-80872488D01*
X168310359Y-80984740D01*
X168182568Y-81126665D01*
X168087083Y-81292050D01*
X168028069Y-81473677D01*
X168008107Y-81663606D01*
X165543216Y-81663606D01*
X165544042Y-81661065D01*
X165564004Y-81471137D01*
X165544042Y-81281209D01*
X165505652Y-81163058D01*
X165485027Y-81099580D01*
X165389540Y-80934193D01*
X165339723Y-80878866D01*
X165282642Y-80815471D01*
X165255361Y-80765846D01*
X165252989Y-80709265D01*
X165276023Y-80657530D01*
X165319658Y-80621432D01*
X165374793Y-80608500D01*
X165495489Y-80608500D01*
X165682285Y-80568795D01*
X165682286Y-80568794D01*
X165682288Y-80568794D01*
X165856752Y-80491118D01*
X166011253Y-80378866D01*
X166139040Y-80236944D01*
X166234527Y-80071556D01*
X166293542Y-79889928D01*
X166313504Y-79700000D01*
X166293542Y-79510072D01*
X166241531Y-79350000D01*
X166234527Y-79328443D01*
X166139042Y-79163058D01*
X166089397Y-79107922D01*
X166011253Y-79021134D01*
X165886435Y-78930448D01*
X165856751Y-78908881D01*
X165682285Y-78831204D01*
X165495489Y-78791500D01*
X165495487Y-78791500D01*
X165304513Y-78791500D01*
X165304511Y-78791500D01*
X165117714Y-78831204D01*
X164943248Y-78908881D01*
X164788748Y-79021133D01*
X164660957Y-79163058D01*
X164565472Y-79328443D01*
X164506458Y-79510070D01*
X164486496Y-79699999D01*
X164506458Y-79889929D01*
X164565472Y-80071556D01*
X164660959Y-80236943D01*
X164767857Y-80355665D01*
X164795139Y-80405291D01*
X164797511Y-80461872D01*
X164774477Y-80513607D01*
X164730842Y-80549705D01*
X164675707Y-80562637D01*
X164555011Y-80562637D01*
X164368214Y-80602341D01*
X164193748Y-80680018D01*
X164039248Y-80792270D01*
X163911457Y-80934195D01*
X163815972Y-81099580D01*
X163756958Y-81281207D01*
X163736996Y-81471137D01*
X141780891Y-81471137D01*
X141734527Y-81328444D01*
X141734527Y-81328443D01*
X141639042Y-81163058D01*
X141606273Y-81126665D01*
X141511253Y-81021134D01*
X141391592Y-80934195D01*
X141356751Y-80908881D01*
X141182285Y-80831204D01*
X140995489Y-80791500D01*
X140995487Y-80791500D01*
X140804513Y-80791500D01*
X140804511Y-80791500D01*
X140617714Y-80831204D01*
X140443248Y-80908881D01*
X140288748Y-81021133D01*
X140160957Y-81163058D01*
X140065472Y-81328443D01*
X140006458Y-81510070D01*
X139986496Y-81699999D01*
X111850500Y-81699999D01*
X111850500Y-80199999D01*
X160486496Y-80199999D01*
X160506458Y-80389929D01*
X160565472Y-80571556D01*
X160660957Y-80736941D01*
X160677314Y-80755107D01*
X160788747Y-80878866D01*
X160934471Y-80984741D01*
X160943248Y-80991118D01*
X161117714Y-81068795D01*
X161304511Y-81108500D01*
X161304513Y-81108500D01*
X161495487Y-81108500D01*
X161495489Y-81108500D01*
X161682285Y-81068795D01*
X161682286Y-81068794D01*
X161682288Y-81068794D01*
X161856752Y-80991118D01*
X162011253Y-80878866D01*
X162139040Y-80736944D01*
X162159402Y-80701677D01*
X162234527Y-80571556D01*
X162260663Y-80491118D01*
X162293542Y-80389928D01*
X162313504Y-80200000D01*
X162293542Y-80010072D01*
X162234527Y-79828444D01*
X162234527Y-79828443D01*
X162139042Y-79663058D01*
X162107389Y-79627904D01*
X162011253Y-79521134D01*
X161914901Y-79451130D01*
X161856751Y-79408881D01*
X161682285Y-79331204D01*
X161495489Y-79291500D01*
X161495487Y-79291500D01*
X161304513Y-79291500D01*
X161304511Y-79291500D01*
X161117714Y-79331204D01*
X160943248Y-79408881D01*
X160788748Y-79521133D01*
X160660957Y-79663058D01*
X160565472Y-79828443D01*
X160506458Y-80010070D01*
X160486496Y-80199999D01*
X111850500Y-80199999D01*
X111850500Y-79690606D01*
X111867521Y-79627904D01*
X111913911Y-79582417D01*
X111976935Y-79566630D01*
X112039290Y-79584879D01*
X112083858Y-79632153D01*
X112112731Y-79686170D01*
X112243945Y-79846054D01*
X112403828Y-79977268D01*
X112586235Y-80074766D01*
X112784165Y-80134808D01*
X112938412Y-80150000D01*
X113490000Y-80150000D01*
X113490000Y-79350000D01*
X113990000Y-79350000D01*
X113990000Y-80150000D01*
X114541588Y-80150000D01*
X114695834Y-80134808D01*
X114893764Y-80074766D01*
X115076171Y-79977268D01*
X115236054Y-79846054D01*
X115367268Y-79686171D01*
X115464766Y-79503764D01*
X115511410Y-79350000D01*
X117578590Y-79350000D01*
X117625233Y-79503764D01*
X117722731Y-79686171D01*
X117853945Y-79846054D01*
X118013828Y-79977268D01*
X118196235Y-80074766D01*
X118394165Y-80134808D01*
X118548412Y-80150000D01*
X118850000Y-80150000D01*
X118850000Y-79350000D01*
X119350000Y-79350000D01*
X119350000Y-80150000D01*
X119651588Y-80150000D01*
X119805834Y-80134808D01*
X120003764Y-80074766D01*
X120186171Y-79977268D01*
X120346054Y-79846054D01*
X120477268Y-79686171D01*
X120574766Y-79503764D01*
X120621410Y-79350000D01*
X119350000Y-79350000D01*
X118850000Y-79350000D01*
X117578590Y-79350000D01*
X115511410Y-79350000D01*
X113990000Y-79350000D01*
X113490000Y-79350000D01*
X113490000Y-78050000D01*
X113990000Y-78050000D01*
X113990000Y-78850000D01*
X115511410Y-78850000D01*
X117578590Y-78850000D01*
X118850000Y-78850000D01*
X118850000Y-78050000D01*
X119350000Y-78050000D01*
X119350000Y-78850000D01*
X120621410Y-78850000D01*
X120574766Y-78696235D01*
X120477268Y-78513828D01*
X120346054Y-78353945D01*
X120186171Y-78222731D01*
X120003764Y-78125233D01*
X119805834Y-78065191D01*
X119651588Y-78050000D01*
X119350000Y-78050000D01*
X118850000Y-78050000D01*
X118548412Y-78050000D01*
X118394165Y-78065191D01*
X118196235Y-78125233D01*
X118013828Y-78222731D01*
X117853945Y-78353945D01*
X117722731Y-78513828D01*
X117625233Y-78696235D01*
X117578590Y-78850000D01*
X115511410Y-78850000D01*
X115464766Y-78696235D01*
X115367268Y-78513828D01*
X115236054Y-78353945D01*
X115076171Y-78222731D01*
X114893764Y-78125233D01*
X114695834Y-78065191D01*
X114541588Y-78050000D01*
X113990000Y-78050000D01*
X113490000Y-78050000D01*
X112938412Y-78050000D01*
X112784165Y-78065191D01*
X112586235Y-78125233D01*
X112403828Y-78222731D01*
X112243945Y-78353945D01*
X112112731Y-78513829D01*
X112083858Y-78567847D01*
X112039290Y-78615121D01*
X111976935Y-78633370D01*
X111913911Y-78617583D01*
X111867521Y-78572096D01*
X111850500Y-78509394D01*
X111850500Y-71857764D01*
X113720787Y-71857764D01*
X113750413Y-72127016D01*
X113777641Y-72231163D01*
X113818928Y-72389088D01*
X113924870Y-72638390D01*
X113924871Y-72638392D01*
X114065982Y-72869611D01*
X114216498Y-73050475D01*
X114239255Y-73077820D01*
X114440998Y-73258582D01*
X114666910Y-73408044D01*
X114756009Y-73449812D01*
X114912177Y-73523021D01*
X115171562Y-73601058D01*
X115171569Y-73601060D01*
X115439561Y-73640500D01*
X115642631Y-73640500D01*
X115642634Y-73640500D01*
X115845156Y-73625677D01*
X115867862Y-73620619D01*
X116109553Y-73566780D01*
X116362558Y-73470014D01*
X116598777Y-73337441D01*
X116813177Y-73171888D01*
X117001186Y-72976881D01*
X117158799Y-72756579D01*
X117282656Y-72515675D01*
X117370118Y-72259305D01*
X117419319Y-71992933D01*
X117423812Y-71870000D01*
X142904340Y-71870000D01*
X142924936Y-72105407D01*
X142979840Y-72310311D01*
X142986097Y-72333663D01*
X143085965Y-72547829D01*
X143221505Y-72741401D01*
X143388599Y-72908495D01*
X143582171Y-73044035D01*
X143796337Y-73143903D01*
X144024592Y-73205063D01*
X144201032Y-73220500D01*
X144201034Y-73220500D01*
X144318966Y-73220500D01*
X144318968Y-73220500D01*
X144436594Y-73210208D01*
X144495408Y-73205063D01*
X144723663Y-73143903D01*
X144937829Y-73044035D01*
X145131401Y-72908495D01*
X145298495Y-72741401D01*
X145434035Y-72547830D01*
X145533903Y-72333663D01*
X145595063Y-72105408D01*
X145615659Y-71870000D01*
X145595063Y-71634592D01*
X145533903Y-71406337D01*
X145434035Y-71192171D01*
X145369496Y-71099999D01*
X160986496Y-71099999D01*
X161006458Y-71289929D01*
X161065472Y-71471556D01*
X161160957Y-71636941D01*
X161160960Y-71636944D01*
X161288747Y-71778866D01*
X161397342Y-71857765D01*
X161443248Y-71891118D01*
X161617714Y-71968795D01*
X161804511Y-72008500D01*
X161804513Y-72008500D01*
X161995487Y-72008500D01*
X161995489Y-72008500D01*
X162182285Y-71968795D01*
X162182286Y-71968794D01*
X162182288Y-71968794D01*
X162356752Y-71891118D01*
X162511253Y-71778866D01*
X162639040Y-71636944D01*
X162734527Y-71471556D01*
X162793542Y-71289928D01*
X162813504Y-71100000D01*
X162793542Y-70910072D01*
X162734527Y-70728444D01*
X162734527Y-70728443D01*
X162639042Y-70563058D01*
X162583946Y-70501868D01*
X162511253Y-70421134D01*
X162374008Y-70321419D01*
X162356751Y-70308881D01*
X162182285Y-70231204D01*
X161995489Y-70191500D01*
X161995487Y-70191500D01*
X161804513Y-70191500D01*
X161804511Y-70191500D01*
X161617714Y-70231204D01*
X161443248Y-70308881D01*
X161288748Y-70421133D01*
X161160957Y-70563058D01*
X161065472Y-70728443D01*
X161006458Y-70910070D01*
X160986496Y-71099999D01*
X145369496Y-71099999D01*
X145298495Y-70998599D01*
X145131401Y-70831505D01*
X144937829Y-70695965D01*
X144723663Y-70596097D01*
X144723662Y-70596096D01*
X144495407Y-70534936D01*
X144318968Y-70519500D01*
X144318966Y-70519500D01*
X144201034Y-70519500D01*
X144201032Y-70519500D01*
X144024592Y-70534936D01*
X143796336Y-70596097D01*
X143582170Y-70695965D01*
X143388598Y-70831505D01*
X143221508Y-70998595D01*
X143221505Y-70998598D01*
X143221505Y-70998599D01*
X143175481Y-71064329D01*
X143085964Y-71192172D01*
X142986097Y-71406337D01*
X142924936Y-71634592D01*
X142904340Y-71870000D01*
X117423812Y-71870000D01*
X117429212Y-71722235D01*
X117399586Y-71452982D01*
X117331072Y-71190912D01*
X117225130Y-70941610D01*
X117084018Y-70710390D01*
X117084017Y-70710388D01*
X116910746Y-70502181D01*
X116805758Y-70408112D01*
X116709002Y-70321418D01*
X116483090Y-70171956D01*
X116483086Y-70171954D01*
X116237822Y-70056978D01*
X115978437Y-69978941D01*
X115978431Y-69978940D01*
X115710439Y-69939500D01*
X115507369Y-69939500D01*
X115507366Y-69939500D01*
X115304843Y-69954322D01*
X115040449Y-70013219D01*
X114787441Y-70109986D01*
X114551223Y-70242559D01*
X114336825Y-70408109D01*
X114148813Y-70603120D01*
X113991201Y-70823420D01*
X113867342Y-71064329D01*
X113779881Y-71320695D01*
X113730680Y-71587066D01*
X113720787Y-71857764D01*
X111850500Y-71857764D01*
X111850500Y-71793018D01*
X111850650Y-71786929D01*
X111853831Y-71722235D01*
X111857996Y-71637519D01*
X111869238Y-71423199D01*
X111870408Y-71411523D01*
X111896148Y-71238149D01*
X111896290Y-71237228D01*
X111926117Y-71049071D01*
X111928294Y-71038407D01*
X111972102Y-70863671D01*
X111972495Y-70862159D01*
X112020627Y-70682688D01*
X112023636Y-70673062D01*
X112084975Y-70501792D01*
X112085918Y-70499250D01*
X112151792Y-70327804D01*
X112155432Y-70319300D01*
X112233721Y-70153934D01*
X112235275Y-70150772D01*
X112318256Y-69988075D01*
X112322342Y-69980701D01*
X112416808Y-69823259D01*
X112419051Y-69819669D01*
X112518319Y-69666974D01*
X112522659Y-69660732D01*
X112632287Y-69513084D01*
X112635420Y-69509047D01*
X112749933Y-69367804D01*
X112754364Y-69362640D01*
X112877978Y-69226425D01*
X112882126Y-69222073D01*
X113010696Y-69093676D01*
X113015002Y-69089581D01*
X113151468Y-68966073D01*
X113156628Y-68961659D01*
X113297954Y-68847394D01*
X113302045Y-68844226D01*
X113449805Y-68734823D01*
X113456113Y-68730450D01*
X113608853Y-68631444D01*
X113612521Y-68629158D01*
X113770076Y-68534912D01*
X113777443Y-68530843D01*
X113940248Y-68448082D01*
X113943380Y-68446547D01*
X114108892Y-68368461D01*
X114117399Y-68364833D01*
X114289040Y-68299148D01*
X114291405Y-68298275D01*
X114462844Y-68237136D01*
X114472454Y-68234145D01*
X114651952Y-68186264D01*
X114653551Y-68185852D01*
X114828298Y-68142290D01*
X114838961Y-68140127D01*
X115027409Y-68110513D01*
X115027824Y-68110450D01*
X115201512Y-68084902D01*
X115213171Y-68083749D01*
X115427665Y-68072787D01*
X115576908Y-68065649D01*
X115583072Y-68065508D01*
X115631273Y-68065604D01*
X115631790Y-68065502D01*
X135760329Y-68065502D01*
X135815445Y-68078424D01*
G37*
%TD.AperFunction*%
%TD*%
M02*
