%TF.GenerationSoftware,KiCad,Pcbnew,7.0.1*%
%TF.CreationDate,2023-03-18T00:09:39+00:00*%
%TF.ProjectId,ImogenWren,496d6f67-656e-4577-9265-6e2e6b696361,rev?*%
%TF.SameCoordinates,Original*%
%TF.FileFunction,Drillmap*%
%TF.FilePolarity,Positive*%
%FSLAX45Y45*%
G04 Gerber Fmt 4.5, Leading zero omitted, Abs format (unit mm)*
G04 Created by KiCad (PCBNEW 7.0.1) date 2023-03-18 00:09:39*
%MOMM*%
%LPD*%
G01*
G04 APERTURE LIST*
%ADD10C,0.200000*%
%ADD11C,0.090000*%
%ADD12C,0.120000*%
%ADD13C,0.220000*%
%ADD14C,0.320000*%
G04 APERTURE END LIST*
D10*
D11*
X13335000Y-11818000D02*
X13425000Y-11908000D01*
X13425000Y-11818000D02*
X13335000Y-11908000D01*
X13635000Y-11818000D02*
X13725000Y-11908000D01*
X13725000Y-11818000D02*
X13635000Y-11908000D01*
D12*
X11360000Y-9850000D02*
G75*
G03*
X11360000Y-9850000I-60000J0D01*
G01*
X11360000Y-10350000D02*
G75*
G03*
X11360000Y-10350000I-60000J0D01*
G01*
X11360000Y-10850000D02*
G75*
G03*
X11360000Y-10850000I-60000J0D01*
G01*
X11360000Y-11260000D02*
G75*
G03*
X11360000Y-11260000I-60000J0D01*
G01*
X16730000Y-12020000D02*
G75*
G03*
X16730000Y-12020000I-60000J0D01*
G01*
X17740000Y-12020000D02*
G75*
G03*
X17740000Y-12020000I-60000J0D01*
G01*
X18170000Y-12020000D02*
G75*
G03*
X18170000Y-12020000I-60000J0D01*
G01*
X18430000Y-12020000D02*
G75*
G03*
X18430000Y-12020000I-60000J0D01*
G01*
X19030000Y-12020000D02*
G75*
G03*
X19030000Y-12020000I-60000J0D01*
G01*
D13*
X12146000Y-9357000D02*
X12146000Y-9577000D01*
X12036000Y-9467000D02*
X12256000Y-9467000D01*
X13786800Y-8718400D02*
X13786800Y-8938400D01*
X13676800Y-8828400D02*
X13896800Y-8828400D01*
X13787800Y-10001400D02*
X13787800Y-10221400D01*
X13677800Y-10111400D02*
X13897800Y-10111400D01*
X14426000Y-7077000D02*
X14426000Y-7297000D01*
X14316000Y-7187000D02*
X14536000Y-7187000D01*
X14430748Y-11643514D02*
X14430748Y-11863514D01*
X14320748Y-11753514D02*
X14540748Y-11753514D01*
X15069800Y-8718400D02*
X15069800Y-8938400D01*
X14959800Y-8828400D02*
X15179800Y-8828400D01*
X15070800Y-10002400D02*
X15070800Y-10222400D01*
X14960800Y-10112400D02*
X15180800Y-10112400D01*
X16712230Y-9355463D02*
X16712230Y-9575463D01*
X16602230Y-9465463D02*
X16822230Y-9465463D01*
D14*
X11670138Y-11883138D02*
X11670138Y-11656862D01*
X11443862Y-11656862D01*
X11443862Y-11883138D01*
X11670138Y-11883138D01*
X11670638Y-7292138D02*
X11670638Y-7065862D01*
X11444362Y-7065862D01*
X11444362Y-7292138D01*
X11670638Y-7292138D01*
X19432138Y-7292138D02*
X19432138Y-7065862D01*
X19205862Y-7065862D01*
X19205862Y-7292138D01*
X19432138Y-7292138D01*
X19435741Y-11879741D02*
X19435741Y-11653465D01*
X19209465Y-11653465D01*
X19209465Y-11879741D01*
X19435741Y-11879741D01*
D10*
X11426619Y-12457524D02*
X11426619Y-12257524D01*
X11426619Y-12257524D02*
X11474238Y-12257524D01*
X11474238Y-12257524D02*
X11502809Y-12267048D01*
X11502809Y-12267048D02*
X11521857Y-12286095D01*
X11521857Y-12286095D02*
X11531381Y-12305143D01*
X11531381Y-12305143D02*
X11540905Y-12343238D01*
X11540905Y-12343238D02*
X11540905Y-12371809D01*
X11540905Y-12371809D02*
X11531381Y-12409905D01*
X11531381Y-12409905D02*
X11521857Y-12428952D01*
X11521857Y-12428952D02*
X11502809Y-12448000D01*
X11502809Y-12448000D02*
X11474238Y-12457524D01*
X11474238Y-12457524D02*
X11426619Y-12457524D01*
X11626619Y-12457524D02*
X11626619Y-12324190D01*
X11626619Y-12362286D02*
X11636143Y-12343238D01*
X11636143Y-12343238D02*
X11645666Y-12333714D01*
X11645666Y-12333714D02*
X11664714Y-12324190D01*
X11664714Y-12324190D02*
X11683762Y-12324190D01*
X11750428Y-12457524D02*
X11750428Y-12324190D01*
X11750428Y-12257524D02*
X11740905Y-12267048D01*
X11740905Y-12267048D02*
X11750428Y-12276571D01*
X11750428Y-12276571D02*
X11759952Y-12267048D01*
X11759952Y-12267048D02*
X11750428Y-12257524D01*
X11750428Y-12257524D02*
X11750428Y-12276571D01*
X11874238Y-12457524D02*
X11855190Y-12448000D01*
X11855190Y-12448000D02*
X11845666Y-12428952D01*
X11845666Y-12428952D02*
X11845666Y-12257524D01*
X11979000Y-12457524D02*
X11959952Y-12448000D01*
X11959952Y-12448000D02*
X11950428Y-12428952D01*
X11950428Y-12428952D02*
X11950428Y-12257524D01*
X12207571Y-12457524D02*
X12207571Y-12257524D01*
X12207571Y-12257524D02*
X12274238Y-12400381D01*
X12274238Y-12400381D02*
X12340905Y-12257524D01*
X12340905Y-12257524D02*
X12340905Y-12457524D01*
X12521857Y-12457524D02*
X12521857Y-12352762D01*
X12521857Y-12352762D02*
X12512333Y-12333714D01*
X12512333Y-12333714D02*
X12493286Y-12324190D01*
X12493286Y-12324190D02*
X12455190Y-12324190D01*
X12455190Y-12324190D02*
X12436143Y-12333714D01*
X12521857Y-12448000D02*
X12502809Y-12457524D01*
X12502809Y-12457524D02*
X12455190Y-12457524D01*
X12455190Y-12457524D02*
X12436143Y-12448000D01*
X12436143Y-12448000D02*
X12426619Y-12428952D01*
X12426619Y-12428952D02*
X12426619Y-12409905D01*
X12426619Y-12409905D02*
X12436143Y-12390857D01*
X12436143Y-12390857D02*
X12455190Y-12381333D01*
X12455190Y-12381333D02*
X12502809Y-12381333D01*
X12502809Y-12381333D02*
X12521857Y-12371809D01*
X12617095Y-12324190D02*
X12617095Y-12524190D01*
X12617095Y-12333714D02*
X12636143Y-12324190D01*
X12636143Y-12324190D02*
X12674238Y-12324190D01*
X12674238Y-12324190D02*
X12693286Y-12333714D01*
X12693286Y-12333714D02*
X12702809Y-12343238D01*
X12702809Y-12343238D02*
X12712333Y-12362286D01*
X12712333Y-12362286D02*
X12712333Y-12419428D01*
X12712333Y-12419428D02*
X12702809Y-12438476D01*
X12702809Y-12438476D02*
X12693286Y-12448000D01*
X12693286Y-12448000D02*
X12674238Y-12457524D01*
X12674238Y-12457524D02*
X12636143Y-12457524D01*
X12636143Y-12457524D02*
X12617095Y-12448000D01*
X12798047Y-12438476D02*
X12807571Y-12448000D01*
X12807571Y-12448000D02*
X12798047Y-12457524D01*
X12798047Y-12457524D02*
X12788524Y-12448000D01*
X12788524Y-12448000D02*
X12798047Y-12438476D01*
X12798047Y-12438476D02*
X12798047Y-12457524D01*
X12798047Y-12333714D02*
X12807571Y-12343238D01*
X12807571Y-12343238D02*
X12798047Y-12352762D01*
X12798047Y-12352762D02*
X12788524Y-12343238D01*
X12788524Y-12343238D02*
X12798047Y-12333714D01*
X12798047Y-12333714D02*
X12798047Y-12352762D01*
D11*
X11089000Y-12740000D02*
X11179000Y-12830000D01*
X11179000Y-12740000D02*
X11089000Y-12830000D01*
D10*
X11464714Y-12677524D02*
X11483762Y-12677524D01*
X11483762Y-12677524D02*
X11502809Y-12687048D01*
X11502809Y-12687048D02*
X11512333Y-12696571D01*
X11512333Y-12696571D02*
X11521857Y-12715619D01*
X11521857Y-12715619D02*
X11531381Y-12753714D01*
X11531381Y-12753714D02*
X11531381Y-12801333D01*
X11531381Y-12801333D02*
X11521857Y-12839428D01*
X11521857Y-12839428D02*
X11512333Y-12858476D01*
X11512333Y-12858476D02*
X11502809Y-12868000D01*
X11502809Y-12868000D02*
X11483762Y-12877524D01*
X11483762Y-12877524D02*
X11464714Y-12877524D01*
X11464714Y-12877524D02*
X11445666Y-12868000D01*
X11445666Y-12868000D02*
X11436143Y-12858476D01*
X11436143Y-12858476D02*
X11426619Y-12839428D01*
X11426619Y-12839428D02*
X11417095Y-12801333D01*
X11417095Y-12801333D02*
X11417095Y-12753714D01*
X11417095Y-12753714D02*
X11426619Y-12715619D01*
X11426619Y-12715619D02*
X11436143Y-12696571D01*
X11436143Y-12696571D02*
X11445666Y-12687048D01*
X11445666Y-12687048D02*
X11464714Y-12677524D01*
X11617095Y-12858476D02*
X11626619Y-12868000D01*
X11626619Y-12868000D02*
X11617095Y-12877524D01*
X11617095Y-12877524D02*
X11607571Y-12868000D01*
X11607571Y-12868000D02*
X11617095Y-12858476D01*
X11617095Y-12858476D02*
X11617095Y-12877524D01*
X11721857Y-12877524D02*
X11759952Y-12877524D01*
X11759952Y-12877524D02*
X11779000Y-12868000D01*
X11779000Y-12868000D02*
X11788524Y-12858476D01*
X11788524Y-12858476D02*
X11807571Y-12829905D01*
X11807571Y-12829905D02*
X11817095Y-12791809D01*
X11817095Y-12791809D02*
X11817095Y-12715619D01*
X11817095Y-12715619D02*
X11807571Y-12696571D01*
X11807571Y-12696571D02*
X11798047Y-12687048D01*
X11798047Y-12687048D02*
X11779000Y-12677524D01*
X11779000Y-12677524D02*
X11740905Y-12677524D01*
X11740905Y-12677524D02*
X11721857Y-12687048D01*
X11721857Y-12687048D02*
X11712333Y-12696571D01*
X11712333Y-12696571D02*
X11702809Y-12715619D01*
X11702809Y-12715619D02*
X11702809Y-12763238D01*
X11702809Y-12763238D02*
X11712333Y-12782286D01*
X11712333Y-12782286D02*
X11721857Y-12791809D01*
X11721857Y-12791809D02*
X11740905Y-12801333D01*
X11740905Y-12801333D02*
X11779000Y-12801333D01*
X11779000Y-12801333D02*
X11798047Y-12791809D01*
X11798047Y-12791809D02*
X11807571Y-12782286D01*
X11807571Y-12782286D02*
X11817095Y-12763238D01*
X11940905Y-12677524D02*
X11959952Y-12677524D01*
X11959952Y-12677524D02*
X11979000Y-12687048D01*
X11979000Y-12687048D02*
X11988524Y-12696571D01*
X11988524Y-12696571D02*
X11998047Y-12715619D01*
X11998047Y-12715619D02*
X12007571Y-12753714D01*
X12007571Y-12753714D02*
X12007571Y-12801333D01*
X12007571Y-12801333D02*
X11998047Y-12839428D01*
X11998047Y-12839428D02*
X11988524Y-12858476D01*
X11988524Y-12858476D02*
X11979000Y-12868000D01*
X11979000Y-12868000D02*
X11959952Y-12877524D01*
X11959952Y-12877524D02*
X11940905Y-12877524D01*
X11940905Y-12877524D02*
X11921857Y-12868000D01*
X11921857Y-12868000D02*
X11912333Y-12858476D01*
X11912333Y-12858476D02*
X11902809Y-12839428D01*
X11902809Y-12839428D02*
X11893286Y-12801333D01*
X11893286Y-12801333D02*
X11893286Y-12753714D01*
X11893286Y-12753714D02*
X11902809Y-12715619D01*
X11902809Y-12715619D02*
X11912333Y-12696571D01*
X11912333Y-12696571D02*
X11921857Y-12687048D01*
X11921857Y-12687048D02*
X11940905Y-12677524D01*
X12131381Y-12677524D02*
X12150428Y-12677524D01*
X12150428Y-12677524D02*
X12169476Y-12687048D01*
X12169476Y-12687048D02*
X12179000Y-12696571D01*
X12179000Y-12696571D02*
X12188524Y-12715619D01*
X12188524Y-12715619D02*
X12198047Y-12753714D01*
X12198047Y-12753714D02*
X12198047Y-12801333D01*
X12198047Y-12801333D02*
X12188524Y-12839428D01*
X12188524Y-12839428D02*
X12179000Y-12858476D01*
X12179000Y-12858476D02*
X12169476Y-12868000D01*
X12169476Y-12868000D02*
X12150428Y-12877524D01*
X12150428Y-12877524D02*
X12131381Y-12877524D01*
X12131381Y-12877524D02*
X12112333Y-12868000D01*
X12112333Y-12868000D02*
X12102809Y-12858476D01*
X12102809Y-12858476D02*
X12093286Y-12839428D01*
X12093286Y-12839428D02*
X12083762Y-12801333D01*
X12083762Y-12801333D02*
X12083762Y-12753714D01*
X12083762Y-12753714D02*
X12093286Y-12715619D01*
X12093286Y-12715619D02*
X12102809Y-12696571D01*
X12102809Y-12696571D02*
X12112333Y-12687048D01*
X12112333Y-12687048D02*
X12131381Y-12677524D01*
X12283762Y-12877524D02*
X12283762Y-12744190D01*
X12283762Y-12763238D02*
X12293286Y-12753714D01*
X12293286Y-12753714D02*
X12312333Y-12744190D01*
X12312333Y-12744190D02*
X12340905Y-12744190D01*
X12340905Y-12744190D02*
X12359952Y-12753714D01*
X12359952Y-12753714D02*
X12369476Y-12772762D01*
X12369476Y-12772762D02*
X12369476Y-12877524D01*
X12369476Y-12772762D02*
X12379000Y-12753714D01*
X12379000Y-12753714D02*
X12398047Y-12744190D01*
X12398047Y-12744190D02*
X12426619Y-12744190D01*
X12426619Y-12744190D02*
X12445667Y-12753714D01*
X12445667Y-12753714D02*
X12455190Y-12772762D01*
X12455190Y-12772762D02*
X12455190Y-12877524D01*
X12550428Y-12877524D02*
X12550428Y-12744190D01*
X12550428Y-12763238D02*
X12559952Y-12753714D01*
X12559952Y-12753714D02*
X12579000Y-12744190D01*
X12579000Y-12744190D02*
X12607571Y-12744190D01*
X12607571Y-12744190D02*
X12626619Y-12753714D01*
X12626619Y-12753714D02*
X12636143Y-12772762D01*
X12636143Y-12772762D02*
X12636143Y-12877524D01*
X12636143Y-12772762D02*
X12645667Y-12753714D01*
X12645667Y-12753714D02*
X12664714Y-12744190D01*
X12664714Y-12744190D02*
X12693286Y-12744190D01*
X12693286Y-12744190D02*
X12712333Y-12753714D01*
X12712333Y-12753714D02*
X12721857Y-12772762D01*
X12721857Y-12772762D02*
X12721857Y-12877524D01*
X13112333Y-12668000D02*
X12940905Y-12925143D01*
X13369476Y-12677524D02*
X13388524Y-12677524D01*
X13388524Y-12677524D02*
X13407571Y-12687048D01*
X13407571Y-12687048D02*
X13417095Y-12696571D01*
X13417095Y-12696571D02*
X13426619Y-12715619D01*
X13426619Y-12715619D02*
X13436143Y-12753714D01*
X13436143Y-12753714D02*
X13436143Y-12801333D01*
X13436143Y-12801333D02*
X13426619Y-12839428D01*
X13426619Y-12839428D02*
X13417095Y-12858476D01*
X13417095Y-12858476D02*
X13407571Y-12868000D01*
X13407571Y-12868000D02*
X13388524Y-12877524D01*
X13388524Y-12877524D02*
X13369476Y-12877524D01*
X13369476Y-12877524D02*
X13350429Y-12868000D01*
X13350429Y-12868000D02*
X13340905Y-12858476D01*
X13340905Y-12858476D02*
X13331381Y-12839428D01*
X13331381Y-12839428D02*
X13321857Y-12801333D01*
X13321857Y-12801333D02*
X13321857Y-12753714D01*
X13321857Y-12753714D02*
X13331381Y-12715619D01*
X13331381Y-12715619D02*
X13340905Y-12696571D01*
X13340905Y-12696571D02*
X13350429Y-12687048D01*
X13350429Y-12687048D02*
X13369476Y-12677524D01*
X13521857Y-12858476D02*
X13531381Y-12868000D01*
X13531381Y-12868000D02*
X13521857Y-12877524D01*
X13521857Y-12877524D02*
X13512333Y-12868000D01*
X13512333Y-12868000D02*
X13521857Y-12858476D01*
X13521857Y-12858476D02*
X13521857Y-12877524D01*
X13655190Y-12677524D02*
X13674238Y-12677524D01*
X13674238Y-12677524D02*
X13693286Y-12687048D01*
X13693286Y-12687048D02*
X13702810Y-12696571D01*
X13702810Y-12696571D02*
X13712333Y-12715619D01*
X13712333Y-12715619D02*
X13721857Y-12753714D01*
X13721857Y-12753714D02*
X13721857Y-12801333D01*
X13721857Y-12801333D02*
X13712333Y-12839428D01*
X13712333Y-12839428D02*
X13702810Y-12858476D01*
X13702810Y-12858476D02*
X13693286Y-12868000D01*
X13693286Y-12868000D02*
X13674238Y-12877524D01*
X13674238Y-12877524D02*
X13655190Y-12877524D01*
X13655190Y-12877524D02*
X13636143Y-12868000D01*
X13636143Y-12868000D02*
X13626619Y-12858476D01*
X13626619Y-12858476D02*
X13617095Y-12839428D01*
X13617095Y-12839428D02*
X13607571Y-12801333D01*
X13607571Y-12801333D02*
X13607571Y-12753714D01*
X13607571Y-12753714D02*
X13617095Y-12715619D01*
X13617095Y-12715619D02*
X13626619Y-12696571D01*
X13626619Y-12696571D02*
X13636143Y-12687048D01*
X13636143Y-12687048D02*
X13655190Y-12677524D01*
X13788524Y-12677524D02*
X13912333Y-12677524D01*
X13912333Y-12677524D02*
X13845667Y-12753714D01*
X13845667Y-12753714D02*
X13874238Y-12753714D01*
X13874238Y-12753714D02*
X13893286Y-12763238D01*
X13893286Y-12763238D02*
X13902810Y-12772762D01*
X13902810Y-12772762D02*
X13912333Y-12791809D01*
X13912333Y-12791809D02*
X13912333Y-12839428D01*
X13912333Y-12839428D02*
X13902810Y-12858476D01*
X13902810Y-12858476D02*
X13893286Y-12868000D01*
X13893286Y-12868000D02*
X13874238Y-12877524D01*
X13874238Y-12877524D02*
X13817095Y-12877524D01*
X13817095Y-12877524D02*
X13798048Y-12868000D01*
X13798048Y-12868000D02*
X13788524Y-12858476D01*
X14093286Y-12677524D02*
X13998048Y-12677524D01*
X13998048Y-12677524D02*
X13988524Y-12772762D01*
X13988524Y-12772762D02*
X13998048Y-12763238D01*
X13998048Y-12763238D02*
X14017095Y-12753714D01*
X14017095Y-12753714D02*
X14064714Y-12753714D01*
X14064714Y-12753714D02*
X14083762Y-12763238D01*
X14083762Y-12763238D02*
X14093286Y-12772762D01*
X14093286Y-12772762D02*
X14102810Y-12791809D01*
X14102810Y-12791809D02*
X14102810Y-12839428D01*
X14102810Y-12839428D02*
X14093286Y-12858476D01*
X14093286Y-12858476D02*
X14083762Y-12868000D01*
X14083762Y-12868000D02*
X14064714Y-12877524D01*
X14064714Y-12877524D02*
X14017095Y-12877524D01*
X14017095Y-12877524D02*
X13998048Y-12868000D01*
X13998048Y-12868000D02*
X13988524Y-12858476D01*
X14274238Y-12744190D02*
X14274238Y-12877524D01*
X14226619Y-12668000D02*
X14179000Y-12810857D01*
X14179000Y-12810857D02*
X14302810Y-12810857D01*
X14369476Y-12677524D02*
X14369476Y-12715619D01*
X14445667Y-12677524D02*
X14445667Y-12715619D01*
X14740905Y-12953714D02*
X14731381Y-12944190D01*
X14731381Y-12944190D02*
X14712333Y-12915619D01*
X14712333Y-12915619D02*
X14702810Y-12896571D01*
X14702810Y-12896571D02*
X14693286Y-12868000D01*
X14693286Y-12868000D02*
X14683762Y-12820381D01*
X14683762Y-12820381D02*
X14683762Y-12782286D01*
X14683762Y-12782286D02*
X14693286Y-12734667D01*
X14693286Y-12734667D02*
X14702810Y-12706095D01*
X14702810Y-12706095D02*
X14712333Y-12687048D01*
X14712333Y-12687048D02*
X14731381Y-12658476D01*
X14731381Y-12658476D02*
X14740905Y-12648952D01*
X14807572Y-12696571D02*
X14817095Y-12687048D01*
X14817095Y-12687048D02*
X14836143Y-12677524D01*
X14836143Y-12677524D02*
X14883762Y-12677524D01*
X14883762Y-12677524D02*
X14902810Y-12687048D01*
X14902810Y-12687048D02*
X14912333Y-12696571D01*
X14912333Y-12696571D02*
X14921857Y-12715619D01*
X14921857Y-12715619D02*
X14921857Y-12734667D01*
X14921857Y-12734667D02*
X14912333Y-12763238D01*
X14912333Y-12763238D02*
X14798048Y-12877524D01*
X14798048Y-12877524D02*
X14921857Y-12877524D01*
X15159953Y-12877524D02*
X15159953Y-12677524D01*
X15245667Y-12877524D02*
X15245667Y-12772762D01*
X15245667Y-12772762D02*
X15236143Y-12753714D01*
X15236143Y-12753714D02*
X15217095Y-12744190D01*
X15217095Y-12744190D02*
X15188524Y-12744190D01*
X15188524Y-12744190D02*
X15169476Y-12753714D01*
X15169476Y-12753714D02*
X15159953Y-12763238D01*
X15369476Y-12877524D02*
X15350429Y-12868000D01*
X15350429Y-12868000D02*
X15340905Y-12858476D01*
X15340905Y-12858476D02*
X15331381Y-12839428D01*
X15331381Y-12839428D02*
X15331381Y-12782286D01*
X15331381Y-12782286D02*
X15340905Y-12763238D01*
X15340905Y-12763238D02*
X15350429Y-12753714D01*
X15350429Y-12753714D02*
X15369476Y-12744190D01*
X15369476Y-12744190D02*
X15398048Y-12744190D01*
X15398048Y-12744190D02*
X15417095Y-12753714D01*
X15417095Y-12753714D02*
X15426619Y-12763238D01*
X15426619Y-12763238D02*
X15436143Y-12782286D01*
X15436143Y-12782286D02*
X15436143Y-12839428D01*
X15436143Y-12839428D02*
X15426619Y-12858476D01*
X15426619Y-12858476D02*
X15417095Y-12868000D01*
X15417095Y-12868000D02*
X15398048Y-12877524D01*
X15398048Y-12877524D02*
X15369476Y-12877524D01*
X15550429Y-12877524D02*
X15531381Y-12868000D01*
X15531381Y-12868000D02*
X15521857Y-12848952D01*
X15521857Y-12848952D02*
X15521857Y-12677524D01*
X15702810Y-12868000D02*
X15683762Y-12877524D01*
X15683762Y-12877524D02*
X15645667Y-12877524D01*
X15645667Y-12877524D02*
X15626619Y-12868000D01*
X15626619Y-12868000D02*
X15617095Y-12848952D01*
X15617095Y-12848952D02*
X15617095Y-12772762D01*
X15617095Y-12772762D02*
X15626619Y-12753714D01*
X15626619Y-12753714D02*
X15645667Y-12744190D01*
X15645667Y-12744190D02*
X15683762Y-12744190D01*
X15683762Y-12744190D02*
X15702810Y-12753714D01*
X15702810Y-12753714D02*
X15712334Y-12772762D01*
X15712334Y-12772762D02*
X15712334Y-12791809D01*
X15712334Y-12791809D02*
X15617095Y-12810857D01*
X15788524Y-12868000D02*
X15807572Y-12877524D01*
X15807572Y-12877524D02*
X15845667Y-12877524D01*
X15845667Y-12877524D02*
X15864715Y-12868000D01*
X15864715Y-12868000D02*
X15874238Y-12848952D01*
X15874238Y-12848952D02*
X15874238Y-12839428D01*
X15874238Y-12839428D02*
X15864715Y-12820381D01*
X15864715Y-12820381D02*
X15845667Y-12810857D01*
X15845667Y-12810857D02*
X15817095Y-12810857D01*
X15817095Y-12810857D02*
X15798048Y-12801333D01*
X15798048Y-12801333D02*
X15788524Y-12782286D01*
X15788524Y-12782286D02*
X15788524Y-12772762D01*
X15788524Y-12772762D02*
X15798048Y-12753714D01*
X15798048Y-12753714D02*
X15817095Y-12744190D01*
X15817095Y-12744190D02*
X15845667Y-12744190D01*
X15845667Y-12744190D02*
X15864715Y-12753714D01*
X15940905Y-12953714D02*
X15950429Y-12944190D01*
X15950429Y-12944190D02*
X15969476Y-12915619D01*
X15969476Y-12915619D02*
X15979000Y-12896571D01*
X15979000Y-12896571D02*
X15988524Y-12868000D01*
X15988524Y-12868000D02*
X15998048Y-12820381D01*
X15998048Y-12820381D02*
X15998048Y-12782286D01*
X15998048Y-12782286D02*
X15988524Y-12734667D01*
X15988524Y-12734667D02*
X15979000Y-12706095D01*
X15979000Y-12706095D02*
X15969476Y-12687048D01*
X15969476Y-12687048D02*
X15950429Y-12658476D01*
X15950429Y-12658476D02*
X15940905Y-12648952D01*
X16302810Y-12953714D02*
X16293286Y-12944190D01*
X16293286Y-12944190D02*
X16274238Y-12915619D01*
X16274238Y-12915619D02*
X16264715Y-12896571D01*
X16264715Y-12896571D02*
X16255191Y-12868000D01*
X16255191Y-12868000D02*
X16245667Y-12820381D01*
X16245667Y-12820381D02*
X16245667Y-12782286D01*
X16245667Y-12782286D02*
X16255191Y-12734667D01*
X16255191Y-12734667D02*
X16264715Y-12706095D01*
X16264715Y-12706095D02*
X16274238Y-12687048D01*
X16274238Y-12687048D02*
X16293286Y-12658476D01*
X16293286Y-12658476D02*
X16302810Y-12648952D01*
X16379000Y-12744190D02*
X16379000Y-12877524D01*
X16379000Y-12763238D02*
X16388524Y-12753714D01*
X16388524Y-12753714D02*
X16407572Y-12744190D01*
X16407572Y-12744190D02*
X16436143Y-12744190D01*
X16436143Y-12744190D02*
X16455191Y-12753714D01*
X16455191Y-12753714D02*
X16464715Y-12772762D01*
X16464715Y-12772762D02*
X16464715Y-12877524D01*
X16588524Y-12877524D02*
X16569476Y-12868000D01*
X16569476Y-12868000D02*
X16559953Y-12858476D01*
X16559953Y-12858476D02*
X16550429Y-12839428D01*
X16550429Y-12839428D02*
X16550429Y-12782286D01*
X16550429Y-12782286D02*
X16559953Y-12763238D01*
X16559953Y-12763238D02*
X16569476Y-12753714D01*
X16569476Y-12753714D02*
X16588524Y-12744190D01*
X16588524Y-12744190D02*
X16617096Y-12744190D01*
X16617096Y-12744190D02*
X16636143Y-12753714D01*
X16636143Y-12753714D02*
X16645667Y-12763238D01*
X16645667Y-12763238D02*
X16655191Y-12782286D01*
X16655191Y-12782286D02*
X16655191Y-12839428D01*
X16655191Y-12839428D02*
X16645667Y-12858476D01*
X16645667Y-12858476D02*
X16636143Y-12868000D01*
X16636143Y-12868000D02*
X16617096Y-12877524D01*
X16617096Y-12877524D02*
X16588524Y-12877524D01*
X16712334Y-12744190D02*
X16788524Y-12744190D01*
X16740905Y-12677524D02*
X16740905Y-12848952D01*
X16740905Y-12848952D02*
X16750429Y-12868000D01*
X16750429Y-12868000D02*
X16769476Y-12877524D01*
X16769476Y-12877524D02*
X16788524Y-12877524D01*
X17007572Y-12744190D02*
X17007572Y-12944190D01*
X17007572Y-12753714D02*
X17026619Y-12744190D01*
X17026619Y-12744190D02*
X17064715Y-12744190D01*
X17064715Y-12744190D02*
X17083762Y-12753714D01*
X17083762Y-12753714D02*
X17093286Y-12763238D01*
X17093286Y-12763238D02*
X17102810Y-12782286D01*
X17102810Y-12782286D02*
X17102810Y-12839428D01*
X17102810Y-12839428D02*
X17093286Y-12858476D01*
X17093286Y-12858476D02*
X17083762Y-12868000D01*
X17083762Y-12868000D02*
X17064715Y-12877524D01*
X17064715Y-12877524D02*
X17026619Y-12877524D01*
X17026619Y-12877524D02*
X17007572Y-12868000D01*
X17217096Y-12877524D02*
X17198048Y-12868000D01*
X17198048Y-12868000D02*
X17188524Y-12848952D01*
X17188524Y-12848952D02*
X17188524Y-12677524D01*
X17379000Y-12877524D02*
X17379000Y-12772762D01*
X17379000Y-12772762D02*
X17369477Y-12753714D01*
X17369477Y-12753714D02*
X17350429Y-12744190D01*
X17350429Y-12744190D02*
X17312334Y-12744190D01*
X17312334Y-12744190D02*
X17293286Y-12753714D01*
X17379000Y-12868000D02*
X17359953Y-12877524D01*
X17359953Y-12877524D02*
X17312334Y-12877524D01*
X17312334Y-12877524D02*
X17293286Y-12868000D01*
X17293286Y-12868000D02*
X17283762Y-12848952D01*
X17283762Y-12848952D02*
X17283762Y-12829905D01*
X17283762Y-12829905D02*
X17293286Y-12810857D01*
X17293286Y-12810857D02*
X17312334Y-12801333D01*
X17312334Y-12801333D02*
X17359953Y-12801333D01*
X17359953Y-12801333D02*
X17379000Y-12791809D01*
X17445667Y-12744190D02*
X17521858Y-12744190D01*
X17474239Y-12677524D02*
X17474239Y-12848952D01*
X17474239Y-12848952D02*
X17483762Y-12868000D01*
X17483762Y-12868000D02*
X17502810Y-12877524D01*
X17502810Y-12877524D02*
X17521858Y-12877524D01*
X17664715Y-12868000D02*
X17645667Y-12877524D01*
X17645667Y-12877524D02*
X17607572Y-12877524D01*
X17607572Y-12877524D02*
X17588524Y-12868000D01*
X17588524Y-12868000D02*
X17579000Y-12848952D01*
X17579000Y-12848952D02*
X17579000Y-12772762D01*
X17579000Y-12772762D02*
X17588524Y-12753714D01*
X17588524Y-12753714D02*
X17607572Y-12744190D01*
X17607572Y-12744190D02*
X17645667Y-12744190D01*
X17645667Y-12744190D02*
X17664715Y-12753714D01*
X17664715Y-12753714D02*
X17674239Y-12772762D01*
X17674239Y-12772762D02*
X17674239Y-12791809D01*
X17674239Y-12791809D02*
X17579000Y-12810857D01*
X17845667Y-12877524D02*
X17845667Y-12677524D01*
X17845667Y-12868000D02*
X17826620Y-12877524D01*
X17826620Y-12877524D02*
X17788524Y-12877524D01*
X17788524Y-12877524D02*
X17769477Y-12868000D01*
X17769477Y-12868000D02*
X17759953Y-12858476D01*
X17759953Y-12858476D02*
X17750429Y-12839428D01*
X17750429Y-12839428D02*
X17750429Y-12782286D01*
X17750429Y-12782286D02*
X17759953Y-12763238D01*
X17759953Y-12763238D02*
X17769477Y-12753714D01*
X17769477Y-12753714D02*
X17788524Y-12744190D01*
X17788524Y-12744190D02*
X17826620Y-12744190D01*
X17826620Y-12744190D02*
X17845667Y-12753714D01*
X17921858Y-12953714D02*
X17931381Y-12944190D01*
X17931381Y-12944190D02*
X17950429Y-12915619D01*
X17950429Y-12915619D02*
X17959953Y-12896571D01*
X17959953Y-12896571D02*
X17969477Y-12868000D01*
X17969477Y-12868000D02*
X17979000Y-12820381D01*
X17979000Y-12820381D02*
X17979000Y-12782286D01*
X17979000Y-12782286D02*
X17969477Y-12734667D01*
X17969477Y-12734667D02*
X17959953Y-12706095D01*
X17959953Y-12706095D02*
X17950429Y-12687048D01*
X17950429Y-12687048D02*
X17931381Y-12658476D01*
X17931381Y-12658476D02*
X17921858Y-12648952D01*
D12*
X11179000Y-13049000D02*
G75*
G03*
X11179000Y-13049000I-60000J0D01*
G01*
D10*
X11531381Y-13141524D02*
X11417095Y-13141524D01*
X11474238Y-13141524D02*
X11474238Y-12941524D01*
X11474238Y-12941524D02*
X11455190Y-12970095D01*
X11455190Y-12970095D02*
X11436143Y-12989143D01*
X11436143Y-12989143D02*
X11417095Y-12998667D01*
X11617095Y-13122476D02*
X11626619Y-13132000D01*
X11626619Y-13132000D02*
X11617095Y-13141524D01*
X11617095Y-13141524D02*
X11607571Y-13132000D01*
X11607571Y-13132000D02*
X11617095Y-13122476D01*
X11617095Y-13122476D02*
X11617095Y-13141524D01*
X11702809Y-12960571D02*
X11712333Y-12951048D01*
X11712333Y-12951048D02*
X11731381Y-12941524D01*
X11731381Y-12941524D02*
X11779000Y-12941524D01*
X11779000Y-12941524D02*
X11798047Y-12951048D01*
X11798047Y-12951048D02*
X11807571Y-12960571D01*
X11807571Y-12960571D02*
X11817095Y-12979619D01*
X11817095Y-12979619D02*
X11817095Y-12998667D01*
X11817095Y-12998667D02*
X11807571Y-13027238D01*
X11807571Y-13027238D02*
X11693286Y-13141524D01*
X11693286Y-13141524D02*
X11817095Y-13141524D01*
X11940905Y-12941524D02*
X11959952Y-12941524D01*
X11959952Y-12941524D02*
X11979000Y-12951048D01*
X11979000Y-12951048D02*
X11988524Y-12960571D01*
X11988524Y-12960571D02*
X11998047Y-12979619D01*
X11998047Y-12979619D02*
X12007571Y-13017714D01*
X12007571Y-13017714D02*
X12007571Y-13065333D01*
X12007571Y-13065333D02*
X11998047Y-13103428D01*
X11998047Y-13103428D02*
X11988524Y-13122476D01*
X11988524Y-13122476D02*
X11979000Y-13132000D01*
X11979000Y-13132000D02*
X11959952Y-13141524D01*
X11959952Y-13141524D02*
X11940905Y-13141524D01*
X11940905Y-13141524D02*
X11921857Y-13132000D01*
X11921857Y-13132000D02*
X11912333Y-13122476D01*
X11912333Y-13122476D02*
X11902809Y-13103428D01*
X11902809Y-13103428D02*
X11893286Y-13065333D01*
X11893286Y-13065333D02*
X11893286Y-13017714D01*
X11893286Y-13017714D02*
X11902809Y-12979619D01*
X11902809Y-12979619D02*
X11912333Y-12960571D01*
X11912333Y-12960571D02*
X11921857Y-12951048D01*
X11921857Y-12951048D02*
X11940905Y-12941524D01*
X12131381Y-12941524D02*
X12150428Y-12941524D01*
X12150428Y-12941524D02*
X12169476Y-12951048D01*
X12169476Y-12951048D02*
X12179000Y-12960571D01*
X12179000Y-12960571D02*
X12188524Y-12979619D01*
X12188524Y-12979619D02*
X12198047Y-13017714D01*
X12198047Y-13017714D02*
X12198047Y-13065333D01*
X12198047Y-13065333D02*
X12188524Y-13103428D01*
X12188524Y-13103428D02*
X12179000Y-13122476D01*
X12179000Y-13122476D02*
X12169476Y-13132000D01*
X12169476Y-13132000D02*
X12150428Y-13141524D01*
X12150428Y-13141524D02*
X12131381Y-13141524D01*
X12131381Y-13141524D02*
X12112333Y-13132000D01*
X12112333Y-13132000D02*
X12102809Y-13122476D01*
X12102809Y-13122476D02*
X12093286Y-13103428D01*
X12093286Y-13103428D02*
X12083762Y-13065333D01*
X12083762Y-13065333D02*
X12083762Y-13017714D01*
X12083762Y-13017714D02*
X12093286Y-12979619D01*
X12093286Y-12979619D02*
X12102809Y-12960571D01*
X12102809Y-12960571D02*
X12112333Y-12951048D01*
X12112333Y-12951048D02*
X12131381Y-12941524D01*
X12283762Y-13141524D02*
X12283762Y-13008190D01*
X12283762Y-13027238D02*
X12293286Y-13017714D01*
X12293286Y-13017714D02*
X12312333Y-13008190D01*
X12312333Y-13008190D02*
X12340905Y-13008190D01*
X12340905Y-13008190D02*
X12359952Y-13017714D01*
X12359952Y-13017714D02*
X12369476Y-13036762D01*
X12369476Y-13036762D02*
X12369476Y-13141524D01*
X12369476Y-13036762D02*
X12379000Y-13017714D01*
X12379000Y-13017714D02*
X12398047Y-13008190D01*
X12398047Y-13008190D02*
X12426619Y-13008190D01*
X12426619Y-13008190D02*
X12445667Y-13017714D01*
X12445667Y-13017714D02*
X12455190Y-13036762D01*
X12455190Y-13036762D02*
X12455190Y-13141524D01*
X12550428Y-13141524D02*
X12550428Y-13008190D01*
X12550428Y-13027238D02*
X12559952Y-13017714D01*
X12559952Y-13017714D02*
X12579000Y-13008190D01*
X12579000Y-13008190D02*
X12607571Y-13008190D01*
X12607571Y-13008190D02*
X12626619Y-13017714D01*
X12626619Y-13017714D02*
X12636143Y-13036762D01*
X12636143Y-13036762D02*
X12636143Y-13141524D01*
X12636143Y-13036762D02*
X12645667Y-13017714D01*
X12645667Y-13017714D02*
X12664714Y-13008190D01*
X12664714Y-13008190D02*
X12693286Y-13008190D01*
X12693286Y-13008190D02*
X12712333Y-13017714D01*
X12712333Y-13017714D02*
X12721857Y-13036762D01*
X12721857Y-13036762D02*
X12721857Y-13141524D01*
X13112333Y-12932000D02*
X12940905Y-13189143D01*
X13369476Y-12941524D02*
X13388524Y-12941524D01*
X13388524Y-12941524D02*
X13407571Y-12951048D01*
X13407571Y-12951048D02*
X13417095Y-12960571D01*
X13417095Y-12960571D02*
X13426619Y-12979619D01*
X13426619Y-12979619D02*
X13436143Y-13017714D01*
X13436143Y-13017714D02*
X13436143Y-13065333D01*
X13436143Y-13065333D02*
X13426619Y-13103428D01*
X13426619Y-13103428D02*
X13417095Y-13122476D01*
X13417095Y-13122476D02*
X13407571Y-13132000D01*
X13407571Y-13132000D02*
X13388524Y-13141524D01*
X13388524Y-13141524D02*
X13369476Y-13141524D01*
X13369476Y-13141524D02*
X13350429Y-13132000D01*
X13350429Y-13132000D02*
X13340905Y-13122476D01*
X13340905Y-13122476D02*
X13331381Y-13103428D01*
X13331381Y-13103428D02*
X13321857Y-13065333D01*
X13321857Y-13065333D02*
X13321857Y-13017714D01*
X13321857Y-13017714D02*
X13331381Y-12979619D01*
X13331381Y-12979619D02*
X13340905Y-12960571D01*
X13340905Y-12960571D02*
X13350429Y-12951048D01*
X13350429Y-12951048D02*
X13369476Y-12941524D01*
X13521857Y-13122476D02*
X13531381Y-13132000D01*
X13531381Y-13132000D02*
X13521857Y-13141524D01*
X13521857Y-13141524D02*
X13512333Y-13132000D01*
X13512333Y-13132000D02*
X13521857Y-13122476D01*
X13521857Y-13122476D02*
X13521857Y-13141524D01*
X13655190Y-12941524D02*
X13674238Y-12941524D01*
X13674238Y-12941524D02*
X13693286Y-12951048D01*
X13693286Y-12951048D02*
X13702810Y-12960571D01*
X13702810Y-12960571D02*
X13712333Y-12979619D01*
X13712333Y-12979619D02*
X13721857Y-13017714D01*
X13721857Y-13017714D02*
X13721857Y-13065333D01*
X13721857Y-13065333D02*
X13712333Y-13103428D01*
X13712333Y-13103428D02*
X13702810Y-13122476D01*
X13702810Y-13122476D02*
X13693286Y-13132000D01*
X13693286Y-13132000D02*
X13674238Y-13141524D01*
X13674238Y-13141524D02*
X13655190Y-13141524D01*
X13655190Y-13141524D02*
X13636143Y-13132000D01*
X13636143Y-13132000D02*
X13626619Y-13122476D01*
X13626619Y-13122476D02*
X13617095Y-13103428D01*
X13617095Y-13103428D02*
X13607571Y-13065333D01*
X13607571Y-13065333D02*
X13607571Y-13017714D01*
X13607571Y-13017714D02*
X13617095Y-12979619D01*
X13617095Y-12979619D02*
X13626619Y-12960571D01*
X13626619Y-12960571D02*
X13636143Y-12951048D01*
X13636143Y-12951048D02*
X13655190Y-12941524D01*
X13893286Y-13008190D02*
X13893286Y-13141524D01*
X13845667Y-12932000D02*
X13798048Y-13074857D01*
X13798048Y-13074857D02*
X13921857Y-13074857D01*
X13979000Y-12941524D02*
X14112333Y-12941524D01*
X14112333Y-12941524D02*
X14026619Y-13141524D01*
X14179000Y-12960571D02*
X14188524Y-12951048D01*
X14188524Y-12951048D02*
X14207571Y-12941524D01*
X14207571Y-12941524D02*
X14255191Y-12941524D01*
X14255191Y-12941524D02*
X14274238Y-12951048D01*
X14274238Y-12951048D02*
X14283762Y-12960571D01*
X14283762Y-12960571D02*
X14293286Y-12979619D01*
X14293286Y-12979619D02*
X14293286Y-12998667D01*
X14293286Y-12998667D02*
X14283762Y-13027238D01*
X14283762Y-13027238D02*
X14169476Y-13141524D01*
X14169476Y-13141524D02*
X14293286Y-13141524D01*
X14369476Y-12941524D02*
X14369476Y-12979619D01*
X14445667Y-12941524D02*
X14445667Y-12979619D01*
X14740905Y-13217714D02*
X14731381Y-13208190D01*
X14731381Y-13208190D02*
X14712333Y-13179619D01*
X14712333Y-13179619D02*
X14702810Y-13160571D01*
X14702810Y-13160571D02*
X14693286Y-13132000D01*
X14693286Y-13132000D02*
X14683762Y-13084381D01*
X14683762Y-13084381D02*
X14683762Y-13046286D01*
X14683762Y-13046286D02*
X14693286Y-12998667D01*
X14693286Y-12998667D02*
X14702810Y-12970095D01*
X14702810Y-12970095D02*
X14712333Y-12951048D01*
X14712333Y-12951048D02*
X14731381Y-12922476D01*
X14731381Y-12922476D02*
X14740905Y-12912952D01*
X14826619Y-13141524D02*
X14864714Y-13141524D01*
X14864714Y-13141524D02*
X14883762Y-13132000D01*
X14883762Y-13132000D02*
X14893286Y-13122476D01*
X14893286Y-13122476D02*
X14912333Y-13093905D01*
X14912333Y-13093905D02*
X14921857Y-13055809D01*
X14921857Y-13055809D02*
X14921857Y-12979619D01*
X14921857Y-12979619D02*
X14912333Y-12960571D01*
X14912333Y-12960571D02*
X14902810Y-12951048D01*
X14902810Y-12951048D02*
X14883762Y-12941524D01*
X14883762Y-12941524D02*
X14845667Y-12941524D01*
X14845667Y-12941524D02*
X14826619Y-12951048D01*
X14826619Y-12951048D02*
X14817095Y-12960571D01*
X14817095Y-12960571D02*
X14807572Y-12979619D01*
X14807572Y-12979619D02*
X14807572Y-13027238D01*
X14807572Y-13027238D02*
X14817095Y-13046286D01*
X14817095Y-13046286D02*
X14826619Y-13055809D01*
X14826619Y-13055809D02*
X14845667Y-13065333D01*
X14845667Y-13065333D02*
X14883762Y-13065333D01*
X14883762Y-13065333D02*
X14902810Y-13055809D01*
X14902810Y-13055809D02*
X14912333Y-13046286D01*
X14912333Y-13046286D02*
X14921857Y-13027238D01*
X15159953Y-13141524D02*
X15159953Y-12941524D01*
X15245667Y-13141524D02*
X15245667Y-13036762D01*
X15245667Y-13036762D02*
X15236143Y-13017714D01*
X15236143Y-13017714D02*
X15217095Y-13008190D01*
X15217095Y-13008190D02*
X15188524Y-13008190D01*
X15188524Y-13008190D02*
X15169476Y-13017714D01*
X15169476Y-13017714D02*
X15159953Y-13027238D01*
X15369476Y-13141524D02*
X15350429Y-13132000D01*
X15350429Y-13132000D02*
X15340905Y-13122476D01*
X15340905Y-13122476D02*
X15331381Y-13103428D01*
X15331381Y-13103428D02*
X15331381Y-13046286D01*
X15331381Y-13046286D02*
X15340905Y-13027238D01*
X15340905Y-13027238D02*
X15350429Y-13017714D01*
X15350429Y-13017714D02*
X15369476Y-13008190D01*
X15369476Y-13008190D02*
X15398048Y-13008190D01*
X15398048Y-13008190D02*
X15417095Y-13017714D01*
X15417095Y-13017714D02*
X15426619Y-13027238D01*
X15426619Y-13027238D02*
X15436143Y-13046286D01*
X15436143Y-13046286D02*
X15436143Y-13103428D01*
X15436143Y-13103428D02*
X15426619Y-13122476D01*
X15426619Y-13122476D02*
X15417095Y-13132000D01*
X15417095Y-13132000D02*
X15398048Y-13141524D01*
X15398048Y-13141524D02*
X15369476Y-13141524D01*
X15550429Y-13141524D02*
X15531381Y-13132000D01*
X15531381Y-13132000D02*
X15521857Y-13112952D01*
X15521857Y-13112952D02*
X15521857Y-12941524D01*
X15702810Y-13132000D02*
X15683762Y-13141524D01*
X15683762Y-13141524D02*
X15645667Y-13141524D01*
X15645667Y-13141524D02*
X15626619Y-13132000D01*
X15626619Y-13132000D02*
X15617095Y-13112952D01*
X15617095Y-13112952D02*
X15617095Y-13036762D01*
X15617095Y-13036762D02*
X15626619Y-13017714D01*
X15626619Y-13017714D02*
X15645667Y-13008190D01*
X15645667Y-13008190D02*
X15683762Y-13008190D01*
X15683762Y-13008190D02*
X15702810Y-13017714D01*
X15702810Y-13017714D02*
X15712334Y-13036762D01*
X15712334Y-13036762D02*
X15712334Y-13055809D01*
X15712334Y-13055809D02*
X15617095Y-13074857D01*
X15788524Y-13132000D02*
X15807572Y-13141524D01*
X15807572Y-13141524D02*
X15845667Y-13141524D01*
X15845667Y-13141524D02*
X15864715Y-13132000D01*
X15864715Y-13132000D02*
X15874238Y-13112952D01*
X15874238Y-13112952D02*
X15874238Y-13103428D01*
X15874238Y-13103428D02*
X15864715Y-13084381D01*
X15864715Y-13084381D02*
X15845667Y-13074857D01*
X15845667Y-13074857D02*
X15817095Y-13074857D01*
X15817095Y-13074857D02*
X15798048Y-13065333D01*
X15798048Y-13065333D02*
X15788524Y-13046286D01*
X15788524Y-13046286D02*
X15788524Y-13036762D01*
X15788524Y-13036762D02*
X15798048Y-13017714D01*
X15798048Y-13017714D02*
X15817095Y-13008190D01*
X15817095Y-13008190D02*
X15845667Y-13008190D01*
X15845667Y-13008190D02*
X15864715Y-13017714D01*
X15940905Y-13217714D02*
X15950429Y-13208190D01*
X15950429Y-13208190D02*
X15969476Y-13179619D01*
X15969476Y-13179619D02*
X15979000Y-13160571D01*
X15979000Y-13160571D02*
X15988524Y-13132000D01*
X15988524Y-13132000D02*
X15998048Y-13084381D01*
X15998048Y-13084381D02*
X15998048Y-13046286D01*
X15998048Y-13046286D02*
X15988524Y-12998667D01*
X15988524Y-12998667D02*
X15979000Y-12970095D01*
X15979000Y-12970095D02*
X15969476Y-12951048D01*
X15969476Y-12951048D02*
X15950429Y-12922476D01*
X15950429Y-12922476D02*
X15940905Y-12912952D01*
X16302810Y-13217714D02*
X16293286Y-13208190D01*
X16293286Y-13208190D02*
X16274238Y-13179619D01*
X16274238Y-13179619D02*
X16264715Y-13160571D01*
X16264715Y-13160571D02*
X16255191Y-13132000D01*
X16255191Y-13132000D02*
X16245667Y-13084381D01*
X16245667Y-13084381D02*
X16245667Y-13046286D01*
X16245667Y-13046286D02*
X16255191Y-12998667D01*
X16255191Y-12998667D02*
X16264715Y-12970095D01*
X16264715Y-12970095D02*
X16274238Y-12951048D01*
X16274238Y-12951048D02*
X16293286Y-12922476D01*
X16293286Y-12922476D02*
X16302810Y-12912952D01*
X16379000Y-13008190D02*
X16379000Y-13141524D01*
X16379000Y-13027238D02*
X16388524Y-13017714D01*
X16388524Y-13017714D02*
X16407572Y-13008190D01*
X16407572Y-13008190D02*
X16436143Y-13008190D01*
X16436143Y-13008190D02*
X16455191Y-13017714D01*
X16455191Y-13017714D02*
X16464715Y-13036762D01*
X16464715Y-13036762D02*
X16464715Y-13141524D01*
X16588524Y-13141524D02*
X16569476Y-13132000D01*
X16569476Y-13132000D02*
X16559953Y-13122476D01*
X16559953Y-13122476D02*
X16550429Y-13103428D01*
X16550429Y-13103428D02*
X16550429Y-13046286D01*
X16550429Y-13046286D02*
X16559953Y-13027238D01*
X16559953Y-13027238D02*
X16569476Y-13017714D01*
X16569476Y-13017714D02*
X16588524Y-13008190D01*
X16588524Y-13008190D02*
X16617096Y-13008190D01*
X16617096Y-13008190D02*
X16636143Y-13017714D01*
X16636143Y-13017714D02*
X16645667Y-13027238D01*
X16645667Y-13027238D02*
X16655191Y-13046286D01*
X16655191Y-13046286D02*
X16655191Y-13103428D01*
X16655191Y-13103428D02*
X16645667Y-13122476D01*
X16645667Y-13122476D02*
X16636143Y-13132000D01*
X16636143Y-13132000D02*
X16617096Y-13141524D01*
X16617096Y-13141524D02*
X16588524Y-13141524D01*
X16712334Y-13008190D02*
X16788524Y-13008190D01*
X16740905Y-12941524D02*
X16740905Y-13112952D01*
X16740905Y-13112952D02*
X16750429Y-13132000D01*
X16750429Y-13132000D02*
X16769476Y-13141524D01*
X16769476Y-13141524D02*
X16788524Y-13141524D01*
X17007572Y-13008190D02*
X17007572Y-13208190D01*
X17007572Y-13017714D02*
X17026619Y-13008190D01*
X17026619Y-13008190D02*
X17064715Y-13008190D01*
X17064715Y-13008190D02*
X17083762Y-13017714D01*
X17083762Y-13017714D02*
X17093286Y-13027238D01*
X17093286Y-13027238D02*
X17102810Y-13046286D01*
X17102810Y-13046286D02*
X17102810Y-13103428D01*
X17102810Y-13103428D02*
X17093286Y-13122476D01*
X17093286Y-13122476D02*
X17083762Y-13132000D01*
X17083762Y-13132000D02*
X17064715Y-13141524D01*
X17064715Y-13141524D02*
X17026619Y-13141524D01*
X17026619Y-13141524D02*
X17007572Y-13132000D01*
X17217096Y-13141524D02*
X17198048Y-13132000D01*
X17198048Y-13132000D02*
X17188524Y-13112952D01*
X17188524Y-13112952D02*
X17188524Y-12941524D01*
X17379000Y-13141524D02*
X17379000Y-13036762D01*
X17379000Y-13036762D02*
X17369477Y-13017714D01*
X17369477Y-13017714D02*
X17350429Y-13008190D01*
X17350429Y-13008190D02*
X17312334Y-13008190D01*
X17312334Y-13008190D02*
X17293286Y-13017714D01*
X17379000Y-13132000D02*
X17359953Y-13141524D01*
X17359953Y-13141524D02*
X17312334Y-13141524D01*
X17312334Y-13141524D02*
X17293286Y-13132000D01*
X17293286Y-13132000D02*
X17283762Y-13112952D01*
X17283762Y-13112952D02*
X17283762Y-13093905D01*
X17283762Y-13093905D02*
X17293286Y-13074857D01*
X17293286Y-13074857D02*
X17312334Y-13065333D01*
X17312334Y-13065333D02*
X17359953Y-13065333D01*
X17359953Y-13065333D02*
X17379000Y-13055809D01*
X17445667Y-13008190D02*
X17521858Y-13008190D01*
X17474239Y-12941524D02*
X17474239Y-13112952D01*
X17474239Y-13112952D02*
X17483762Y-13132000D01*
X17483762Y-13132000D02*
X17502810Y-13141524D01*
X17502810Y-13141524D02*
X17521858Y-13141524D01*
X17664715Y-13132000D02*
X17645667Y-13141524D01*
X17645667Y-13141524D02*
X17607572Y-13141524D01*
X17607572Y-13141524D02*
X17588524Y-13132000D01*
X17588524Y-13132000D02*
X17579000Y-13112952D01*
X17579000Y-13112952D02*
X17579000Y-13036762D01*
X17579000Y-13036762D02*
X17588524Y-13017714D01*
X17588524Y-13017714D02*
X17607572Y-13008190D01*
X17607572Y-13008190D02*
X17645667Y-13008190D01*
X17645667Y-13008190D02*
X17664715Y-13017714D01*
X17664715Y-13017714D02*
X17674239Y-13036762D01*
X17674239Y-13036762D02*
X17674239Y-13055809D01*
X17674239Y-13055809D02*
X17579000Y-13074857D01*
X17845667Y-13141524D02*
X17845667Y-12941524D01*
X17845667Y-13132000D02*
X17826620Y-13141524D01*
X17826620Y-13141524D02*
X17788524Y-13141524D01*
X17788524Y-13141524D02*
X17769477Y-13132000D01*
X17769477Y-13132000D02*
X17759953Y-13122476D01*
X17759953Y-13122476D02*
X17750429Y-13103428D01*
X17750429Y-13103428D02*
X17750429Y-13046286D01*
X17750429Y-13046286D02*
X17759953Y-13027238D01*
X17759953Y-13027238D02*
X17769477Y-13017714D01*
X17769477Y-13017714D02*
X17788524Y-13008190D01*
X17788524Y-13008190D02*
X17826620Y-13008190D01*
X17826620Y-13008190D02*
X17845667Y-13017714D01*
X17921858Y-13217714D02*
X17931381Y-13208190D01*
X17931381Y-13208190D02*
X17950429Y-13179619D01*
X17950429Y-13179619D02*
X17959953Y-13160571D01*
X17959953Y-13160571D02*
X17969477Y-13132000D01*
X17969477Y-13132000D02*
X17979000Y-13084381D01*
X17979000Y-13084381D02*
X17979000Y-13046286D01*
X17979000Y-13046286D02*
X17969477Y-12998667D01*
X17969477Y-12998667D02*
X17959953Y-12970095D01*
X17959953Y-12970095D02*
X17950429Y-12951048D01*
X17950429Y-12951048D02*
X17931381Y-12922476D01*
X17931381Y-12922476D02*
X17921858Y-12912952D01*
X11079000Y-13213000D02*
X11079000Y-13413000D01*
X10979000Y-13313000D02*
X11179000Y-13313000D01*
X11417095Y-13224571D02*
X11426619Y-13215048D01*
X11426619Y-13215048D02*
X11445666Y-13205524D01*
X11445666Y-13205524D02*
X11493286Y-13205524D01*
X11493286Y-13205524D02*
X11512333Y-13215048D01*
X11512333Y-13215048D02*
X11521857Y-13224571D01*
X11521857Y-13224571D02*
X11531381Y-13243619D01*
X11531381Y-13243619D02*
X11531381Y-13262667D01*
X11531381Y-13262667D02*
X11521857Y-13291238D01*
X11521857Y-13291238D02*
X11407571Y-13405524D01*
X11407571Y-13405524D02*
X11531381Y-13405524D01*
X11617095Y-13386476D02*
X11626619Y-13396000D01*
X11626619Y-13396000D02*
X11617095Y-13405524D01*
X11617095Y-13405524D02*
X11607571Y-13396000D01*
X11607571Y-13396000D02*
X11617095Y-13386476D01*
X11617095Y-13386476D02*
X11617095Y-13405524D01*
X11702809Y-13224571D02*
X11712333Y-13215048D01*
X11712333Y-13215048D02*
X11731381Y-13205524D01*
X11731381Y-13205524D02*
X11779000Y-13205524D01*
X11779000Y-13205524D02*
X11798047Y-13215048D01*
X11798047Y-13215048D02*
X11807571Y-13224571D01*
X11807571Y-13224571D02*
X11817095Y-13243619D01*
X11817095Y-13243619D02*
X11817095Y-13262667D01*
X11817095Y-13262667D02*
X11807571Y-13291238D01*
X11807571Y-13291238D02*
X11693286Y-13405524D01*
X11693286Y-13405524D02*
X11817095Y-13405524D01*
X11940905Y-13205524D02*
X11959952Y-13205524D01*
X11959952Y-13205524D02*
X11979000Y-13215048D01*
X11979000Y-13215048D02*
X11988524Y-13224571D01*
X11988524Y-13224571D02*
X11998047Y-13243619D01*
X11998047Y-13243619D02*
X12007571Y-13281714D01*
X12007571Y-13281714D02*
X12007571Y-13329333D01*
X12007571Y-13329333D02*
X11998047Y-13367428D01*
X11998047Y-13367428D02*
X11988524Y-13386476D01*
X11988524Y-13386476D02*
X11979000Y-13396000D01*
X11979000Y-13396000D02*
X11959952Y-13405524D01*
X11959952Y-13405524D02*
X11940905Y-13405524D01*
X11940905Y-13405524D02*
X11921857Y-13396000D01*
X11921857Y-13396000D02*
X11912333Y-13386476D01*
X11912333Y-13386476D02*
X11902809Y-13367428D01*
X11902809Y-13367428D02*
X11893286Y-13329333D01*
X11893286Y-13329333D02*
X11893286Y-13281714D01*
X11893286Y-13281714D02*
X11902809Y-13243619D01*
X11902809Y-13243619D02*
X11912333Y-13224571D01*
X11912333Y-13224571D02*
X11921857Y-13215048D01*
X11921857Y-13215048D02*
X11940905Y-13205524D01*
X12131381Y-13205524D02*
X12150428Y-13205524D01*
X12150428Y-13205524D02*
X12169476Y-13215048D01*
X12169476Y-13215048D02*
X12179000Y-13224571D01*
X12179000Y-13224571D02*
X12188524Y-13243619D01*
X12188524Y-13243619D02*
X12198047Y-13281714D01*
X12198047Y-13281714D02*
X12198047Y-13329333D01*
X12198047Y-13329333D02*
X12188524Y-13367428D01*
X12188524Y-13367428D02*
X12179000Y-13386476D01*
X12179000Y-13386476D02*
X12169476Y-13396000D01*
X12169476Y-13396000D02*
X12150428Y-13405524D01*
X12150428Y-13405524D02*
X12131381Y-13405524D01*
X12131381Y-13405524D02*
X12112333Y-13396000D01*
X12112333Y-13396000D02*
X12102809Y-13386476D01*
X12102809Y-13386476D02*
X12093286Y-13367428D01*
X12093286Y-13367428D02*
X12083762Y-13329333D01*
X12083762Y-13329333D02*
X12083762Y-13281714D01*
X12083762Y-13281714D02*
X12093286Y-13243619D01*
X12093286Y-13243619D02*
X12102809Y-13224571D01*
X12102809Y-13224571D02*
X12112333Y-13215048D01*
X12112333Y-13215048D02*
X12131381Y-13205524D01*
X12283762Y-13405524D02*
X12283762Y-13272190D01*
X12283762Y-13291238D02*
X12293286Y-13281714D01*
X12293286Y-13281714D02*
X12312333Y-13272190D01*
X12312333Y-13272190D02*
X12340905Y-13272190D01*
X12340905Y-13272190D02*
X12359952Y-13281714D01*
X12359952Y-13281714D02*
X12369476Y-13300762D01*
X12369476Y-13300762D02*
X12369476Y-13405524D01*
X12369476Y-13300762D02*
X12379000Y-13281714D01*
X12379000Y-13281714D02*
X12398047Y-13272190D01*
X12398047Y-13272190D02*
X12426619Y-13272190D01*
X12426619Y-13272190D02*
X12445667Y-13281714D01*
X12445667Y-13281714D02*
X12455190Y-13300762D01*
X12455190Y-13300762D02*
X12455190Y-13405524D01*
X12550428Y-13405524D02*
X12550428Y-13272190D01*
X12550428Y-13291238D02*
X12559952Y-13281714D01*
X12559952Y-13281714D02*
X12579000Y-13272190D01*
X12579000Y-13272190D02*
X12607571Y-13272190D01*
X12607571Y-13272190D02*
X12626619Y-13281714D01*
X12626619Y-13281714D02*
X12636143Y-13300762D01*
X12636143Y-13300762D02*
X12636143Y-13405524D01*
X12636143Y-13300762D02*
X12645667Y-13281714D01*
X12645667Y-13281714D02*
X12664714Y-13272190D01*
X12664714Y-13272190D02*
X12693286Y-13272190D01*
X12693286Y-13272190D02*
X12712333Y-13281714D01*
X12712333Y-13281714D02*
X12721857Y-13300762D01*
X12721857Y-13300762D02*
X12721857Y-13405524D01*
X13112333Y-13196000D02*
X12940905Y-13453143D01*
X13369476Y-13205524D02*
X13388524Y-13205524D01*
X13388524Y-13205524D02*
X13407571Y-13215048D01*
X13407571Y-13215048D02*
X13417095Y-13224571D01*
X13417095Y-13224571D02*
X13426619Y-13243619D01*
X13426619Y-13243619D02*
X13436143Y-13281714D01*
X13436143Y-13281714D02*
X13436143Y-13329333D01*
X13436143Y-13329333D02*
X13426619Y-13367428D01*
X13426619Y-13367428D02*
X13417095Y-13386476D01*
X13417095Y-13386476D02*
X13407571Y-13396000D01*
X13407571Y-13396000D02*
X13388524Y-13405524D01*
X13388524Y-13405524D02*
X13369476Y-13405524D01*
X13369476Y-13405524D02*
X13350429Y-13396000D01*
X13350429Y-13396000D02*
X13340905Y-13386476D01*
X13340905Y-13386476D02*
X13331381Y-13367428D01*
X13331381Y-13367428D02*
X13321857Y-13329333D01*
X13321857Y-13329333D02*
X13321857Y-13281714D01*
X13321857Y-13281714D02*
X13331381Y-13243619D01*
X13331381Y-13243619D02*
X13340905Y-13224571D01*
X13340905Y-13224571D02*
X13350429Y-13215048D01*
X13350429Y-13215048D02*
X13369476Y-13205524D01*
X13521857Y-13386476D02*
X13531381Y-13396000D01*
X13531381Y-13396000D02*
X13521857Y-13405524D01*
X13521857Y-13405524D02*
X13512333Y-13396000D01*
X13512333Y-13396000D02*
X13521857Y-13386476D01*
X13521857Y-13386476D02*
X13521857Y-13405524D01*
X13655190Y-13205524D02*
X13674238Y-13205524D01*
X13674238Y-13205524D02*
X13693286Y-13215048D01*
X13693286Y-13215048D02*
X13702810Y-13224571D01*
X13702810Y-13224571D02*
X13712333Y-13243619D01*
X13712333Y-13243619D02*
X13721857Y-13281714D01*
X13721857Y-13281714D02*
X13721857Y-13329333D01*
X13721857Y-13329333D02*
X13712333Y-13367428D01*
X13712333Y-13367428D02*
X13702810Y-13386476D01*
X13702810Y-13386476D02*
X13693286Y-13396000D01*
X13693286Y-13396000D02*
X13674238Y-13405524D01*
X13674238Y-13405524D02*
X13655190Y-13405524D01*
X13655190Y-13405524D02*
X13636143Y-13396000D01*
X13636143Y-13396000D02*
X13626619Y-13386476D01*
X13626619Y-13386476D02*
X13617095Y-13367428D01*
X13617095Y-13367428D02*
X13607571Y-13329333D01*
X13607571Y-13329333D02*
X13607571Y-13281714D01*
X13607571Y-13281714D02*
X13617095Y-13243619D01*
X13617095Y-13243619D02*
X13626619Y-13224571D01*
X13626619Y-13224571D02*
X13636143Y-13215048D01*
X13636143Y-13215048D02*
X13655190Y-13205524D01*
X13836143Y-13291238D02*
X13817095Y-13281714D01*
X13817095Y-13281714D02*
X13807571Y-13272190D01*
X13807571Y-13272190D02*
X13798048Y-13253143D01*
X13798048Y-13253143D02*
X13798048Y-13243619D01*
X13798048Y-13243619D02*
X13807571Y-13224571D01*
X13807571Y-13224571D02*
X13817095Y-13215048D01*
X13817095Y-13215048D02*
X13836143Y-13205524D01*
X13836143Y-13205524D02*
X13874238Y-13205524D01*
X13874238Y-13205524D02*
X13893286Y-13215048D01*
X13893286Y-13215048D02*
X13902810Y-13224571D01*
X13902810Y-13224571D02*
X13912333Y-13243619D01*
X13912333Y-13243619D02*
X13912333Y-13253143D01*
X13912333Y-13253143D02*
X13902810Y-13272190D01*
X13902810Y-13272190D02*
X13893286Y-13281714D01*
X13893286Y-13281714D02*
X13874238Y-13291238D01*
X13874238Y-13291238D02*
X13836143Y-13291238D01*
X13836143Y-13291238D02*
X13817095Y-13300762D01*
X13817095Y-13300762D02*
X13807571Y-13310286D01*
X13807571Y-13310286D02*
X13798048Y-13329333D01*
X13798048Y-13329333D02*
X13798048Y-13367428D01*
X13798048Y-13367428D02*
X13807571Y-13386476D01*
X13807571Y-13386476D02*
X13817095Y-13396000D01*
X13817095Y-13396000D02*
X13836143Y-13405524D01*
X13836143Y-13405524D02*
X13874238Y-13405524D01*
X13874238Y-13405524D02*
X13893286Y-13396000D01*
X13893286Y-13396000D02*
X13902810Y-13386476D01*
X13902810Y-13386476D02*
X13912333Y-13367428D01*
X13912333Y-13367428D02*
X13912333Y-13329333D01*
X13912333Y-13329333D02*
X13902810Y-13310286D01*
X13902810Y-13310286D02*
X13893286Y-13300762D01*
X13893286Y-13300762D02*
X13874238Y-13291238D01*
X14083762Y-13205524D02*
X14045667Y-13205524D01*
X14045667Y-13205524D02*
X14026619Y-13215048D01*
X14026619Y-13215048D02*
X14017095Y-13224571D01*
X14017095Y-13224571D02*
X13998048Y-13253143D01*
X13998048Y-13253143D02*
X13988524Y-13291238D01*
X13988524Y-13291238D02*
X13988524Y-13367428D01*
X13988524Y-13367428D02*
X13998048Y-13386476D01*
X13998048Y-13386476D02*
X14007571Y-13396000D01*
X14007571Y-13396000D02*
X14026619Y-13405524D01*
X14026619Y-13405524D02*
X14064714Y-13405524D01*
X14064714Y-13405524D02*
X14083762Y-13396000D01*
X14083762Y-13396000D02*
X14093286Y-13386476D01*
X14093286Y-13386476D02*
X14102810Y-13367428D01*
X14102810Y-13367428D02*
X14102810Y-13319809D01*
X14102810Y-13319809D02*
X14093286Y-13300762D01*
X14093286Y-13300762D02*
X14083762Y-13291238D01*
X14083762Y-13291238D02*
X14064714Y-13281714D01*
X14064714Y-13281714D02*
X14026619Y-13281714D01*
X14026619Y-13281714D02*
X14007571Y-13291238D01*
X14007571Y-13291238D02*
X13998048Y-13300762D01*
X13998048Y-13300762D02*
X13988524Y-13319809D01*
X14274238Y-13205524D02*
X14236143Y-13205524D01*
X14236143Y-13205524D02*
X14217095Y-13215048D01*
X14217095Y-13215048D02*
X14207571Y-13224571D01*
X14207571Y-13224571D02*
X14188524Y-13253143D01*
X14188524Y-13253143D02*
X14179000Y-13291238D01*
X14179000Y-13291238D02*
X14179000Y-13367428D01*
X14179000Y-13367428D02*
X14188524Y-13386476D01*
X14188524Y-13386476D02*
X14198048Y-13396000D01*
X14198048Y-13396000D02*
X14217095Y-13405524D01*
X14217095Y-13405524D02*
X14255191Y-13405524D01*
X14255191Y-13405524D02*
X14274238Y-13396000D01*
X14274238Y-13396000D02*
X14283762Y-13386476D01*
X14283762Y-13386476D02*
X14293286Y-13367428D01*
X14293286Y-13367428D02*
X14293286Y-13319809D01*
X14293286Y-13319809D02*
X14283762Y-13300762D01*
X14283762Y-13300762D02*
X14274238Y-13291238D01*
X14274238Y-13291238D02*
X14255191Y-13281714D01*
X14255191Y-13281714D02*
X14217095Y-13281714D01*
X14217095Y-13281714D02*
X14198048Y-13291238D01*
X14198048Y-13291238D02*
X14188524Y-13300762D01*
X14188524Y-13300762D02*
X14179000Y-13319809D01*
X14369476Y-13205524D02*
X14369476Y-13243619D01*
X14445667Y-13205524D02*
X14445667Y-13243619D01*
X14740905Y-13481714D02*
X14731381Y-13472190D01*
X14731381Y-13472190D02*
X14712333Y-13443619D01*
X14712333Y-13443619D02*
X14702810Y-13424571D01*
X14702810Y-13424571D02*
X14693286Y-13396000D01*
X14693286Y-13396000D02*
X14683762Y-13348381D01*
X14683762Y-13348381D02*
X14683762Y-13310286D01*
X14683762Y-13310286D02*
X14693286Y-13262667D01*
X14693286Y-13262667D02*
X14702810Y-13234095D01*
X14702810Y-13234095D02*
X14712333Y-13215048D01*
X14712333Y-13215048D02*
X14731381Y-13186476D01*
X14731381Y-13186476D02*
X14740905Y-13176952D01*
X14845667Y-13291238D02*
X14826619Y-13281714D01*
X14826619Y-13281714D02*
X14817095Y-13272190D01*
X14817095Y-13272190D02*
X14807572Y-13253143D01*
X14807572Y-13253143D02*
X14807572Y-13243619D01*
X14807572Y-13243619D02*
X14817095Y-13224571D01*
X14817095Y-13224571D02*
X14826619Y-13215048D01*
X14826619Y-13215048D02*
X14845667Y-13205524D01*
X14845667Y-13205524D02*
X14883762Y-13205524D01*
X14883762Y-13205524D02*
X14902810Y-13215048D01*
X14902810Y-13215048D02*
X14912333Y-13224571D01*
X14912333Y-13224571D02*
X14921857Y-13243619D01*
X14921857Y-13243619D02*
X14921857Y-13253143D01*
X14921857Y-13253143D02*
X14912333Y-13272190D01*
X14912333Y-13272190D02*
X14902810Y-13281714D01*
X14902810Y-13281714D02*
X14883762Y-13291238D01*
X14883762Y-13291238D02*
X14845667Y-13291238D01*
X14845667Y-13291238D02*
X14826619Y-13300762D01*
X14826619Y-13300762D02*
X14817095Y-13310286D01*
X14817095Y-13310286D02*
X14807572Y-13329333D01*
X14807572Y-13329333D02*
X14807572Y-13367428D01*
X14807572Y-13367428D02*
X14817095Y-13386476D01*
X14817095Y-13386476D02*
X14826619Y-13396000D01*
X14826619Y-13396000D02*
X14845667Y-13405524D01*
X14845667Y-13405524D02*
X14883762Y-13405524D01*
X14883762Y-13405524D02*
X14902810Y-13396000D01*
X14902810Y-13396000D02*
X14912333Y-13386476D01*
X14912333Y-13386476D02*
X14921857Y-13367428D01*
X14921857Y-13367428D02*
X14921857Y-13329333D01*
X14921857Y-13329333D02*
X14912333Y-13310286D01*
X14912333Y-13310286D02*
X14902810Y-13300762D01*
X14902810Y-13300762D02*
X14883762Y-13291238D01*
X15159953Y-13405524D02*
X15159953Y-13205524D01*
X15245667Y-13405524D02*
X15245667Y-13300762D01*
X15245667Y-13300762D02*
X15236143Y-13281714D01*
X15236143Y-13281714D02*
X15217095Y-13272190D01*
X15217095Y-13272190D02*
X15188524Y-13272190D01*
X15188524Y-13272190D02*
X15169476Y-13281714D01*
X15169476Y-13281714D02*
X15159953Y-13291238D01*
X15369476Y-13405524D02*
X15350429Y-13396000D01*
X15350429Y-13396000D02*
X15340905Y-13386476D01*
X15340905Y-13386476D02*
X15331381Y-13367428D01*
X15331381Y-13367428D02*
X15331381Y-13310286D01*
X15331381Y-13310286D02*
X15340905Y-13291238D01*
X15340905Y-13291238D02*
X15350429Y-13281714D01*
X15350429Y-13281714D02*
X15369476Y-13272190D01*
X15369476Y-13272190D02*
X15398048Y-13272190D01*
X15398048Y-13272190D02*
X15417095Y-13281714D01*
X15417095Y-13281714D02*
X15426619Y-13291238D01*
X15426619Y-13291238D02*
X15436143Y-13310286D01*
X15436143Y-13310286D02*
X15436143Y-13367428D01*
X15436143Y-13367428D02*
X15426619Y-13386476D01*
X15426619Y-13386476D02*
X15417095Y-13396000D01*
X15417095Y-13396000D02*
X15398048Y-13405524D01*
X15398048Y-13405524D02*
X15369476Y-13405524D01*
X15550429Y-13405524D02*
X15531381Y-13396000D01*
X15531381Y-13396000D02*
X15521857Y-13376952D01*
X15521857Y-13376952D02*
X15521857Y-13205524D01*
X15702810Y-13396000D02*
X15683762Y-13405524D01*
X15683762Y-13405524D02*
X15645667Y-13405524D01*
X15645667Y-13405524D02*
X15626619Y-13396000D01*
X15626619Y-13396000D02*
X15617095Y-13376952D01*
X15617095Y-13376952D02*
X15617095Y-13300762D01*
X15617095Y-13300762D02*
X15626619Y-13281714D01*
X15626619Y-13281714D02*
X15645667Y-13272190D01*
X15645667Y-13272190D02*
X15683762Y-13272190D01*
X15683762Y-13272190D02*
X15702810Y-13281714D01*
X15702810Y-13281714D02*
X15712334Y-13300762D01*
X15712334Y-13300762D02*
X15712334Y-13319809D01*
X15712334Y-13319809D02*
X15617095Y-13338857D01*
X15788524Y-13396000D02*
X15807572Y-13405524D01*
X15807572Y-13405524D02*
X15845667Y-13405524D01*
X15845667Y-13405524D02*
X15864715Y-13396000D01*
X15864715Y-13396000D02*
X15874238Y-13376952D01*
X15874238Y-13376952D02*
X15874238Y-13367428D01*
X15874238Y-13367428D02*
X15864715Y-13348381D01*
X15864715Y-13348381D02*
X15845667Y-13338857D01*
X15845667Y-13338857D02*
X15817095Y-13338857D01*
X15817095Y-13338857D02*
X15798048Y-13329333D01*
X15798048Y-13329333D02*
X15788524Y-13310286D01*
X15788524Y-13310286D02*
X15788524Y-13300762D01*
X15788524Y-13300762D02*
X15798048Y-13281714D01*
X15798048Y-13281714D02*
X15817095Y-13272190D01*
X15817095Y-13272190D02*
X15845667Y-13272190D01*
X15845667Y-13272190D02*
X15864715Y-13281714D01*
X15940905Y-13481714D02*
X15950429Y-13472190D01*
X15950429Y-13472190D02*
X15969476Y-13443619D01*
X15969476Y-13443619D02*
X15979000Y-13424571D01*
X15979000Y-13424571D02*
X15988524Y-13396000D01*
X15988524Y-13396000D02*
X15998048Y-13348381D01*
X15998048Y-13348381D02*
X15998048Y-13310286D01*
X15998048Y-13310286D02*
X15988524Y-13262667D01*
X15988524Y-13262667D02*
X15979000Y-13234095D01*
X15979000Y-13234095D02*
X15969476Y-13215048D01*
X15969476Y-13215048D02*
X15950429Y-13186476D01*
X15950429Y-13186476D02*
X15940905Y-13176952D01*
X16302810Y-13481714D02*
X16293286Y-13472190D01*
X16293286Y-13472190D02*
X16274238Y-13443619D01*
X16274238Y-13443619D02*
X16264715Y-13424571D01*
X16264715Y-13424571D02*
X16255191Y-13396000D01*
X16255191Y-13396000D02*
X16245667Y-13348381D01*
X16245667Y-13348381D02*
X16245667Y-13310286D01*
X16245667Y-13310286D02*
X16255191Y-13262667D01*
X16255191Y-13262667D02*
X16264715Y-13234095D01*
X16264715Y-13234095D02*
X16274238Y-13215048D01*
X16274238Y-13215048D02*
X16293286Y-13186476D01*
X16293286Y-13186476D02*
X16302810Y-13176952D01*
X16379000Y-13272190D02*
X16379000Y-13405524D01*
X16379000Y-13291238D02*
X16388524Y-13281714D01*
X16388524Y-13281714D02*
X16407572Y-13272190D01*
X16407572Y-13272190D02*
X16436143Y-13272190D01*
X16436143Y-13272190D02*
X16455191Y-13281714D01*
X16455191Y-13281714D02*
X16464715Y-13300762D01*
X16464715Y-13300762D02*
X16464715Y-13405524D01*
X16588524Y-13405524D02*
X16569476Y-13396000D01*
X16569476Y-13396000D02*
X16559953Y-13386476D01*
X16559953Y-13386476D02*
X16550429Y-13367428D01*
X16550429Y-13367428D02*
X16550429Y-13310286D01*
X16550429Y-13310286D02*
X16559953Y-13291238D01*
X16559953Y-13291238D02*
X16569476Y-13281714D01*
X16569476Y-13281714D02*
X16588524Y-13272190D01*
X16588524Y-13272190D02*
X16617096Y-13272190D01*
X16617096Y-13272190D02*
X16636143Y-13281714D01*
X16636143Y-13281714D02*
X16645667Y-13291238D01*
X16645667Y-13291238D02*
X16655191Y-13310286D01*
X16655191Y-13310286D02*
X16655191Y-13367428D01*
X16655191Y-13367428D02*
X16645667Y-13386476D01*
X16645667Y-13386476D02*
X16636143Y-13396000D01*
X16636143Y-13396000D02*
X16617096Y-13405524D01*
X16617096Y-13405524D02*
X16588524Y-13405524D01*
X16712334Y-13272190D02*
X16788524Y-13272190D01*
X16740905Y-13205524D02*
X16740905Y-13376952D01*
X16740905Y-13376952D02*
X16750429Y-13396000D01*
X16750429Y-13396000D02*
X16769476Y-13405524D01*
X16769476Y-13405524D02*
X16788524Y-13405524D01*
X17007572Y-13272190D02*
X17007572Y-13472190D01*
X17007572Y-13281714D02*
X17026619Y-13272190D01*
X17026619Y-13272190D02*
X17064715Y-13272190D01*
X17064715Y-13272190D02*
X17083762Y-13281714D01*
X17083762Y-13281714D02*
X17093286Y-13291238D01*
X17093286Y-13291238D02*
X17102810Y-13310286D01*
X17102810Y-13310286D02*
X17102810Y-13367428D01*
X17102810Y-13367428D02*
X17093286Y-13386476D01*
X17093286Y-13386476D02*
X17083762Y-13396000D01*
X17083762Y-13396000D02*
X17064715Y-13405524D01*
X17064715Y-13405524D02*
X17026619Y-13405524D01*
X17026619Y-13405524D02*
X17007572Y-13396000D01*
X17217096Y-13405524D02*
X17198048Y-13396000D01*
X17198048Y-13396000D02*
X17188524Y-13376952D01*
X17188524Y-13376952D02*
X17188524Y-13205524D01*
X17379000Y-13405524D02*
X17379000Y-13300762D01*
X17379000Y-13300762D02*
X17369477Y-13281714D01*
X17369477Y-13281714D02*
X17350429Y-13272190D01*
X17350429Y-13272190D02*
X17312334Y-13272190D01*
X17312334Y-13272190D02*
X17293286Y-13281714D01*
X17379000Y-13396000D02*
X17359953Y-13405524D01*
X17359953Y-13405524D02*
X17312334Y-13405524D01*
X17312334Y-13405524D02*
X17293286Y-13396000D01*
X17293286Y-13396000D02*
X17283762Y-13376952D01*
X17283762Y-13376952D02*
X17283762Y-13357905D01*
X17283762Y-13357905D02*
X17293286Y-13338857D01*
X17293286Y-13338857D02*
X17312334Y-13329333D01*
X17312334Y-13329333D02*
X17359953Y-13329333D01*
X17359953Y-13329333D02*
X17379000Y-13319809D01*
X17445667Y-13272190D02*
X17521858Y-13272190D01*
X17474239Y-13205524D02*
X17474239Y-13376952D01*
X17474239Y-13376952D02*
X17483762Y-13396000D01*
X17483762Y-13396000D02*
X17502810Y-13405524D01*
X17502810Y-13405524D02*
X17521858Y-13405524D01*
X17664715Y-13396000D02*
X17645667Y-13405524D01*
X17645667Y-13405524D02*
X17607572Y-13405524D01*
X17607572Y-13405524D02*
X17588524Y-13396000D01*
X17588524Y-13396000D02*
X17579000Y-13376952D01*
X17579000Y-13376952D02*
X17579000Y-13300762D01*
X17579000Y-13300762D02*
X17588524Y-13281714D01*
X17588524Y-13281714D02*
X17607572Y-13272190D01*
X17607572Y-13272190D02*
X17645667Y-13272190D01*
X17645667Y-13272190D02*
X17664715Y-13281714D01*
X17664715Y-13281714D02*
X17674239Y-13300762D01*
X17674239Y-13300762D02*
X17674239Y-13319809D01*
X17674239Y-13319809D02*
X17579000Y-13338857D01*
X17845667Y-13405524D02*
X17845667Y-13205524D01*
X17845667Y-13396000D02*
X17826620Y-13405524D01*
X17826620Y-13405524D02*
X17788524Y-13405524D01*
X17788524Y-13405524D02*
X17769477Y-13396000D01*
X17769477Y-13396000D02*
X17759953Y-13386476D01*
X17759953Y-13386476D02*
X17750429Y-13367428D01*
X17750429Y-13367428D02*
X17750429Y-13310286D01*
X17750429Y-13310286D02*
X17759953Y-13291238D01*
X17759953Y-13291238D02*
X17769477Y-13281714D01*
X17769477Y-13281714D02*
X17788524Y-13272190D01*
X17788524Y-13272190D02*
X17826620Y-13272190D01*
X17826620Y-13272190D02*
X17845667Y-13281714D01*
X17921858Y-13481714D02*
X17931381Y-13472190D01*
X17931381Y-13472190D02*
X17950429Y-13443619D01*
X17950429Y-13443619D02*
X17959953Y-13424571D01*
X17959953Y-13424571D02*
X17969477Y-13396000D01*
X17969477Y-13396000D02*
X17979000Y-13348381D01*
X17979000Y-13348381D02*
X17979000Y-13310286D01*
X17979000Y-13310286D02*
X17969477Y-13262667D01*
X17969477Y-13262667D02*
X17959953Y-13234095D01*
X17959953Y-13234095D02*
X17950429Y-13215048D01*
X17950429Y-13215048D02*
X17931381Y-13186476D01*
X17931381Y-13186476D02*
X17921858Y-13176952D01*
X11149711Y-13703711D02*
X11149711Y-13562289D01*
X11008289Y-13562289D01*
X11008289Y-13703711D01*
X11149711Y-13703711D01*
X11407571Y-13525524D02*
X11531381Y-13525524D01*
X11531381Y-13525524D02*
X11464714Y-13601714D01*
X11464714Y-13601714D02*
X11493286Y-13601714D01*
X11493286Y-13601714D02*
X11512333Y-13611238D01*
X11512333Y-13611238D02*
X11521857Y-13620762D01*
X11521857Y-13620762D02*
X11531381Y-13639809D01*
X11531381Y-13639809D02*
X11531381Y-13687428D01*
X11531381Y-13687428D02*
X11521857Y-13706476D01*
X11521857Y-13706476D02*
X11512333Y-13716000D01*
X11512333Y-13716000D02*
X11493286Y-13725524D01*
X11493286Y-13725524D02*
X11436143Y-13725524D01*
X11436143Y-13725524D02*
X11417095Y-13716000D01*
X11417095Y-13716000D02*
X11407571Y-13706476D01*
X11617095Y-13706476D02*
X11626619Y-13716000D01*
X11626619Y-13716000D02*
X11617095Y-13725524D01*
X11617095Y-13725524D02*
X11607571Y-13716000D01*
X11607571Y-13716000D02*
X11617095Y-13706476D01*
X11617095Y-13706476D02*
X11617095Y-13725524D01*
X11702809Y-13544571D02*
X11712333Y-13535048D01*
X11712333Y-13535048D02*
X11731381Y-13525524D01*
X11731381Y-13525524D02*
X11779000Y-13525524D01*
X11779000Y-13525524D02*
X11798047Y-13535048D01*
X11798047Y-13535048D02*
X11807571Y-13544571D01*
X11807571Y-13544571D02*
X11817095Y-13563619D01*
X11817095Y-13563619D02*
X11817095Y-13582667D01*
X11817095Y-13582667D02*
X11807571Y-13611238D01*
X11807571Y-13611238D02*
X11693286Y-13725524D01*
X11693286Y-13725524D02*
X11817095Y-13725524D01*
X11940905Y-13525524D02*
X11959952Y-13525524D01*
X11959952Y-13525524D02*
X11979000Y-13535048D01*
X11979000Y-13535048D02*
X11988524Y-13544571D01*
X11988524Y-13544571D02*
X11998047Y-13563619D01*
X11998047Y-13563619D02*
X12007571Y-13601714D01*
X12007571Y-13601714D02*
X12007571Y-13649333D01*
X12007571Y-13649333D02*
X11998047Y-13687428D01*
X11998047Y-13687428D02*
X11988524Y-13706476D01*
X11988524Y-13706476D02*
X11979000Y-13716000D01*
X11979000Y-13716000D02*
X11959952Y-13725524D01*
X11959952Y-13725524D02*
X11940905Y-13725524D01*
X11940905Y-13725524D02*
X11921857Y-13716000D01*
X11921857Y-13716000D02*
X11912333Y-13706476D01*
X11912333Y-13706476D02*
X11902809Y-13687428D01*
X11902809Y-13687428D02*
X11893286Y-13649333D01*
X11893286Y-13649333D02*
X11893286Y-13601714D01*
X11893286Y-13601714D02*
X11902809Y-13563619D01*
X11902809Y-13563619D02*
X11912333Y-13544571D01*
X11912333Y-13544571D02*
X11921857Y-13535048D01*
X11921857Y-13535048D02*
X11940905Y-13525524D01*
X12131381Y-13525524D02*
X12150428Y-13525524D01*
X12150428Y-13525524D02*
X12169476Y-13535048D01*
X12169476Y-13535048D02*
X12179000Y-13544571D01*
X12179000Y-13544571D02*
X12188524Y-13563619D01*
X12188524Y-13563619D02*
X12198047Y-13601714D01*
X12198047Y-13601714D02*
X12198047Y-13649333D01*
X12198047Y-13649333D02*
X12188524Y-13687428D01*
X12188524Y-13687428D02*
X12179000Y-13706476D01*
X12179000Y-13706476D02*
X12169476Y-13716000D01*
X12169476Y-13716000D02*
X12150428Y-13725524D01*
X12150428Y-13725524D02*
X12131381Y-13725524D01*
X12131381Y-13725524D02*
X12112333Y-13716000D01*
X12112333Y-13716000D02*
X12102809Y-13706476D01*
X12102809Y-13706476D02*
X12093286Y-13687428D01*
X12093286Y-13687428D02*
X12083762Y-13649333D01*
X12083762Y-13649333D02*
X12083762Y-13601714D01*
X12083762Y-13601714D02*
X12093286Y-13563619D01*
X12093286Y-13563619D02*
X12102809Y-13544571D01*
X12102809Y-13544571D02*
X12112333Y-13535048D01*
X12112333Y-13535048D02*
X12131381Y-13525524D01*
X12283762Y-13725524D02*
X12283762Y-13592190D01*
X12283762Y-13611238D02*
X12293286Y-13601714D01*
X12293286Y-13601714D02*
X12312333Y-13592190D01*
X12312333Y-13592190D02*
X12340905Y-13592190D01*
X12340905Y-13592190D02*
X12359952Y-13601714D01*
X12359952Y-13601714D02*
X12369476Y-13620762D01*
X12369476Y-13620762D02*
X12369476Y-13725524D01*
X12369476Y-13620762D02*
X12379000Y-13601714D01*
X12379000Y-13601714D02*
X12398047Y-13592190D01*
X12398047Y-13592190D02*
X12426619Y-13592190D01*
X12426619Y-13592190D02*
X12445667Y-13601714D01*
X12445667Y-13601714D02*
X12455190Y-13620762D01*
X12455190Y-13620762D02*
X12455190Y-13725524D01*
X12550428Y-13725524D02*
X12550428Y-13592190D01*
X12550428Y-13611238D02*
X12559952Y-13601714D01*
X12559952Y-13601714D02*
X12579000Y-13592190D01*
X12579000Y-13592190D02*
X12607571Y-13592190D01*
X12607571Y-13592190D02*
X12626619Y-13601714D01*
X12626619Y-13601714D02*
X12636143Y-13620762D01*
X12636143Y-13620762D02*
X12636143Y-13725524D01*
X12636143Y-13620762D02*
X12645667Y-13601714D01*
X12645667Y-13601714D02*
X12664714Y-13592190D01*
X12664714Y-13592190D02*
X12693286Y-13592190D01*
X12693286Y-13592190D02*
X12712333Y-13601714D01*
X12712333Y-13601714D02*
X12721857Y-13620762D01*
X12721857Y-13620762D02*
X12721857Y-13725524D01*
X13112333Y-13516000D02*
X12940905Y-13773143D01*
X13369476Y-13525524D02*
X13388524Y-13525524D01*
X13388524Y-13525524D02*
X13407571Y-13535048D01*
X13407571Y-13535048D02*
X13417095Y-13544571D01*
X13417095Y-13544571D02*
X13426619Y-13563619D01*
X13426619Y-13563619D02*
X13436143Y-13601714D01*
X13436143Y-13601714D02*
X13436143Y-13649333D01*
X13436143Y-13649333D02*
X13426619Y-13687428D01*
X13426619Y-13687428D02*
X13417095Y-13706476D01*
X13417095Y-13706476D02*
X13407571Y-13716000D01*
X13407571Y-13716000D02*
X13388524Y-13725524D01*
X13388524Y-13725524D02*
X13369476Y-13725524D01*
X13369476Y-13725524D02*
X13350429Y-13716000D01*
X13350429Y-13716000D02*
X13340905Y-13706476D01*
X13340905Y-13706476D02*
X13331381Y-13687428D01*
X13331381Y-13687428D02*
X13321857Y-13649333D01*
X13321857Y-13649333D02*
X13321857Y-13601714D01*
X13321857Y-13601714D02*
X13331381Y-13563619D01*
X13331381Y-13563619D02*
X13340905Y-13544571D01*
X13340905Y-13544571D02*
X13350429Y-13535048D01*
X13350429Y-13535048D02*
X13369476Y-13525524D01*
X13521857Y-13706476D02*
X13531381Y-13716000D01*
X13531381Y-13716000D02*
X13521857Y-13725524D01*
X13521857Y-13725524D02*
X13512333Y-13716000D01*
X13512333Y-13716000D02*
X13521857Y-13706476D01*
X13521857Y-13706476D02*
X13521857Y-13725524D01*
X13721857Y-13725524D02*
X13607571Y-13725524D01*
X13664714Y-13725524D02*
X13664714Y-13525524D01*
X13664714Y-13525524D02*
X13645667Y-13554095D01*
X13645667Y-13554095D02*
X13626619Y-13573143D01*
X13626619Y-13573143D02*
X13607571Y-13582667D01*
X13798048Y-13544571D02*
X13807571Y-13535048D01*
X13807571Y-13535048D02*
X13826619Y-13525524D01*
X13826619Y-13525524D02*
X13874238Y-13525524D01*
X13874238Y-13525524D02*
X13893286Y-13535048D01*
X13893286Y-13535048D02*
X13902810Y-13544571D01*
X13902810Y-13544571D02*
X13912333Y-13563619D01*
X13912333Y-13563619D02*
X13912333Y-13582667D01*
X13912333Y-13582667D02*
X13902810Y-13611238D01*
X13902810Y-13611238D02*
X13788524Y-13725524D01*
X13788524Y-13725524D02*
X13912333Y-13725524D01*
X14083762Y-13525524D02*
X14045667Y-13525524D01*
X14045667Y-13525524D02*
X14026619Y-13535048D01*
X14026619Y-13535048D02*
X14017095Y-13544571D01*
X14017095Y-13544571D02*
X13998048Y-13573143D01*
X13998048Y-13573143D02*
X13988524Y-13611238D01*
X13988524Y-13611238D02*
X13988524Y-13687428D01*
X13988524Y-13687428D02*
X13998048Y-13706476D01*
X13998048Y-13706476D02*
X14007571Y-13716000D01*
X14007571Y-13716000D02*
X14026619Y-13725524D01*
X14026619Y-13725524D02*
X14064714Y-13725524D01*
X14064714Y-13725524D02*
X14083762Y-13716000D01*
X14083762Y-13716000D02*
X14093286Y-13706476D01*
X14093286Y-13706476D02*
X14102810Y-13687428D01*
X14102810Y-13687428D02*
X14102810Y-13639809D01*
X14102810Y-13639809D02*
X14093286Y-13620762D01*
X14093286Y-13620762D02*
X14083762Y-13611238D01*
X14083762Y-13611238D02*
X14064714Y-13601714D01*
X14064714Y-13601714D02*
X14026619Y-13601714D01*
X14026619Y-13601714D02*
X14007571Y-13611238D01*
X14007571Y-13611238D02*
X13998048Y-13620762D01*
X13998048Y-13620762D02*
X13988524Y-13639809D01*
X14226619Y-13525524D02*
X14245667Y-13525524D01*
X14245667Y-13525524D02*
X14264714Y-13535048D01*
X14264714Y-13535048D02*
X14274238Y-13544571D01*
X14274238Y-13544571D02*
X14283762Y-13563619D01*
X14283762Y-13563619D02*
X14293286Y-13601714D01*
X14293286Y-13601714D02*
X14293286Y-13649333D01*
X14293286Y-13649333D02*
X14283762Y-13687428D01*
X14283762Y-13687428D02*
X14274238Y-13706476D01*
X14274238Y-13706476D02*
X14264714Y-13716000D01*
X14264714Y-13716000D02*
X14245667Y-13725524D01*
X14245667Y-13725524D02*
X14226619Y-13725524D01*
X14226619Y-13725524D02*
X14207571Y-13716000D01*
X14207571Y-13716000D02*
X14198048Y-13706476D01*
X14198048Y-13706476D02*
X14188524Y-13687428D01*
X14188524Y-13687428D02*
X14179000Y-13649333D01*
X14179000Y-13649333D02*
X14179000Y-13601714D01*
X14179000Y-13601714D02*
X14188524Y-13563619D01*
X14188524Y-13563619D02*
X14198048Y-13544571D01*
X14198048Y-13544571D02*
X14207571Y-13535048D01*
X14207571Y-13535048D02*
X14226619Y-13525524D01*
X14369476Y-13525524D02*
X14369476Y-13563619D01*
X14445667Y-13525524D02*
X14445667Y-13563619D01*
X14740905Y-13801714D02*
X14731381Y-13792190D01*
X14731381Y-13792190D02*
X14712333Y-13763619D01*
X14712333Y-13763619D02*
X14702810Y-13744571D01*
X14702810Y-13744571D02*
X14693286Y-13716000D01*
X14693286Y-13716000D02*
X14683762Y-13668381D01*
X14683762Y-13668381D02*
X14683762Y-13630286D01*
X14683762Y-13630286D02*
X14693286Y-13582667D01*
X14693286Y-13582667D02*
X14702810Y-13554095D01*
X14702810Y-13554095D02*
X14712333Y-13535048D01*
X14712333Y-13535048D02*
X14731381Y-13506476D01*
X14731381Y-13506476D02*
X14740905Y-13496952D01*
X14902810Y-13592190D02*
X14902810Y-13725524D01*
X14855191Y-13516000D02*
X14807572Y-13658857D01*
X14807572Y-13658857D02*
X14931381Y-13658857D01*
X15159953Y-13725524D02*
X15159953Y-13525524D01*
X15245667Y-13725524D02*
X15245667Y-13620762D01*
X15245667Y-13620762D02*
X15236143Y-13601714D01*
X15236143Y-13601714D02*
X15217095Y-13592190D01*
X15217095Y-13592190D02*
X15188524Y-13592190D01*
X15188524Y-13592190D02*
X15169476Y-13601714D01*
X15169476Y-13601714D02*
X15159953Y-13611238D01*
X15369476Y-13725524D02*
X15350429Y-13716000D01*
X15350429Y-13716000D02*
X15340905Y-13706476D01*
X15340905Y-13706476D02*
X15331381Y-13687428D01*
X15331381Y-13687428D02*
X15331381Y-13630286D01*
X15331381Y-13630286D02*
X15340905Y-13611238D01*
X15340905Y-13611238D02*
X15350429Y-13601714D01*
X15350429Y-13601714D02*
X15369476Y-13592190D01*
X15369476Y-13592190D02*
X15398048Y-13592190D01*
X15398048Y-13592190D02*
X15417095Y-13601714D01*
X15417095Y-13601714D02*
X15426619Y-13611238D01*
X15426619Y-13611238D02*
X15436143Y-13630286D01*
X15436143Y-13630286D02*
X15436143Y-13687428D01*
X15436143Y-13687428D02*
X15426619Y-13706476D01*
X15426619Y-13706476D02*
X15417095Y-13716000D01*
X15417095Y-13716000D02*
X15398048Y-13725524D01*
X15398048Y-13725524D02*
X15369476Y-13725524D01*
X15550429Y-13725524D02*
X15531381Y-13716000D01*
X15531381Y-13716000D02*
X15521857Y-13696952D01*
X15521857Y-13696952D02*
X15521857Y-13525524D01*
X15702810Y-13716000D02*
X15683762Y-13725524D01*
X15683762Y-13725524D02*
X15645667Y-13725524D01*
X15645667Y-13725524D02*
X15626619Y-13716000D01*
X15626619Y-13716000D02*
X15617095Y-13696952D01*
X15617095Y-13696952D02*
X15617095Y-13620762D01*
X15617095Y-13620762D02*
X15626619Y-13601714D01*
X15626619Y-13601714D02*
X15645667Y-13592190D01*
X15645667Y-13592190D02*
X15683762Y-13592190D01*
X15683762Y-13592190D02*
X15702810Y-13601714D01*
X15702810Y-13601714D02*
X15712334Y-13620762D01*
X15712334Y-13620762D02*
X15712334Y-13639809D01*
X15712334Y-13639809D02*
X15617095Y-13658857D01*
X15788524Y-13716000D02*
X15807572Y-13725524D01*
X15807572Y-13725524D02*
X15845667Y-13725524D01*
X15845667Y-13725524D02*
X15864715Y-13716000D01*
X15864715Y-13716000D02*
X15874238Y-13696952D01*
X15874238Y-13696952D02*
X15874238Y-13687428D01*
X15874238Y-13687428D02*
X15864715Y-13668381D01*
X15864715Y-13668381D02*
X15845667Y-13658857D01*
X15845667Y-13658857D02*
X15817095Y-13658857D01*
X15817095Y-13658857D02*
X15798048Y-13649333D01*
X15798048Y-13649333D02*
X15788524Y-13630286D01*
X15788524Y-13630286D02*
X15788524Y-13620762D01*
X15788524Y-13620762D02*
X15798048Y-13601714D01*
X15798048Y-13601714D02*
X15817095Y-13592190D01*
X15817095Y-13592190D02*
X15845667Y-13592190D01*
X15845667Y-13592190D02*
X15864715Y-13601714D01*
X15940905Y-13801714D02*
X15950429Y-13792190D01*
X15950429Y-13792190D02*
X15969476Y-13763619D01*
X15969476Y-13763619D02*
X15979000Y-13744571D01*
X15979000Y-13744571D02*
X15988524Y-13716000D01*
X15988524Y-13716000D02*
X15998048Y-13668381D01*
X15998048Y-13668381D02*
X15998048Y-13630286D01*
X15998048Y-13630286D02*
X15988524Y-13582667D01*
X15988524Y-13582667D02*
X15979000Y-13554095D01*
X15979000Y-13554095D02*
X15969476Y-13535048D01*
X15969476Y-13535048D02*
X15950429Y-13506476D01*
X15950429Y-13506476D02*
X15940905Y-13496952D01*
X16302810Y-13801714D02*
X16293286Y-13792190D01*
X16293286Y-13792190D02*
X16274238Y-13763619D01*
X16274238Y-13763619D02*
X16264715Y-13744571D01*
X16264715Y-13744571D02*
X16255191Y-13716000D01*
X16255191Y-13716000D02*
X16245667Y-13668381D01*
X16245667Y-13668381D02*
X16245667Y-13630286D01*
X16245667Y-13630286D02*
X16255191Y-13582667D01*
X16255191Y-13582667D02*
X16264715Y-13554095D01*
X16264715Y-13554095D02*
X16274238Y-13535048D01*
X16274238Y-13535048D02*
X16293286Y-13506476D01*
X16293286Y-13506476D02*
X16302810Y-13496952D01*
X16379000Y-13592190D02*
X16379000Y-13725524D01*
X16379000Y-13611238D02*
X16388524Y-13601714D01*
X16388524Y-13601714D02*
X16407572Y-13592190D01*
X16407572Y-13592190D02*
X16436143Y-13592190D01*
X16436143Y-13592190D02*
X16455191Y-13601714D01*
X16455191Y-13601714D02*
X16464715Y-13620762D01*
X16464715Y-13620762D02*
X16464715Y-13725524D01*
X16588524Y-13725524D02*
X16569476Y-13716000D01*
X16569476Y-13716000D02*
X16559953Y-13706476D01*
X16559953Y-13706476D02*
X16550429Y-13687428D01*
X16550429Y-13687428D02*
X16550429Y-13630286D01*
X16550429Y-13630286D02*
X16559953Y-13611238D01*
X16559953Y-13611238D02*
X16569476Y-13601714D01*
X16569476Y-13601714D02*
X16588524Y-13592190D01*
X16588524Y-13592190D02*
X16617096Y-13592190D01*
X16617096Y-13592190D02*
X16636143Y-13601714D01*
X16636143Y-13601714D02*
X16645667Y-13611238D01*
X16645667Y-13611238D02*
X16655191Y-13630286D01*
X16655191Y-13630286D02*
X16655191Y-13687428D01*
X16655191Y-13687428D02*
X16645667Y-13706476D01*
X16645667Y-13706476D02*
X16636143Y-13716000D01*
X16636143Y-13716000D02*
X16617096Y-13725524D01*
X16617096Y-13725524D02*
X16588524Y-13725524D01*
X16712334Y-13592190D02*
X16788524Y-13592190D01*
X16740905Y-13525524D02*
X16740905Y-13696952D01*
X16740905Y-13696952D02*
X16750429Y-13716000D01*
X16750429Y-13716000D02*
X16769476Y-13725524D01*
X16769476Y-13725524D02*
X16788524Y-13725524D01*
X17007572Y-13592190D02*
X17007572Y-13792190D01*
X17007572Y-13601714D02*
X17026619Y-13592190D01*
X17026619Y-13592190D02*
X17064715Y-13592190D01*
X17064715Y-13592190D02*
X17083762Y-13601714D01*
X17083762Y-13601714D02*
X17093286Y-13611238D01*
X17093286Y-13611238D02*
X17102810Y-13630286D01*
X17102810Y-13630286D02*
X17102810Y-13687428D01*
X17102810Y-13687428D02*
X17093286Y-13706476D01*
X17093286Y-13706476D02*
X17083762Y-13716000D01*
X17083762Y-13716000D02*
X17064715Y-13725524D01*
X17064715Y-13725524D02*
X17026619Y-13725524D01*
X17026619Y-13725524D02*
X17007572Y-13716000D01*
X17217096Y-13725524D02*
X17198048Y-13716000D01*
X17198048Y-13716000D02*
X17188524Y-13696952D01*
X17188524Y-13696952D02*
X17188524Y-13525524D01*
X17379000Y-13725524D02*
X17379000Y-13620762D01*
X17379000Y-13620762D02*
X17369477Y-13601714D01*
X17369477Y-13601714D02*
X17350429Y-13592190D01*
X17350429Y-13592190D02*
X17312334Y-13592190D01*
X17312334Y-13592190D02*
X17293286Y-13601714D01*
X17379000Y-13716000D02*
X17359953Y-13725524D01*
X17359953Y-13725524D02*
X17312334Y-13725524D01*
X17312334Y-13725524D02*
X17293286Y-13716000D01*
X17293286Y-13716000D02*
X17283762Y-13696952D01*
X17283762Y-13696952D02*
X17283762Y-13677905D01*
X17283762Y-13677905D02*
X17293286Y-13658857D01*
X17293286Y-13658857D02*
X17312334Y-13649333D01*
X17312334Y-13649333D02*
X17359953Y-13649333D01*
X17359953Y-13649333D02*
X17379000Y-13639809D01*
X17445667Y-13592190D02*
X17521858Y-13592190D01*
X17474239Y-13525524D02*
X17474239Y-13696952D01*
X17474239Y-13696952D02*
X17483762Y-13716000D01*
X17483762Y-13716000D02*
X17502810Y-13725524D01*
X17502810Y-13725524D02*
X17521858Y-13725524D01*
X17664715Y-13716000D02*
X17645667Y-13725524D01*
X17645667Y-13725524D02*
X17607572Y-13725524D01*
X17607572Y-13725524D02*
X17588524Y-13716000D01*
X17588524Y-13716000D02*
X17579000Y-13696952D01*
X17579000Y-13696952D02*
X17579000Y-13620762D01*
X17579000Y-13620762D02*
X17588524Y-13601714D01*
X17588524Y-13601714D02*
X17607572Y-13592190D01*
X17607572Y-13592190D02*
X17645667Y-13592190D01*
X17645667Y-13592190D02*
X17664715Y-13601714D01*
X17664715Y-13601714D02*
X17674239Y-13620762D01*
X17674239Y-13620762D02*
X17674239Y-13639809D01*
X17674239Y-13639809D02*
X17579000Y-13658857D01*
X17845667Y-13725524D02*
X17845667Y-13525524D01*
X17845667Y-13716000D02*
X17826620Y-13725524D01*
X17826620Y-13725524D02*
X17788524Y-13725524D01*
X17788524Y-13725524D02*
X17769477Y-13716000D01*
X17769477Y-13716000D02*
X17759953Y-13706476D01*
X17759953Y-13706476D02*
X17750429Y-13687428D01*
X17750429Y-13687428D02*
X17750429Y-13630286D01*
X17750429Y-13630286D02*
X17759953Y-13611238D01*
X17759953Y-13611238D02*
X17769477Y-13601714D01*
X17769477Y-13601714D02*
X17788524Y-13592190D01*
X17788524Y-13592190D02*
X17826620Y-13592190D01*
X17826620Y-13592190D02*
X17845667Y-13601714D01*
X17921858Y-13801714D02*
X17931381Y-13792190D01*
X17931381Y-13792190D02*
X17950429Y-13763619D01*
X17950429Y-13763619D02*
X17959953Y-13744571D01*
X17959953Y-13744571D02*
X17969477Y-13716000D01*
X17969477Y-13716000D02*
X17979000Y-13668381D01*
X17979000Y-13668381D02*
X17979000Y-13630286D01*
X17979000Y-13630286D02*
X17969477Y-13582667D01*
X17969477Y-13582667D02*
X17959953Y-13554095D01*
X17959953Y-13554095D02*
X17950429Y-13535048D01*
X17950429Y-13535048D02*
X17931381Y-13506476D01*
X17931381Y-13506476D02*
X17921858Y-13496952D01*
M02*
