%TF.GenerationSoftware,KiCad,Pcbnew,7.0.1*%
%TF.CreationDate,2023-03-18T00:09:11+00:00*%
%TF.ProjectId,ImogenWren,496d6f67-656e-4577-9265-6e2e6b696361,rev?*%
%TF.SameCoordinates,Original*%
%TF.FileFunction,Copper,L3,Inr*%
%TF.FilePolarity,Positive*%
%FSLAX46Y46*%
G04 Gerber Fmt 4.6, Leading zero omitted, Abs format (unit mm)*
G04 Created by KiCad (PCBNEW 7.0.1) date 2023-03-18 00:09:11*
%MOMM*%
%LPD*%
G01*
G04 APERTURE LIST*
%TA.AperFunction,ComponentPad*%
%ADD10O,2.100000X1.100000*%
%TD*%
%TA.AperFunction,ComponentPad*%
%ADD11O,2.600000X1.100000*%
%TD*%
%TA.AperFunction,HeatsinkPad*%
%ADD12C,0.600000*%
%TD*%
%TA.AperFunction,ViaPad*%
%ADD13C,0.800000*%
%TD*%
G04 APERTURE END LIST*
D10*
%TO.N,GND*%
%TO.C,J8*%
X119100000Y-87740000D03*
D11*
X113740000Y-87740000D03*
D10*
X119100000Y-79100000D03*
D11*
X113740000Y-79100000D03*
%TD*%
D12*
%TO.N,GND*%
%TO.C,U3*%
X181232500Y-96605000D03*
X182757500Y-96605000D03*
X180470000Y-95842500D03*
X181995000Y-95842500D03*
X183520000Y-95842500D03*
X181232500Y-95080000D03*
X182757500Y-95080000D03*
X180470000Y-94317500D03*
X181995000Y-94317500D03*
X183520000Y-94317500D03*
X181232500Y-93555000D03*
X182757500Y-93555000D03*
%TD*%
D13*
%TO.N,/BATTERY_POWER_BUS*%
X135730025Y-104149500D03*
X161900000Y-68465002D03*
X136600000Y-68800000D03*
X140900000Y-81700000D03*
X130800000Y-108100000D03*
X182500000Y-73000000D03*
%TO.N,GND*%
X165100000Y-78100000D03*
X128200000Y-114500000D03*
X146200000Y-96900000D03*
X156900000Y-100014998D03*
X145814000Y-108586000D03*
X189000000Y-77000000D03*
X121000000Y-114800000D03*
X133900000Y-98400000D03*
X183800000Y-90400000D03*
X120200000Y-74700000D03*
X152558502Y-106150500D03*
X149596972Y-81900000D03*
X138966000Y-107500000D03*
X155353749Y-86653749D03*
X137587000Y-70599500D03*
X136900000Y-81900000D03*
X166000000Y-99100000D03*
X148600000Y-98600000D03*
X137637000Y-73400000D03*
X131500000Y-89402515D03*
X157704250Y-92704250D03*
X133700000Y-77700000D03*
X147500000Y-72700000D03*
X128501681Y-96901681D03*
X186700000Y-75800000D03*
X113675000Y-92075000D03*
X160200000Y-109600000D03*
X114250001Y-102750002D03*
X142315000Y-81285000D03*
X123100000Y-74600000D03*
X118999998Y-119099999D03*
X173200000Y-98100000D03*
X162180669Y-72871597D03*
X131700000Y-120730000D03*
%TO.N,/ESP32/3V3_BUS*%
X163450000Y-112800000D03*
X182000000Y-81900000D03*
X186500000Y-106200000D03*
X183500000Y-111700000D03*
%TO.N,/ESP32/USB ESP32 CH340 Interface /ESP_EN*%
X185900000Y-101100000D03*
X166900000Y-104500000D03*
X178000000Y-81900000D03*
X179849500Y-100900000D03*
%TO.N,/USB_POWER*%
X125600000Y-118400000D03*
X125400000Y-103500000D03*
%TO.N,/USB/D-*%
X122200000Y-83100000D03*
X117250171Y-83410173D03*
X120500000Y-82900000D03*
%TO.N,/WS2812b LEDs/5V_IN*%
X157600000Y-86500000D03*
X160700000Y-88500000D03*
%TO.N,Net-(U3-SDI{slash}SD1)*%
X169670611Y-73099957D03*
X173170038Y-88949622D03*
%TO.N,Net-(U3-SDO{slash}SD0)*%
X170670112Y-73101429D03*
X173920444Y-89609846D03*
%TO.N,Net-(U3-SCK{slash}CLK)*%
X174631704Y-90312068D03*
X171669608Y-73097652D03*
%TO.N,Net-(U3-SCS{slash}CMD)*%
X175385958Y-90967893D03*
X172697055Y-73049500D03*
%TO.N,Net-(U3-SWP{slash}SD3)*%
X176001494Y-91755371D03*
X173693230Y-73130989D03*
%TO.N,Net-(U3-SHD{slash}SD2)*%
X174736243Y-73114048D03*
X177000000Y-91000000D03*
%TO.N,Net-(U3-GPIO4(T0))*%
X181100000Y-113200000D03*
X179600000Y-99000000D03*
%TO.N,Net-(U3-GPIO2(T2))*%
X169200000Y-108649500D03*
X175300000Y-110900000D03*
%TO.N,Net-(U3-GPIO33(T8))*%
X172478781Y-111338736D03*
X169960454Y-111894948D03*
%TO.N,Net-(U3-GPIO32(T9))*%
X168200000Y-113600000D03*
X173900000Y-112900000D03*
%TO.N,/BATTERY_POWER*%
X123200000Y-111400000D03*
X122103750Y-107496250D03*
%TO.N,Net-(Q1-B)*%
X168921611Y-81663607D03*
X169320759Y-85100850D03*
%TO.N,Net-(Q1-E)*%
X168029358Y-88934650D03*
X164650500Y-81471137D03*
%TO.N,SCL*%
X185800000Y-83700000D03*
X181961500Y-80100000D03*
%TO.N,SDA*%
X182562815Y-84322769D03*
X181900000Y-78800000D03*
%TO.N,/CHARGE_STATUS*%
X123699000Y-117337401D03*
X179849500Y-106500000D03*
%TO.N,18*%
X186289976Y-73001427D03*
X179175000Y-84100000D03*
%TO.N,Net-(D2-K)*%
X169800000Y-87700000D03*
X161400000Y-80200000D03*
%TO.N,/ESP32/SSERIAL_TX*%
X187496217Y-110095374D03*
X183900000Y-112800000D03*
%TO.N,/ESP32/SSERIAL_RX*%
X188129008Y-110869054D03*
X185900000Y-111900000D03*
%TO.N,19*%
X180445000Y-84200000D03*
X187279500Y-72860546D03*
%TO.N,Net-(WLED1-DOUT)*%
X160600000Y-89700000D03*
X164100000Y-94100000D03*
%TO.N,Net-(JP3-C)*%
X138800000Y-102800000D03*
X124400500Y-102905804D03*
%TO.N,Net-(D3-K)*%
X169756578Y-86596623D03*
X161900000Y-71100000D03*
X165400000Y-79700000D03*
%TD*%
M02*
