M48
; DRILL file {KiCad 7.0.1} date Sat Mar 18 00:09:34 2023
; FORMAT={-:-/ absolute / metric / decimal}
; #@! TF.CreationDate,2023-03-18T00:09:34+00:00
; #@! TF.GenerationSoftware,Kicad,Pcbnew,7.0.1
; #@! TF.FileFunction,Plated,1,4,PTH
FMAT,2
METRIC
; #@! TA.AperFunction,Plated,PTH,ComponentDrill
T1C0.200
; #@! TA.AperFunction,Plated,PTH,ViaDrill
T2C0.400
; #@! TA.AperFunction,Plated,PTH,ComponentDrill
T3C0.600
%
G90
G05
T1
X180.47Y-94.317
X180.47Y-95.843
X181.232Y-93.555
X181.232Y-95.08
X181.232Y-96.605
X181.995Y-94.317
X181.995Y-95.843
X182.757Y-93.555
X182.757Y-95.08
X182.757Y-96.605
X183.52Y-94.317
X183.52Y-95.843
T2
X113.675Y-92.075
X114.25Y-102.75
X117.25Y-83.41
X119.0Y-119.1
X120.2Y-74.7
X120.5Y-82.9
X121.0Y-114.8
X122.104Y-107.496
X122.2Y-83.1
X123.1Y-74.6
X123.2Y-111.4
X123.699Y-117.337
X124.4Y-102.906
X125.4Y-103.5
X125.6Y-118.4
X128.2Y-114.5
X128.502Y-96.902
X130.8Y-108.1
X131.5Y-89.403
X131.7Y-120.73
X133.7Y-77.7
X133.9Y-98.4
X135.73Y-104.149
X136.6Y-68.8
X136.9Y-81.9
X137.587Y-70.599
X137.637Y-73.4
X138.8Y-102.8
X138.966Y-107.5
X140.9Y-81.7
X142.315Y-81.285
X145.814Y-108.586
X146.2Y-96.9
X147.5Y-72.7
X148.6Y-98.6
X149.597Y-81.9
X152.559Y-106.15
X155.354Y-86.654
X156.9Y-100.015
X157.6Y-86.5
X157.704Y-92.704
X160.2Y-109.6
X160.6Y-89.7
X160.7Y-88.5
X161.4Y-80.2
X161.9Y-68.465
X161.9Y-71.1
X162.181Y-72.872
X163.45Y-112.8
X164.1Y-94.1
X164.65Y-81.471
X165.1Y-78.1
X165.4Y-79.7
X166.0Y-99.1
X166.9Y-104.5
X168.029Y-88.935
X168.2Y-113.6
X168.922Y-81.664
X169.2Y-108.649
X169.321Y-85.101
X169.671Y-73.1
X169.757Y-86.597
X169.8Y-87.7
X169.96Y-111.895
X170.67Y-73.101
X171.67Y-73.098
X172.479Y-111.339
X172.697Y-73.049
X173.17Y-88.95
X173.2Y-98.1
X173.693Y-73.131
X173.9Y-112.9
X173.92Y-89.61
X174.632Y-90.312
X174.736Y-73.114
X175.3Y-110.9
X175.386Y-90.968
X176.001Y-91.755
X177.0Y-91.0
X178.0Y-81.9
X179.175Y-84.1
X179.6Y-99.0
X179.849Y-100.9
X179.849Y-106.5
X180.445Y-84.2
X181.1Y-113.2
X181.9Y-78.8
X181.962Y-80.1
X182.0Y-81.9
X182.5Y-73.0
X182.563Y-84.323
X183.5Y-111.7
X183.8Y-90.4
X183.9Y-112.8
X185.8Y-83.7
X185.9Y-101.1
X185.9Y-111.9
X186.29Y-73.001
X186.5Y-106.2
X186.7Y-75.8
X187.279Y-72.861
X187.496Y-110.095
X188.129Y-110.869
X189.0Y-77.0
T3
G00X112.99Y-79.1
M15
G01X114.49Y-79.1
M16
G05
G00X112.99Y-87.74
M15
G01X114.49Y-87.74
M16
G05
G00X118.6Y-79.1
M15
G01X119.6Y-79.1
M16
G05
G00X118.6Y-87.74
M15
G01X119.6Y-87.74
M16
G05
T0
M30
